<!-- icon666.com - MILLIONS vector ICONS FREE --><svg viewBox="-58 0 512 512" xmlns="http://www.w3.org/2000/svg"><path d="m53.636719 188.636719c0-76.679688 62.164062-138.839844 138.84375-138.839844h11.039062c76.679688 0 138.84375 62.160156 138.84375 138.839844l43.636719-.203125v-.433594c0-98.308594-79.691406-178-178-178h-20c-98.308594 0-178 79.691406-178 178v.433594zm0 0" fill="#ffc66c"></path><path d="m342.363281 210.046875c-22.101562 38.320313-62.976562 61.929687-107.210937 61.929687h-74.304688c-44.234375 0-85.109375-23.609374-107.210937-61.929687h-43.636719v203c0 49.128906 39.824219 88.953125 88.953125 88.953125h198.09375c49.128906 0 88.953125-39.824219 88.953125-88.953125v-203zm0 0" fill="#ffc66c"></path><path d="m198.140625 443.871094c-25.863281 13.597656-56.09375-8.363282-51.152344-37.164063-20.925781-20.394531-9.378906-55.933593 19.539063-60.132812 12.929687-26.203125 50.296875-26.203125 63.226562 0 28.917969 4.199219 40.464844 39.738281 19.539063 60.132812 4.941406 28.800781-25.289063 50.761719-51.152344 37.164063zm0 0" fill="#ff5d5d"></path><g fill="#fff"><path d="m217.800781 389.367188c0 10.855468-8.804687 19.660156-19.660156 19.660156-10.859375 0-19.660156-8.804688-19.660156-19.660156 0-10.859376 8.800781-19.660157 19.660156-19.660157 10.855469 0 19.660156 8.800781 19.660156 19.660157zm0 0"></path><path d="m31.820312 166.816406c12.046876 0 21.816407 9.769532 21.816407 21.820313v21.410156h-43.636719v-21.410156c0-12.050781 9.769531-21.820313 21.820312-21.820313zm0 0"></path><path d="m364.179688 166.816406c12.050781 0 21.820312 9.769532 21.820312 21.820313v21.410156h-43.636719v-21.410156c0-12.050781 9.769531-21.820313 21.816407-21.820313zm0 0"></path></g><path d="m10 336.160156c2.628906 0 5.210938-1.070312 7.070312-2.929687 1.859376-1.859375 2.929688-4.441407 2.929688-7.070313s-1.070312-5.210937-2.929688-7.070312c-1.859374-1.859375-4.441406-2.929688-7.070312-2.929688s-5.210938 1.070313-7.070312 2.929688c-1.859376 1.859375-2.929688 4.441406-2.929688 7.070312s1.070312 5.210938 2.929688 7.070313c1.859374 1.859375 4.441406 2.929687 7.070312 2.929687zm0 0"></path><path d="m198.140625 359.707031c-16.355469 0-29.660156 13.304688-29.660156 29.660157 0 16.351562 13.304687 29.660156 29.660156 29.660156s29.660156-13.308594 29.660156-29.660156c0-16.355469-13.304687-29.660157-29.660156-29.660157zm0 39.320313c-5.328125 0-9.660156-4.335938-9.660156-9.660156 0-5.328126 4.332031-9.660157 9.660156-9.660157s9.660156 4.332031 9.660156 9.660157c0 5.324218-4.332031 9.660156-9.660156 9.660156zm0 0"></path><path d="m267.726562 367.476562c-4.832031-14.863281-16.667968-25.914062-31.519531-29.785156-8.269531-12.929687-22.4375-20.769531-38.066406-20.769531s-29.796875 7.839844-38.066406 20.769531c-14.851563 3.871094-26.6875 14.921875-31.519531 29.785156-4.828126 14.863282-1.75 30.761719 7.992187 42.625-.910156 15.320313 5.941406 29.992188 18.585937 39.175782 12.644532 9.191406 28.71875 11.171875 43.007813 5.574218 5.324219 2.085938 10.894531 3.121094 16.449219 3.121094 9.34375-.003906 18.625-2.929687 26.558594-8.695312 12.640624-9.183594 19.496093-23.855469 18.585937-39.175782 9.738281-11.863281 12.820313-27.761718 7.992187-42.625zm-25.414062 32.070313c-2.355469 2.296875-3.433594 5.605469-2.875 8.851563 1.660156 9.6875-2.09375 18.921874-10.046875 24.699218s-17.894531 6.5-26.597656 1.921875c-1.457031-.765625-3.054688-1.148437-4.652344-1.148437-1.601563 0-3.199219.386718-4.65625 1.148437-8.699219 4.578125-18.640625 3.859375-26.59375-1.921875-7.953125-5.777344-11.710937-15.011718-10.046875-24.699218.554688-3.246094-.519531-6.554688-2.878906-8.851563-7.039063-6.863281-9.429688-16.539063-6.390625-25.890625 3.039062-9.347656 10.660156-15.773438 20.386719-17.1875 3.257812-.472656 6.074218-2.519531 7.53125-5.472656 4.351562-8.8125 12.816406-14.074219 22.644531-14.074219 9.832031 0 18.296875 5.261719 22.648437 14.074219 1.457032 2.953125 4.273438 5 7.527344 5.472656 9.730469 1.414062 17.351562 7.839844 20.386719 17.1875 3.042969 9.351562.652343 19.027344-6.386719 25.890625zm0 0"></path><path d="m396 188c0-103.664062-84.335938-188-188-188h-20c-103.664062 0-188 84.335938-188 188v.433594c0 .019531.00390625.042968.00390625.066406 0 .046875-.00390625.09375-.00390625.136719v97.523437c0 5.523438 4.476562 10 10 10s10-4.476562 10-10v-66.113281h28.011719c24.425781 38.347656 67.132812 61.929687 112.835937 61.929687h74.304688c45.707031 0 88.410156-23.582031 112.835937-61.929687h28.011719v193c0 43.535156-35.417969 78.953125-78.953125 78.953125h-198.09375c-43.535156 0-78.953125-35.417969-78.953125-78.953125v-46.886719c0-5.519531-4.476562-10-10-10s-10 4.480469-10 10v46.886719c0 54.5625 44.390625 98.953125 98.953125 98.953125h198.09375c54.5625 0 98.953125-44.390625 98.953125-98.953125v-224.410156c0-.046875-.003906-.089844-.003906-.136719 0-.023438.003906-.042969.003906-.066406zm-208-168h20c82.457031 0 151.230469 59.714844 165.347656 138.167969-2.90625-.875-5.980468-1.351563-9.167968-1.351563-5.230469 0-10.167969 1.277344-14.527344 3.527344-13.253906-68.585938-73.734375-120.546875-146.132813-120.546875h-11.039062c-72.398438 0-132.878907 51.960937-146.132813 120.546875-4.359375-2.246094-9.296875-3.527344-14.527344-3.527344-3.1875 0-6.261718.476563-9.167968 1.355469 14.117187-78.457031 82.890625-138.171875 165.347656-138.171875zm-168 180.046875v-11.410156c0-6.519531 5.300781-11.820313 11.820312-11.820313 6.515626 0 11.816407 5.304688 11.816407 11.820313v11.410156zm215.152344 61.929687h-74.304688c-39.664062 0-76.664062-20.894531-97.210937-54.695312v-18.644531c0-71.042969 57.800781-128.839844 128.84375-128.839844h11.039062c71.042969 0 128.84375 57.796875 128.84375 128.839844v18.644531c-20.546875 33.800781-57.546875 54.695312-97.210937 54.695312zm117.210937-61.929687v-11.410156c0-6.519531 5.300781-11.820313 11.816407-11.820313 6.519531 0 11.820312 5.300782 11.820312 11.820313v11.410156zm0 0"></path><path d="m57.730469 316.160156c-5.523438 0-10 4.480469-10 10 0 5.523438 4.476562 10 10 10h9.015625c5.523437 0 10-4.476562 10-10 0-5.519531-4.476563-10-10-10zm0 0"></path><path d="m108.269531 316.160156h-9.015625c-5.523437 0-10 4.480469-10 10 0 5.523438 4.476563 10 10 10h9.015625c5.523438 0 10-4.476562 10-10 0-5.519531-4.476562-10-10-10zm0 0"></path><path d="m83 361.433594c5.523438 0 10-4.476563 10-10v-9.015625c0-5.523438-4.476562-10-10-10s-10 4.476562-10 10v9.015625c0 5.523437 4.476562 10 10 10zm0 0"></path><path d="m83 290.890625c-5.523438 0-10 4.476563-10 10v9.015625c0 5.523438 4.476562 10 10 10s10-4.476562 10-10v-9.015625c0-5.523437-4.476562-10-10-10zm0 0"></path><path d="m57.730469 447.085938h9.015625c5.523437 0 10-4.476563 10-10 0-5.523438-4.476563-10-10-10h-9.015625c-5.523438 0-10 4.476562-10 10 0 5.523437 4.476562 10 10 10zm0 0"></path><path d="m108.269531 447.085938c5.523438 0 10-4.476563 10-10 0-5.523438-4.476562-10-10-10h-9.015625c-5.523437 0-10 4.476562-10 10 0 5.523437 4.476563 10 10 10zm0 0"></path><path d="m73 453.339844v9.015625c0 5.523437 4.476562 10 10 10s10-4.476563 10-10v-9.015625c0-5.519532-4.476562-10-10-10s-10 4.476562-10 10zm0 0"></path><path d="m73 420.828125c0 5.523437 4.476562 10 10 10s10-4.476563 10-10v-9.015625c0-5.519531-4.476562-10-10-10s-10 4.480469-10 10zm0 0"></path><path d="m338.269531 316.160156h-9.015625c-5.523437 0-10 4.480469-10 10 0 5.523438 4.476563 10 10 10h9.015625c5.523438 0 10-4.476562 10-10 0-5.519531-4.476562-10-10-10zm0 0"></path><path d="m287.730469 316.160156c-5.523438 0-10 4.480469-10 10 0 5.523438 4.476562 10 10 10h9.015625c5.523437 0 10-4.476562 10-10 0-5.519531-4.476563-10-10-10zm0 0"></path><path d="m313 361.433594c5.523438 0 10-4.476563 10-10v-9.015625c0-5.523438-4.476562-10-10-10s-10 4.476562-10 10v9.015625c0 5.523437 4.476562 10 10 10zm0 0"></path><path d="m313 290.890625c-5.523438 0-10 4.476563-10 10v9.015625c0 5.523438 4.476562 10 10 10s10-4.476562 10-10v-9.015625c0-5.523437-4.476562-10-10-10zm0 0"></path><path d="m338.269531 447.085938c5.523438 0 10-4.476563 10-10 0-5.523438-4.476562-10-10-10h-9.015625c-5.523437 0-10 4.476562-10 10 0 5.523437 4.476563 10 10 10zm0 0"></path><path d="m287.730469 447.085938h9.015625c5.523437 0 10-4.476563 10-10 0-5.523438-4.476563-10-10-10h-9.015625c-5.523438 0-10 4.476562-10 10 0 5.523437 4.476562 10 10 10zm0 0"></path><path d="m303 453.339844v9.015625c0 5.523437 4.476562 10 10 10s10-4.476563 10-10v-9.015625c0-5.519532-4.476562-10-10-10s-10 4.476562-10 10zm0 0"></path><path d="m303 420.828125c0 5.523437 4.476562 10 10 10s10-4.476563 10-10v-9.015625c0-5.519531-4.476562-10-10-10s-10 4.480469-10 10zm0 0"></path></svg>