<!-- icon666.com - MILLIONS vector ICONS FREE --><svg viewBox="0 0 512 511" xmlns="http://www.w3.org/2000/svg"><path d="m463.496094 502.480469h-414.992188c-21.265625 0-38.503906-17.242188-38.503906-38.503907v-90.996093c0-21.261719 17.238281-38.5 38.503906-38.5h414.992188c21.265625 0 38.503906 17.238281 38.503906 38.5v90.996093c0 21.261719-17.238281 38.503907-38.503906 38.503907zm0 0" fill="#36d28f"></path><path d="m256 10.5c-107.289062 0-194.261719 86.972656-194.261719 194.261719v129.71875h388.523438v-129.71875c0-107.289063-86.972657-194.261719-194.261719-194.261719zm0 0" fill="#ff5d5d"></path><path d="m450.261719 204.761719c0-42.152344-13.433594-81.167969-36.242188-113.003907l-2.609375-.363281-38.851562 38.851563-38.855469-38.851563-38.851563 38.851563-38.851562-38.851563-38.851562 38.851563-38.855469-38.851563-38.851563 38.851563-38.851562-38.851563-2.613282.363281c-22.808593 31.839844-36.238281 70.851563-36.238281 113.003907v3.300781l38.851563-38.851562 38.851562 38.851562 38.855469-38.851562 38.851563 38.851562 38.851562-38.851562 38.851562 38.851562 38.855469-38.851562 38.851563 38.851562 38.851562-38.851562 38.855469 38.851562v-3.300781zm0 0" fill="#fff"></path><path d="m463.496094 324.476562h-3.234375v-116.410156s0-.003906 0-.007812v-3.296875c0-112.628907-91.628907-204.261719-204.261719-204.261719s-204.261719 91.632812-204.261719 204.261719v3.296875.007812 46.675782c0 5.519531 4.476563 10 10 10 5.519531 0 10-4.480469 10-10v-42.535157l28.851563-28.855469 31.78125 31.78125c3.90625 3.90625 10.234375 3.90625 14.144531 0l31.78125-31.78125 31.777344 31.78125c3.90625 3.90625 10.238281 3.90625 14.144531 0l31.78125-31.78125 31.78125 31.78125c3.90625 3.90625 10.234375 3.90625 14.144531 0l31.777344-31.78125 31.78125 31.78125c3.90625 3.90625 10.238281 3.90625 14.144531 0l31.78125-31.78125 28.851563 28.855469v112.269531h-391.757813c-26.746094 0-48.503906 21.761719-48.503906 48.503907v90.996093c0 26.742188 21.757812 48.5 48.503906 48.5h414.992188c26.746094 0 48.503906-21.757812 48.503906-48.5v-90.996093c0-26.742188-21.757812-48.503907-48.503906-48.503907zm-207.496094-303.976562c57.894531 0 109.625 26.84375 143.429688 68.730469l-26.871094 26.875-31.78125-31.78125c-3.90625-3.90625-10.238282-3.90625-14.144532 0l-31.78125 31.78125-31.78125-31.78125c-3.90625-3.90625-10.234374-3.90625-14.140624 0l-31.78125 31.78125-31.78125-31.78125c-3.90625-3.90625-10.234376-3.90625-14.144532 0l-31.78125 31.78125-26.871094-26.875c33.804688-41.886719 85.535157-68.730469 143.429688-68.730469zm148.339844 141.640625-31.78125 31.78125-31.78125-31.78125c-3.90625-3.90625-10.238282-3.90625-14.144532 0l-31.78125 31.78125-31.78125-31.78125c-3.90625-3.90625-10.234374-3.90625-14.140624 0l-31.78125 31.78125-31.78125-31.78125c-3.90625-3.90625-10.234376-3.90625-14.144532 0l-31.78125 31.78125-31.78125-31.78125c-3.902344-3.90625-10.234375-3.90625-14.140625 0l-20.441406 20.441406c3.378906-28.050781 13.078125-54.183593 27.640625-76.917969l31.652344 31.652344c3.90625 3.90625 10.238281 3.90625 14.144531 0l31.78125-31.78125 31.78125 31.78125c3.90625 3.90625 10.234375 3.90625 14.140625 0l31.78125-31.78125 31.78125 31.78125c3.90625 3.90625 10.234375 3.90625 14.144531 0l31.777344-31.78125 31.78125 31.78125c1.953125 1.953125 4.511719 2.929688 7.074219 2.929688 2.558594 0 5.117187-.976563 7.070312-2.929688l31.652344-31.652344c14.5625 22.734376 24.261719 48.867188 27.640625 76.917969l-20.441406-20.441406c-3.90625-3.90625-10.234375-3.90625-14.140625 0zm-223.710938 182.335937h65.371094v148h-65.371094zm-20 148h-65.367187v-148h65.367187zm105.371094-148h65.371094v148h-65.371094zm-246 119.5v-90.996093c0-15.714844 12.785156-28.503907 28.503906-28.503907h26.757813v148h-26.757813c-15.71875 0-28.503906-12.785156-28.503906-28.5zm472 0c0 15.714844-12.785156 28.5-28.503906 28.5h-26.757813v-78c0-5.519531-4.476562-10-10-10-5.519531 0-10 4.480469-10 10v78h-65.367187v-148h112.125c15.71875 0 28.503906 12.789063 28.503906 28.503907zm0 0"></path><path d="m426.738281 364.480469c-2.628906 0-5.210937 1.066406-7.066406 2.929687-1.863281 1.859375-2.933594 4.4375-2.933594 7.070313 0 2.628906 1.070313 5.207031 2.933594 7.066406 1.855469 1.859375 4.4375 2.933594 7.066406 2.933594 2.632813 0 5.210938-1.070313 7.070313-2.933594 1.859375-1.859375 2.929687-4.4375 2.929687-7.066406 0-2.632813-1.066406-5.210938-2.929687-7.070313-1.859375-1.859375-4.4375-2.929687-7.070313-2.929687zm0 0"></path><path d="m68.808594 301.808594c1.863281-1.859375 2.933594-4.441406 2.933594-7.070313 0-2.628906-1.070313-5.210937-2.933594-7.070312-1.859375-1.859375-4.4375-2.929688-7.066406-2.929688-2.640626 0-5.222657 1.070313-7.070313 2.929688-1.859375 1.859375-2.929687 4.441406-2.929687 7.070312 0 2.628907 1.066406 5.210938 2.929687 7.070313 1.859375 1.859375 4.429687 2.929687 7.070313 2.929687 2.628906 0 5.207031-1.070312 7.066406-2.929687zm0 0"></path><path d="m147.039062 289.5625c1.851563 3.207031 5.214844 5 8.671876 5 1.695312 0 3.414062-.429688 4.988281-1.339844l8.023437-4.632812v9.265625c0 5.523437 4.476563 10 10 10 5.519532 0 10-4.476563 10-10v-9.265625l8.019532 4.632812c1.574218.910156 3.292968 1.339844 4.992187 1.339844 3.453125 0 6.816406-1.792969 8.667969-5 2.761718-4.785156 1.125-10.898438-3.660156-13.660156l-8.019532-4.632813 8.019532-4.632812c4.785156-2.761719 6.421874-8.875 3.660156-13.660157-2.761719-4.78125-8.875-6.421874-13.660156-3.660156l-8.019532 4.632813v-9.261719c0-5.523438-4.480468-10-10-10-5.523437 0-10 4.476562-10 10v9.261719l-8.023437-4.632813c-4.785157-2.761718-10.898438-1.121094-13.660157 3.660156-2.761718 4.785157-1.125 10.898438 3.660157 13.660157l8.023437 4.632812-8.023437 4.632813c-4.785157 2.761718-6.421875 8.875-3.660157 13.660156zm0 0"></path><path d="m302.039062 289.5625c1.851563 3.207031 5.214844 5 8.671876 5 1.695312 0 3.414062-.429688 4.988281-1.339844l8.023437-4.632812v9.265625c0 5.523437 4.476563 10 10 10 5.519532 0 10-4.476563 10-10v-9.265625l8.019532 4.632812c1.574218.910156 3.292968 1.339844 4.992187 1.339844 3.453125 0 6.816406-1.792969 8.667969-5 2.761718-4.785156 1.125-10.898438-3.660156-13.660156l-8.019532-4.632813 8.019532-4.632812c4.785156-2.761719 6.421874-8.875 3.660156-13.660157-2.761719-4.78125-8.875-6.421874-13.660156-3.660156l-8.019532 4.632813v-9.261719c0-5.523438-4.480468-10-10-10-5.523437 0-10 4.476562-10 10v9.261719l-8.023437-4.632813c-4.785157-2.761718-10.898438-1.121094-13.660157 3.660156-2.761718 4.785157-1.125 10.898438 3.660157 13.660157l8.023437 4.632812-8.023437 4.632813c-4.785157 2.761718-6.421875 8.875-3.660157 13.660156zm0 0"></path></svg>