<!-- icon666.com - MILLIONS vector ICONS FREE --><svg viewBox="-78 0 512 512.00135" xmlns="http://www.w3.org/2000/svg"><path d="m79.664062 337.144531v-22.515625c0-54.253906 43.980469-98.234375 98.230469-98.234375s98.230469 43.980469 98.230469 98.234375v22.515625c0 17.058594 13.828125 30.886719 30.886719 30.886719 17.058593 0 30.886719-13.828125 30.886719-30.886719v-93.144531c0-88.367188-71.636719-160.003906-160.003907-160.003906-88.367187 0-160 71.636718-160 160.003906v93.144531c0 17.058594 13.828125 30.886719 30.882813 30.886719 17.058594 0 30.886718-13.828125 30.886718-30.886719zm0 0" fill="#36d28f"></path><g fill="#ff5d5d"><path d="m49.894531 429.75c6.125-8.945312 20.136719-4.390625 19.835938 6.445312 10.214843-3.632812 18.875 8.285157 12.261719 16.875 10.398437 3.066407 10.398437 17.796876 0 20.859376 6.613281 8.59375-2.046876 20.507812-12.261719 16.875.300781 10.839843-13.710938 15.390624-19.835938 6.445312-6.128906 8.945312-20.136719 4.394531-19.839843-6.445312-10.210938 3.632812-18.871094-8.28125-12.257813-16.875-10.402344-3.0625-10.402344-17.796876 0-20.859376-6.613281-8.589843 2.046875-20.507812 12.257813-16.875-.296876-10.835937 13.710937-15.390624 19.839843-6.445312zm0 0"></path><path d="m305.894531 429.75c6.128907-8.945312 20.140625-4.390625 19.839844 6.445312 10.214844-3.632812 18.871094 8.285157 12.257813 16.875 10.402343 3.066407 10.402343 17.796876 0 20.859376 6.613281 8.59375-2.042969 20.507812-12.257813 16.875.300781 10.839843-13.710937 15.390624-19.839844 6.445312-6.125 8.945312-20.136719 4.394531-19.835937-6.445312-10.214844 3.632812-18.871094-8.28125-12.257813-16.875-10.402343-3.0625-10.402343-17.796876 0-20.859376-6.613281-8.589843 2.042969-20.507812 12.257813-16.875-.300782-10.835937 13.710937-15.390624 19.835937-6.445312zm0 0"></path><path d="m143.78125 87.640625c-6.410156-3.503906-9.539062-12.363281-4.148438-19.367187-12.386718-3.648438-12.386718-21.195313 0-24.84375-7.875-10.234376 2.4375-24.429688 14.601563-20.097657-.355469-12.910156 16.332031-18.332031 23.628906-7.679687 7.296875-10.652344 23.984375-5.230469 23.628907 7.679687 12.164062-4.332031 22.480468 9.863281 14.601562 20.097657 12.386719 3.648437 12.386719 21.195312 0 24.84375 5.386719 7 2.265625 15.847656-4.132812 19.363281zm0 0"></path></g><path d="m337.898438 283.320312c-2.632813 0-5.210938 1.070313-7.070313 2.929688-1.863281 1.859375-2.929687 4.441406-2.929687 7.070312 0 2.628907 1.066406 5.210938 2.929687 7.070313 1.859375 1.871094 4.4375 2.929687 7.070313 2.929687 2.628906 0 5.207031-1.058593 7.066406-2.929687 1.863281-1.859375 2.933594-4.433594 2.933594-7.070313 0-2.628906-1.070313-5.210937-2.933594-7.070312-1.859375-1.859375-4.4375-2.929688-7.066406-2.929688zm0 0"></path><path d="m355.792969 463.5c0-5.523438-2.105469-10.597656-5.679688-14.367188.675781-5.148437-.601562-10.492187-3.847656-14.960937-3.246094-4.472656-7.933594-7.335937-13.042969-8.28125-2.476562-4.566406-6.652344-8.140625-11.90625-9.847656-1.792968-.582031-3.613281-.898438-5.417968-.992188v-38.003906c18.285156-4.066406 32-20.410156 32-39.902344v-3.820312c0-5.523438-4.476563-10-10-10-5.523438 0-10 4.476562-10 10v3.820312c0 11.519531-9.367188 20.886719-20.886719 20.886719-11.515625 0-20.882813-9.367188-20.882813-20.886719v-22.519531c0-59.679688-48.554687-108.230469-108.230468-108.230469-59.679688 0-108.234376 48.554688-108.234376 108.230469v22.519531c0 11.519531-9.367187 20.886719-20.882812 20.886719s-20.886719-9.367188-20.886719-20.886719v-93.144531c0-82.710938 67.292969-150.003906 150.003907-150.003906 82.710937 0 150 67.292968 150 150.003906v9.324219c0 5.519531 4.476562 10 10 10 5.523437 0 10-4.480469 10-10v-9.324219c0-76.246094-50.457032-140.925781-119.730469-162.414062.070312-.28125.140625-.558594.203125-.839844.59375-2.851563.640625-5.710938.15625-8.476563 4.300781-4.199219 6.859375-10.03125 6.859375-16.417969 0-6.398437-2.570313-12.25-6.894531-16.449218 1.027343-5.9375-.328126-12.183594-4.089844-17.359375-3.761719-5.179688-9.28125-8.398438-15.246094-9.253907-2.660156-5.410156-7.425781-9.664062-13.515625-11.644531-6.085937-1.976562-12.441406-1.335937-17.773437 1.476563-5.332032-2.8125-11.6875-3.453125-17.773438-1.476563-6.089844 1.980469-10.855469 6.230469-13.515625 11.644531-5.96875.855469-11.484375 4.074219-15.246094 9.253907-3.761719 5.179687-5.121093 11.421875-4.089843 17.359375-4.324219 4.199218-6.894532 10.050781-6.894532 16.449218 0 6.382813 2.554688 12.21875 6.859375 16.417969-.484375 2.769531-.441406 5.632813.160157 8.488281.058593.285157.132812.5625.203124.84375-69.246093 21.507813-119.671874 86.171876-119.671874 162.398438v93.144531c0 19.492188 13.714843 35.832031 32 39.902344v38.003906c-1.804688.09375-3.625.410157-5.417969.992188-5.253907 1.707031-9.429688 5.28125-11.90625 9.847656-5.109375.945313-9.796875 3.8125-13.042969 8.28125-3.25 4.46875-4.527344 9.8125-3.847656 14.960937-3.578125 3.769532-5.683594 8.84375-5.683594 14.367188 0 5.527344 2.109375 10.597656 5.683594 14.367188-.679688 5.148437.597656 10.492187 3.847656 14.960937 3.246094 4.472656 7.933594 7.335937 13.039062 8.28125 2.480469 4.566406 6.65625 8.140625 11.910157 9.847656 5.253906 1.707031 10.730469 1.269531 15.417969-.964843 2.757812 1.3125 5.789062 2.007812 8.886718 2.007812 2.167969 0 4.371094-.339844 6.53125-1.042969 5.253906-1.707031 9.429688-5.28125 11.90625-9.847656 5.109375-.945313 9.796875-3.8125 13.042969-8.28125 3.25-4.46875 4.523437-9.8125 3.847656-14.960937 3.574219-3.769532 5.683594-8.839844 5.683594-14.367188 0-5.523438-2.105469-10.597656-5.683594-14.367188.675781-5.148437-.597656-10.492187-3.847656-14.960937-3.246094-4.472656-7.933594-7.335937-13.042969-8.28125-2.476562-4.566406-6.648437-8.140625-11.90625-9.847656-1.792968-.582031-3.613281-.898438-5.417968-.992188v-38.566406c17.160156-4.855469 29.769531-20.648437 29.769531-39.339844v-1.011719c18.894531-30.324218 52.453125-49.058593 88.234375-49.058593 35.769531 0 69.335937 18.738281 88.230468 49.058593v1.015626c0 18.691406 12.609376 34.480468 29.769532 39.335937v38.566406c-1.804688.097657-3.625.410157-5.417969.996094-5.253906 1.707031-9.429687 5.277344-11.90625 9.84375-5.109375.945313-9.796875 3.8125-13.042969 8.28125-3.25 4.46875-4.527344 9.8125-3.847656 14.964844-3.578125 3.769531-5.683594 8.84375-5.683594 14.367187 0 5.523438 2.109375 10.597656 5.683594 14.363282-.679688 5.152343.597656 10.492187 3.847656 14.964843 3.246094 4.46875 7.933594 7.335938 13.039063 8.28125 2.480469 4.566407 6.65625 8.136719 11.910156 9.84375s10.730469 1.273438 15.417969-.964843c2.757812 1.316406 5.789062 2.007812 8.886718 2.007812 2.167969 0 4.371094-.339844 6.53125-1.042969 5.253907-1.707031 9.429688-5.277343 11.910157-9.84375 5.105469-.945312 9.792969-3.8125 13.039062-8.28125 3.25-4.472656 4.523438-9.8125 3.847657-14.964843 3.570312-3.769532 5.675781-8.839844 5.675781-14.367188zm-208.859375-386.855469c-.164063-.792969.027344-1.496093.625-2.269531 2.011718-2.613281 2.605468-6.054688 1.585937-9.191406-1.019531-3.136719-3.523437-5.570313-6.6875-6.5-1.402343-.414063-2.113281-1.367188-2.113281-2.828125 0-1.464844.710938-2.417969 2.117188-2.832031 3.164062-.933594 5.664062-3.363282 6.683593-6.503907 1.019531-3.136719.425781-6.574219-1.585937-9.1875-.894532-1.160156-.910156-2.347656-.050782-3.53125.863282-1.1875 1.996094-1.539062 3.375-1.046875 3.109376 1.105469 6.5625.609375 9.230469-1.332031 2.667969-1.9375 4.210938-5.066406 4.117188-8.367187-.039063-1.460938.644531-2.433594 2.039062-2.886719s2.519531-.066407 3.34375 1.140625c1.863281 2.722656 4.953125 4.347656 8.25 4.347656 3.300781 0 6.386719-1.625 8.25-4.347656.828125-1.207032 1.953125-1.59375 3.34375-1.140625 1.394531.453125 2.078125 1.425781 2.039063 2.886719-.089844 3.300781 1.449218 6.429687 4.117187 8.367187 2.667969 1.941406 6.125 2.4375 9.230469 1.332031 1.378906-.488281 2.515625-.136718 3.375 1.046875.859375 1.183594.84375 2.371094-.050781 3.53125-2.011719 2.613281-2.605469 6.054688-1.585938 9.191407 1.019531 3.136718 3.523438 5.570312 6.6875 6.5 1.402344.414062 2.113281 1.367187 2.113281 2.832031 0 1.460937-.710937 2.414062-2.117187 2.828125-3.164063.933594-5.664063 3.363281-6.683594 6.503906-1.019531 3.136719-.425781 6.574219 1.585938 9.1875.597656.773438.789062 1.476562.621093 2.269531-.011718.058594-.039062.109375-.054687.164063-10.003906-1.839844-20.3125-2.8125-30.839844-2.8125-10.554687 0-20.878906.976562-30.902343 2.824218-.015626-.058593-.042969-.117187-.058594-.175781zm-83.082032 367.644531c2.667969 1.9375 6.125 2.4375 9.230469 1.328126.332031-.113282.617188-.21875 1 .308593.382813.527344.199219.769531-.015625 1.046875-2.011718 2.613282-2.605468 6.050782-1.585937 9.1875 1.019531 3.136719 3.519531 5.570313 6.683593 6.503906.335938.097657.625.183594.625.835938s-.289062.738281-.625.835938c-3.164062.933593-5.664062 3.367187-6.683593 6.503906-1.019531 3.136718-.425781 6.574218 1.585937 9.1875.214844.277344.398438.519531.015625 1.046875-.382812.523437-.667969.429687-1 .308593-3.105469-1.105468-6.5625-.605468-9.230469 1.332032-2.667968 1.9375-4.207031 5.070312-4.117187 8.367187.011719.351563.019531.652344-.601563.851563-.625.203125-.792968-.046875-.988281-.335938-1.867187-2.722656-4.953125-4.347656-8.25-4.347656-3.300781 0-6.386719 1.625-8.25 4.347656-.199219.289063-.367187.539063-.992187.335938-.621094-.199219-.609375-.503906-.601563-.851563.089844-3.296875-1.449219-6.429687-4.117187-8.367187-2.667969-1.9375-6.125-2.4375-9.230469-1.332032-.332031.121094-.613281.21875-1-.308593-.382813-.527344-.195313-.769531.015625-1.046875 2.011719-2.613282 2.605469-6.050782 1.585938-9.1875-1.019532-3.136719-3.519532-5.570313-6.683594-6.503906-.335938-.097657-.625-.183594-.625-.835938s.289062-.738281.625-.835938c3.164062-.933593 5.664062-3.367187 6.683594-6.503906 1.019531-3.136718.425781-6.574218-1.585938-9.1875-.210938-.277344-.398438-.519531-.015625-1.046875.386719-.523437.667969-.425781 1-.308593 3.109375 1.105468 6.5625.609374 9.230469-1.332032 2.667968-1.9375 4.207031-5.070312 4.117187-8.367187-.007812-.347657-.019531-.652344.601563-.851563.621094-.199218.792968.046875.992187.335938 1.863281 2.722656 4.949219 4.347656 8.25 4.347656 3.296875 0 6.382813-1.625 8.25-4.347656.195313-.289063.367188-.535156.988281-.335938.621094.199219.613282.503906.601563.851563-.089844 3.300781 1.449219 6.429687 4.117187 8.371093zm114.042969-177.214843c-33.066406 0-64.535156 13.417969-87.511719 36.277343 5.550782-43.347656 42.679688-76.957031 87.511719-76.957031s81.964844 33.613281 87.515625 76.960938c-22.980468-22.863281-54.457031-36.28125-87.515625-36.28125zm157.273438 197.261719c-3.164063.933593-5.664063 3.367187-6.683594 6.503906-1.019531 3.136718-.425781 6.574218 1.585937 9.1875.214844.277344.398438.519531.015626 1.046875-.382813.523437-.667969.429687-1 .308593-3.109376-1.105468-6.5625-.605468-9.230469 1.332032s-4.207031 5.070312-4.117188 8.367187c.011719.351563.019531.652344-.601562.851563-.625.203125-.792969-.046875-.992188-.335938-1.863281-2.722656-4.949219-4.347656-8.25-4.347656-3.296875 0-6.382812 1.625-8.25 4.347656-.195312.289063-.367187.539063-.988281.335938-.621094-.199219-.609375-.503906-.601562-.851563.089843-3.296875-1.449219-6.429687-4.117188-8.367187s-6.121094-2.4375-9.230469-1.332032c-.332031.121094-.617187.21875-1-.308593-.382812-.527344-.199219-.769531.015625-1.046875 2.011719-2.613282 2.605469-6.050782 1.585938-9.1875-1.019532-3.136719-3.519532-5.570313-6.683594-6.503906-.335938-.097657-.625-.183594-.625-.835938s.289062-.738281.625-.835938c3.164062-.933593 5.664062-3.367187 6.683594-6.503906 1.019531-3.136718.425781-6.574218-1.585938-9.1875-.214844-.277344-.398437-.519531-.015625-1.046875.382813-.523437.667969-.425781 1-.308593 3.109375 1.105468 6.5625.609374 9.230469-1.332032 2.667969-1.9375 4.207031-5.070312 4.117188-8.367187-.011719-.347657-.019532-.652344.601562-.851563.621094-.199218.792969.046875.988281.335938 1.867188 2.722656 4.953125 4.347656 8.25 4.347656 3.300781 0 6.386719-1.625 8.25-4.347656.199219-.289063.371094-.535156.988281-.335938.621094.199219.613282.503906.605469.851563-.09375 3.300781 1.449219 6.429687 4.117188 8.367187s6.125 2.4375 9.230469 1.332032c.328124-.117188.617187-.21875 1 .308593.382812.527344.199218.769531-.015626 1.042969-2.011718 2.617188-2.605468 6.054688-1.585937 9.191406 1.019531 3.136719 3.519531 5.570313 6.683594 6.5.335937.101563.625.1875.625.839844s-.289063.738281-.625.835938zm0 0"></path><path d="m74.769531 168.144531c-5.523437 0-10 4.476563-10 10 0 5.519531 4.476563 10 10 10h9.015625c5.523438 0 10-4.480469 10-10 0-5.523437-4.476562-10-10-10zm0 0"></path><path d="m125.3125 188.144531c5.523438 0 10-4.480469 10-10 0-5.523437-4.476562-10-10-10h-9.015625c-5.523437 0-10 4.476563-10 10 0 5.519531 4.476563 10 10 10zm0 0"></path><path d="m100.039062 213.414062c5.523438 0 10-4.476562 10-10v-9.015624c0-5.523438-4.476562-10-10-10-5.523437 0-10 4.476562-10 10v9.015624c0 5.523438 4.476563 10 10 10zm0 0"></path><path d="m100.039062 171.886719c5.523438 0 10-4.476563 10-10v-9.015625c0-5.519532-4.476562-10-10-10-5.523437 0-10 4.480468-10 10v9.015625c0 5.523437 4.476563 10 10 10zm0 0"></path><path d="m281.019531 188.144531c5.523438 0 10-4.480469 10-10 0-5.523437-4.476562-10-10-10h-9.015625c-5.523437 0-10 4.476563-10 10 0 5.519531 4.476563 10 10 10zm0 0"></path><path d="m230.476562 168.144531c-5.519531 0-10 4.476563-10 10 0 5.519531 4.480469 10 10 10h9.019532c5.519531 0 10-4.480469 10-10 0-5.523437-4.480469-10-10-10zm0 0"></path><path d="m255.75 213.414062c5.523438 0 10-4.476562 10-10v-9.015624c0-5.523438-4.476562-10-10-10s-10 4.476562-10 10v9.015624c0 5.523438 4.476562 10 10 10zm0 0"></path><path d="m255.75 171.886719c5.523438 0 10-4.476563 10-10v-9.015625c0-5.519532-4.476562-10-10-10s-10 4.480468-10 10v9.015625c0 5.523437 4.476562 10 10 10zm0 0"></path><path d="m152.75 136.328125c-5.523438 0-10 4.480469-10 10 0 5.523437 4.476562 10.003906 10 10.003906h9.015625c5.523437 0 10-4.480469 10-10.003906 0-5.519531-4.476563-10-10-10zm0 0"></path><path d="m203.292969 156.332031c5.523437 0 10-4.480469 10-10.003906 0-5.519531-4.476563-10-10-10h-9.015625c-5.523438 0-10 4.480469-10 10 0 5.523437 4.476562 10.003906 10 10.003906zm0 0"></path><path d="m178.023438 181.601562c5.519531 0 10-4.476562 10-10v-9.015624c0-5.523438-4.480469-10-10-10-5.523438 0-10 4.476562-10 10v9.015624c0 5.523438 4.476562 10 10 10zm0 0"></path><path d="m178.023438 140.074219c5.519531 0 10-4.476563 10-10v-9.015625c0-5.523438-4.480469-10-10-10-5.523438 0-10 4.476562-10 10v9.015625c0 5.523437 4.476562 10 10 10zm0 0"></path></svg>