<!-- icon666.com - MILLIONS vector ICONS FREE --><svg viewBox="-102 0 512 512" xmlns="http://www.w3.org/2000/svg"><path d="m10 49.972656h288.015625v412.023438h-288.015625zm0 0" fill="#ff5d5d"></path><path d="m298.015625 403.367188-28.800781-28.800782-28.800782 28.800782-28.800781-28.800782-28.804687 28.800782-28.800782-28.800782-28.800781 28.800782-28.800781-28.800782-28.800781 28.800782-28.804688-28.800782-28.800781 28.800782v-294.765626l28.800781 28.800782 28.804688-28.800782 28.800781 28.800782 28.800781-28.800782 28.800781 28.800782 28.800782-28.800782 28.804687 28.800782 28.800781-28.800782 28.800782 28.800782 28.800781-28.800782zm0 0" fill="#fff"></path><path d="m10 183.996094h288.015625v143.976562h-288.015625zm0 0" fill="#ff5d5d"></path><path d="m134.957031 235c-2.761719-4.78125-8.878906-6.425781-13.664062-3.660156l-12.710938 7.339844v-14.683594c0-5.519532-4.480469-10-10-10-5.523437 0-10.003906 4.480468-10.003906 10v14.683594l-12.710937-7.339844c-4.785157-2.765625-10.902344-1.125-13.660157 3.660156-2.761719 4.78125-1.125 10.898438 3.660157 13.660156l12.710937 7.339844-12.710937 7.339844c-4.785157 2.761718-6.421876 8.878906-3.660157 13.660156 1.851563 3.207031 5.210938 5.003906 8.667969 5.003906 1.695312 0 3.417969-.433594 4.992188-1.34375l12.710937-7.339844v14.679688c0 5.523438 4.480469 10 10.003906 10 5.519531 0 10-4.476562 10-10v-14.679688l12.710938 7.339844c1.578125.910156 3.296875 1.34375 4.992187 1.34375 3.457032 0 6.820313-1.796875 8.671875-5.003906 2.761719-4.78125 1.121094-10.898438-3.660156-13.660156l-12.714844-7.339844 12.714844-7.339844c4.78125-2.761718 6.421875-8.878906 3.660156-13.660156zm0 0"></path><path d="m237.140625 282.003906c3.457031 0 6.820313-1.796875 8.671875-5.003906 2.761719-4.78125 1.125-10.898438-3.660156-13.660156l-12.714844-7.339844 12.714844-7.339844c4.785156-2.761718 6.421875-8.878906 3.660156-13.660156s-8.875-6.425781-13.660156-3.660156l-12.714844 7.339844v-14.683594c0-5.519532-4.476562-10-10-10s-10 4.480468-10 10v14.683594l-12.714844-7.339844c-4.785156-2.765625-10.898437-1.125-13.660156 3.660156-2.761719 4.78125-1.121094 10.898438 3.660156 13.660156l12.714844 7.339844-12.714844 7.339844c-4.78125 2.761718-6.421875 8.878906-3.660156 13.660156 1.851562 3.207031 5.214844 5.003906 8.671875 5.003906 1.695313 0 3.414063-.433594 4.988281-1.34375l12.714844-7.339844v14.679688c0 5.523438 4.476562 10 10 10s10-4.476562 10-10v-14.679688l12.714844 7.339844c1.574218.910156 3.292968 1.34375 4.988281 1.34375zm0 0"></path><path d="m258.015625 337.972656c2.628906 0 5.210937-1.070312 7.070313-2.929687 1.859374-1.859375 2.929687-4.4375 2.929687-7.070313 0-2.628906-1.070313-5.210937-2.929687-7.070312-1.859376-1.859375-4.433594-2.929688-7.070313-2.929688-2.632813 0-5.210937 1.070313-7.070313 2.929688-1.859374 1.859375-2.929687 4.441406-2.929687 7.070312 0 2.632813 1.066406 5.210938 2.929687 7.070313 1.859376 1.859375 4.4375 2.929687 7.070313 2.929687zm0 0"></path><path d="m308.015625 10c0-5.523438-4.476563-10-10-10-5.519531 0-10 4.476562-10 10v29.972656h-28v-29.972656c0-5.523438-4.480469-10-10-10-5.523437 0-10.003906 4.476562-10.003906 10v29.972656h-28v-29.972656c0-5.523438-4.476563-10-10-10-5.523438 0-10 4.476562-10 10v29.972656h-28.003907v-29.972656c0-5.523438-4.476562-10-10-10-5.519531 0-10 4.476562-10 10v29.972656h-28v-29.972656c0-5.523438-4.480468-10-10-10-5.523437 0-10.003906 4.476562-10.003906 10v29.972656h-28v-29.972656c0-5.523438-4.476562-10-10-10-5.523437 0-10 4.476562-10 10v29.972656h-28.003906v-29.972656c0-5.523438-4.476562-10-10-10s-10 4.476562-10 10v393.371094 98.628906c0 5.523438 4.476562 10 10 10s10-4.476562 10-10v-30.003906h28.003906v30.003906c0 5.523438 4.476563 10 10 10 5.523438 0 10-4.476562 10-10v-30.003906h28v30.003906c0 5.523438 4.480469 10 10.003906 10 5.519532 0 10-4.476562 10-10v-30.003906h28v30.003906c0 5.523438 4.480469 10 10 10 5.523438 0 10-4.476562 10-10v-30.003906h28.003907v30.003906c0 5.523438 4.476562 10 10 10 5.523437 0 10-4.476562 10-10v-30.003906h28v30.003906c0 5.523438 4.480469 10 10.003906 10 5.519531 0 10-4.476562 10-10v-30.003906h28v30.003906c0 5.523438 4.480469 10 10 10 5.523437 0 10-4.476562 10-10v-98.628906c0-.003906 0-393.371094 0-393.371094zm-20 163.996094h-268.015625v-41.25l11.730469 11.730468c3.90625 3.902344 10.238281 3.902344 14.144531 0l21.730469-21.730468 21.730469 21.730468c3.90625 3.902344 10.234374 3.902344 14.144531 0l21.730469-21.730468 21.726562 21.730468c3.90625 3.902344 10.238281 3.902344 14.144531 0l21.730469-21.730468 21.730469 21.730468c1.953125 1.953126 4.511719 2.929688 7.070312 2.929688 2.5625 0 5.121094-.976562 7.074219-2.929688l21.730469-21.730468 21.730469 21.730468c3.90625 3.902344 10.234374 3.902344 14.140624 0l11.730469-11.730468v41.25zm-268.015625 163.980468h198.011719c5.523437 0 10-4.480468 10-10.003906 0-5.519531-4.476563-10-10-10h-198.011719v-123.976562h268.015625v185.226562l-11.730469-11.730468c-3.90625-3.902344-10.234375-3.902344-14.140625 0l-21.730469 21.730468-21.730468-21.730468c-3.90625-3.902344-10.238282-3.902344-14.144532 0l-21.730468 21.730468-21.730469-21.730468c-3.90625-3.902344-10.238281-3.902344-14.144531 0l-21.730469 21.730468-21.730469-21.730468c-3.902344-3.902344-10.234375-3.902344-14.144531 0l-21.726563 21.730468-21.730468-21.730468c-3.90625-3.902344-10.238282-3.902344-14.144532 0l-11.730468 11.730468v-41.246094zm268.015625-233.515624-18.800781 18.800781-21.730469-21.730469c-3.902344-3.902344-10.234375-3.90625-14.144531 0l-21.730469 21.730469-21.730469-21.730469c-3.90625-3.90625-10.234375-3.90625-14.140625 0l-21.730469 21.730469-21.730468-21.730469c-3.90625-3.90625-10.238282-3.90625-14.144532 0l-21.730468 21.730469-21.730469-21.730469c-3.90625-3.90625-10.234375-3.90625-14.144531 0l-21.730469 21.730469-18.800781-18.800781v-44.488282h37.421875c.195312.011719.386719.03125.582031.03125s.386719-.019531.578125-.03125h46.84375c.191406.011719.382813.03125.582031.03125.195313 0 .386719-.019531.578125-.03125h46.84375c.191407.011719.382813.03125.578125.03125.195313 0 .386719-.019531.582032-.03125h46.839843c.195313.011719.386719.03125.582031.03125.195313 0 .386719-.019531.578126-.03125h46.84375c.195312.011719.382812.03125.582031.03125.195312 0 .386719-.019531.578125-.03125h37.421875v44.488282zm-268.015625 303.050781 18.800781-18.800781 21.730469 21.726562c3.90625 3.90625 10.238281 3.90625 14.144531 0l21.730469-21.726562 21.730469 21.726562c3.90625 3.90625 10.238281 3.90625 14.144531 0l21.730469-21.726562 21.730469 21.726562c3.90625 3.90625 10.234374 3.90625 14.140624 0l21.730469-21.726562 21.730469 21.726562c3.90625 3.90625 10.238281 3.90625 14.144531 0l21.730469-21.726562 18.800781 18.800781v44.484375h-268.015625v-44.484375zm0 0"></path></svg>