<!-- icon666.com - MILLIONS vector ICONS FREE --><svg viewBox="-20 0 512 512.001" xmlns="http://www.w3.org/2000/svg"><path d="m236.019531 75.171875h-48.003906v-65.171875h-64.003906v54.261719c0 30.039062-15.011719 58.085937-40.003907 74.746093l-74.003906 344.300782c24.964844 24.964844 65.441406 24.964844 90.40625 0 24.964844 24.964844 65.441406 24.964844 90.40625 0 24.964844 24.964844 65.441406 24.964844 90.40625 0 24.960938 24.964844 65.441406 24.964844 90.402344 0 24.964844 24.964844 65.441406 24.964844 90.40625 0l-74.003906-344.300782c-24.992188-16.660156-40.003906-44.707031-40.003906-74.746093v-54.261719h-64.003907v65.171875zm0 0" fill="#ffc66c"></path><path d="m371.625 429.304688c-24.960938 24.964843-65.441406 24.964843-90.402344 0-24.964844 24.964843-65.441406 24.964843-90.40625 0-24.964844 24.964843-65.441406 24.964843-90.40625 0-21.890625 21.890624-55.710937 24.585937-80.535156 8.085937l-9.871094 45.917969c24.964844 24.964844 65.441406 24.964844 90.40625 0 24.964844 24.964844 65.441406 24.964844 90.40625 0 24.964844 24.964844 65.441406 24.964844 90.40625 0 24.960938 24.964844 65.441406 24.964844 90.402344 0 24.964844 24.964844 65.441406 24.964844 90.40625 0l-9.730469-45.277344c-.191406-.347656-.296875-.535156-.296875-.535156-24.8125 16.382812-58.53125 13.652344-80.378906-8.191406zm0 0" fill="#fff"></path><path d="m236.144531 288.753906c-27.132812 14.265625-58.847656-8.777344-53.667969-38.992187-21.953124-21.398438-9.835937-58.679688 20.5-63.089844 13.566407-27.492187 52.769532-27.492187 66.335938 0 30.339844 4.410156 42.453125 41.691406 20.5 63.089844 5.183594 30.214843-26.53125 53.257812-53.667969 38.992187zm0 0" fill="#ff5d5d"></path><path d="m258.414062 231.570312c0 12.296876-9.972656 22.265626-22.269531 22.265626s-22.265625-9.96875-22.265625-22.265626c0-12.300781 9.96875-22.269531 22.265625-22.269531s22.269531 9.96875 22.269531 22.269531zm0 0" fill="#fff"></path><path d="m281.527344 190.648438c18.578125-4.441407 32.390625-21.144532 32.390625-41.078126v-13.253906h-13.253907c-21.671874 0-39.523437 16.320313-41.957031 37.335938 4.265625 3.28125 7.9375 7.609375 10.605469 13.019531zm0 0" fill="#36d28f"></path><path d="m182.480469 249.761719c-3.929688-3.832031-6.75-8.171875-8.585938-12.742188-19.519531-3.132812-39.171875 7.828125-46.285156 27.074219l-4.597656 12.429688 12.429687 4.597656c17.804688 6.582031 37.207032.410156 48.179688-13.902344-1.695313-5.34375-2.207032-11.246094-1.140625-17.457031zm0 0" fill="#36d28f"></path><path d="m471.808594 481.207031-43.140625-200.710937c-1.160157-5.398438-6.476563-8.835938-11.878907-7.675782-5.398437 1.160157-8.835937 6.480469-7.675781 11.878907l31.746094 147.6875c-20.445313 10.171875-45.675781 6.332031-62.160156-10.152344-3.90625-3.902344-10.238281-3.90625-14.144531 0-21.023438 21.023437-55.234376 21.023437-76.261719 0-3.90625-3.90625-10.238281-3.90625-14.144531 0-21.023438 21.027344-55.234376 21.027344-76.261719 0-3.90625-3.90625-10.238281-3.90625-14.144531 0-21.023438 21.027344-55.234376 21.027344-76.261719 0-3.90625-3.90625-10.238281-3.90625-14.144531 0-16.5 16.5-41.714844 20.332031-62.160157 10.15625l61.78125-287.429687c25.785157-18.765626 41.054688-48.628907 41.054688-80.695313v-44.265625h44v55.171875c0 5.523437 4.480469 10 10.003906 10h96.003906c5.523438 0 10-4.476563 10-10v-55.171875h44.003907v44.261719c0 32.070312 15.269531 61.933593 41.054687 80.695312l13.222656 61.523438c1.160157 5.398437 6.480469 8.835937 11.878907 7.675781 5.398437-1.160156 8.835937-6.480469 7.675781-11.878906l-14.050781-65.371094c-.546876-2.542969-2.066407-4.773438-4.230469-6.21875-22.261719-14.839844-35.550781-39.671875-35.550781-66.425781v-54.261719c0-5.523438-4.476563-10-10-10h-64.003907c-5.523437 0-10 4.476562-10 10v55.171875h-76.007812v-55.171875c0-5.523438-4.476563-10-10-10h-64.003907c-5.523437 0-10 4.476562-10 10v54.261719c0 26.753906-13.289062 51.585937-35.550781 66.425781-2.164062 1.445312-3.679687 3.675781-4.226562 6.21875l-74.007813 344.300781c-.710937 3.316407.308594 6.773438 2.707032 9.171875 26.570312 26.574219 68.503906 28.652344 97.476562 6.230469 26.519531 20.523437 63.890625 20.523437 90.40625 0 26.519531 20.523437 63.890625 20.523437 90.40625 0 13.261719 10.261719 29.226562 15.390625 45.203125 15.390625 15.972656-.003906 31.945313-5.132812 45.203125-15.390625 28.972656 22.421875 70.90625 20.34375 97.476562-6.230469 2.402344-2.398437 3.421876-5.855468 2.707032-9.171875zm-93.109375-4.96875c-3.90625-3.90625-10.238281-3.90625-14.144531 0-21.027344 21.023438-55.238282 21.023438-76.261719 0-3.90625-3.90625-10.238281-3.90625-14.144531 0-21.023438 21.027344-55.234376 21.023438-76.261719 0-3.90625-3.90625-10.238281-3.90625-14.144531 0-21.023438 21.027344-55.234376 21.023438-76.261719 0-3.90625-3.90625-10.238281-3.90625-14.144531 0-19.765626 19.765625-51.1875 20.949219-72.347657 3.550781l5.886719-27.394531c24.285156 10.050781 52.527344 6.417969 73.527344-9.792969 26.519531 20.527344 63.890625 20.527344 90.410156.003907 26.519531 20.523437 63.890625 20.523437 90.40625 0 13.261719 10.265625 29.226562 15.390625 45.203125 15.390625 15.972656 0 31.953125-5.132813 45.210937-15.394532 20.984376 16.191407 49.246094 19.828126 73.523438 9.789063l5.890625 27.398437c-21.160156 17.398438-52.582031 16.214844-72.347656-3.550781zm0 0"></path><path d="m403.398438 236.355469c-1.859376 1.871093-2.929688 4.441406-2.929688 7.082031 0 2.628906 1.070312 5.210938 2.929688 7.070312 1.859374 1.859376 4.441406 2.929688 7.070312 2.929688 2.640625 0 5.210938-1.070312 7.070312-2.929688 1.871094-1.859374 2.929688-4.441406 2.929688-7.070312 0-2.640625-1.058594-5.210938-2.929688-7.082031-1.859374-1.859375-4.429687-2.917969-7.070312-2.917969-2.628906 0-5.199219 1.058594-7.070312 2.917969zm0 0"></path><path d="m163.082031 48.234375c1.863281-1.859375 2.929688-4.441406 2.929688-7.070313 0-2.628906-1.066407-5.210937-2.929688-7.070312-1.859375-1.859375-4.4375-2.929688-7.070312-2.929688-2.628907 0-5.210938 1.070313-7.070313 2.929688s-2.929687 4.441406-2.929687 7.070312c0 2.628907 1.070312 5.210938 2.929687 7.070313s4.441406 2.929687 7.070313 2.929687c2.632812 0 5.210937-1.070312 7.070312-2.929687zm0 0"></path><path d="m323.09375 34.09375c-1.859375-1.859375-4.441406-2.929688-7.070312-2.929688-2.628907 0-5.210938 1.070313-7.070313 2.929688s-2.929687 4.441406-2.929687 7.070312c0 2.628907 1.070312 5.210938 2.929687 7.070313s4.441406 2.929687 7.070313 2.929687c2.628906 0 5.210937-1.070312 7.070312-2.929687s2.929688-4.441406 2.929688-7.070313c0-2.628906-1.070313-5.210937-2.929688-7.070312zm0 0"></path><path d="m236.144531 199.300781c-17.792969 0-32.269531 14.476563-32.269531 32.269531 0 17.792969 14.476562 32.269532 32.269531 32.269532s32.269531-14.476563 32.269531-32.269532c0-17.792968-14.476562-32.269531-32.269531-32.269531zm0 44.535157c-6.765625 0-12.265625-5.503907-12.265625-12.269532 0-6.761718 5.5-12.265625 12.265625-12.265625s12.269531 5.503907 12.269531 12.265625c0 6.765625-5.503906 12.269532-12.269531 12.269532zm0 0"></path><path d="m112.539062 370.238281-12.160156 12.160157-12.15625-12.160157c-3.90625-3.902343-10.238281-3.902343-14.144531 0-3.902344 3.90625-3.90625 10.238281 0 14.144531l19.230469 19.230469c1.875 1.875 4.417968 2.929688 7.070312 2.929688s5.199219-1.054688 7.074219-2.929688l19.230469-19.230469c3.902344-3.902343 3.902344-10.238281 0-14.144531-3.90625-3.902343-10.238282-3.902343-14.144532 0zm0 0"></path><path d="m202.65625 370.238281-12.160156 12.160157-12.15625-12.160157c-3.90625-3.902343-10.238282-3.902343-14.144532 0-3.902343 3.90625-3.90625 10.238281 0 14.144531l19.230469 19.230469c1.875 1.875 4.417969 2.929688 7.070313 2.929688s5.199218-1.054688 7.074218-2.929688l19.226563-19.230469c3.90625-3.902343 3.90625-10.238281 0-14.144531-3.90625-3.902343-10.238281-3.902343-14.140625 0zm0 0"></path><path d="m292.773438 370.238281-12.160157 12.160157-12.15625-12.160157c-3.90625-3.902343-10.238281-3.902343-14.144531 0-3.90625 3.90625-3.90625 10.238281 0 14.144531l19.230469 19.230469c1.875 1.875 4.417969 2.929688 7.070312 2.929688 2.652344 0 5.195313-1.054688 7.070313-2.929688l19.230468-19.230469c3.90625-3.902343 3.90625-10.238281 0-14.144531-3.90625-3.902343-10.234374-3.902343-14.140624 0zm0 0"></path><path d="m382.886719 370.238281-12.15625 12.160157-12.15625-12.160157c-3.90625-3.902343-10.238281-3.902343-14.144531 0-3.90625 3.90625-3.90625 10.238281 0 14.144531l19.230468 19.230469c1.875 1.875 4.417969 2.929688 7.070313 2.929688 2.652343 0 5.195312-1.054688 7.070312-2.929688l19.230469-19.230469c3.90625-3.902343 3.90625-10.238281 0-14.144531-3.90625-3.902343-10.238281-3.902343-14.144531 0zm0 0"></path><path d="m323.917969 149.570312v-13.253906c0-5.523437-4.476563-10.003906-10-10.003906h-13.253907c-21.714843 0-40.59375 13.304688-48.40625 32.570312-5.066406-1.832031-10.492187-2.828124-16.113281-2.828124-16.292969 0-31.054687 8.207031-39.628906 21.726562-15.503906 3.976562-27.871094 15.476562-32.910156 30.972656-1.9375 5.964844-2.636719 12.089844-2.195313 18.070313-19.207031 2.171875-36.222656 14.96875-43.183594 33.800781l-4.597656 12.429688c-.917968 2.488281-.8125 5.242187.296875 7.648437 1.109375 2.410156 3.128907 4.28125 5.617188 5.203125l12.429687 4.59375c5.996094 2.21875 12.167969 3.289062 18.261719 3.289062 11.019531-.003906 21.769531-3.515624 30.703125-10.082031 2.847656 3.882813 6.324219 7.375 10.375 10.320313 13.179688 9.578125 29.949219 11.617187 44.832031 5.714844 5.582031 2.214843 11.429688 3.3125 17.253907 3.308593 9.703124 0 19.339843-3.039062 27.574218-9.023437 13.183594-9.574219 20.300782-24.894532 19.289063-40.867188 10.210937-12.332031 13.453125-28.910156 8.417969-44.40625-1.867188-5.746094-4.75-10.945312-8.421876-15.414062 14.472657-9.414063 23.660157-25.648438 23.660157-43.769532zm-185.007813 122.167969-3.050781-1.125 1.128906-3.054687c4.75-12.851563 17.089844-21.144532 30.445313-21.0625 1.332031 2.324218 2.851562 4.558594 4.59375 6.664062-.246094 3.839844-.003906 7.640625.664062 11.335938-8.820312 8.707031-21.867187 11.652344-33.78125 7.242187zm143.921875-29.136719c-2.355469 2.296876-3.433593 5.605469-2.875 8.851563 1.773438 10.351563-2.238281 20.21875-10.738281 26.394531-8.496094 6.171875-19.121094 6.941406-28.417969 2.054688-1.457031-.765625-3.054687-1.148438-4.65625-1.148438-1.597656 0-3.195312.382813-4.652343 1.148438-9.296876 4.886718-19.921876 4.117187-28.421876-2.054688-4.734374-3.441406-8.070312-8.027344-9.796874-13.203125-.066407-.253906-.140626-.507812-.226563-.757812-1.171875-3.90625-1.449219-8.125-.710937-12.433594.558593-3.246094-.519532-6.554687-2.875-8.851563-2.742188-2.671874-4.8125-5.746093-6.195313-9.054687-.066406-.183594-.140625-.359375-.21875-.535156-2.207031-5.636719-2.414063-11.921875-.414063-18.078125 3.246094-9.988282 11.390626-16.855469 21.785157-18.363282 3.257812-.476562 6.074219-2.519531 7.53125-5.472656 4.648437-9.417968 13.695312-15.042968 24.199219-15.042968 10.503906 0 19.550781 5.625 24.199218 15.042968 1.457032 2.953125 4.273438 4.996094 7.53125 5.472656 3.15625.457032 6.101563 1.417969 8.769532 2.800782.125.070312.253906.132812.378906.199218 5.929687 3.199219 10.421875 8.554688 12.636718 15.367188 3.242188 9.988281.6875 20.328125-6.832031 27.664062zm21.085938-93.03125c0 13.882813-8.730469 25.964844-21.59375 30.433594-2.113281-.886718-4.292969-1.644531-6.550781-2.222656-1.800782-2.84375-3.890626-5.433594-6.199219-7.78125 3.769531-13.789062 16.375-23.683594 31.089843-23.683594h3.253907zm0 0"></path></svg>