<!-- icon666.com - MILLIONS vector ICONS FREE --><svg viewBox="-25 1 511 511.999" xmlns="http://www.w3.org/2000/svg"><path d="m122.679688 414.921875-95.582032-95.289063c-22.121094-22.050781-22.1875-57.851562-.152344-79.988281 22.082032-22.179687 57.976563-22.222656 80.109376-.089843l44.332031 44.328124-30.9375-30.9375v-77.132812c0-91.574219 74.234375-165.8125 165.8125-165.8125s165.8125 74.238281 165.8125 165.8125v168.167969c0 29.128906-15.367188 56.097656-40.429688 70.941406zm0 0" fill="#ffb954"></path><path d="m374.878906 109.039062-42.289062 42.289063-42.292969-42.289063-42.289063 42.289063-42.292968-42.289063-42.289063 42.289063s-21.398437-21.394531-32.8125-32.808594c-4.917969 13.355469-8.15625 27.519531-9.480469 42.238281v19.933594l42.292969 42.289063 42.289063-42.289063 42.292968 42.289063 42.289063-42.289063 42.292969 42.289063 42.289062-42.289063 42.292969 42.289063 34.902344-34.902344v-12.261719c0-17.90625-2.847657-35.140625-8.097657-51.292968l-26.804687 26.808593zm0 0" fill="#fff"></path><path d="m425.453125 502h-290.628906c-8.140625 0-14.738281-6.601562-14.738281-14.742188v-57.597656c0-8.140625 6.597656-14.738281 14.738281-14.738281h290.628906c8.140625 0 14.742187 6.597656 14.742187 14.738281v57.597656c0 8.140626-6.601562 14.742188-14.742187 14.742188zm0 0" fill="#ffb954"></path><path d="m380.601562 440.503906-14.695312 14.699219-14.699219-14.699219c-3.90625-3.902344-10.238281-3.902344-14.144531 0-3.902344 3.90625-3.902344 10.238282 0 14.144532l21.769531 21.769531c1.953125 1.949219 4.511719 2.929687 7.074219 2.929687 2.558594 0 5.117188-.980468 7.070312-2.929687l21.769532-21.769531c3.90625-3.90625 3.90625-10.238282 0-14.144532-3.90625-3.902344-10.234375-3.902344-14.144532 0zm0 0"></path><path d="m294.839844 440.503906-14.699219 14.699219-14.699219-14.699219c-3.90625-3.902344-10.238281-3.902344-14.144531 0-3.902344 3.90625-3.902344 10.238282 0 14.144532l21.773437 21.769531c1.953126 1.949219 4.511719 2.929687 7.070313 2.929687s5.117187-.980468 7.070313-2.929687l21.769531-21.769531c3.90625-3.90625 3.90625-10.238282 0-14.144532-3.90625-3.902344-10.234375-3.902344-14.140625 0zm0 0"></path><path d="m209.074219 440.503906-14.699219 14.699219-14.699219-14.699219c-3.90625-3.902344-10.234375-3.902344-14.140625 0-3.90625 3.90625-3.90625 10.238282 0 14.144532l21.769532 21.769531c1.953124 1.949219 4.511718 2.929687 7.070312 2.929687s5.117188-.980468 7.070312-2.929687l21.769532-21.769531c3.90625-3.90625 3.90625-10.238282 0-14.144532-3.90625-3.902344-10.234375-3.902344-14.140625 0zm0 0"></path><path d="m452.074219 325.460938c-5.519531 0-10 4.476562-10 10v8.519531c0 24.585937-12.683594 47.691406-33.273438 60.9375h-273.976562c-2.425781 0-4.773438.359375-6.992188 1.015625l-93.675781-93.382813c-18.175781-18.121093-18.230469-47.660156-.125-65.851562 8.792969-8.832031 20.5-13.703125 32.960938-13.71875h.054687c12.441406 0 24.136719 4.84375 32.9375 13.644531l44.328125 44.328125c3.90625 3.90625 10.238281 3.90625 14.144531 0 3.90625-3.902344 3.90625-10.234375 0-14.140625l-28.007812-28.011719v-44.65625l25.90625 25.90625c3.90625 3.902344 10.234375 3.902344 14.140625 0l35.222656-35.21875 35.21875 35.21875c3.90625 3.90625 10.234375 3.90625 14.140625 0l35.222656-35.21875 35.21875 35.21875c1.953125 1.953125 4.511719 2.929688 7.070313 2.929688s5.117187-.976563 7.070312-2.929688l35.222656-35.21875 35.21875 35.21875c3.90625 3.90625 10.234376 3.90625 14.140626 0l17.835937-17.832031v36.160156c0 5.523438 4.476563 10 10 10s10-4.476562 10-10v-60.300781s0-.003906 0-.007813v-12.257812c0-18.746094-2.960937-36.808594-8.417969-53.765625-.117187-.457031-.257812-.90625-.4375-1.347656-23.179687-70.027344-89.261718-120.699219-166.960937-120.699219-96.945313 0-175.8125 78.871094-175.8125 175.8125v53.28125c-12.074219-10.417969-27.292969-16.113281-43.402344-16.113281-.023437 0-.050781 0-.078125 0-17.8125.023437-34.542969 6.984375-47.109375 19.609375-25.882813 26-25.804687 68.222656.179687 94.125l92.5 92.210937c-1.570312 3.25-2.453124 6.890625-2.453124 10.734375v57.597656c0 13.644532 11.097656 24.742188 24.742187 24.742188h290.625c13.644531 0 24.742187-11.101562 24.742187-24.742188v-57.597656c0-9.617187-5.519531-17.96875-13.558593-22.058594 16.058593-16.976562 25.441406-39.75 25.441406-63.621093v-8.519531c-.003906-5.523438-4.480469-10-10.003906-10zm-34.90625-116.621094-35.21875-35.21875c-3.902344-3.902344-10.234375-3.90625-14.140625 0l-35.222656 35.21875-35.21875-35.21875c-3.90625-3.90625-10.234376-3.90625-14.144532 0l-35.21875 35.21875-35.21875-35.21875c-3.902344-3.902344-10.234375-3.90625-14.144531 0l-35.21875 35.21875-32.976563-32.980469v-.046875c0-13.28125 1.671876-26.179688 4.816407-38.5l21.089843 21.089844c3.90625 3.902344 10.234376 3.902344 14.140626 0l35.222656-35.222656 35.21875 35.222656c1.875 1.875 4.417968 2.925781 7.070312 2.925781s5.195313-1.050781 7.070313-2.925781l35.21875-35.222656 35.222656 35.222656c3.90625 3.902344 10.234375 3.902344 14.140625 0l35.222656-35.222656 35.21875 35.222656c1.875 1.875 4.417969 2.925781 7.070313 2.925781 2.652343 0 5.195312-1.050781 7.070312-2.925781l14.535157-14.539063c2.160156 10.316407 3.300781 21.003907 3.300781 31.949219v8.121094zm-130.90625-188.839844c66.972656 0 124.207031 42.476562 146.195312 101.902344l-15.289062 15.285156-35.21875-35.21875c-1.875-1.875-4.417969-2.929688-7.070313-2.929688s-5.195312 1.054688-7.070312 2.929688l-35.21875 35.21875-35.222656-35.21875c-3.90625-3.90625-10.234376-3.90625-14.140626 0l-35.222656 35.21875-35.21875-35.21875c-1.875-1.875-4.417968-2.929688-7.070312-2.929688s-5.195313 1.054688-7.070313 2.929688l-35.21875 35.21875-21.078125-21.078125c23.476563-56.375 79.136719-96.109375 143.914063-96.109375zm143.933593 467.257812c0 2.613282-2.125 4.742188-4.742187 4.742188h-290.628906c-2.613281 0-4.738281-2.128906-4.738281-4.742188v-57.597656c0-2.613281 2.125-4.738281 4.738281-4.738281h276.796875.03125.03125 13.769531c2.617187 0 4.742187 2.125 4.742187 4.738281zm0 0"></path><path d="m452.078125 281.921875c-2.628906 0-5.210937 1.066406-7.070313 2.929687-1.867187 1.859376-2.929687 4.4375-2.929687 7.070313 0 2.628906 1.0625 5.207031 2.929687 7.066406 1.859376 1.859375 4.441407 2.933594 7.070313 2.933594s5.210937-1.070313 7.070313-2.933594c1.859374-1.859375 2.929687-4.4375 2.929687-7.066406 0-2.632813-1.070313-5.210937-2.929687-7.070313-1.871094-1.863281-4.441407-2.929687-7.070313-2.929687zm0 0"></path><path d="m396.824219 288.644531c-2.761719-4.78125-8.878907-6.421875-13.660157-3.660156l-14.519531 8.382813v-16.765626c0-5.519531-4.476562-10-10-10-5.519531 0-10 4.480469-10 10v16.765626l-14.515625-8.382813c-4.785156-2.761719-10.902344-1.121094-13.660156 3.660156-2.761719 4.785157-1.125 10.898438 3.660156 13.660157l14.515625 8.382812-14.515625 8.382812c-4.785156 2.761719-6.421875 8.875-3.660156 13.660157 1.851562 3.207031 5.210938 5 8.667969 5 1.695312 0 3.417969-.433594 4.992187-1.339844l14.515625-8.382813v16.761719c0 5.523438 4.480469 10 10 10 5.523438 0 10-4.476562 10-10v-16.761719l14.519531 8.382813c1.574219.90625 3.292969 1.339844 4.988282 1.339844 3.457031 0 6.820312-1.792969 8.671875-5 2.761719-4.785157 1.121093-10.898438-3.660157-13.660157l-14.519531-8.382812 14.519531-8.382812c4.78125-2.761719 6.421876-8.875 3.660157-13.660157zm0 0"></path><path d="m268.835938 288.644531c-2.761719-4.78125-8.878907-6.421875-13.660157-3.660156l-14.519531 8.382813v-16.765626c0-5.519531-4.476562-10-10-10s-10 4.480469-10 10v16.765626l-14.519531-8.382813c-4.785157-2.761719-10.898438-1.121094-13.660157 3.660156-2.761718 4.785157-1.121093 10.898438 3.660157 13.660157l14.519531 8.382812-14.519531 8.382812c-4.78125 2.761719-6.421875 8.875-3.660157 13.660157 1.855469 3.207031 5.214844 5 8.671876 5 1.695312 0 3.417968-.433594 4.988281-1.339844l14.519531-8.382813v16.761719c0 5.523438 4.476562 10 10 10s10-4.476562 10-10v-16.761719l14.519531 8.382813c1.574219.90625 3.292969 1.339844 4.988281 1.339844 3.457032 0 6.820313-1.792969 8.671876-5 2.761718-4.785157 1.121093-10.898438-3.660157-13.660157l-14.519531-8.382812 14.519531-8.382812c4.78125-2.761719 6.421875-8.875 3.660157-13.660157zm0 0"></path></svg>