<!-- icon666.com - MILLIONS vector ICONS FREE --><svg viewBox="0 0 512 512" xmlns="http://www.w3.org/2000/svg"><path d="m96.675781 96.996094v-75.433594c0-6.386719 5.175781-11.5625 11.5625-11.5625h20.210938c6.386719 0 11.5625 5.175781 11.5625 11.5625v75.433594-75.433594c0-6.386719 5.179687-11.5625 11.566406-11.5625h20.207031c6.390625 0 11.566406 5.175781 11.566406 11.5625v84.527344c0 1.707031.574219 3.367187 1.632813 4.707031 3.078125 3.90625 9.015625 3.859375 12.03125-.101563l24.449219-32.125c3.472656-4.558593 9.917968-5.578124 14.625-2.3125l22.761718 15.789063c4.597657 3.191406 5.964844 9.386719 3.132813 14.214844l-53.136719 90.644531c-6.011718 10.253906-9.179687 21.929688-9.179687 33.816406v52.714844c0 6.128906-4.972657 11.101562-11.101563 11.101562h-151.464844c-6.132812 0-11.101562-4.972656-11.101562-11.101562v-70.0625l9.5 6.125c-16.242188-14.800781-25.5-35.757812-25.5-57.734375v-140.203125c0-6.386719 5.175781-11.5625 11.5625-11.5625h20.210938c6.386718 0 11.566406 5.175781 11.566406 11.5625v85.957031-85.957031c-.003906-6.386719 5.175781-11.5625 11.5625-11.5625h20.207031c6.386719 0 11.566406 5.175781 11.566406 11.5625zm0 0" fill="#ff5d5d"></path><path d="m415.324219 220.089844v-75.429688c0-6.386718-5.175781-11.566406-11.5625-11.566406h-20.210938c-6.386719 0-11.5625 5.179688-11.5625 11.566406v75.429688-75.429688c0-6.386718-5.179687-11.566406-11.566406-11.566406h-20.207031c-6.390625 0-11.566406 5.179688-11.566406 11.566406v84.523438c0 1.710937-.574219 3.367187-1.632813 4.710937-3.078125 3.90625-9.015625 3.855469-12.03125-.101562l-24.449219-32.125c-3.472656-4.558594-9.917968-5.578125-14.625-2.3125l-22.761718 15.789062c-4.597657 3.1875-5.964844 9.382813-3.132813 14.210938l53.136719 90.644531c6.011718 10.257812 9.179687 21.929688 9.179687 33.816406v52.714844c0 6.132812 4.972657 11.101562 11.101563 11.101562h151.460937c6.132813 0 11.101563-4.972656 11.101563-11.101562v-70.0625l-9.5 6.125c16.246094-14.796875 25.5-35.757812 25.5-57.730469v-140.207031c0-6.386719-5.175782-11.5625-11.5625-11.5625h-20.210938c-6.386718 0-11.5625 5.175781-11.5625 11.5625v85.957031-85.957031c0-6.386719-5.175781-11.5625-11.5625-11.5625h-20.210937c-6.386719 0-11.566407 5.175781-11.566407 11.5625v75.433594zm0 0" fill="#ff5d5d"></path><path d="m53.339844 106.988281c2.628906 0 5.210937-1.058593 7.070312-2.917969 1.859375-1.859374 2.929688-4.441406 2.929688-7.082031 0-2.628906-1.070313-5.199219-2.929688-7.066406-1.859375-1.863281-4.441406-2.933594-7.070312-2.933594s-5.210938 1.070313-7.070313 2.933594c-1.859375 1.867187-2.929687 4.4375-2.929687 7.066406 0 2.640625 1.070312 5.222657 2.929687 7.082031 1.859375 1.859376 4.441407 2.917969 7.070313 2.917969zm0 0"></path><path d="m512 144.660156c0-11.890625-9.671875-21.566406-21.5625-21.566406h-20.210938c-4.257812 0-8.21875 1.257812-11.5625 3.394531-3.347656-2.136719-7.308593-3.394531-11.566406-3.394531h-20.207031c-4.257813 0-8.21875 1.257812-11.566406 3.394531-3.34375-2.136719-7.304688-3.394531-11.5625-3.394531h-20.207031c-4.257813 0-8.21875 1.257812-11.566407 3.394531-3.34375-2.136719-7.304687-3.394531-11.5625-3.394531h-20.210937c-11.890625 0-21.5625 9.675781-21.5625 21.566406v77.433594l-20.15625-26.484375c-6.730469-8.839844-19.152344-10.804687-28.28125-4.472656l-22.761719 15.789062c-8.839844 6.132813-11.503906 18.207031-6.0625 27.488281l53.136719 90.644532c5.105468 8.714844 7.808594 18.65625 7.808594 28.757812v52.714844c0 11.636719 9.464843 21.101562 21.101562 21.101562h151.460938c.371093 0 .734374-.035156 1.101562-.054687v40.921875c0 12.957031-10.539062 23.5-23.5 23.5h-56.75c-5.523438 0-10 4.476562-10 10s4.476562 10 10 10h56.75c23.988281 0 43.5-19.515625 43.5-43.5v-132.03125c0-.316406-.019531-.628906-.046875-.941406 10.332031-14.71875 16.046875-32.421875 16.046875-50.667969zm-253.355469 79.640625c-.1875-.320312-.09375-.730469.207031-.941406l22.761719-15.789063c.3125-.214843.734375-.148437.964844.152344l24.453125 32.125c3.324219 4.367188 8.375 6.898438 13.863281 6.941406 5.453125.042969 10.582031-2.398437 13.976563-6.707031 2.4375-3.089843 3.777344-6.960937 3.777344-10.898437v-84.523438c0-.863281.703124-1.566406 1.566406-1.566406h20.207031c.863281 0 1.5625.703125 1.5625 1.566406v75.429688c0 5.523437 4.480469 10 10 10 5.523437 0 10-4.476563 10-10v-75.429688c0-.863281.703125-1.566406 1.566406-1.566406h20.210938c.859375 0 1.5625.703125 1.5625 1.566406v75.429688c0 5.523437 4.476562 10 10 10 5.523437 0 10-4.476563 10-10v-75.429688c0-.863281.699219-1.566406 1.5625-1.566406h20.210937c.859375 0 1.5625.703125 1.5625 1.566406v75.429688c0 5.523437 4.476563 10 10 10 5.523438 0 10-4.476563 10-10v-75.429688c0-.863281.703125-1.566406 1.5625-1.566406h20.210938c.863281 0 1.5625.703125 1.5625 1.566406v140.203125c0 17.859375-7.078125 35.046875-19.53125 47.730469h-153.132813c-1.765625-6.152344-4.292969-12.085938-7.550781-17.648438zm130.523438 128.292969v55.039062h-23.417969v-55.039062zm20 0h23.417969v55.039062h-23.417969zm-86.835938 53.9375v-52.714844c0-.410156-.011719-.8125-.019531-1.222656h23.4375v55.039062h-22.3125c-.609375 0-1.105469-.492187-1.105469-1.101562zm152.566407 1.101562h-22.316407v-55.039062h23.417969v53.9375c0 .609375-.496094 1.101562-1.101562 1.101562zm0 0"></path><path d="m355.75 492c-2.628906 0-5.210938 1.070312-7.070312 2.929688-1.859376 1.859374-2.929688 4.441406-2.929688 7.070312s1.070312 5.210938 2.929688 7.070312c1.859374 1.859376 4.441406 2.929688 7.070312 2.929688s5.210938-1.070312 7.070312-2.929688c1.859376-1.859374 2.929688-4.441406 2.929688-7.070312s-1.070312-5.210938-2.929688-7.070312c-1.859374-1.859376-4.441406-2.929688-7.070312-2.929688zm0 0"></path><path d="m315.75 492h-56.25c-21.78125 0-39.5-17.71875-39.5-39.5 0-32.808594-26.691406-59.5-59.5-59.5h-85c-21.78125 0-39.5-17.71875-39.5-39.5v-49.019531c.367188.019531.730469.058593 1.101562.058593h151.464844c11.632813 0 21.101563-9.46875 21.101563-21.105468v-52.710938c0-10.101562 2.699219-20.046875 7.808593-28.757812l53.132813-90.648438c5.441406-9.28125 2.777344-21.351562-6.0625-27.484375l-22.761719-15.789062c-9.128906-6.335938-21.550781-4.371094-28.277344 4.472656l-20.160156 26.480469v-77.433594c0-11.890625-9.671875-21.5625-21.5625-21.5625h-20.210937c-4.253907 0-8.214844 1.257812-11.5625 3.394531-3.347657-2.136719-7.308594-3.394531-11.5625-3.394531h-20.210938c-4.257812 0-8.21875 1.257812-11.5625 3.394531-3.347656-2.136719-7.308593-3.394531-11.566406-3.394531h-20.207031c-4.257813 0-8.21875 1.257812-11.566406 3.394531-3.34375-2.136719-7.304688-3.394531-11.5625-3.394531h-20.210938c-11.890625 0-21.5625 9.671875-21.5625 21.5625v140.203125c0 18.25 5.714844 35.949219 16.046875 50.667969-.027344.3125-.046875.625-.046875.941406v140.125c0 32.808594 26.691406 59.5 59.5 59.5h85c21.78125 0 39.5 17.71875 39.5 39.5 0 32.808594 26.691406 59.5 59.5 59.5h56.25c5.523438 0 10-4.476562 10-10s-4.476562-10-10-10zm-279.75-208.5625v-53.9375h23.414062v55.039062h-22.3125c-.605468 0-1.101562-.496093-1.101562-1.101562zm66.828125-53.9375v55.039062h-23.414063v-55.039062zm43.414063 0v55.039062h-23.414063v-55.039062zm43.425781 53.9375c0 .605469-.496094 1.101562-1.101563 1.101562h-22.324218v-55.039062h23.445312c-.003906.40625-.019531.8125-.019531 1.222656zm-169.667969-261.875c0-.859375.703125-1.5625 1.5625-1.5625h20.210938c.863281 0 1.5625.703125 1.5625 1.5625v35.433594c0 5.523437 4.476562 10 10 10 5.523437 0 10-4.476563 10-10v-35.433594c0-.863281.703124-1.5625 1.566406-1.5625h20.207031c.863281 0 1.566406.699219 1.566406 1.5625v75.433594c0 5.523437 4.476563 10 10 10 5.519531 0 10-4.476563 10-10v-75.433594c0-.859375.699219-1.5625 1.5625-1.5625h20.207031c.863282 0 1.566407.703125 1.566407 1.5625v75.433594c0 5.523437 4.476562 10 10 10 5.523437 0 10-4.476563 10-10v-75.433594c0-.859375.699219-1.5625 1.5625-1.5625h20.210937c.859375 0 1.5625.703125 1.5625 1.5625v84.527344c0 3.933594 1.339844 7.804687 3.777344 10.898437 3.398438 4.308594 8.492188 6.765625 13.980469 6.707031 5.484375-.046874 10.539062-2.578124 13.863281-6.941406l24.449219-32.125c.230469-.304687.65625-.367187.96875-.152344l22.761719 15.789063c.300781.210937.390624.621094.207031.9375l-53.136719 90.644531c-3.261719 5.5625-5.785156 11.5-7.554688 17.652344h-153.128906c-12.457031-12.683594-19.535156-29.871094-19.535156-47.734375zm0 0"></path><path d="m140.632812 177.957031c1.875 1.875 4.417969 2.929688 7.070313 2.929688s5.195313-1.054688 7.070313-2.929688l17.707031-17.703125c3.902343-3.90625 3.902343-10.238281 0-14.144531-3.90625-3.90625-10.238281-3.90625-14.144531 0l-10.632813 10.632813-10.632813-10.632813c-3.90625-3.90625-10.238281-3.902344-14.144531 0-3.902343 3.90625-3.90625 10.238281 0 14.144531zm0 0"></path><path d="m53.175781 146.109375c-3.902343 3.90625-3.902343 10.238281 0 14.144531l17.707031 17.703125c1.875 1.875 4.417969 2.929688 7.070313 2.929688s5.195313-1.054688 7.070313-2.929688l17.707031-17.703125c3.902343-3.90625 3.902343-10.238281 0-14.144531-3.90625-3.902344-10.238281-3.902344-14.144531 0l-10.632813 10.636719-10.632813-10.636719c-3.90625-3.90625-10.238281-3.90625-14.144531 0zm0 0"></path><path d="m426.972656 306.925781c1.953125 1.949219 4.511719 2.925781 7.070313 2.925781 2.558593 0 5.117187-.976562 7.070312-2.925781l17.703125-17.707031c3.90625-3.90625 3.90625-10.238281 0-14.144531-3.902344-3.902344-10.234375-3.902344-14.140625 0l-10.636719 10.636719-10.632812-10.636719c-3.902344-3.902344-10.234375-3.902344-14.140625 0-3.90625 3.90625-3.90625 10.238281 0 14.144531zm0 0"></path><path d="m357.21875 306.925781c1.953125 1.949219 4.511719 2.925781 7.070312 2.925781 2.5625 0 5.121094-.976562 7.074219-2.925781l17.703125-17.707031c3.90625-3.90625 3.90625-10.238281 0-14.144531-3.90625-3.902344-10.238281-3.902344-14.140625 0l-10.636719 10.636719-10.632812-10.636719c-3.90625-3.902344-10.238281-3.902344-14.144531 0-3.902344 3.90625-3.902344 10.238281 0 14.144531zm0 0"></path></svg>