<!-- icon666.com - MILLIONS vector ICONS FREE --><svg viewBox="0 0 512 512" xmlns="http://www.w3.org/2000/svg"><path d="m502 203.375c0-18.335938-7.824219-34.839844-20.308594-46.371094 5.042969-16.230468 3.570313-34.4375-5.597656-50.316406s-24.199219-26.261719-40.777344-30.007812c-3.746094-16.578126-14.125-31.605469-30.003906-40.773438s-34.085938-10.640625-50.316406-5.597656c-11.53125-12.484375-28.035156-20.308594-46.371094-20.308594s-34.839844 7.824219-46.371094 20.308594c-16.230468-5.042969-34.4375-3.570313-50.316406 5.597656s-26.261719 24.199219-30.007812 40.777344c-16.578126 3.746094-31.605469 14.125-40.773438 30.003906s-10.640625 34.085938-5.597656 50.316406c-12.484375 11.53125-20.308594 28.035156-20.308594 46.371094 0 18.339844 7.824219 34.839844 20.308594 46.375-5.046875 16.230469-3.570313 34.433594 5.597656 50.3125s24.195312 26.261719 40.773438 30.007812c3.746093 16.578126 14.128906 31.605469 30.007812 40.773438s34.082031 10.640625 50.316406 5.597656c11.53125 12.484375 28.035156 20.308594 46.371094 20.308594s34.839844-7.824219 46.371094-20.308594c16.230468 5.046875 34.4375 3.570313 50.316406-5.597656s26.261719-24.195312 30.007812-40.773438c16.578126-3.746093 31.605469-14.128906 40.773438-30.007812s10.640625-34.082031 5.597656-50.3125c12.484375-11.535156 20.308594-28.039062 20.308594-46.375zm0 0" fill="#36d28f"></path><path d="m309.085938 139.820312c-5.519532 0-10 4.476563-10 10v24.425782c0 5.523437 4.480468 10 10 10 5.523437 0 10-4.476563 10-10v-24.425782c0-5.523437-4.476563-10-10-10zm0 0"></path><path d="m309.085938 223.265625c-5.519532 0-10 4.476563-10 10v28.402344c0 5.523437 4.480468 10 10 10 5.523437 0 10-4.476563 10-10v-28.402344c0-5.523437-4.476563-10-10-10zm0 0"></path><path d="m273 212.664062-22.21875 12.828126c-4.785156 2.761718-6.421875 8.875-3.660156 13.660156 1.851562 3.207031 5.214844 5 8.667968 5 1.699219 0 3.417969-.433594 4.992188-1.339844l22.21875-12.828125c4.78125-2.761719 6.421875-8.878906 3.660156-13.660156-2.761718-4.785157-8.875-6.421875-13.660156-3.660157zm0 0"></path><path d="m341.027344 194.941406c1.695312 0 3.414062-.433594 4.988281-1.339844l21.429687-12.371093c4.78125-2.761719 6.421876-8.878907 3.660157-13.660157s-8.875-6.421874-13.660157-3.660156l-21.429687 12.371094c-4.78125 2.757812-6.421875 8.875-3.660156 13.660156 1.855469 3.207032 5.214843 5 8.671875 5zm0 0"></path><path d="m364.34375 245.285156c3.457031 0 6.820312-1.792968 8.671875-5 2.761719-4.785156 1.121094-10.898437-3.660156-13.660156l-24.179688-13.960938c-4.785156-2.761718-10.902343-1.121093-13.660156 3.660157-2.761719 4.78125-1.125 10.898437 3.660156 13.660156l24.179688 13.960937c1.574219.910157 3.292969 1.339844 4.988281 1.339844zm0 0"></path><path d="m283 176.765625-24.179688-13.957031c-4.785156-2.761719-10.898437-1.125-13.660156 3.660156-2.761718 4.78125-1.125 10.898438 3.660156 13.660156l24.179688 13.957032c1.574219.910156 3.292969 1.34375 4.988281 1.34375 3.457031 0 6.820313-1.792969 8.671875-5.003907 2.761719-4.78125 1.121094-10.898437-3.660156-13.660156zm0 0"></path><path d="m309.085938 83.839844c-5.519532 0-10 4.476562-10 10v16.929687c0 5.523438 4.480468 10 10 10 5.523437 0 10-4.476562 10-10v-16.929687c0-5.523438-4.476563-10-10-10zm0 0"></path><path d="m309.085938 288.914062c-5.519532 0-10 4.476563-10 10v10.171876c0 5.523437 4.480468 10 10 10 5.523437 0 10-4.476563 10-10v-10.171876c0-5.523437-4.476563-10-10-10zm0 0"></path><path d="m221.347656 164.265625c1.574219.910156 3.292969 1.339844 4.992188 1.339844 3.453125 0 6.816406-1.792969 8.667968-5 2.761719-4.78125 1.125-10.898438-3.660156-13.660157l-16.496094-9.523437c-4.785156-2.761719-10.898437-1.121094-13.660156 3.660156-2.761718 4.78125-1.121094 10.898438 3.660156 13.660157zm0 0"></path><path d="m412.539062 251.554688-12.59375-7.269532c-4.785156-2.761718-10.898437-1.125-13.660156 3.660156-2.761718 4.78125-1.125 10.898438 3.660156 13.660157l12.59375 7.269531c1.574219.910156 3.292969 1.34375 4.988282 1.34375 3.457031 0 6.820312-1.792969 8.671875-5.003906 2.761719-4.78125 1.121093-10.898438-3.660157-13.660156zm0 0"></path><path d="m167.046875 132.914062 7.671875 4.429688c1.574219.910156 3.292969 1.339844 4.992188 1.339844 3.453124 0 6.816406-1.792969 8.667968-5 2.761719-4.78125 1.125-10.898438-3.660156-13.660156l-7.671875-4.429688c-4.785156-2.761719-10.898437-1.121094-13.660156 3.660156s-1.125 10.898438 3.660156 13.660156zm0 0"></path><path d="m450.429688 273.433594-9.464844-5.46875c-4.785156-2.761719-10.902344-1.121094-13.664063 3.660156s-1.121093 10.898438 3.660157 13.660156l9.464843 5.46875c1.578125.90625 3.296875 1.339844 4.992188 1.339844 3.457031 0 6.816406-1.792969 8.671875-5 2.761718-4.785156 1.121094-10.902344-3.660156-13.660156zm0 0"></path><path d="m309.085938 338.511719c-5.519532 0-10 4.480469-10 10v6.472656c0 5.523437 4.480468 10 10 10 5.523437 0 10-4.476563 10-10v-6.472656c0-5.523438-4.476563-10-10-10zm0 0"></path><path d="m309.085938 40c-5.519532 0-10 4.476562-10 10v6.871094c0 5.523437 4.480468 10 10 10 5.523437 0 10-4.476563 10-10v-6.871094c0-5.523438-4.476563-10-10-10zm0 0"></path><path d="m441.199219 137.105469c1.695312 0 3.414062-.429688 4.992187-1.339844l4.234375-2.445313c4.785157-2.761718 6.421875-8.878906 3.660157-13.660156-2.757813-4.78125-8.871094-6.421875-13.660157-3.660156l-4.234375 2.445312c-4.785156 2.761719-6.421875 8.875-3.660156 13.660157 1.851562 3.207031 5.210938 5 8.667969 5zm0 0"></path><path d="m177.214844 267.964844-8.101563 4.675781c-4.78125 2.761719-6.421875 8.878906-3.660156 13.660156 1.851563 3.210938 5.210937 5.003907 8.667969 5.003907 1.699218 0 3.417968-.433594 4.992187-1.34375l8.101563-4.675782c4.78125-2.761718 6.421875-8.875 3.65625-13.660156-2.757813-4.78125-8.871094-6.421875-13.65625-3.660156zm0 0"></path><path d="m232.441406 247.625c-2.761718-4.78125-8.875-6.421875-13.660156-3.660156l-10.925781 6.308594c-4.78125 2.761718-6.421875 8.878906-3.660157 13.660156 1.855469 3.207031 5.214844 5.003906 8.671876 5.003906 1.695312 0 3.414062-.433594 4.988281-1.34375l10.925781-6.308594c4.785156-2.761718 6.421875-8.878906 3.660156-13.660156zm0 0"></path><path d="m406.863281 135.375-16.917969 9.769531c-4.785156 2.761719-6.421874 8.878907-3.660156 13.660157 1.851563 3.207031 5.210938 5 8.667969 5 1.695313 0 3.414063-.429688 4.992187-1.339844l16.917969-9.769532c4.785157-2.761718 6.421875-8.875 3.660157-13.660156-2.757813-4.78125-8.871094-6.421875-13.660157-3.660156zm0 0"></path><path d="m368.425781 100.597656c1.574219.910156 3.292969 1.34375 4.988281 1.34375 3.457032 0 6.820313-1.792968 8.671876-5.003906l10.320312-17.875c2.761719-4.785156 1.121094-10.898438-3.660156-13.660156-4.785156-2.765625-10.898438-1.121094-13.660156 3.660156l-10.320313 17.875c-2.761719 4.785156-1.125 10.902344 3.660156 13.660156zm0 0"></path><path d="m247.378906 308.652344c-4.78125-2.761719-10.898437-1.121094-13.660156 3.660156l-8.875 15.375c-2.761719 4.785156-1.121094 10.898438 3.660156 13.660156 1.574219.910156 3.292969 1.34375 4.988282 1.34375 3.457031 0 6.820312-1.796875 8.671874-5.003906l8.875-15.375c2.761719-4.78125 1.125-10.898438-3.660156-13.660156zm0 0"></path><path d="m189.71875 202.972656c0-5.519531-4.476562-10-10-10h-20.644531c-5.523438 0-10 4.480469-10 10 0 5.523438 4.480469 10 10 10h20.644531c5.523438.003906 10-4.476562 10-10zm0 0"></path><path d="m444.058594 193.769531c-2.628906 0-5.207032 1.070313-7.066406 2.929688-1.859376 1.859375-2.933594 4.441406-2.933594 7.070312 0 2.640625 1.070312 5.21875 2.933594 7.082031 1.859374 1.859376 4.4375 2.917969 7.066406 2.917969 2.632812 0 5.210937-1.058593 7.070312-2.917969 1.859375-1.863281 2.929688-4.441406 2.929688-7.082031 0-2.628906-1.066406-5.210937-2.929688-7.070312-1.859375-1.859375-4.441406-2.929688-7.070312-2.929688zm0 0"></path><path d="m383.90625 314.566406c-2.761719-4.78125-8.875-6.421875-13.660156-3.660156-4.78125 2.765625-6.421875 8.878906-3.660156 13.660156l7.808593 13.523438c1.851563 3.207031 5.210938 5 8.667969 5 1.699219 0 3.417969-.433594 4.992188-1.339844 4.78125-2.761719 6.421874-8.878906 3.660156-13.660156zm0 0"></path><path d="m233.601562 92.628906c1.851563 3.207032 5.210938 5 8.667969 5 1.699219 0 3.417969-.433594 4.992188-1.339844 4.78125-2.761718 6.421875-8.878906 3.660156-13.660156l-8.066406-13.96875c-2.761719-4.78125-8.875-6.421875-13.660157-3.660156-4.78125 2.761719-6.421874 8.878906-3.660156 13.660156zm0 0"></path><path d="m252.429688 125.304688 7.507812 13.003906c1.851562 3.207031 5.210938 5 8.667969 5 1.699219 0 3.417969-.429688 4.992187-1.339844 4.78125-2.761719 6.421875-8.878906 3.660156-13.660156l-7.507812-13.003906c-2.761719-4.78125-8.875-6.421876-13.660156-3.660157s-6.421875 8.875-3.660156 13.660157zm0 0"></path><path d="m364.820312 281.445312-10.632812-18.417968c-2.761719-4.78125-8.871094-6.421875-13.660156-3.660156-4.78125 2.761718-6.421875 8.878906-3.660156 13.660156l10.632812 18.417968c1.855469 3.207032 5.214844 5 8.671875 5 1.695313 0 3.414063-.429687 4.988281-1.339843 4.785156-2.761719 6.421875-8.875 3.660156-13.660157zm0 0"></path><path d="m273.597656 263.3125c-4.785156-2.761719-10.898437-1.125-13.660156 3.660156l-8.144531 14.105469c-2.761719 4.78125-1.125 10.898437 3.660156 13.660156 1.574219.910157 3.292969 1.339844 4.988281 1.339844 3.457032 0 6.820313-1.792969 8.671875-5l8.144531-14.105469c2.761719-4.785156 1.121094-10.902344-3.660156-13.660156zm0 0"></path><path d="m340.527344 148.851562c1.574218.910157 3.292968 1.34375 4.992187 1.34375 3.453125 0 6.816407-1.792968 8.667969-5.003906l11.269531-19.519531c2.761719-4.78125 1.125-10.898437-3.660156-13.660156-4.78125-2.761719-10.898437-1.121094-13.660156 3.660156l-11.269531 19.519531c-2.761719 4.785156-1.121094 10.898438 3.660156 13.660156zm0 0"></path><path d="m374 203.742188c0 5.523437 4.476562 10 10 10h20.335938c5.519531 0 10-4.476563 10-10 0-5.523438-4.480469-10-10-10h-20.335938c-5.523438 0-10 4.476562-10 10zm0 0"></path><path d="m233.503906 193.007812h-15.90625c-5.519531 0-10 4.476563-10 10 0 5.523438 4.480469 10 10 10h15.90625c5.523438 0 10-4.476562 10-10 0-5.523437-4.476562-10-10-10zm0 0"></path><path d="m512 203.375c0-18.269531-6.925781-35.9375-19.183594-49.355469 3.90625-17.746093 1.070313-36.507812-8.0625-52.332031-9.136718-15.824219-23.96875-27.660156-41.289062-33.148438-5.492188-17.324218-17.328125-32.15625-33.152344-41.292968-15.824219-9.132813-34.585938-11.96875-52.332031-8.0625-13.417969-12.257813-31.085938-19.183594-49.355469-19.183594s-35.9375 6.925781-49.355469 19.183594c-17.746093-3.90625-36.507812-1.074219-52.332031 8.0625-15.824219 9.136718-27.660156 23.96875-33.148438 41.289062-17.324218 5.492188-32.15625 17.328125-41.292968 33.152344-9.132813 15.824219-11.96875 34.585938-8.0625 52.332031-12.253906 13.417969-19.183594 31.082031-19.183594 49.355469 0 18.269531 6.929688 35.9375 19.183594 49.351562-3.90625 17.75-1.070313 36.511719 8.0625 52.335938 9.136718 15.820312 23.96875 27.65625 41.292968 33.148438 5.488282 17.320312 17.324219 32.15625 33.148438 41.289062 13.21875 7.632812 28.488281 10.847656 43.5 9.429688-34.207031 12.0625-72.355469 8.628906-103.984375-9.785157-38.019531-22.128906-83.371094-25.773437-124.429687-9.992187l-13.734376 5.277344c-5.152343 1.980468-7.726562 7.765624-5.746093 12.921874s7.765625 7.730469 12.921875 5.746094l13.730468-5.277344c35.375-13.589843 74.445313-10.453124 107.195313 8.609376 22.335937 13.003906 47.46875 19.574218 72.671875 19.574218 10.042969 0 20.09375-1.046875 29.980469-3.140625-27.40625 19.675781-61.464844 28.925781-95.636719 25.195313-38.875-4.242188-77.773438 5.996094-109.515625 28.832031-4.484375 3.222656-5.503906 9.472656-2.28125 13.957031 1.953125 2.714844 5.019531 4.160156 8.128906 4.160156 2.019531 0 4.0625-.609374 5.828125-1.882812 27.730469-19.945312 61.707032-28.894531 95.671875-25.183594 50.820313 5.539063 101.421875-13.957031 135.378907-52.160156l4.105468-4.617188c8.777344 3.632813 18.25 5.582032 27.902344 5.582032 18.273438 0 35.9375-6.925782 49.355469-19.183594 17.746093 3.90625 36.507812 1.074219 52.332031-8.0625s27.660156-23.96875 33.152344-41.289062c17.320312-5.492188 32.152344-17.328126 41.289062-33.152344 9.136719-15.820313 11.96875-34.585938 8.0625-52.332032 12.257813-13.414062 19.183594-31.082031 19.183594-49.351562zm-37.09375 39.027344c-2.835938 2.617187-3.910156 6.628906-2.765625 10.3125 4.390625 14.125 2.675781 29.558594-4.707031 42.347656-7.382813 12.789062-19.894532 21.992188-34.320313 25.25-3.761719.851562-6.699219 3.789062-7.550781 7.550781-3.257812 14.425781-12.460938 26.9375-25.25 34.320313-12.789062 7.382812-28.222656 9.101562-42.347656 4.707031-3.683594-1.140625-7.695313-.066406-10.3125 2.765625-10.035156 10.863281-24.261719 17.09375-39.027344 17.09375s-28.992188-6.230469-39.027344-17.09375c-1.921875-2.082031-4.601562-3.214844-7.347656-3.214844-.988281 0-1.988281.148438-2.964844.449219-14.125 4.390625-29.558594 2.675781-42.347656-4.707031-12.789062-7.382813-21.992188-19.894532-25.253906-34.320313-.847656-3.761719-3.785156-6.699219-7.546875-7.550781-14.429688-3.257812-26.9375-12.460938-34.320313-25.25-7.382812-12.789062-9.097656-28.222656-4.707031-42.347656 1.144531-3.683594.066406-7.695313-2.765625-10.3125-10.863281-10.035156-17.09375-24.261719-17.09375-39.027344s6.230469-28.992188 17.09375-39.027344c2.832031-2.617187 3.910156-6.628906 2.765625-10.3125-4.390625-14.125-2.675781-29.558594 4.707031-42.347656 7.382813-12.789062 19.894532-21.992188 34.320313-25.25 3.761719-.851562 6.699219-3.789062 7.546875-7.550781 3.261718-14.425781 12.464844-26.9375 25.253906-34.320313 12.789062-7.378906 28.222656-9.097656 42.347656-4.707031 3.683594 1.144531 7.695313.070313 10.3125-2.765625 10.035156-10.863281 24.261719-17.09375 39.027344-17.09375s28.992188 6.230469 39.027344 17.09375c2.617187 2.832031 6.628906 3.910156 10.3125 2.765625 14.125-4.390625 29.558594-2.675781 42.347656 4.707031 12.789062 7.382813 21.992188 19.894532 25.253906 34.320313.847656 3.761719 3.785156 6.699219 7.546875 7.546875 14.429688 3.261718 26.9375 12.464844 34.320313 25.253906 7.382812 12.789062 9.097656 28.222656 4.707031 42.34375-1.144531 3.683594-.066406 7.699219 2.765625 10.316406 10.863281 10.035156 17.09375 24.261719 17.09375 39.027344s-6.230469 28.992188-17.09375 39.027344zm0 0"></path><path d="m10 492c-2.628906 0-5.210938 1.070312-7.070312 2.929688-1.859376 1.859374-2.929688 4.441406-2.929688 7.070312s1.070312 5.210938 2.929688 7.070312c1.859374 1.859376 4.441406 2.929688 7.070312 2.929688s5.210938-1.070312 7.070312-2.929688c1.859376-1.859374 2.929688-4.441406 2.929688-7.070312s-1.070312-5.210938-2.929688-7.070312c-1.859374-1.859376-4.441406-2.929688-7.070312-2.929688zm0 0"></path></svg>