<!-- icon666.com - MILLIONS vector ICONS FREE --><svg viewBox="0 0 512 512.00054" xmlns="http://www.w3.org/2000/svg"><path d="m357.722656 27.214844c22.140625-32.316406 72.757813-15.871094 71.675782 23.289062 36.910156-13.132812 68.191406 29.925782 44.300781 60.96875 37.574219 11.070313 37.574219 64.296875 0 75.367188 23.890625 31.042968-7.390625 74.101562-44.300781 60.972656 1.085937 39.15625-49.535157 55.605469-71.675782 23.289062-22.140625 32.316407-72.761718 15.867188-71.675781-23.289062-36.910156 13.132812-68.191406-29.929688-44.300781-60.972656-37.574219-11.070313-37.574219-64.296875 0-75.367188-23.890625-31.042968 7.390625-74.101562 44.300781-60.96875-1.085937-39.160156 49.535156-55.605468 71.675781-23.289062zm0 0" fill="#ffc66c"></path><path d="m191.945312 372.375c-17.570312 0-31.8125 14.242188-31.8125 31.8125v27.871094c0 17.574218 14.242188 31.816406 31.8125 31.816406 17.574219 0 31.816407-14.242188 31.816407-31.816406v-27.871094c0-17.570312-14.246094-31.8125-31.816407-31.8125zm0 0" fill="#fe8f8d"></path><path d="m216.65625 452.09375c26.855469 31.65625 66.273438 49.90625 107.785156 49.90625h11.984375c20.691407 0 37.46875-16.773438 37.46875-37.46875v-92.816406c0-20.691406-16.777343-37.46875-37.46875-37.46875h-11.984375c-41.515625 0-80.929687 18.25-107.785156 49.90625zm0 0" fill="#ff5d5d"></path><path d="m167.238281 452.09375c-26.855469 31.65625-66.273437 49.90625-107.785156 49.90625h-11.984375c-20.691406 0-37.46875-16.773438-37.46875-37.46875v-92.816406c0-20.691406 16.777344-37.46875 37.46875-37.46875h11.984375c41.515625 0 80.929687 18.25 107.785156 49.90625zm0 0" fill="#ff5d5d"></path><path d="m482.4375 239.769531c10.632812-14.632812 12.464844-32.570312 5.574219-48.277343 14.808593-8.65625 23.867187-24.242188 23.867187-42.332032s-9.058594-33.679687-23.867187-42.335937c6.890625-15.707031 5.058593-33.640625-5.574219-48.277344-10.632812-14.632813-27.113281-21.917969-44.191406-20.222656-3.65625-16.753907-15.683594-30.1875-32.886719-35.777344-17.203125-5.59375-34.828125-1.792969-47.636719 9.613281-12.808594-11.40625-30.433594-15.203125-47.636718-9.613281-17.203126 5.589844-29.230469 19.023437-32.890626 35.78125-17.070312-1.714844-33.554687 5.585937-44.1875 20.21875-10.632812 14.636719-12.46875 32.570313-5.578124 48.277344-14.804688 8.65625-23.863282 24.246093-23.863282 42.335937s9.058594 33.675782 23.863282 42.332032c-6.890626 15.707031-5.054688 33.644531 5.578124 48.277343 10.632813 14.636719 27.109376 21.929688 44.1875 20.222657 3.660157 16.753906 15.6875 30.1875 32.890626 35.777343 17.203124 5.59375 34.824218 1.792969 47.636718-9.613281 8.882813 7.90625 20.078125 12.160156 31.84375 12.160156 5.203125 0 10.519532-.832031 15.792969-2.546875 17.203125-5.589843 29.230469-19.019531 32.886719-35.777343 17.0625 1.695312 33.558594-5.585938 44.191406-20.222657zm-58.914062-.046875c-2.671876 1.9375-4.210938 5.070313-4.117188 8.367188.445312 16.140625-10.15625 25.390625-20.226562 28.660156-10.066407 3.273438-24.082032 2.019531-33.207032-11.300781-1.863281-2.722657-4.953125-4.347657-8.25-4.347657s-6.382812 1.625-8.25 4.347657c-9.125 13.320312-23.136718 14.574219-33.207031 11.300781-10.070313-3.269531-20.671875-12.519531-20.226563-28.660156.089844-3.296875-1.449218-6.429688-4.117187-8.367188s-6.121094-2.4375-9.230469-1.328125c-15.210937 5.414063-27.28125-1.8125-33.507812-10.378906-6.222656-8.566406-9.363282-22.277344.488281-35.074219 2.011719-2.613281 2.601563-6.054687 1.585937-9.1875-1.019531-3.140625-3.523437-5.570312-6.6875-6.503906-15.488281-4.5625-21.007812-17.503906-21.007812-28.089844 0-10.589844 5.519531-23.527344 21.007812-28.09375 3.164063-.933594 5.667969-3.363281 6.6875-6.5 1.019532-3.136718.425782-6.574218-1.585937-9.1875-9.851563-12.796875-6.710937-26.511718-.488281-35.078125 6.226562-8.566406 18.289062-15.792969 33.511718-10.375 3.105469 1.101563 6.558594.605469 9.226563-1.332031s4.207031-5.070312 4.117187-8.367188c-.445312-16.140624 10.15625-25.390624 20.226563-28.660156 10.074219-3.273437 24.082031-2.019531 33.207031 11.300782 1.867188 2.722656 4.953125 4.347656 8.25 4.347656s6.386719-1.625 8.25-4.347656c9.125-13.320313 23.136719-14.574219 33.207032-11.300782 10.070312 3.269532 20.671874 12.519532 20.226562 28.664063-.09375 3.292969 1.445312 6.425781 4.117188 8.363281 2.667968 1.9375 6.121093 2.4375 9.226562 1.332031 15.214844-5.414062 27.285156 1.8125 33.507812 10.375 6.226563 8.566407 9.363282 22.28125-.484374 35.078125-2.011719 2.613282-2.605469 6.050782-1.585938 9.1875 1.019531 3.136719 3.519531 5.566406 6.683594 6.5 15.492187 4.5625 21.011718 17.503906 21.011718 28.09375 0 10.585938-5.519531 23.527344-21.011718 28.089844-3.164063.933594-5.664063 3.363281-6.683594 6.503906-1.019531 3.136719-.425781 6.574219 1.585938 9.1875 9.851562 12.796875 6.710937 26.507813.484374 35.074219-6.222656 8.5625-18.292968 15.785156-33.507812 10.378906-3.105469-1.109375-6.558594-.609375-9.226562 1.328125zm0 0"></path><path d="m449.695312 179.039062c1.707032-5.25-1.167968-10.890624-6.421874-12.597656l-53.191407-17.285156 53.191407-17.285156c5.253906-1.707032 8.128906-7.347656 6.421874-12.597656-1.707031-5.253907-7.34375-8.128907-12.597656-6.421876l-53.199218 17.285157 32.878906-45.25c3.242187-4.46875 2.253906-10.722657-2.214844-13.96875-4.46875-3.246094-10.71875-2.253907-13.964844 2.214843l-32.878906 45.25v-55.929687c0-5.523437-4.476562-10-9.996094-10-5.523437 0-10 4.476563-10 10v55.933594l-32.878906-45.253907c-3.246094-4.46875-9.5-5.457031-13.964844-2.210937-4.46875 3.246094-5.457031 9.5-2.210937 13.964844l32.875 45.25-53.195313-17.28125c-5.25-1.707031-10.894531 1.167969-12.601562 6.417969-1.707032 5.253906 1.167968 10.894531 6.421875 12.601562l53.195312 17.285156-53.195312 17.28125c-5.253907 1.707032-8.128907 7.351563-6.421875 12.601563 1.375 4.226562 5.292968 6.910156 9.507812 6.910156 1.023438 0 2.066406-.15625 3.09375-.488281l53.195313-17.285156-32.875 45.25c-3.246094 4.46875-2.257813 10.722656 2.210937 13.96875 1.773438 1.289062 3.828125 1.910156 5.867188 1.910156 3.09375 0 6.144531-1.429688 8.097656-4.125l32.878906-45.25v55.933594c0 5.519531 4.476563 10 10 10 5.519532 0 9.996094-4.480469 9.996094-10v-55.9375l32.878906 45.253906c1.957032 2.691406 5.003906 4.121094 8.097656 4.121094 2.035157 0 4.09375-.621094 5.867188-1.910157 4.46875-3.246093 5.457031-9.5 2.214844-13.96875l-32.878906-45.25 53.199218 17.285157c1.023438.332031 2.066406.492187 3.089844.492187 4.214844 0 8.136719-2.6875 9.507812-6.914063zm0 0"></path><path d="m336.425781 324.25h-11.984375c-41.0625 0-80.019531 16.570312-108.429687 45.777344-6.8125-4.8125-15.109375-7.652344-24.0625-7.652344-8.957031 0-17.253907 2.839844-24.066407 7.652344-28.410156-29.207032-67.363281-45.777344-108.429687-45.777344h-11.984375c-26.175781 0-47.46875 21.292969-47.46875 47.46875v92.816406c0 26.171875 21.292969 47.464844 47.46875 47.464844h11.984375c41.0625 0 80.019531-16.570312 108.429687-45.777344 6.808594 4.8125 15.109376 7.652344 24.0625 7.652344 8.953126 0 17.253907-2.839844 24.0625-7.652344 28.410157 29.207032 67.367188 45.777344 108.429688 45.777344h11.984375c26.175781 0 47.46875-21.292969 47.46875-47.464844v-6.414062c0-5.523438-4.476563-10-10-10-5.519531 0-10 4.476562-10 10v6.414062c0 15.144532-12.320313 27.46875-27.46875 27.46875h-11.984375c-36.199219 0-70.519531-14.832031-95.269531-40.929687 2.925781-5.710938 4.589843-12.167969 4.589843-19.015625v-27.871094c0-6.84375-1.664062-13.304688-4.589843-19.011719 24.746093-26.097656 59.070312-40.929687 95.269531-40.929687h11.984375c15.148437 0 27.46875 12.324218 27.46875 27.472656v6.410156c0 5.519532 4.480469 10 10 10 5.523437 0 10-4.480468 10-10v-6.410156c.003906-26.175781-21.292969-47.46875-47.464844-47.46875zm-276.972656 167.75h-11.984375c-15.148438 0-27.46875-12.320312-27.46875-27.46875v-92.816406c0-15.144532 12.320312-27.46875 27.46875-27.46875h11.984375c36.199219 0 70.519531 14.832031 95.269531 40.929687-2.925781 5.707031-4.589844 12.167969-4.589844 19.011719v27.871094c0 6.84375 1.664063 13.304687 4.589844 19.015625-24.75 26.097656-59.070312 40.925781-95.269531 40.925781zm110.675781-59.941406v-27.871094c0-12.027344 9.789063-21.8125 21.816406-21.8125 12.03125 0 21.816407 9.785156 21.816407 21.8125v27.871094c0 12.03125-9.785157 21.816406-21.816407 21.816406-12.027343 0-21.816406-9.785156-21.816406-21.816406zm0 0"></path><path d="m373.894531 408.121094c-2.628906 0-5.210937 1.070312-7.070312 2.929687s-2.929688 4.441407-2.929688 7.070313c0 2.640625 1.070313 5.21875 2.929688 7.078125s4.441406 2.921875 7.070312 2.921875c2.628907 0 5.207031-1.0625 7.066407-2.921875 1.859374-1.867188 2.933593-4.449219 2.933593-7.078125s-1.070312-5.199219-2.933593-7.070313c-1.859376-1.859375-4.4375-2.929687-7.066407-2.929687zm0 0"></path><path d="m327.96875 411.050781c-1.859375-1.859375-4.441406-2.929687-7.070312-2.929687-2.628907 0-5.207032 1.070312-7.070313 2.929687-1.859375 1.859375-2.929687 4.4375-2.929687 7.070313 0 2.636718 1.070312 5.207031 2.929687 7.066406 1.863281 1.859375 4.441406 2.929688 7.070313 2.929688 2.628906 0 5.210937-1.066407 7.070312-2.929688 1.859375-1.859375 2.929688-4.429688 2.929688-7.066406 0-2.628906-1.070313-5.210938-2.929688-7.070313zm0 0"></path><path d="m327.96875 370.945312c-1.859375-1.859374-4.441406-2.929687-7.070312-2.929687-2.628907 0-5.207032 1.070313-7.070313 2.929687-1.859375 1.859376-2.929687 4.429688-2.929687 7.070313 0 2.628906 1.070312 5.207031 2.929687 7.066406 1.863281 1.859375 4.441406 2.929688 7.070313 2.929688 2.628906 0 5.210937-1.066407 7.070312-2.929688 1.859375-1.859375 2.929688-4.4375 2.929688-7.066406 0-2.640625-1.070313-5.210937-2.929688-7.070313zm0 0"></path><path d="m320.898438 448.238281c-2.628907 0-5.207032 1.070313-7.070313 2.929688-1.859375 1.859375-2.929687 4.4375-2.929687 7.070312 0 2.628907 1.070312 5.207031 2.929687 7.066407 1.863281 1.859374 4.441406 2.929687 7.070313 2.929687 2.628906 0 5.210937-1.070313 7.070312-2.929687 1.859375-1.859376 2.929688-4.4375 2.929688-7.066407 0-2.632812-1.070313-5.210937-2.929688-7.070312s-4.441406-2.929688-7.070312-2.929688zm0 0"></path><path d="m62.992188 408.121094c-2.636719 0-5.207032 1.070312-7.066407 2.929687s-2.929687 4.441407-2.929687 7.082031c0 2.628907 1.070312 5.207032 2.929687 7.058594 1.859375 1.859375 4.4375 2.929688 7.066407 2.929688 2.632812 0 5.210937-1.070313 7.070312-2.929688s2.929688-4.429687 2.929688-7.058594c0-2.640624-1.066407-5.210937-2.929688-7.082031-1.859375-1.859375-4.4375-2.929687-7.070312-2.929687zm0 0"></path><path d="m62.992188 368.015625c-2.628907 0-5.207032 1.070313-7.066407 2.929687-1.859375 1.859376-2.929687 4.429688-2.929687 7.070313 0 2.628906 1.070312 5.207031 2.929687 7.066406s4.4375 2.929688 7.066407 2.929688c2.632812 0 5.210937-1.066407 7.070312-2.929688 1.859375-1.859375 2.929688-4.4375 2.929688-7.066406 0-2.632813-1.066407-5.210937-2.929688-7.070313-1.859375-1.859374-4.4375-2.929687-7.070312-2.929687zm0 0"></path><path d="m62.992188 448.238281c-2.628907 0-5.207032 1.070313-7.066407 2.929688s-2.929687 4.4375-2.929687 7.070312c0 2.628907 1.070312 5.207031 2.929687 7.066407 1.859375 1.859374 4.4375 2.929687 7.066407 2.929687 2.632812 0 5.210937-1.070313 7.070312-2.929687 1.859375-1.859376 2.929688-4.4375 2.929688-7.066407 0-2.632812-1.066407-5.210937-2.929688-7.070312-1.859375-1.859375-4.4375-2.929688-7.070312-2.929688zm0 0"></path><path d="m63.925781 159.15625h11.089844c5.523437 0 10-4.476562 10-10 0-5.519531-4.476563-9.996094-10-9.996094h-11.089844c-5.523437 0-10 4.476563-10 9.996094 0 5.523438 4.476563 10 10 10zm0 0"></path><path d="m115.011719 159.15625h11.09375c5.519531 0 9.996093-4.476562 9.996093-10 0-5.519531-4.476562-9.996094-9.996093-9.996094h-11.09375c-5.519531 0-10 4.476563-10 9.996094 0 5.523438 4.480469 10 10 10zm0 0"></path><path d="m95.015625 159.15625c-5.523437 0-10 4.476562-10 10v11.089844c0 5.523437 4.476563 10 10 10 5.519531 0 9.996094-4.476563 9.996094-10v-11.089844c0-5.523438-4.476563-10-9.996094-10zm0 0"></path><path d="m95.015625 139.160156c5.519531 0 9.996094-4.480468 9.996094-10v-11.09375c0-5.519531-4.476563-9.996094-9.996094-9.996094-5.523437 0-10 4.476563-10 9.996094v11.09375c0 5.523438 4.476563 10 10 10zm0 0"></path><path d="m450.792969 408.125h-11.089844c-5.523437 0-10 4.476562-10 10 0 5.519531 4.476563 10 10 10h11.089844c5.523437 0 10-4.480469 10-10 0-5.523438-4.476563-10-10-10zm0 0"></path><path d="m501.882812 408.125h-11.09375c-5.519531 0-10 4.476562-10 10 0 5.519531 4.480469 10 10 10h11.09375c5.519532 0 9.996094-4.480469 9.996094-10 0-5.523438-4.476562-10-9.996094-10zm0 0"></path><path d="m470.792969 428.125c-5.523438 0-10 4.476562-10 9.996094v11.09375c0 5.519531 4.476562 10 10 10 5.519531 0 9.996093-4.480469 9.996093-10v-11.09375c0-5.519532-4.476562-9.996094-9.996093-9.996094zm0 0"></path><path d="m470.792969 377.035156c-5.523438 0-10 4.476563-10 10v11.089844c0 5.523438 4.476562 10 10 10 5.519531 0 9.996093-4.476562 9.996093-10v-11.089844c0-5.523437-4.476562-10-9.996093-10zm0 0"></path></svg>