<!-- icon666.com - MILLIONS vector ICONS FREE --><svg viewBox="-35 0 512 512" xmlns="http://www.w3.org/2000/svg"><path d="m113.824219 253.644531v-135.644531c0-59.648438 48.351562-108 108-108 59.648437 0 108 48.351562 108 108v135.644531zm0 0" fill="#ffc66c"></path><path d="m81.78125 386.074219h280v115.925781h-280zm0 0" fill="#72d8ff"></path><path d="m363.046875 381.140625-67.976563-29.890625-21.410156 37.058594 99.609375 59.003906c6.160157 3.648438 13.191407 5.574219 20.355469 5.574219 27.976562 0 47.285156-28.019531 37.320312-54.164063l-31.523437-82.710937c-13.011719-34.144531-43.328125-58.699219-79.429687-64.339844l-68.304688-10.675781h-59.808594l-68.304687 10.675781c-36.105469 5.640625-66.417969 30.195313-79.433594 64.339844l-31.523437 82.710937c-9.960938 26.144532 9.34375 54.164063 37.324218 54.164063 7.160156 0 14.191406-1.925781 20.355469-5.574219l99.609375-59.003906-21.410156-37.058594-67.976563 29.890625" fill="#72d8ff"></path><path d="m197.703125 360.550781-27.800781 25.523438-17.148438-27.453125c12.324219-7.246094 27.542969-7.511719 40.109375-.695313z" fill="#feda9b"></path><path d="m245.714844 360.550781 27.800781 25.523438 17.148437-27.453125c-12.324218-7.246094-27.542968-7.511719-40.109374-.695313z" fill="#feda9b"></path><path d="m289.167969 402.972656v99.027344h-136.90625v-99.027344l69.4375-46.199218zm0 0" fill="#ff5d5d"></path><path d="m252.003906 203.851562v32.839844c0 16.542969-13.601562 30.082032-30.148437 30.082032s-30.222657-13.539063-30.222657-30.082032v-32.839844zm0 0" fill="#fcc89d"></path><path d="m289.921875 118.726562v29.59375c0 37.496094-30.445313 67.894532-68 67.894532s-68-30.398438-68-67.894532v-47.1875h85.265625zm0 0" fill="#fcc89d"></path><path d="m329.828125 210.210938c-2.640625 0-5.210937 1.070312-7.070313 2.929687-1.871093 1.859375-2.929687 4.4375-2.929687 7.070313 0 2.640624 1.058594 5.210937 2.929687 7.070312 1.859376 1.867188 4.4375 2.929688 7.070313 2.929688 2.628906 0 5.207031-1.0625 7.066406-2.929688 1.863281-1.859375 2.933594-4.441406 2.933594-7.070312 0-2.632813-1.070313-5.199219-2.933594-7.070313-1.859375-1.859375-4.4375-2.929687-7.066406-2.929687zm0 0"></path><path d="m440.289062 395.160156-31.523437-82.707031c-14.257813-37.40625-47.679687-64.480469-87.230469-70.660156l-59.53125-9.304688v-17.375c22.699219-13.636719 37.917969-38.46875 37.917969-66.789062v-29.59375c0-5.523438-4.476563-10-10-10-14.328125 0-28.257813-5.296875-38.972656-14.679688.503906-.363281 1-.730469 1.5-1.101562 4.417969-3.3125 5.316406-9.582031 2.007812-14-3.3125-4.421875-9.578125-5.320313-14-2.007813-16.121093 12.074219-36.089843 18.726563-56.234375 18.726563h-30.300781c-5.523437 0-10 4.476562-10 10v42.65625c0 28.234375 15.125 53.007812 37.710937 66.667969v17.484374l-57.808593 9.035157v-123.511719c0-54.035156 43.960937-98 98-98 54.039062 0 98 43.964844 98 98v63.644531c0 5.519531 4.476562 10 10 10 5.523437 0 10-4.480469 10-10v-63.644531c0-65.066406-52.933594-118-118-118-65.066407 0-118 52.933594-118 118v128.238281c-31.410157 10.535157-57.019531 34.707031-69.023438 66.214844l-31.523437 82.707031c-5.851563 15.355469-3.78125 32.59375 5.539062 46.121094 9.324219 13.53125 24.695313 21.605469 41.125 21.605469 7.582032 0 15.050782-1.746094 21.84375-5.050781v44.164062c0 5.523438 4.476563 10 10 10 5.519532 0 10-4.476562 10-10v-54.6875c0-.363281-.023437-.71875-.0625-1.070312l50.539063-29.9375v85.695312c0 5.523438 4.476562 10 10 10h136.90625c5.523437 0 10-4.476562 10-10v-86.960938l52.527343 31.117188c-.042968.378906-.070312.765625-.070312 1.15625v54.6875c0 5.523438 4.476562 10 10 10s10-4.476562 10-10v-44.234375c6.832031 3.351563 14.359375 5.125 22 5.125 16.429688 0 31.800781-8.078125 41.125-21.605469 9.320312-13.527344 11.390625-30.769531 5.539062-46.125zm-276.367187-246.839844v-32.652343h20.300781c16.871094 0 33.640625-3.847657 48.84375-11.046875 12.5 12.917968 29.152344 21.183594 46.855469 23.464844v20.234374c0 31.921876-26.019531 57.894532-58 57.894532s-58-25.972656-58-57.894532zm58 77.894532c6.941406 0 13.671875-.925782 20.082031-2.628906v13.105468c0 11.074219-9.039062 20.082032-20.148437 20.082032-11.152344 0-20.222657-9.007813-20.222657-20.082032v-13.167968c6.472657 1.746093 13.273438 2.691406 20.289063 2.691406zm-54.09375 138.511718c6.6875-.976562 13.488281-.464843 19.941406 1.476563l-14.238281 8.398437zm111.339844 127.273438h-116.90625v-87.527344l60.210937-35.519531 44.132813 26.429687c.578125.578126 1.226562 1.097657 1.957031 1.53125l10.605469 6.28125zm-8.929688-117.753906-13.574219-8.128906c6.148438-2.992188 13.105469-3.8125 19.695313-2.464844zm148.042969 55.691406c-5.675781 8.230469-14.660156 12.953125-24.65625 12.953125-5.367188 0-10.644531-1.445313-15.257812-4.179687l-90.96875-54.1875 11.847656-20.511719 59.773437 26.28125c5.058594 2.222656 10.957031-.070313 13.179688-5.128907 2.222656-5.054687-.070313-10.953124-5.128907-13.179687l-67.972656-29.890625c-4.503906-1.976562-9.738281-.378906-12.394531 3.699219-6.632813-2.273438-13.660156-3.125-20.601563-2.578125l28.148438-16.605469c4.757812-2.804687 6.335938-8.9375 3.53125-13.691406-2.808594-4.757813-8.9375-6.339844-13.695312-3.53125l-61.539063 36.300781-60.5625-36.265625c-4.738281-2.84375-10.878906-1.300781-13.714844 3.4375-2.839843 4.738281-1.296875 10.882813 3.441407 13.71875l30.179687 18.074219c-8.167969-.921875-16.503906-.3125-24.582031 1.863281l-.15625-.269531c-2.550782-4.414063-8.015625-6.203125-12.683594-4.152344l-67.972656 29.890625c-5.058594 2.226563-7.355469 8.125-5.128906 13.179687 2.222656 5.058594 8.121093 7.351563 13.179687 5.132813l59.769531-26.285156 11.980469 20.734375-9.058594 5.367187-82.039062 48.597657c-4.617188 2.730468-9.894531 4.179687-15.257813 4.179687-9.996094 0-18.984375-4.722656-24.65625-12.953125-5.671875-8.234375-6.882812-18.3125-3.324218-27.652344l31.527343-82.710937c11.707031-30.714844 39.152344-52.945313 71.628907-58.019531l59.660156-9.324219c6.101562 14.40625 20.421875 24.542969 37.074218 24.542969 16.621094 0 30.910157-10.132813 37.003907-24.53125l59.589843 9.3125c32.476563 5.074218 59.925782 27.308593 71.632813 58.023437l31.523437 82.707031c3.5625 9.339844 2.351563 19.417969-3.320312 27.652344zm0 0"></path><path d="m242.230469 174.59375c3.902343-3.90625 3.902343-10.238281 0-14.144531-3.90625-3.902344-10.238281-3.902344-14.144531 0-1.644532 1.648437-3.835938 2.558593-6.164063 2.558593s-4.515625-.910156-6.164063-2.554687c-3.90625-3.90625-10.234374-3.90625-14.140624-.003906-3.90625 3.90625-3.90625 10.238281-.003907 14.144531 5.425781 5.425781 12.636719 8.414062 20.308594 8.414062s14.882813-2.988281 20.308594-8.414062zm0 0"></path><path d="m199.699219 414.921875c-2.632813 0-5.210938 1.066406-7.070313 2.929687-1.863281 1.859376-2.929687 4.4375-2.929687 7.070313 0 2.628906 1.066406 5.207031 2.929687 7.066406 1.859375 1.859375 4.4375 2.933594 7.070313 2.933594 2.628906 0 5.207031-1.070313 7.066406-2.933594 1.863281-1.859375 2.933594-4.4375 2.933594-7.066406 0-2.632813-1.070313-5.210937-2.933594-7.070313-1.859375-1.863281-4.4375-2.929687-7.066406-2.929687zm0 0"></path><path d="m243.699219 414.921875c-2.632813 0-5.210938 1.066406-7.070313 2.929687-1.863281 1.859376-2.929687 4.4375-2.929687 7.070313 0 2.628906 1.066406 5.207031 2.929687 7.066406 1.859375 1.859375 4.4375 2.933594 7.070313 2.933594 2.628906 0 5.207031-1.070313 7.066406-2.933594 1.863281-1.859375 2.933594-4.4375 2.933594-7.066406 0-2.632813-1.070313-5.210937-2.933594-7.070313-1.859375-1.863281-4.4375-2.929687-7.066406-2.929687zm0 0"></path><path d="m199.699219 449c-2.632813 0-5.210938 1.070312-7.070313 2.929688-1.863281 1.859374-2.929687 4.441406-2.929687 7.070312s1.066406 5.210938 2.929687 7.070312c1.859375 1.859376 4.4375 2.929688 7.070313 2.929688 2.628906 0 5.207031-1.070312 7.066406-2.929688 1.863281-1.859374 2.933594-4.441406 2.933594-7.070312s-1.070313-5.210938-2.933594-7.070312c-1.859375-1.859376-4.4375-2.929688-7.066406-2.929688zm0 0"></path><path d="m243.699219 449c-2.632813 0-5.210938 1.070312-7.070313 2.929688-1.863281 1.859374-2.929687 4.441406-2.929687 7.070312s1.066406 5.210938 2.929687 7.070312c1.859375 1.859376 4.4375 2.929688 7.070313 2.929688 2.628906 0 5.207031-1.070312 7.066406-2.929688 1.863281-1.859374 2.933594-4.441406 2.933594-7.070312s-1.070313-5.210938-2.933594-7.070312c-1.859375-1.859376-4.4375-2.929688-7.066406-2.929688zm0 0"></path></svg>