<!-- icon666.com - MILLIONS vector ICONS FREE --><svg viewBox="1 -41 511.999 511" xmlns="http://www.w3.org/2000/svg"><path d="m251.628906 302.117188c9.257813 16.035156 3.765625 36.535156-12.269531 45.792968-16.035156 9.257813-36.535156 3.761719-45.792969-12.269531l.011719.046875c9.257813 16.035156 3.765625 36.535156-12.269531 45.792969-16.035156 9.257812-36.535156 3.761719-45.792969-12.269531l-.023437.023437c9.257812 16.035156 3.761718 36.539063-12.269532 45.792969-16.035156 9.257812-36.535156 3.765625-45.792968-12.269532" fill="#36d28f"></path><path d="m260.371094 302.117188c-9.257813 16.035156-3.765625 36.535156 12.269531 45.792968 16.035156 9.257813 36.535156 3.761719 45.792969-12.269531l-.011719.046875c-9.257813 16.035156-3.761719 36.535156 12.269531 45.792969 16.035156 9.257812 36.535156 3.761719 45.792969-12.269531l.023437.023437c-9.253906 16.035156-3.761718 36.539063 12.269532 45.792969 16.035156 9.257812 36.539062 3.765625 45.792968-12.269532zm0 0" fill="#36d28f"></path><path d="m51.855469 371.15625c0 11.554688-9.371094 20.925781-20.929688 20.925781-11.554687 0-20.925781-9.371093-20.925781-20.925781 0-11.558594 9.371094-20.929688 20.925781-20.929688 11.558594 0 20.929688 9.371094 20.929688 20.929688zm0 0" fill="#c9f3ff"></path><path d="m502 371.15625c0 11.554688-9.371094 20.925781-20.925781 20.925781-11.558594 0-20.929688-9.371093-20.929688-20.925781 0-11.558594 9.371094-20.929688 20.929688-20.929688 11.554687 0 20.925781 9.371094 20.925781 20.929688zm0 0" fill="#c9f3ff"></path><path d="m197 114.503906c-2.628906 0-5.210938-1.070312-7.070312-2.929687-1.859376-1.859375-2.929688-4.441407-2.929688-7.070313s1.070312-5.210937 2.929688-7.070312c1.859374-1.859375 4.441406-2.929688 7.070312-2.929688s5.210938 1.070313 7.070312 2.929688c1.859376 1.859375 2.929688 4.441406 2.929688 7.070312s-1.070312 5.210938-2.929688 7.070313c-1.859374 1.859375-4.441406 2.929687-7.070312 2.929687zm0 0"></path><path d="m481.070312 340.226562c-8.160156 0-15.589843 3.1875-21.125 8.371094l-46-24.460937c16.953126-32.851563 20.121094-70.183594 8.867188-105.582031-11.664062-36.683594-37.171875-66.125-71.824219-82.890626l-17.09375-8.269531c-14.617187-7.070312-26.339843-18.617187-33.828125-32.503906l42.082032-8.078125c14.476562-2.78125 26.460937-12.578125 32.066406-26.210938 5.53125-13.457031 4-28.707031-4.101563-40.796874-8.101562-12.089844-21.625-19.304688-36.175781-19.304688h-4.675781c-32.175781 0-58.351563 26.175781-58.351563 58.347656 0 7.082032.796875 14.0625 2.320313 20.832032l-38.839844 7.457031c-5.421875 1.042969-8.976563 6.28125-7.933594 11.707031 1.042969 5.421875 6.285157 8.976562 11.707031 7.933594l41.535157-7.976563c9.1875 20 25.105469 36.738281 45.484375 46.597657l17.089844 8.269531c29.660156 14.351562 51.492187 39.546875 61.476562 70.945312 9.605469 30.214844 6.933594 62.070313-7.46875 90.132813l-118.980469-63.261719 64.757813-34.433594c4.878906-2.59375 6.726562-8.648437 4.136718-13.523437-2.59375-4.878906-8.648437-6.730469-13.523437-4.136719l-76.671875 40.765625-76.671875-40.765625c-4.875-2.59375-10.929687-.742187-13.523437 4.136719-2.589844 4.875-.742188 10.929687 4.136718 13.523437l64.757813 34.433594-182.648438 97.113281c-5.53125-5.1875-12.960937-8.371094-21.125-8.371094-17.050781 0-30.925781 13.875-30.925781 30.929688 0 17.050781 13.875 30.925781 30.929688 30.925781 11.289062 0 21.179687-6.082031 26.578124-15.140625l5.261719 9.109375-.957031.550781c-4.785156 2.761719-6.425781 8.875-3.664062 13.660157 1.851562 3.210937 5.214843 5.003906 8.671874 5.003906 1.695313 0 3.414063-.433594 4.988282-1.339844l.875-.507812c8.414062 10.371093 20.980468 16.09375 33.847656 16.09375 7.378906 0 14.855469-1.875 21.691406-5.820313 11.683594-6.746094 19.054688-18.128906 21.140625-30.496094 4.867188 1.808594 10.035157 2.769532 15.253907 2.769532 7.378906 0 14.855468-1.875 21.691406-5.824219 11.683594-6.746094 19.058594-18.132813 21.140625-30.503906 4.859375 1.800781 10.011719 2.757812 15.222656 2.757812 7.378906 0 14.851563-1.875 21.6875-5.824219 4.550781-2.628906 8.453125-5.960937 11.636719-9.785156 3.1875 3.824219 7.085937 7.15625 11.640625 9.785156 6.839843 3.949219 14.308593 5.824219 21.6875 5.824219 5.210937 0 10.363281-.957031 15.222656-2.757812 2.082031 12.371093 9.457031 23.757812 21.144531 30.503906 6.835938 3.949219 14.308594 5.824219 21.6875 5.824219 5.21875 0 10.386719-.960938 15.253906-2.769532 2.085938 12.367188 9.460938 23.75 21.144532 30.496094 6.835937 3.945313 14.308594 5.820313 21.6875 5.820313 12.839844 0 25.382812-5.699219 33.796875-16.03125l.761719.441406c1.578124.910156 3.296874 1.34375 4.992187 1.34375 3.457031 0 6.816406-1.792969 8.671875-5 2.761719-4.78125 1.125-10.898437-3.660156-13.660156l-.957032-.554688 5.339844-9.25c5.378906 9.132813 15.3125 15.28125 26.660156 15.28125 17.054688 0 30.929688-13.875 30.929688-30.925781 0-17.054688-13.875-30.929688-30.929688-30.929688zm-188.191406-264.316406c-1.289062-5.539062-1.964844-11.253906-1.964844-17.058594 0-21.148437 17.203126-38.351562 38.347657-38.351562h4.675781c7.988281 0 15.117188 3.804688 19.5625 10.441406 4.445312 6.632813 5.253906 14.671875 2.21875 22.058594-3.03125 7.371094-9.511719 12.667969-17.339844 14.171875zm-261.949218 306.171875c-6.027344 0-10.929688-4.902343-10.929688-10.925781 0-6.027344 4.902344-10.929688 10.929688-10.929688 6.023437 0 10.925781 4.902344 10.925781 10.929688 0 6.023438-4.902344 10.925781-10.925781 10.925781zm36.035156-18.761719 41.328125-21.976562 12.316406 21.328125-40.519531 23.382813zm51.257812 43.046876c-9.167968 5.292968-20.449218 3.691406-27.8125-3.175782l38.96875-22.492187c2.261719 9.8125-1.996094 20.378906-11.15625 25.667969zm7.742188-74.417969 41.332031-21.976563 11.152344 19.320313-40.519531 23.382812zm50.34375 40.871093c-9.160156 5.285157-20.429688 3.691407-27.796875-3.160156l38.960937-22.484375c2.25 9.804688-2.007812 20.359375-11.164062 25.644531zm19.460937-53.523437-10.804687-18.71875 41.332031-21.976563 9.992187 17.3125zm38.589844 19.953125c-9.140625 5.277344-20.382813 3.699219-27.75-3.117188l38.929687-22.46875c.195313.871094.335938 1.746094.433594 2.621094-.101562 1.707032-.101562 3.410156 0 5.105469-.785156 7.207031-4.867187 13.964844-11.613281 17.859375zm23.523437-53.082031c-1.332031-.238281-2.710937-.207031-4.0625.113281l-9.855468-17.074219 12.035156-6.398437 11.761719 6.25zm19.757813 53.082031c-6.746094-3.894531-10.828125-10.652344-11.613281-17.859375.101562-1.695313.101562-3.398437 0-5.105469.097656-.871094.238281-1.746094.433594-2.613281l38.914062 22.476563c-7.367188 6.804687-18.601562 8.371093-27.734375 3.101562zm38.355469-20.0625-40.558594-23.425781 9.992188-17.304688 41.382812 22zm19.695312 53.632812c-9.144531-5.28125-13.40625-15.816406-11.171875-25.613281l38.933594 22.488281c-7.367187 6.824219-18.617187 8.402344-27.761719 3.125zm38.183594-20.203124-40.558594-23.425782 11.164063-19.339844 41.382812 22.003907zm19.902344 53.75c-9.144532-5.277344-13.402344-15.8125-11.171875-25.609376l38.929687 22.484376c-7.363281 6.828124-18.613281 8.40625-27.757812 3.125zm37.976562-20.320313-40.5625-23.425781 12.339844-21.367188 41.378906 22zm49.316406-3.964844c-6.023437 0-10.925781-4.902343-10.925781-10.925781 0-6.027344 4.902344-10.929688 10.925781-10.929688 6.027344 0 10.929688 4.902344 10.929688 10.929688 0 6.023438-4.902344 10.925781-10.929688 10.925781zm0 0"></path></svg>