<!-- icon666.com - MILLIONS vector ICONS FREE --><svg viewBox="-158 0 511 512" xmlns="http://www.w3.org/2000/svg"><path d="m78.359375 359.5h40v102.4375h-40zm0 0" fill="#fff"></path><path d="m128.296875 461.9375h-59.875c-22.125 0-40.0625 17.9375-40.0625 40.0625h140c0-22.125-17.9375-40.0625-40.0625-40.0625zm0 0" fill="#d8d8e4"></path><path d="m98.226562 359.5h81.460938v-75.867188c0-10.691406-3.144531-21.152343-9.042969-30.070312l-7.929687-11.996094c-4.644532-7.023437-7.121094-15.261718-7.121094-23.683594 0-5.5625 1.078125-11.066406 3.175781-16.214843l27.449219-67.335938v-41.484375l-62.929688-20.265625-5.332031-33.082031h-19.730469.269532-19.730469l-5.335937 33.082031-62.929688 20.265625v41.484375l27.449219 67.335938c2.097656 5.148437 3.179687 10.652343 3.179687 16.214843 0 8.421876-2.480468 16.660157-7.125 23.683594l-7.929687 11.996094c-5.898438 8.917969-9.042969 19.378906-9.042969 30.070312v75.867188h81.464844" fill="#edf2fa"></path><path d="m189.285156 83.328125-57.097656-18.386719-4.359375-27.035156c-.777344-4.84375-4.964844-8.40625-9.871094-8.40625h-9.597656v-19.5c0-5.523438-4.476563-10-10-10-5.519531 0-10 4.476562-10 10v19.5h-9.597656c-4.90625 0-9.089844 3.5625-9.871094 8.40625l-4.359375 27.035156-57.097656 18.386719c-4.132813 1.332031-6.933594 5.179687-6.933594 9.519531v41.484375c0 1.296875.25 2.578125.738281 3.773438l27.449219 67.339843c1.617188 3.964844 2.4375 8.148438 2.4375 12.4375 0 6.480469-1.890625 12.761719-5.464844 18.171876l-7.929687 11.992187c-7 10.585937-10.699219 22.894531-10.699219 35.585937v75.867188c0 5.523438 4.476562 10 10 10h51.328125v82.4375c-27.574219.035156-50 22.480469-50 50.0625 0 5.523438 4.480469 10 10 10h140c5.523437 0 10-4.476562 10-10 0-27.582031-22.421875-50.027344-50-50.0625v-82.4375h51.328125c5.523438 0 10-4.476562 10-10v-75.867188c0-12.691406-3.699219-25-10.699219-35.585937l-7.929687-11.992187c-3.574219-5.410157-5.464844-11.691407-5.464844-18.171876 0-4.285156.820312-8.472656 2.4375-12.441406l27.449219-67.335937c.488281-1.195313.738281-2.476563.738281-3.773438v-41.484375c0-4.339844-2.800781-8.1875-6.933594-9.519531zm-79.84375-33.828125 2.015625 12.515625h-26.195312l2.019531-12.515625zm47.207032 442.5h-116.578126c4.128907-11.675781 15.277344-20.0625 28.351563-20.0625h59.875c13.074219 0 24.222656 8.386719 28.351563 20.0625zm-48.289063-40.0625h-20v-82.4375h20zm67.859375-319.566406-26.707031 65.523437c-2.601563 6.375-3.917969 13.101563-3.917969 19.988281 0 10.414063 3.035156 20.511719 8.78125 29.203126l7.929688 11.992187c4.832031 7.304687 7.382812 15.796875 7.382812 24.554687v65.867188h-142.65625v-20h70.726562c5.523438 0 10-4.476562 10-10s-4.476562-10-10-10h-70.726562v-25.867188c0-8.757812 2.554688-17.25 7.382812-24.554687l7.933594-11.996094c5.742188-8.6875 8.78125-18.785156 8.78125-29.199219 0-6.890624-1.320312-13.613281-3.917968-19.988281l-26.710938-65.519531v-32.242188l55.996094-18.03125c.074218-.023437.144531-.0625.21875-.085937h43.292968c.074219.023437.140626.0625.21875.085937l55.992188 18.03125zm0 0"></path><path d="m137.757812 329.5c2.632813 0 5.210938-1.066406 7.070313-2.929688 1.859375-1.859374 2.929687-4.4375 2.929687-7.070312 0-2.628906-1.066406-5.210938-2.929687-7.066406-1.859375-1.863282-4.4375-2.933594-7.070313-2.933594-2.628906 0-5.207031 1.070312-7.066406 2.933594-1.863281 1.855468-2.933594 4.4375-2.933594 7.066406 0 2.632812 1.070313 5.210938 2.933594 7.070312 1.859375 1.863282 4.4375 2.929688 7.066406 2.929688zm0 0"></path></svg>