<!-- icon666.com - MILLIONS vector ICONS FREE --><svg viewBox="0 -20 511.99941 511" xmlns="http://www.w3.org/2000/svg"><path d="m54 10.5c24.300781 0 44 19.699219 44 44v23.441406c0 6.386719-5.175781 11.5625-11.5625 11.5625h-64.875c-6.386719.003906-11.5625-5.175781-11.5625-11.558594v-23.445312c0-24.300781 19.699219-44 44-44zm0 0" fill="#72d8ff"></path><path d="m239 10.5c24.300781 0 44 19.699219 44 44v23.441406c0 6.386719-5.179688 11.5625-11.5625 11.5625h-64.875c-6.386719 0-11.5625-5.175781-11.5625-11.5625v-23.441406c0-24.300781 19.699219-44 44-44zm0 0" fill="#ffc66c"></path><path d="m424 10.5c24.300781 0 44 19.699219 44 44v23.441406c0 6.386719-5.179688 11.5625-11.5625 11.5625h-64.875c-6.386719 0-11.5625-5.175781-11.5625-11.5625v-23.441406c0-24.300781 19.699219-44 44-44zm0 0" fill="#36d28f"></path><path d="m54 271.429688c24.300781 0 44 19.699218 44 44v23.441406c0 6.386718-5.175781 11.5625-11.5625 11.5625h-64.875c-6.386719 0-11.5625-5.175782-11.5625-11.5625v-23.441406c0-24.300782 19.699219-44 44-44zm0 0" fill="#ff5d5d"></path><path d="m239 271.429688c24.300781 0 44 19.699218 44 44v23.441406c0 6.386718-5.179688 11.5625-11.5625 11.5625h-64.875c-6.386719 0-11.5625-5.175782-11.5625-11.5625v-23.441406c0-24.300782 19.699219-44 44-44zm0 0" fill="#72d8ff"></path><path d="m424 271.429688c24.300781 0 44 19.699218 44 44v23.441406c0 6.386718-5.179688 11.5625-11.5625 11.5625h-64.875c-6.386719 0-11.5625-5.175782-11.5625-11.5625v-23.441406c0-24.300782 19.699219-44 44-44zm0 0" fill="#ffc66c"></path><path d="m132 76.886719c-2.632812 0-5.210938 1.0625-7.070312 2.933593-1.863282 1.859376-2.929688 4.429688-2.929688 7.066407 0 2.632812 1.066406 5.210937 2.929688 7.070312 1.859374 1.859375 4.4375 2.929688 7.070312 2.929688 2.628906 0 5.207031-1.066407 7.066406-2.929688 1.859375-1.859375 2.933594-4.4375 2.933594-7.070312 0-2.628907-1.070312-5.207031-2.933594-7.066407-1.859375-1.871093-4.4375-2.933593-7.066406-2.933593zm0 0"></path><path d="m57.664062 211.503906c24.363282 0 46.203126-15.425781 54.347657-38.382812l15.914062-44.847656c1.84375-5.207032-.878906-10.921876-6.082031-12.769532-5.207031-1.84375-10.921875.875-12.769531 6.082032l-15.910157 44.847656c-5.320312 14.996094-19.585937 25.070312-35.5 25.070312-20.769531 0-37.664062-16.894531-37.664062-37.664062v-54.414063c.515625.039063 1.035156.082031 1.5625.082031h64.875c11.890625 0 21.5625-9.675781 21.5625-21.5625v-23.445312c0-29.777344-24.226562-54-54-54s-54 24.222656-54 54v99.339844c0 31.796875 25.867188 57.664062 57.664062 57.664062zm-37.664062-157.003906c0-18.75 15.25-34 34-34 18.746094 0 34 15.25 34 34v23.445312c0 .859376-.703125 1.5625-1.566406 1.5625h-64.871094c-.863281 0-1.5625-.703124-1.5625-1.5625zm0 0"></path><path d="m320.339844 77.460938c-5.207032-1.84375-10.921875.878906-12.769532 6.082031l-29.40625 82.890625c-5.320312 14.996094-19.585937 25.070312-35.5 25.070312-20.769531 0-37.664062-16.894531-37.664062-37.664062v-54.414063c.515625.039063 1.035156.082031 1.5625.082031h64.875c11.890625 0 21.5625-9.675781 21.5625-21.5625v-23.445312c0-29.777344-24.226562-54-54-54s-54 24.222656-54 54v99.339844c0 31.796875 25.867188 57.664062 57.667969 57.664062 24.359375 0 46.203125-15.425781 54.347656-38.382812l29.40625-82.890625c1.847656-5.207031-.875-10.921875-6.082031-12.769531zm-115.339844-22.960938c0-18.75 15.25-34 34-34 18.746094 0 34 15.25 34 34v23.445312c0 .859376-.703125 1.5625-1.5625 1.5625h-64.875c-.863281 0-1.566406-.703124-1.566406-1.5625v-23.445312zm0 0"></path><path d="m427.664062 211.503906c24.363282 0 46.203126-15.425781 54.351563-38.382812l29.40625-82.890625c1.847656-5.207031-.875-10.921875-6.082031-12.769531-5.203125-1.84375-10.921875.875-12.769532 6.082031l-29.40625 82.890625c-5.320312 14.996094-19.585937 25.070312-35.5 25.070312-20.769531 0-37.664062-16.894531-37.664062-37.664062v-54.414063c.515625.039063 1.035156.078125 1.5625.078125h64.875c11.890625 0 21.5625-9.671875 21.5625-21.5625v-23.441406c0-29.777344-24.226562-54-54-54s-54 24.222656-54 54v99.339844c0 31.796875 25.867188 57.664062 57.664062 57.664062zm-37.664062-157.003906c0-18.75 15.25-34 34-34 18.746094 0 34 15.25 34 34v23.445312c0 .859376-.703125 1.5625-1.5625 1.5625h-64.875c-.863281 0-1.566406-.703124-1.566406-1.5625v-23.445312zm0 0"></path><path d="m135.339844 338.390625c-5.207032-1.84375-10.921875.875-12.769532 6.078125l-29.40625 82.890625c-5.320312 15-19.585937 25.074219-35.5 25.074219-20.769531 0-37.664062-16.894532-37.664062-37.667969v-54.410156c.515625.039062 1.035156.078125 1.5625.078125h64.875c11.890625 0 21.5625-9.671875 21.5625-21.5625v-23.445313c0-29.773437-24.226562-54-54-54s-54 24.226563-54 54v99.339844c0 31.800781 25.867188 57.667969 57.667969 57.667969 24.359375 0 46.199219-15.425782 54.347656-38.386719l29.40625-82.890625c1.847656-5.203125-.875-10.917969-6.082031-12.765625zm-115.339844-22.964844c0-18.746093 15.25-34 34-34 18.746094 0 34 15.253907 34 34v23.445313c0 .863281-.703125 1.5625-1.566406 1.5625h-64.871094c-.863281 0-1.5625-.699219-1.5625-1.5625zm0 0"></path><path d="m320.339844 338.390625c-5.207032-1.84375-10.921875.875-12.769532 6.078125l-29.40625 82.894531c-5.320312 14.996094-19.585937 25.070313-35.5 25.070313-20.769531 0-37.664062-16.894532-37.664062-37.667969v-54.410156c.515625.039062 1.035156.078125 1.5625.078125h64.875c11.890625 0 21.5625-9.671875 21.5625-21.5625v-23.445313c0-29.773437-24.226562-54-54-54s-54 24.226563-54 54v99.339844c0 31.800781 25.867188 57.667969 57.667969 57.667969 24.359375 0 46.203125-15.425782 54.347656-38.386719l29.40625-82.890625c1.847656-5.203125-.875-10.917969-6.082031-12.765625zm-115.339844-22.964844c0-18.746093 15.25-34 34-34 18.746094 0 34 15.253907 34 34v23.445313c0 .863281-.703125 1.5625-1.5625 1.5625h-64.875c-.863281 0-1.566406-.699219-1.566406-1.5625v-23.445313zm0 0"></path><path d="m509.066406 340.746094c-1.859375-1.867188-4.441406-2.929688-7.070312-2.929688s-5.210938 1.0625-7.070313 2.929688c-1.859375 1.863281-2.929687 4.441406-2.929687 7.070312 0 2.632813 1.070312 5.199219 2.929687 7.070313 1.859375 1.859375 4.441407 2.929687 7.070313 2.929687s5.210937-1.070312 7.070312-2.929687c1.859375-1.871094 2.929688-4.4375 2.929688-7.070313 0-2.640625-1.070313-5.207031-2.929688-7.070312zm0 0"></path><path d="m491.84375 376.433594c-5.203125-1.84375-10.921875.875-12.769531 6.082031l-15.910157 44.84375c-5.320312 15-19.585937 25.074219-35.5 25.074219-20.769531 0-37.664062-16.894532-37.664062-37.667969v-54.410156c.515625.039062 1.035156.078125 1.5625.078125h64.875c11.890625 0 21.5625-9.671875 21.5625-21.5625v-23.445313c0-29.773437-24.226562-54-54-54s-54 24.226563-54 54v99.339844c0 31.800781 25.867188 57.667969 57.667969 57.667969 24.359375 0 46.203125-15.425782 54.347656-38.386719l15.910156-44.84375c1.84375-5.207031-.878906-10.921875-6.082031-12.769531zm-101.84375-61.007813c0-18.746093 15.25-34 34-34 18.746094 0 34 15.253907 34 34v23.445313c0 .863281-.703125 1.5625-1.5625 1.5625h-64.875c-.863281 0-1.566406-.699219-1.566406-1.5625v-23.445313zm0 0"></path></svg>