<!-- icon666.com - MILLIONS vector ICONS FREE --><svg viewBox="0 0 512 512.001" xmlns="http://www.w3.org/2000/svg"><g fill="#ffc66c"><path d="m502 58.03125c0 26.511719-21.488281 48-47.996094 48-26.507812 0-47.996094-21.488281-47.996094-48 0-26.507812 21.488282-47.996094 47.996094-47.996094 26.507813 0 47.996094 21.488282 47.996094 47.996094zm0 0"></path><path d="m105.082031 73.339844 328.441407 328.441406c28.855468 28.855469 52.066406 62.84375 68.441406 100.21875-37.375-16.375-71.363282-39.585938-100.21875-68.441406l-328.441406-328.4375zm0 0"></path><path d="m438.660156 105.082031-328.441406 328.441407c-28.855469 28.855468-62.84375 52.066406-100.21875 68.441406 16.375-37.375 39.585938-71.363282 68.441406-100.21875l328.441406-328.441406zm0 0"></path><path d="m105.082031 73.339844 328.441407 328.441406c28.855468 28.855469 52.066406 62.84375 68.441406 100.21875-37.375-16.375-71.363282-39.585938-100.21875-68.441406l-328.441406-328.4375zm0 0"></path><path d="m105.082031 73.339844 328.441407 328.441406c28.855468 28.855469 52.066406 62.84375 68.441406 100.21875-37.375-16.375-71.363282-39.585938-100.21875-68.441406l-328.441406-328.4375zm0 0"></path><path d="m106.03125 57.996094c0 26.507812-21.488281 48-47.996094 48-26.511718 0-48-21.492188-48-48 0-26.507813 21.488282-47.996094 48-47.996094 26.507813 0 47.996094 21.488281 47.996094 47.996094zm0 0"></path></g><path d="m284.296875 306.105469c-2.640625 0-5.210937 1.070312-7.070313 2.929687-1.859374 1.859375-2.929687 4.441406-2.929687 7.070313 0 2.628906 1.070313 5.207031 2.929687 7.070312 1.859376 1.859375 4.429688 2.929688 7.070313 2.929688 2.628906 0 5.207031-1.070313 7.066406-2.929688 1.859375-1.863281 2.929688-4.441406 2.929688-7.070312 0-2.628907-1.066407-5.210938-2.929688-7.070313-1.859375-1.859375-4.4375-2.929687-7.066406-2.929687zm0 0"></path><path d="m440.597656 394.710938-138.714844-138.710938 141.046876-141.042969c3.585937.695313 7.285156 1.074219 11.074218 1.074219 31.980469 0 57.996094-26.019531 57.996094-58 0-31.976562-26.015625-57.9960938-57.996094-57.9960938-31.980468 0-57.996094 26.0195318-57.996094 57.9960938 0 3.746094.367188 7.40625 1.050782 10.957031l-141.09375 141.09375-141.007813-141.007812c.695313-3.589844 1.074219-7.289063 1.074219-11.078125 0-31.980469-26.019531-57.996094-57.996094-57.996094-31.980468 0-57.9999998 26.015625-57.9999998 57.996094 0 31.980468 26.0195318 57.996094 57.9999998 57.996094 3.742188 0 7.402344-.367188 10.953125-1.050782l141.058594 141.058594-138.675781 138.675781c-29.855469 29.855469-53.585938 64.601563-70.53125 103.277344-1.652344 3.769531-.824219 8.171875 2.089844 11.082031 1.914062 1.914063 4.472656 2.929688 7.074218 2.929688 1.351563 0 2.71875-.273438 4.007813-.839844 38.675781-16.945312 73.421875-40.675781 103.277343-70.53125l170.453126-170.453125 138.710937 138.714844c21.226563 21.226562 39.164063 45.082031 53.539063 71.171875-26.089844-14.375-49.945313-32.3125-71.175782-53.539063l-89.179687-89.179687c-3.90625-3.902344-10.234375-3.902344-14.140625 0-3.90625 3.90625-3.90625 10.238281 0 14.140625l89.179687 89.183593c29.855469 29.855469 64.601563 53.585938 103.277344 70.527344 1.289063.566406 2.652344.839844 4.007813.839844 2.601562 0 5.160156-1.011719 7.074218-2.929688 2.910156-2.910156 3.742188-7.308593 2.085938-11.082031-16.941406-38.675781-40.671875-73.421875-70.523438-103.277343zm13.40625-374.675782c20.953125 0 37.996094 17.046875 37.996094 37.996094 0 20.953125-17.042969 38-37.996094 38s-38-17.046875-38-38c0-20.949219 17.046875-37.996094 38-37.996094zm-433.96875 37.960938c0-20.949219 17.046875-37.996094 38-37.996094 20.949219 0 37.996094 17.046875 37.996094 37.996094 0 20.953125-17.046875 38-37.996094 38-20.953125 0-38-17.046875-38-38zm69.164063 48.875c7.078125-4.53125 13.109375-10.550782 17.652343-17.621094l134.972657 134.972656-17.636719 17.636719zm13.949219 319.582031c-21.226563 21.226563-45.085938 39.164063-71.175782 53.539063 14.375-26.09375 32.3125-49.949219 53.539063-71.175782l319.617187-319.617187c4.53125 7.078125 10.550782 13.109375 17.621094 17.652343zm0 0"></path></svg>