<!-- icon666.com - MILLIONS vector ICONS FREE --><svg viewBox="0 0 511.99945 511" xmlns="http://www.w3.org/2000/svg"><g fill="#c9f3ff"><path d="m329.351562 111.125-67.097656 250.417969c-2.714844 10.132812-13.132812 16.148437-23.269531 13.433593-10.136719-2.714843-16.152344-13.132812-13.4375-23.269531l67.101563-250.414062c10.300781-38.441407 22.070312-57.582031 43.996093-90.789063 2.386719 39.722656 3.007813 62.183594-7.292969 100.621094zm0 0"></path><path d="m160.792969 286.953125 88.457031-23.703125 11.359375-42.382812-109.652344 29.378906c-10.132812 2.714844-16.148437 13.132812-13.433593 23.269531 2.714843 10.136719 13.132812 16.152344 23.269531 13.4375zm0 0"></path><path d="m401.375 183.148438-98.382812 26.363281-11.359376 42.382812 119.578126-32.039062c38.4375-10.300781 57.578124-22.070313 90.785156-44-39.722656-2.382813-62.183594-3.007813-100.621094 7.292969zm0 0"></path></g><path d="m378.328125 218.664062c-2.628906 0-5.207031 1.070313-7.070313 2.929688-1.859374 1.859375-2.929687 4.4375-2.929687 7.070312 0 2.628907 1.070313 5.207032 2.929687 7.070313 1.863282 1.859375 4.441407 2.929687 7.070313 2.929687 2.640625 0 5.210937-1.070312 7.070313-2.929687 1.871093-1.863281 2.929687-4.441406 2.929687-7.070313 0-2.632812-1.058594-5.210937-2.929687-7.070312-1.859376-1.859375-4.429688-2.929688-7.070313-2.929688zm0 0"></path><path d="m511.65625 173.269531c-1.113281-4.160156-4.761719-7.136719-9.058594-7.394531-39.339844-2.363281-63.558594-3.171875-103.8125 7.613281l-81.652344 21.878907 21.878907-81.652344c10.785156-40.253906 9.976562-64.472656 7.613281-103.8125-.257812-4.296875-3.234375-7.945313-7.394531-9.058594-4.152344-1.117188-8.5625.554688-10.933594 4.148438-21.710937 32.886718-34.523437 53.453124-45.308594 93.710937l-30.546875 114-104.070312 27.882813c-7.480469 2.007812-13.738282 6.804687-17.609375 13.515624-2.082031 3.605469-3.335938 7.539063-3.742188 11.5625l-23.039062 6.519532c-30.179688 8.539062-56.136719 26.273437-75.058594 51.292968-18.921875 25.019532-28.921875 54.820313-28.921875 86.1875 0 56.519532 45.980469 102.5 102.5 102.5 31.367188 0 61.171875-10 86.1875-28.921874 25.015625-18.921876 42.753906-44.875 51.292969-75.058594l6.414062-22.667969c11.804688-1.03125 22.277344-9.292969 25.519531-21.382813l27.886719-104.074218 42.359375-11.351563c5.332032-1.429687 8.5-6.914062 7.070313-12.246093-1.429688-5.335938-6.917969-8.503907-12.25-7.070313l-31.203125 8.359375 1.835937-6.859375 3.542969-13.214844 92.804688-24.867187c25.953124-6.957032 44.359374-8.722656 66.070312-8.378906-17.355469 10.410156-32.914062 17.664062-55.949219 24.253906-5.3125 1.519531-8.386719 7.054687-6.863281 12.363281 1.515625 5.3125 7.054688 8.382813 12.363281 6.863281 36.554688-10.457031 56.253907-22.796875 87.925781-43.707031 3.59375-2.375 5.265626-6.777344 4.148438-10.933594zm-363.574219 90.832031c1.203125-2.082031 3.144531-3.574218 5.464844-4.195312l92.917969-24.894531-.898438 3.347656-4.480468 16.726563-82.878907 22.207031c-4.800781 1.28125-9.738281-1.570313-11.023437-6.363281-.621094-2.324219-.304688-4.75.898437-6.828126zm-128.082031 145.5625c0-45.492187 37.011719-82.5 82.5-82.5s82.5 37.007813 82.5 82.5c0 45.492188-37.011719 82.5-82.5 82.5s-82.5-37.007812-82.5-82.5zm178.3125 36.414063c4.316406-11.324219 6.6875-23.59375 6.6875-36.414063 0-56.519531-45.980469-102.5-102.5-102.5-12.816406 0-25.089844 2.371094-36.410156 6.6875 12.554687-10.109374 27.195312-17.859374 43.335937-22.425781l22.566407-6.382812c5.378906 7.792969 14.335937 12.558593 23.890624 12.558593 2.476563 0 4.992188-.320312 7.496094-.992187l71.730469-19.21875-19.222656 71.726563c-3.214844 12.011718 1.632812 24.3125 11.210937 31.140624l-6.359375 22.480469c-4.566406 16.140625-12.316406 30.78125-22.425781 43.339844zm54.28125-87.125c-1.28125 4.792969-6.226562 7.648437-11.019531 6.367187-4.796875-1.285156-7.648438-6.230468-6.367188-11.023437l67.101563-250.417969c6.949218-25.941406 14.628906-42.773437 25.765625-61.378906.339843 21.683594-1.429688 40.097656-8.378907 66.039062l-26.359374 98.378907c0 .003906-.003907.003906-.003907.003906l-11.355469 42.382813v.003906zm0 0"></path></svg>