<!-- icon666.com - MILLIONS vector ICONS FREE --><svg viewBox="0 0 512 512" xmlns="http://www.w3.org/2000/svg"><path d="m114.144531 497.964844-100.121093-100.117188c-5.378907-5.382812-5.378907-14.109375 0-19.488281l364.332031-364.335937c5.382812-5.378907 14.109375-5.378907 19.492187 0l100.117188 100.117187c5.378906 5.382813 5.378906 14.109375 0 19.492187l-364.332032 364.332032c-5.382812 5.378906-14.109374 5.378906-19.488281 0zm0 0" fill="#72d8ff"></path><g fill="#fff"><path d="m158.289062 392.3125c0 21.328125-17.289062 38.617188-38.617187 38.617188-21.324219 0-38.613281-17.289063-38.613281-38.617188 0-21.324219 17.289062-38.613281 38.613281-38.613281 21.328125 0 38.617187 17.289062 38.617187 38.613281zm0 0"></path><path d="m233.613281 313.128906c0 19.195313-15.558593 34.753906-34.753906 34.753906s-34.753906-15.558593-34.753906-34.753906c0-19.191406 15.558593-34.753906 34.753906-34.753906s34.753906 15.5625 34.753906 34.753906zm0 0"></path><path d="m302.976562 239.902344c0 17.0625-13.828124 30.894531-30.890624 30.894531s-30.894532-13.832031-30.894532-30.894531c0-17.058594 13.832032-30.890625 30.894532-30.890625s30.890624 13.832031 30.890624 30.890625zm0 0"></path><path d="m367.378906 171.640625c0 14.929687-12.101562 27.03125-27.03125 27.03125-14.929687 0-27.03125-12.101563-27.03125-27.03125s12.101563-27.03125 27.03125-27.03125c14.929688 0 27.03125 12.101563 27.03125 27.03125zm0 0"></path><path d="m426.40625 108.753906c0 12.792969-10.375 23.167969-23.167969 23.167969-12.796875 0-23.171875-10.375-23.171875-23.167969 0-12.796875 10.375-23.171875 23.171875-23.171875 12.792969 0 23.167969 10.375 23.167969 23.171875zm0 0"></path></g><path d="m505.035156 107.070312-100.117187-100.117187c-9.273438-9.269531-24.359375-9.269531-33.632813 0l-364.332031 364.332031c-9.269531 9.273438-9.269531 24.359375 0 33.632813l100.117187 100.117187c4.492188 4.492188 10.464844 6.964844 16.816407 6.964844 6.351562 0 12.324219-2.472656 16.816406-6.964844l169.972656-169.972656c3.902344-3.90625 3.902344-10.238281 0-14.144531-3.90625-3.902344-10.238281-3.902344-14.144531 0l-169.972656 169.972656c-.964844.964844-2.089844 1.109375-2.671875 1.109375-.585938 0-1.710938-.144531-2.675781-1.109375l-100.113282-100.113281c-1.476562-1.476563-1.476562-3.875 0-5.347656l21.132813-21.136719 1.730469 1.730469c1.953124 1.953124 4.511718 2.929687 7.074218 2.929687 2.558594 0 5.117188-.976563 7.070313-2.929687 3.902343-3.90625 3.90625-10.234376 0-14.140626l-1.730469-1.730468 24.34375-24.347656 1.847656 1.847656c1.953125 1.953125 4.511719 2.929687 7.070313 2.929687 2.558593 0 5.121093-.976562 7.070312-2.929687 3.90625-3.90625 3.90625-10.238282 0-14.144532l-1.847656-1.847656 24.363281-24.359375 11.695313 11.699219c1.953125 1.953125 4.511719 2.929688 7.070312 2.929688 2.558594 0 5.121094-.976563 7.070313-2.929688 3.90625-3.90625 3.90625-10.238281 0-14.144531l-11.695313-11.695313 24.34375-24.347656 1.847657 1.847656c1.953124 1.953125 4.511718 2.929688 7.070312 2.929688 2.5625 0 5.121094-.976563 7.074219-2.929688 3.902343-3.90625 3.902343-10.238281 0-14.144531l-1.847657-1.84375 24.34375-24.347656 11.699219 11.699219c1.953125 1.953124 4.511719 2.925781 7.070313 2.925781s5.117187-.972657 7.070312-2.925781c3.90625-3.90625 3.90625-10.238282 0-14.144532l-11.695312-11.699218 24.34375-24.34375 1.847656 1.847656c1.953125 1.953125 4.511719 2.929687 7.070312 2.929687 2.558594 0 5.121094-.976562 7.070313-2.929687 3.90625-3.90625 3.90625-10.238282 0-14.144532l-1.84375-1.847656 24.34375-24.34375 11.691406 11.691406c1.953125 1.949219 4.511719 2.925782 7.070313 2.925782s5.117187-.976563 7.070312-2.925782c3.90625-3.90625 3.90625-10.238281 0-14.144531l-11.691406-11.691406 24.347656-24.34375 1.847656 1.84375c1.953126 1.953125 4.511719 2.929687 7.070313 2.929687s5.117187-.976562 7.070313-2.929687c3.90625-3.902344 3.90625-10.234375 0-14.140625l-1.847657-1.847656 24.347657-24.34375 11.695312 11.695312c1.953125 1.953125 4.511719 2.929688 7.074219 2.929688 2.558593 0 5.117187-.976563 7.070312-2.929688 3.902344-3.90625 3.902344-10.238281 0-14.144531l-11.691406-11.691406 21.132813-21.132813c1.472656-1.476562 3.871093-1.476562 5.34375 0l100.117187 100.117188c1.476563 1.472656 1.476563 3.871094 0 5.34375l-137.789063 137.792968c-3.90625 3.902344-3.90625 10.234376 0 14.140626s10.238282 3.90625 14.140626 0l137.792968-137.789063c9.269532-9.273437 9.269532-24.359375 0-33.632813zm0 0"></path><path d="m332.046875 289.546875c-2.632813 0-5.210937 1.070313-7.070313 2.929687-1.863281 1.859376-2.929687 4.4375-2.929687 7.070313 0 2.636719 1.066406 5.207031 2.929687 7.070313 1.859376 1.859374 4.4375 2.929687 7.070313 2.929687 2.636719 0 5.207031-1.070313 7.070313-2.929687 1.859374-1.863282 2.929687-4.433594 2.929687-7.070313 0-2.632813-1.070313-5.210937-2.929687-7.070313-1.863282-1.859374-4.441407-2.929687-7.070313-2.929687zm0 0"></path><path d="m119.671875 343.699219c-12.984375 0-25.191406 5.058593-34.375 14.238281-9.183594 9.183594-14.238281 21.390625-14.238281 34.375 0 12.988281 5.054687 25.195312 14.238281 34.378906s21.390625 14.238282 34.375 14.238282c12.988281 0 25.195313-5.058594 34.378906-14.238282 9.183594-9.183594 14.238281-21.390625 14.238281-34.378906 0-12.984375-5.054687-25.191406-14.238281-34.375-9.183593-9.179688-21.390625-14.238281-34.378906-14.238281zm20.234375 68.851562c-5.402344 5.402344-12.589844 8.378907-20.234375 8.378907-7.640625 0-14.828125-2.976563-20.230469-8.378907-5.40625-5.40625-8.382812-12.59375-8.382812-20.234375 0-7.644531 2.976562-14.832031 8.382812-20.234375 5.402344-5.40625 12.589844-8.382812 20.230469-8.382812 7.644531 0 14.832031 2.976562 20.234375 8.382812 5.40625 5.402344 8.382812 12.589844 8.382812 20.234375 0 7.640625-2.976562 14.828125-8.382812 20.234375zm0 0"></path><path d="m230.503906 344.777344c17.449219-17.453125 17.449219-45.84375 0-63.292969-8.453125-8.453125-19.691406-13.109375-31.644531-13.109375-11.957031 0-23.195313 4.65625-31.648437 13.109375-17.449219 17.449219-17.449219 45.839844 0 63.292969 8.453124 8.449218 19.691406 13.105468 31.648437 13.105468 11.953125 0 23.191406-4.65625 31.644531-13.105468zm-49.148437-49.152344c4.675781-4.675781 10.890625-7.25 17.503906-7.25s12.828125 2.574219 17.503906 7.25c9.652344 9.652344 9.652344 25.355469 0 35.007812-4.675781 4.675782-10.890625 7.25-17.503906 7.25s-12.828125-2.574218-17.503906-7.25c-9.652344-9.652343-9.652344-25.355468 0-35.007812zm0 0"></path><path d="m301 268.820312c15.945312-15.945312 15.945312-41.886718 0-57.832031-15.945312-15.945312-41.886719-15.945312-57.832031 0-15.941407 15.945313-15.941407 41.886719 0 57.832031 7.972656 7.972657 18.445312 11.957032 28.917969 11.957032 10.46875 0 20.941406-3.984375 28.914062-11.957032zm-43.6875-14.144531c-8.148438-8.144531-8.148438-21.398437 0-29.546875 4.074219-4.070312 9.421875-6.105468 14.773438-6.105468 5.347656 0 10.699218 2.035156 14.769531 6.105468 8.148437 8.148438 8.148437 21.402344 0 29.546875-8.144531 8.144531-21.398438 8.144531-29.542969 0zm0 0"></path><path d="m340.347656 208.671875c9.890625 0 19.191406-3.851563 26.183594-10.847656 6.996094-6.992188 10.847656-16.292969 10.847656-26.183594s-3.851562-19.191406-10.847656-26.183594c-6.992188-6.996093-16.292969-10.847656-26.183594-10.847656s-19.191406 3.851563-26.1875 10.847656c-6.992187 6.992188-10.84375 16.292969-10.84375 26.183594s3.851563 19.191406 10.84375 26.1875c6.996094 6.992187 16.296875 10.84375 26.1875 10.84375zm-12.042968-49.074219c3.214843-3.214844 7.492187-4.988281 12.042968-4.988281 4.550782 0 8.824219 1.773437 12.042969 4.988281 3.214844 3.21875 4.988281 7.492188 4.988281 12.042969s-1.773437 8.824219-4.988281 12.042969c-3.21875 3.214844-7.492187 4.988281-12.042969 4.988281-4.550781 0-8.824218-1.773437-12.042968-4.988281-3.214844-3.214844-4.988282-7.492188-4.988282-12.042969s1.773438-8.824219 4.988282-12.042969zm0 0"></path><path d="m403.238281 141.90625c8.492188 0 16.988281-3.234375 23.453125-9.699219 12.933594-12.933593 12.933594-33.976562 0-46.910156-12.933594-12.929687-33.976562-12.929687-46.910156 0-12.929688 12.933594-12.929688 33.976563 0 46.910156 6.46875 6.464844 14.960938 9.699219 23.457031 9.699219zm-9.3125-42.464844c2.566407-2.566406 5.9375-3.851562 9.3125-3.851562 3.371094 0 6.742188 1.285156 9.3125 3.851562 5.132813 5.132813 5.132813 13.488282 0 18.621094-5.136719 5.136719-13.492187 5.136719-18.625 0-5.136719-5.132812-5.136719-13.488281 0-18.621094zm0 0"></path></svg>