<!-- icon666.com - MILLIONS vector ICONS FREE --><svg viewBox="-49 0 512 512.00078" xmlns="http://www.w3.org/2000/svg"><path d="m350.957031 462h-288v-252.5c0-11.875 9.625-21.5 21.5-21.5h245c11.871094 0 21.5 9.625 21.5 21.5zm0 0" fill="#ffc66c"></path><g fill="#36d28f"><path d="m113.1875 266.386719 28.285156-28.285157 28.28125 28.285157-28.28125 28.285156zm0 0"></path><path d="m244.148438 266.386719 28.285156-28.28125 28.28125 28.28125-28.28125 28.285156zm0 0"></path><path d="m113.1875 383.613281 28.28125-28.285156 28.285156 28.285156-28.285156 28.285157zm0 0"></path><path d="m244.148438 383.613281 28.28125-28.28125 28.285156 28.28125-28.285156 28.285157zm0 0"></path></g><path d="m401.222656 173.0625-160.699218-84.941406c-7.460938-3.941406-15.441407-6.472656-23.566407-7.605469v-7.492187c16.855469-4.6875 28.210938-20.585938 27.117188-38.183594-1.15625-18.660156-16.101563-33.605469-34.761719-34.7656252-10.382812-.6406248-20.269531 2.9101562-27.824219 10.0117192-7.449219 7.003906-11.726562 16.886718-11.726562 27.105468 0 5.523438 4.480469 10 10 10 5.523437 0 10-4.476562 10-10 0-4.792968 1.929687-9.246094 5.425781-12.53125 3.488281-3.28125 8.0625-4.917968 12.882812-4.625 8.472657.527344 15.519532 7.570313 16.042969 16.042969.515625 8.304687-4.9375 15.789063-12.96875 17.796875-8.351562 2.085938-14.1875 9.621094-14.1875 18.324219v8.351562c-8.046875 1.15625-15.949219 3.683594-23.339843 7.597657l-160.375 84.925781c-10.261719 5.433593-15.273438 16.652343-12.472657 27.917969 2.796875 11.269531 12.476563 18.839843 24.085938 18.839843h28.097656v282.167969c0 5.523438 4.476563 10 10 10s10-4.476562 10-10v-30h28v30c0 5.523438 4.476563 10 10 10s10-4.476562 10-10v-30h28v30c0 5.523438 4.476563 10 10 10s10-4.476562 10-10v-30h28v30c0 5.523438 4.476563 10 10 10s10-4.476562 10-10v-30h28v30c0 5.523438 4.476563 10 10 10s10-4.476562 10-10v-30h28v30c0 5.523438 4.476563 10 10 10s10-4.476562 10-10v-30h28v30c0 5.523438 4.476563 10 10 10s10-4.476562 10-10v-127.328125c0-5.523437-4.476563-10-10-10s-10 4.476563-10 10v77.328125h-268v-242.5c0-6.339844 5.160156-11.5 11.5-11.5h245c6.34375 0 11.5 5.160156 11.5 11.5v85.171875c0 5.523437 4.476563 10 10 10s10-4.476563 10-10v-74.839844h28.667969c11.613281 0 21.296875-7.574219 24.09375-18.847656 2.792968-11.273437-2.226563-22.492187-12.492188-27.921875zm-6.921875 23.105469c-.339843 1.367187-1.398437 3.660156-4.679687 3.660156h-30.191406c-4.089844-12.648437-15.980469-21.828125-29.972657-21.828125h-245c-13.996093 0-25.882812 9.179688-29.976562 21.828125h-29.621094c-3.28125 0-4.339844-2.292969-4.679687-3.65625-.339844-1.367187-.476563-3.890625 2.421874-5.425781l160.375-84.925782c15.089844-7.988281 33.105469-7.996093 48.199219-.015624l160.699219 84.9375c2.902344 1.539062 2.765625 4.058593 2.425781 5.425781zm0 0"></path><path d="m350.957031 324.671875c-2.632812 0-5.210937 1.070313-7.070312 2.929687-1.859375 1.859376-2.929688 4.4375-2.929688 7.070313 0 2.628906 1.070313 5.207031 2.929688 7.070313 1.859375 1.859374 4.4375 2.929687 7.070312 2.929687 2.628907 0 5.207031-1.070313 7.070313-2.929687 1.859375-1.863282 2.929687-4.441407 2.929687-7.070313 0-2.632813-1.070312-5.210937-2.929687-7.070313-1.863282-1.859374-4.441406-2.929687-7.070313-2.929687zm0 0"></path><path d="m134.402344 301.742188c1.953125 1.953124 4.511718 2.929687 7.074218 2.929687 2.558594 0 5.117188-.976563 7.070313-2.929687l28.28125-28.28125c3.90625-3.90625 3.90625-10.238282 0-14.144532l-28.28125-28.285156c-1.875-1.875-4.421875-2.929688-7.070313-2.929688-2.652343 0-5.199218 1.054688-7.074218 2.929688l-28.28125 28.285156c-3.90625 3.90625-3.90625 10.238282 0 14.144532zm7.074218-49.496094 14.140626 14.144531-14.140626 14.140625-14.144531-14.140625zm0 0"></path><path d="m265.363281 301.742188c1.953125 1.953124 4.511719 2.929687 7.074219 2.929687 2.558594 0 5.117188-.976563 7.070312-2.929687l28.28125-28.28125c3.90625-3.90625 3.90625-10.238282 0-14.144532l-28.28125-28.285156c-1.875-1.875-4.421874-2.929688-7.070312-2.929688-2.652344 0-5.199219 1.054688-7.074219 2.929688l-28.28125 28.285156c-3.90625 3.90625-3.90625 10.238282 0 14.144532zm7.074219-49.496094 14.140625 14.144531-14.140625 14.140625-14.144531-14.140625zm0 0"></path><path d="m106.121094 390.6875 28.28125 28.285156c1.953125 1.949219 4.511718 2.925782 7.074218 2.925782 2.558594 0 5.117188-.976563 7.070313-2.925782l28.28125-28.285156c3.90625-3.90625 3.90625-10.238281 0-14.144531l-28.28125-28.28125c-3.90625-3.90625-10.238281-3.90625-14.144531 0l-28.285156 28.28125c-3.902344 3.90625-3.902344 10.238281.003906 14.144531zm35.355468-21.214844 14.140626 14.144532-14.140626 14.140624-14.144531-14.140624zm0 0"></path><path d="m237.082031 390.6875 28.28125 28.285156c1.953125 1.949219 4.511719 2.925782 7.074219 2.925782 2.558594 0 5.117188-.976563 7.070312-2.925782l28.28125-28.285156c3.90625-3.90625 3.90625-10.238281 0-14.144531l-28.28125-28.28125c-3.90625-3.90625-10.238281-3.90625-14.144531 0l-28.285156 28.28125c-3.902344 3.90625-3.902344 10.238281.003906 14.144531zm35.355469-21.214844 14.140625 14.144532-14.140625 14.140624-14.144531-14.140624zm0 0"></path></svg>