<!-- icon666.com - MILLIONS vector ICONS FREE --><svg viewBox="0 0 511.99937 511" xmlns="http://www.w3.org/2000/svg"><path d="m152.714844 254.476562c-28.878906-28.878906-75.703125-28.878906-104.582032 0l-16.511718 16.515626c-28.878906 28.878906-28.878906 75.703124 0 104.582031 28.878906 28.878906 75.703125 28.878906 104.582031 0l26.25-26.253907 15.03125-70.070312zm-46.074219 95.613282c-12.550781 12.554687-32.90625 12.554687-45.457031 0l-4.082032-4.078125c-12.550781-12.554688-12.550781-32.90625 0-45.460938l20.59375-20.589843c12.550782-12.554688 32.90625-12.554688 45.457032 0l26.8125 26.808593zm0 0" fill="#ff5d5d"></path><path d="m257.296875 359.058594-24.769531-24.765625-64.910156 9.867187-31.414063 31.414063c-28.878906 28.878906-28.878906 75.703125 0 104.582031s75.703125 28.878906 104.582031 0l16.511719-16.515625c28.878906-28.878906 28.878906-75.699219 0-104.582031zm-25.480469 75.023437-20.59375 20.589844c-12.550781 12.554687-32.90625 12.554687-45.457031 0l-4.082031-4.078125c-12.550782-12.554688-12.550782-32.90625 0-45.460938l43.324218-43.320312 26.808594 26.808594c12.554688 12.554687 12.554688 32.90625 0 45.460937zm0 0" fill="#ff5d5d"></path><path d="m227.425781 285.074219 158.523438-274.574219-5.457031 1.421875c-41.058594 10.675781-76.082032 37.445313-97.160157 74.257813l-103.246093 180.320312" fill="#ade5ff"></path><path d="m227.425781 285.074219 274.570313-158.523438-1.417969 5.457031c-10.675781 41.058594-37.445313 76.082032-74.261719 97.160157l-180.316406 103.246093" fill="#ade5ff"></path><path d="m207.28125 354.757812-38.621094-10.917968-10.917968-38.621094 22.457031-22.457031c8.285156-8.285157 21.71875-8.285157 30.003906 0l19.535156 19.535156c8.285157 8.285156 8.285157 21.71875 0 30.003906zm0 0" fill="#72d8ff"></path><path d="m508.058594 118.59375c-3.210938-2.445312-7.570313-2.722656-11.058594-.707031l-95.972656 55.410156c-4.785156 2.761719-6.421875 8.878906-3.660156 13.660156 2.761718 4.785157 8.875 6.421875 13.660156 3.660157l73.671875-42.535157c-12.40625 30.269531-34.777344 56.050781-63.347657 72.40625l-175.628906 100.558594c.148438-1.238281.230469-2.484375.230469-3.75 0-8.339844-3.246094-16.179687-9.144531-22.074219l-2.546875-2.546875 107.078125-61.824219c4.785156-2.761718 6.421875-8.875 3.660156-13.660156-2.761719-4.78125-8.875-6.421875-13.660156-3.660156l-76.589844 44.21875 139.863281-242.25c2.015625-3.488281 1.738281-7.851562-.707031-11.058594-2.441406-3.207031-6.570312-4.632812-10.472656-3.621094l-5.457032 1.421876c-43.386718 11.28125-81.046874 40.0625-103.324218 78.96875l-102.332032 178.730468-12.535156-12.535156c-32.730468-32.730469-85.992187-32.730469-118.722656 0l-16.515625 16.515625c-32.730469 32.730469-32.730469 85.992187 0 118.722656 16.367187 16.367188 37.867187 24.550781 59.363281 24.550781 8.148438 0 16.292969-1.183593 24.160156-3.53125-2.320312 7.75-3.527343 15.882813-3.527343 24.199219 0 22.425781 8.730469 43.507813 24.585937 59.363281 15.859375 15.855469 36.941406 24.589844 59.363282 24.589844 22.425781 0 43.507812-8.734375 59.363281-24.589844l16.511719-16.511718c15.859374-15.859375 24.589843-36.941406 24.589843-59.363282 0-22.425781-8.730469-43.507812-24.589843-59.363281l-11.808594-11.808593 178.726562-102.332032c38.90625-22.273437 67.691406-59.933594 78.972656-103.324218l1.417969-5.457032c1.015625-3.902344-.410156-8.03125-3.617187-10.472656zm-303.050782 257.363281 19.734376 19.734375c8.632812 8.636719 8.632812 22.683594 0 31.316406l-20.589844 20.59375c-8.632813 8.636719-22.683594 8.632813-31.316406 0l-4.082032-4.078124c-8.632812-8.636719-8.632812-22.683594 0-31.316407zm-.652343-32.417969-27.59375-7.800781-7.800781-27.59375 18.3125-18.3125c2.117187-2.117187 4.933593-3.285156 7.929687-3.285156s5.8125 1.167969 7.929687 3.285156l19.535157 19.535157c2.117187 2.117187 3.285156 4.933593 3.285156 7.929687s-1.167969 5.8125-3.285156 7.933594zm87.652343-252.386718c16.359376-28.570313 42.136719-50.945313 72.40625-63.351563l-144.589843 250.4375-2.546875-2.546875c-5.898438-5.898437-13.734375-9.144531-22.074219-9.144531-1.261719 0-2.515625.082031-3.75.230469zm-253.316406 277.351562c-24.933594-24.9375-24.933594-65.507812 0-90.441406l16.515625-16.511719c24.933594-24.9375 65.503907-24.9375 90.4375 0l20.8125 20.8125-13.378906 13.378907-22.851563-22.851563c-7.960937-7.960937-18.542968-12.34375-29.800781-12.34375-11.257812 0-21.84375 4.382813-29.800781 12.34375l-20.59375 20.589844c-16.429688 16.433593-16.429688 43.171875 0 59.605469l4.082031 4.078124c7.957031 7.960938 18.542969 12.34375 29.800781 12.34375 11.257813 0 21.839844-4.382812 29.800782-12.34375l37.671875-37.667968 5.894531 20.855468-1.894531 1.898438h-.003907l-26.25 26.253906c-24.9375 24.933594-65.507812 24.929688-90.441406 0zm97.128906-61.734375-36.25 36.25c-4.183593 4.183594-9.746093 6.484375-15.660156 6.484375-5.914062 0-11.476562-2.300781-15.65625-6.484375l-4.082031-4.078125c-8.632813-8.636718-8.632813-22.683594 0-31.316406l20.59375-20.59375c4.183594-4.183594 9.742187-6.484375 15.65625-6.484375 5.917969 0 11.476563 2.300781 15.660156 6.484375zm133.136719 104.582031c0 17.082032-6.652343 33.140626-18.730469 45.21875l-16.515624 16.515626c-12.078126 12.078124-28.136719 18.730468-45.21875 18.730468-17.082032 0-33.136719-6.652344-45.21875-18.730468-12.078126-12.082032-18.730469-28.140626-18.730469-45.222657 0-17.078125 6.652343-33.136719 18.726562-45.214843.003907 0 .003907 0 .007813-.003907l26.25-26.25c.003906-.003906.003906-.007812.007812-.011719l1.484375-1.484374 20.859375 5.898437-37.265625 37.265625c-16.433593 16.433594-16.433593 43.171875 0 59.605469l4.078125 4.078125c8.21875 8.214844 19.011719 12.324218 29.800782 12.324218 10.792968 0 21.585937-4.109374 29.804687-12.324218l20.589844-20.589844c16.433593-16.433594 16.433593-43.171875 0-59.605469l-22.125-22.125 13.375-13.378906 20.089843 20.085937c12.078126 12.078126 18.730469 28.136719 18.730469 45.21875zm0 0"></path><path d="m364.289062 194.902344c-1.863281 1.859375-2.933593 4.441406-2.933593 7.070312 0 2.632813 1.070312 5.210938 2.933593 7.070313 1.859376 1.859375 4.4375 2.929687 7.070313 2.929687 2.628906 0 5.210937-1.070312 7.078125-2.929687 1.859375-1.859375 2.921875-4.4375 2.921875-7.070313 0-2.628906-1.0625-5.210937-2.921875-7.070312-1.867188-1.859375-4.4375-2.929688-7.078125-2.929688-2.632813 0-5.210937 1.070313-7.070313 2.929688zm0 0"></path><path d="m195.496094 307c-2.628906 0-5.210938 1.070312-7.070313 2.933594-1.859375 1.859375-2.929687 4.429687-2.929687 7.070312 0 2.628906 1.070312 5.207032 2.929687 7.070313 1.859375 1.859375 4.441407 2.929687 7.070313 2.929687 2.640625 0 5.210937-1.070312 7.070312-2.929687 1.871094-1.863281 2.929688-4.441407 2.929688-7.070313 0-2.632812-1.058594-5.210937-2.929688-7.070312-1.859375-1.863282-4.429687-2.933594-7.070312-2.933594zm0 0"></path></svg>