<!-- icon666.com - MILLIONS vector ICONS FREE --><svg viewBox="0 0 512.0008 512" xmlns="http://www.w3.org/2000/svg"><path d="m501.429688 82.09375-175.300782 79.492188c23.503906 23.5 23.503906 61.960937 0 85.460937l-158.136718 158.140625c-26.714844 26.710938-66.34375 33.664062-99.800782 19.621094-12.949218-5.4375-27.933594-2.199219-37.867187 7.734375-17.121094 17.121093-12.125 46.148437 9.824219 56.363281 51.894531 24.15625 115.515624 14.824219 158.335937-27.996094l259.464844-259.464844c31.410156-31.410156 47.328125-75.097656 43.480469-119.351562zm0 0" fill="#72d8ff"></path><path d="m496.984375 133.597656-3.707031 2-148.390625 67.289063-1.152344.175781c-.308594-15.066406-6.164063-30.039062-17.597656-41.46875l175.300781-79.492188c1.523438 17.496094-.058594 34.898438-4.453125 51.496094zm0 0" fill="#edf2fa"></path><path d="m266.878906 183.941406-43.109375-43.109375" fill="#72d8ff"></path><path d="m23.089844 471.847656c-24.152344-51.890625-14.820313-115.511718 28-158.335937l259.464844-259.464844c31.410156-31.40625 75.097656-47.324219 119.351562-43.480469l-79.492188 175.300782c-23.503906-23.5-61.960937-23.5-85.460937 0l-158.140625 158.140624c-22.980469 22.980469-31.335938 55.519532-24.285156 85.460938" fill="#72d8ff"></path><path d="m378.410156 15.023438-2.003906 3.707031-67.285156 148.386719-.175782 1.15625c15.066407.308593 30.035157 6.164062 41.46875 17.59375l79.488282-175.300782c-17.492188-1.519531-34.898438.0625-51.492188 4.457032zm0 0" fill="#fff"></path><path d="m316.777344 312.496094c1.859375-1.859375 2.929687-4.4375 2.929687-7.066406 0-2.632813-1.070312-5.210938-2.929687-7.070313s-4.441406-2.929687-7.070313-2.929687c-2.640625 0-5.207031 1.070312-7.070312 2.929687-1.859375 1.859375-2.929688 4.4375-2.929688 7.070313 0 2.628906 1.070313 5.207031 2.929688 7.066406 1.863281 1.859375 4.441406 2.929687 7.070312 2.929687 2.628907 0 5.210938-1.070312 7.070313-2.929687zm0 0"></path><path d="m511.394531 81.230469c-.28125-3.234375-2.113281-6.128907-4.914062-7.765625-2.804688-1.640625-6.222657-1.816406-9.179688-.476563l-106.652343 48.359375 48.363281-106.648437c1.339843-2.957031 1.164062-6.378907-.476563-9.179688-1.636718-2.800781-4.53125-4.632812-7.765625-4.914062-47.308593-4.105469-93.707031 12.792969-127.289062 46.371093l-259.460938 259.464844c-22.21875 22.21875-36.710937 50.289063-41.90625 81.179688-5.078125 30.207031-.960937 60.789062 11.910157 88.445312.246093.527344.539062 1.011719.859374 1.472656 4.476563 8.878907 11.832032 16.144532 21.046876 20.433594 19.96875 9.296875 41.464843 14.027344 63.242187 14.027344 8.382813 0 16.808594-.703125 25.207031-2.113281 30.886719-5.195313 58.957032-19.6875 81.179688-41.90625l41.492187-41.492188c3.90625-3.90625 3.90625-10.238281 0-14.140625-3.90625-3.90625-10.234375-3.90625-14.140625 0l-41.496094 41.492188c-38.546874 38.550781-97.640624 49-147.046874 26.003906-7.414063-3.453125-12.488282-10.074219-13.917969-18.164062-1.441407-8.167969 1.089843-16.210938 6.945312-22.066407 7.226563-7.226562 17.796875-9.417969 26.925781-5.582031 12.738282 5.347656 26.078126 7.945312 39.289063 7.945312 26.269531 0 52.019531-10.285156 71.453125-29.71875l152.992188-152.992187 28.96875 28.964844-67.550782 67.550781c-3.90625 3.90625-3.90625 10.234375 0 14.140625 1.953125 1.953125 4.511719 2.929687 7.070313 2.929687 2.558593 0 5.117187-.976562 7.070312-2.929687l74.613281-74.609375c0-.003906.003907-.007812.007813-.007812.003906-.003907.007813-.007813.007813-.011719l86.777343-86.777344c33.582031-33.582031 50.484375-79.976563 46.375-127.285156zm-19.410156 16.128906c-.152344 9.988281-1.371094 19.859375-3.59375 29.464844l-126.164063 57.210937 15.886719-35.042968zm-145.320313 72.566406c-7.105468-4.722656-14.988281-8.085937-23.320312-9.957031l61.832031-136.359375c9.605469-2.222656 19.476563-3.441406 29.464844-3.59375zm-29.039062-108.808593c12.195312-12.195313 26.320312-21.875 41.632812-28.773438l-57.199218 126.136719c-12.453125.96875-24.226563 5.152343-34.355469 12.144531l-29.792969-29.792969zm-294.371094 364.355468c-.800781.800782-1.558594 1.636719-2.292968 2.492188-4.515626-38.871094 8.597656-78.78125 37.199218-107.382813l165.609375-165.605469 28.964844 28.964844-152.992187 152.992188c-20.898438 20.902344-31.355469 49.136718-29.464844 77.953125-16.230469-6-34.492188-1.945313-47.023438 10.585937zm137.667969-27.355468c-18.679687 18.679687-44.632813 26.816406-69.867187 22.855468-4.011719-25.613281 4.285156-51.351562 22.828124-69.894531l158.140626-158.136719c9.476562-9.480468 22.140624-14.699218 35.660156-14.699218 7.515625 0 14.765625 1.617187 21.355468 4.683593 8.863282 19.050781 4.957032 42.117188-9.980468 57.050781zm210.242187-124.027344-29.8125-29.8125c7.015626-10.25 11.117188-22.132813 12.105469-34.308594l126.195313-57.222656c-6.898438 15.308594-16.578125 29.433594-28.773438 41.628906zm0 0"></path><path d="m268.289062 381.101562c-2.628906 0-5.210937 1.070313-7.070312 2.929688s-2.929688 4.441406-2.929688 7.070312c0 2.628907 1.070313 5.210938 2.929688 7.070313 1.871094 1.859375 4.441406 2.929687 7.070312 2.929687 2.632813 0 5.210938-1.070312 7.078126-2.929687 1.863281-1.859375 2.921874-4.441406 2.921874-7.070313 0-2.628906-1.058593-5.210937-2.921874-7.070312-1.867188-1.859375-4.4375-2.929688-7.078126-2.929688zm0 0"></path><path d="m206.574219 212.292969c2.628906 0 5.207031-1.070313 7.066406-2.929688 1.863281-1.859375 2.929687-4.441406 2.929687-7.070312 0-2.628907-1.066406-5.210938-2.929687-7.070313-1.859375-1.859375-4.4375-2.929687-7.066406-2.929687-2.632813 0-5.210938 1.070312-7.070313 2.929687s-2.929687 4.441406-2.929687 7.070313c0 2.628906 1.070312 5.210937 2.929687 7.070312s4.4375 2.929688 7.070313 2.929688zm0 0"></path><path d="m55.121094 448.199219c-2.628906 0-5.210938 1.070312-7.070313 2.929687s-2.929687 4.441406-2.929687 7.070313c0 2.628906 1.070312 5.210937 2.929687 7.070312 1.871094 1.867188 4.441407 2.929688 7.070313 2.929688s5.210937-1.0625 7.070312-2.929688c1.859375-1.859375 2.929688-4.429687 2.929688-7.070312 0-2.628907-1.070313-5.210938-2.929688-7.070313s-4.429687-2.929687-7.070312-2.929687zm0 0"></path></svg>