<!-- icon666.com - MILLIONS vector ICONS FREE --><svg viewBox="0 -55 511.99823 511" xmlns="http://www.w3.org/2000/svg"><path d="m191.800781 309.9375v55.085938l-8.992187 8.566406c-7.160156 6.824218-2.332032 18.894531 7.5625 18.894531h26.070312c6.054688 0 10.960938-4.90625 10.960938-10.960937v-60.105469zm0 0" fill="#7d9bff"></path><path d="m357.1875 309.9375v55.085938l-8.992188 8.566406c-7.164062 6.824218-2.332031 18.894531 7.558594 18.894531h26.074219c6.050781 0 10.960937-4.90625 10.960937-10.960937v-82.761719zm0 0" fill="#7d9bff"></path><path d="m93.640625 225.996094c9.703125 23.550781 32.460937 40.34375 59.261719 41.386718 10.617187 28.09375 37.75 48.082032 69.566406 48.082032 10.878906 0 21.203125-2.355469 30.515625-6.554688 15.074219 8.976563 32.6875 14.136719 51.503906 14.136719 25.640625 0 49.039063-9.574219 66.832031-25.339844 4.101563.917969 8.355469 1.417969 12.734376 1.417969 26.851562 0 49.433593-18.246094 56.046874-43.011719 34.652344-2.839843 61.898438-31.84375 61.898438-67.226562 0-22.703125-11.222656-42.765625-28.40625-54.996094 1.394531-4.8125 2.15625-9.894531 2.15625-15.152344 0-30.019531-24.332031-54.351562-54.351562-54.351562-7.933594 0-15.464844 1.714843-22.261719 4.773437-6.378907-34.585937-36.667969-60.789062-73.097657-60.789062-25.035156 0-47.160156 12.382812-60.636718 31.34375-15.046875-14.644532-35.582032-23.675782-58.234375-23.675782-39.726563 0-72.972657 27.730469-81.441407 64.894532zm0 0" fill="#fff"></path><path d="m183.324219 154.746094-1.28125-18.1875c-1.90625-27.109375-24.457031-48.128906-51.636719-48.128906-29.742188-22.582032-75.429688-12.460938-102.050781 22.601562-26.617188 35.0625-24.085938 81.789062 5.65625 104.371094 29.742187 22.578125 75.433593 12.460937 102.050781-22.601563 8.953125-11.792969 14.609375-24.90625 17.039062-37.976562l-.847656-2.480469c5.558594 1.570312 11.355469 2.402344 17.246094 2.402344zm0 0" fill="#7d9bff"></path><path d="m484.769531 129.933594c.652344-3.695313.980469-7.441406.980469-11.199219 0-35.484375-28.867188-64.351563-64.351562-64.351563-5.203126 0-10.3125.613282-15.285157 1.832032-3.136719-9.453125-7.945312-18.34375-14.195312-26.15625-3.449219-4.3125-9.746094-5.015625-14.058594-1.5625-4.3125 3.449218-5.015625 9.746094-1.5625 14.058594 6.597656 8.25 11.09375 18.078124 13 28.417968.558594 3.023438 2.472656 5.621094 5.191406 7.046875 2.722657 1.425781 5.949219 1.523438 8.75.261719 5.738281-2.582031 11.851563-3.890625 18.160157-3.890625 24.453124 0 44.34375 19.890625 44.34375 44.34375 0 4.175781-.589844 8.335937-1.761719 12.367187-1.183594 4.085938.34375 8.46875 3.808593 10.9375 15.15625 10.785157 24.203126 28.296876 24.203126 46.84375 0 29.6875-23.152344 54.835938-52.710938 57.257813-4.210938.34375-7.753906 3.304687-8.847656 7.390625-5.59375 20.953125-24.667969 35.589844-46.382813 35.589844-3.511719 0-7.0625-.394532-10.546875-1.175782-3.132812-.703124-6.417968.144532-8.820312 2.273438-16.609375 14.71875-37.988282 22.824219-60.195313 22.824219-16.359375 0-32.402343-4.402344-46.386719-12.730469-2.808593-1.671875-6.253906-1.867188-9.230468-.523438-8.347656 3.761719-17.230469 5.671876-26.40625 5.671876-26.605469 0-50.800782-16.726563-60.207032-41.617188-1.421874-3.757812-4.953124-6.300781-8.96875-6.457031-19.472656-.757813-37.105468-11.519531-46.835937-28.039063 14.417969-6.636718 27.386719-17.078125 37.578125-30.5 7.949219-10.472656 13.796875-22.300781 17.152344-34.582031 2.746094.3125 5.519531.484375 8.316406.484375h13.824219c2.773437 0 5.425781-1.152344 7.316406-3.183594 1.894531-2.027344 2.855469-4.753906 2.660156-7.523437l-1.28125-18.1875c-2.117187-30.105469-25.910156-54.109375-55.378906-57.109375 9.136719-31.25 37.507813-52.707032 70.523437-52.707032 19.246094 0 37.449219 7.402344 51.261719 20.839844 2.089844 2.039063 4.964844 3.058594 7.878907 2.792969 2.910156-.261719 5.558593-1.785156 7.25-4.164063 8.980468-12.640624 22.15625-21.621093 37.101562-25.289062 5.363281-1.316406 8.648438-6.734375 7.332031-12.097656-1.316406-5.367188-6.730469-8.648438-12.101562-7.332032-16.054688 3.941407-30.546875 12.546876-41.730469 24.621094-16.285156-12.5625-36.15625-19.378906-56.992188-19.378906-21.316406 0-42.171874 7.363281-58.726562 20.734375-14.113281 11.394531-24.636719 26.75-30.21875 43.855469-32.492188-11.597656-72.871094 1.484375-97.832031 34.359375-29.910157 39.398437-26.511719 92.507812 7.574219 118.386719 12.246093 9.292968 26.984374 14.09375 42.691406 14.09375 5.40625 0 10.925781-.574219 16.496094-1.726563 11.621093 22.523437 33.765624 37.988281 58.902343 41.113281 7.667969 16.335938 20.355469 29.554688 35.746094 38.0625v45.824219l-5.890625 5.613281c-6.238281 5.945313-8.203125 14.960938-5 22.964844s10.84375 13.175781 19.464844 13.175781h26.070312c11.558594 0 20.964844-9.40625 20.964844-20.964843v-57.386719c5.074219-.910157 10.050781-2.285157 14.90625-4.128907 15.992188 8.546876 33.925781 13.039063 52.175781 13.039063 14.796875 0 29.28125-2.96875 42.695313-8.570313v36.257813l-5.890625 5.613281c-6.242188 5.945313-8.203125 14.960938-5.003907 22.964844 3.203126 8.003906 10.84375 13.175781 19.464844 13.175781h26.070313c11.5625 0 20.964843-9.40625 20.964843-20.964843v-75.042969c20.382813-5.855469 37.214844-21.035157 44.871094-41.253907 16.726563-2.859374 32.054688-11.136718 43.722656-23.730468 13.292969-14.351563 20.617188-33.039063 20.617188-52.617188 0-22.722656-10.070312-44.292968-27.230469-58.945312zm-444.707031 77.5c-25.300781-19.210938-26.980469-59.742188-3.738281-90.355469 23.242187-30.613281 62.734375-39.890625 88.035156-20.683594 1.808594 1.375 3.933594 2.027344 6.046875 2.027344 0 0 .003906.007813.003906.007813 21.824219 0 40.125 17.058593 41.65625 38.832031l.527344 7.480469h-3.09375c-15.265625 0-29.832031-6.550782-39.957031-17.972657-3.667969-4.132812-9.988281-4.515625-14.125-.847656-4.132813 3.664063-4.511719 9.988281-.847657 14.121094 7.554688 8.519531 16.910157 15.046875 27.234376 19.253906-2.695313 9.710937-7.363282 19.097656-13.707032 27.453125-11.445312 15.074219-27.085937 25.441406-44.050781 29.199219-16.359375 3.621093-31.980469.597656-43.984375-8.515625zm176.378906 175.050781h-26.070312c-.273438 0-.648438 0-.886719-.601563-.242187-.601562.027344-.859374.226563-1.050781l8.992187-8.566406c1.980469-1.890625 3.101563-4.507813 3.101563-7.242187v-42.164063c5.066406 1.292969 10.285156 2.117187 15.59375 2.441406v56.226563c0 .527344-.425782.957031-.957032.957031zm165.386719 0h-26.074219c-.273437 0-.648437 0-.886718-.601563-.242188-.601562.027343-.859374.226562-1.050781l8.992188-8.570312c1.980468-1.886719 3.105468-4.503907 3.105468-7.238281v-51.433594c2.382813-1.636719 4.714844-3.359375 6.972656-5.191406 2.867188.421874 5.746094.652343 8.621094.703124v72.425782c0 .527344-.429687.957031-.957031.957031zm0 0"></path><path d="m346.242188 21.605469.285156.097656c1.058594.355469 2.132812.523437 3.191406.523437 4.175781 0 8.074219-2.640624 9.480469-6.816406 1.761719-5.238281-1.054688-10.910156-6.292969-12.671875l-.363281-.121093c-5.242188-1.738282-10.90625 1.101562-12.648438 6.34375-1.738281 5.242187 1.101563 10.902343 6.347657 12.644531zm0 0"></path><path d="m91.523438 136.40625c0-2.628906-1.070313-5.210938-2.929688-7.070312-1.863281-1.863282-4.441406-2.933594-7.074219-2.933594-2.628906 0-5.210937 1.070312-7.070312 2.933594-1.863281 1.859374-2.933594 4.441406-2.933594 7.070312 0 2.632812 1.070313 5.210938 2.933594 7.074219 1.859375 1.859375 4.441406 2.929687 7.070312 2.929687 2.632813 0 5.210938-1.070312 7.074219-2.929687 1.859375-1.863281 2.929688-4.441407 2.929688-7.074219zm0 0"></path></svg>