<!-- icon666.com - MILLIONS vector ICONS FREE --><svg viewBox="0 -7 512.00034 512" xmlns="http://www.w3.org/2000/svg"><path d="m173.574219 64v67.25c0 29.632812-14.070313 57.507812-37.910157 75.105469l-85.503906 63.128906c-39.558594 29.207031-51.65625 83.035156-28.398437 126.355469 25.914062 48.277344 86.136719 66.285156 134.300781 40.164062l127.804688-69.3125c55.273437-29.980468 89.699218-87.8125 89.699218-150.691406v-152zm0 0" fill="#72d8ff"></path><path d="m254.726562 328.527344c0 17.234375 3.667969 33.613281 10.265626 48.394531l.003906.003906 18.871094-10.234375c55.273437-29.976562 89.699218-87.8125 89.699218-150.691406v-6.308594c-65.632812 0-118.839844 53.203125-118.839844 118.835938zm0 0" fill="#fff"></path><path d="m28.484375 291.46875c-21.445313 29.953125-24.964844 70.390625-6.722656 104.371094 18.449219 34.371094 54.296875 53.394531 90.796875 52.074218 8.902344-15.367187 14-33.210937 14-52.25.003906-55.53125-43.359375-100.929687-98.074219-104.195312zm0 0" fill="#fff"></path><path d="m479.007812 141.640625-76-131.640625-93.527343 54h64.085937v152c0 62.878906-34.425781 120.710938-89.699218 150.691406l-65.570313 35.558594c3.8125 28.519531 19.984375 54.949219 45.960937 71.035156 46.578126 28.851563 107.738282 14.335938 136.390626-32.367187l76.023437-123.929688c32.878906-53.597656 33.777344-120.894531 2.335937-175.347656zm0 0" fill="#4dbaf6"></path><path d="m432.710938 298.257812c8.742187 14.855469 20.207031 27.109376 33.390624 36.503907h.003907l11.074219-18.390625c32.4375-53.867188 32.78125-121.167969.890624-175.363282l-3.199218-5.4375c-56.566406 33.28125-75.441406 106.121094-42.160156 162.6875zm0 0" fill="#fff"></path><path d="m219.25 401.734375c3.480469 28.757813 19.527344 55.480469 45.445312 71.816406 33.71875 20.648438 74.96875 18.679688 105.996094-1.695312-.347656-17.304688-4.996094-34.761719-14.398437-50.738281-17.4375-29.636719-47.234375-47.484376-78.984375-50.867188zm0 0" fill="#fff"></path><path d="m101.699219 241.433594c2.636719 0 5.207031-1.070313 7.070312-2.933594 1.867188-1.859375 2.929688-4.4375 2.929688-7.066406 0-2.632813-1.0625-5.210938-2.929688-7.070313-1.863281-1.859375-4.433593-2.929687-7.070312-2.929687-2.632813 0-5.210938 1.070312-7.070313 2.929687s-2.929687 4.4375-2.929687 7.070313c0 2.628906 1.070312 5.207031 2.929687 7.066406 1.859375 1.863281 4.4375 2.933594 7.070313 2.933594zm0 0"></path><path d="m304.652344 132.945312c1.953125 1.953126 4.511718 2.925782 7.070312 2.925782s5.117188-.972656 7.070313-2.925782l20-20c3.902343-3.90625 3.902343-10.238281 0-14.144531-3.90625-3.902343-10.238281-3.902343-14.144531 0l-12.929688 12.929688-12.925781-12.929688c-3.90625-3.902343-10.238281-3.902343-14.144531 0-3.902344 3.90625-3.902344 10.238281 0 14.144531zm0 0"></path><path d="m225.863281 132.945312c1.953125 1.953126 4.511719 2.925782 7.070313 2.925782s5.117187-.972656 7.070312-2.925782l20-20c3.902344-3.90625 3.902344-10.238281 0-14.144531-3.90625-3.902343-10.238281-3.902343-14.144531 0l-12.925781 12.929688-12.929688-12.925781c-3.90625-3.90625-10.234375-3.90625-14.140625 0-3.90625 3.902343-3.90625 10.234374 0 14.140624zm0 0"></path><path d="m284.652344 168.703125 20 20c1.953125 1.953125 4.511718 2.925781 7.070312 2.925781s5.117188-.972656 7.070313-2.925781l20-20c3.902343-3.90625 3.902343-10.238281 0-14.144531-3.90625-3.902344-10.238281-3.902344-14.144531 0l-12.929688 12.929687-12.925781-12.929687c-3.90625-3.902344-10.238281-3.902344-14.144531 0-3.902344 3.90625-3.902344 10.238281.003906 14.144531zm0 0"></path><path d="m205.863281 168.703125 20 20c1.953125 1.953125 4.511719 2.925781 7.070313 2.925781s5.117187-.972656 7.070312-2.925781l20-20c3.902344-3.90625 3.902344-10.238281 0-14.144531-3.90625-3.902344-10.238281-3.902344-14.144531 0l-12.925781 12.929687-12.929688-12.929687c-3.90625-3.902344-10.238281-3.902344-14.144531 0-3.902344 3.90625-3.902344 10.238281.003906 14.144531zm0 0"></path><path d="m487.667969 136.640625-76-131.640625c-2.761719-4.78125-8.878907-6.417969-13.660157-3.660156l-91.207031 52.660156h-133.226562c-5.523438 0-10 4.476562-10 10v67.25c0 26.34375-12.652344 51.414062-33.847657 67.0625l-1.964843 1.449219c-4.441407 3.277343-5.386719 9.539062-2.105469 13.984375 3.28125 4.441406 9.539062 5.386718 13.984375 2.105468l1.964844-1.449218c26.277343-19.402344 41.96875-50.488282 41.96875-83.152344v-57.25h179.992187v126.074219c-66.386718 5.121093-118.839844 60.777343-118.839844 128.453125 0 15.132812 2.582032 29.84375 7.664063 43.859375l-101.09375 54.828125c-6.976563 3.785156-14.308594 6.558594-21.824219 8.359375 4.660156-12.65625 7.085938-26.121094 7.085938-39.734375 0-53.8125-37.527344-99.691406-88.335938-111.71875 2.480469-2.324219 5.09375-4.535156 7.875-6.589844l19.1875-14.164062c4.441406-3.28125 5.382813-9.542969 2.105469-13.984376-3.28125-4.441406-9.542969-5.382812-13.984375-2.105468l-19.183594 14.164062c-21.066406 15.554688-35.832031 38.1875-41.574218 63.734375-5.742188 25.550781-2.082032 52.324219 10.304687 75.394531 13.800781 25.710938 36.796875 44.472657 64.75 52.832032 10.332031 3.089844 20.875 4.621094 31.355469 4.621094 1.109375 0 2.21875-.019532 3.328125-.054688.097656.003906.191406.019531.289062.019531.453125 0 .902344-.035156 1.347657-.09375 16.191406-.746093 32.132812-5.140625 46.808593-13.097656l50.34375-27.304687c7.132813 26.621093 24.050781 49.578124 47.816407 64.296874 17.449218 10.804688 37.117187 16.363282 57.132812 16.363282 8.4375 0 16.941406-.988282 25.359375-2.988282 11.558594-2.742187 22.394531-7.253906 32.210937-13.320312.476563-.25.929688-.539062 1.355469-.859375 13.707031-8.75 25.363281-20.5625 34.121094-34.835937l76.023437-123.929688c34.832032-56.78125 35.78125-127.890625 2.472657-185.578125zm-457.097657 254.46875c-15.386718-28.664063-13.324218-62.894531 3.140626-89.316406 46.890624 5.90625 82.851562 46.171875 82.851562 94.046875 0 14.65625-3.398438 29.097656-9.855469 42.117187-7.789062-.207031-15.601562-1.421875-23.273437-3.714843-22.820313-6.828126-41.59375-22.144532-52.863282-43.132813zm234.15625-62.582031c0-56.617188 43.457032-103.269532 98.769532-108.367188-1.476563 57.644532-33.515625 110.144532-84.394532 137.738282l-8.894531 4.824218c-3.636719-10.96875-5.480469-22.429687-5.480469-34.195312zm72.140626 147.179687c-23.175782 5.5-47.09375 1.621094-67.34375-10.921875-20.777344-12.867187-35.144532-33.445312-40.15625-57.160156l51.136718-27.734375c27.808594 4.835937 51.683594 21.457031 65.851563 45.996094 7.328125 12.691406 11.609375 26.898437 12.527343 41.402343-6.851562 3.714844-14.226562 6.570313-22.015624 8.417969zm55.253906-40.015625c-4.148438 6.765625-9.109375 12.832032-14.714844 18.148438-2.292969-13.292969-6.925781-26.164063-13.730469-37.953125-13.535156-23.445313-34.390625-40.917969-59.121093-50.125 49.15625-33.582031 79.011718-89.410157 79.011718-149.761719v-75.410156l18.054688 4.835937c.867187.234375 1.738281.34375 2.59375.34375 4.414062 0 8.457031-2.945312 9.652344-7.414062l7.320312-27.316407c1.429688-5.335937-1.734375-10.820312-7.070312-12.25-5.335938-1.429687-10.816407 1.738282-12.246094 7.070313l-4.730469 17.660156-13.570313-3.632812v-55.886719c0-5.523438-4.480468-10-10-10h-26.769531l52.546875-30.339844 63.039063 109.183594c-54.933594 37.628906-72.53125 112.054688-38.691407 170.664062 7.566407 13.105469 17.15625 24.554688 28.566407 34.148438zm76.027344-123.933594-5.292969 8.628907c-8.632813-7.683594-15.957031-16.6875-21.839844-26.875-28.308594-49.035157-14-111.167969 31.351563-143.238281 27.542968 50.660156 26.046874 112.148437-4.21875 161.484374zm0 0"></path></svg>