<!-- icon666.com - MILLIONS vector ICONS FREE --><svg viewBox="-54 0 512 512" xmlns="http://www.w3.org/2000/svg"><path d="m201.871094 502h-191.871094v-325.082031c33.652344-24.1875 53.605469-63.09375 53.605469-104.535157v-62.382812h62.394531c0 62.164062 22.238281 122.277344 62.691406 169.476562l13.308594 15.523438 13.316406-15.550781c40.398438-47.183594 62.601563-107.253907 62.601563-169.371094v-.078125h62.476562v62.382812c0 41.441407 19.953125 80.347657 53.605469 104.535157v325.082031zm0 0" fill="#fff"></path><g fill="#72d8ff"><path d="m10 398h384v104h-384zm0 0"></path><path d="m57.996094 287.242188 48-48 48 48-48 48zm0 0"></path><path d="m10 239.242188 48 48-48 48"></path><path d="m153.996094 287.242188 48-48 48 48-48 48zm0 0"></path><path d="m249.996094 287.242188 48-48 48 48-48 48zm0 0"></path><path d="m394 335.242188-48-48 48-48"></path></g><path d="m344.085938 434.929688-12.15625 12.15625-12.15625-12.15625c-3.90625-3.902344-10.234376-3.90625-14.144532 0-3.902344 3.90625-3.902344 10.234374 0 14.140624l19.230469 19.230469c1.875 1.875 4.417969 2.929688 7.070313 2.929688 2.652343 0 5.195312-1.054688 7.070312-2.929688l19.230469-19.230469c3.902343-3.902343 3.902343-10.234374 0-14.140624-3.910157-3.90625-10.238281-3.90625-14.144531 0zm0 0"></path><path d="m257.65625 434.929688-12.160156 12.15625-12.152344-12.15625c-3.90625-3.902344-10.238281-3.90625-14.144531 0s-3.90625 10.234374 0 14.140624l19.226562 19.230469c1.875 1.875 4.421875 2.929688 7.070313 2.929688 2.652344 0 5.195312-1.054688 7.074218-2.929688l19.226563-19.230469c3.90625-3.902343 3.90625-10.234374 0-14.140624s-10.234375-3.90625-14.140625 0zm0 0"></path><path d="m171.222656 434.929688-12.15625 12.15625-12.15625-12.15625c-3.90625-3.90625-10.234375-3.90625-14.140625 0s-3.90625 10.234374 0 14.140624l19.226563 19.230469c1.875 1.875 4.417968 2.929688 7.070312 2.929688s5.199219-1.054688 7.074219-2.929688l19.226563-19.230469c3.90625-3.902343 3.90625-10.234374 0-14.140624s-10.238282-3.90625-14.144532 0zm0 0"></path><path d="m84.792969 434.929688-12.15625 12.15625-12.15625-12.15625c-3.90625-3.90625-10.238281-3.90625-14.144531 0-3.902344 3.90625-3.902344 10.234374 0 14.140624l19.230468 19.230469c1.875 1.875 4.417969 2.929688 7.070313 2.929688 2.652343 0 5.195312-1.054688 7.070312-2.929688l19.230469-19.230469c3.902344-3.902343 3.902344-10.234374 0-14.140624-3.910156-3.90625-10.242188-3.90625-14.144531 0zm0 0"></path><path d="m201.671875 388c-2.640625 0-5.210937 1.070312-7.082031 2.929688-1.859375 1.859374-2.917969 4.441406-2.917969 7.070312s1.058594 5.210938 2.917969 7.070312c1.871094 1.859376 4.441406 2.929688 7.082031 2.929688 2.628906 0 5.199219-1.070312 7.066406-2.929688 1.859375-1.859374 2.933594-4.441406 2.933594-7.070312s-1.070313-5.210938-2.933594-7.070312c-1.859375-1.859376-4.4375-2.929688-7.066406-2.929688zm0 0"></path><path d="m404 176.917969c0-3.222657-1.550781-6.242188-4.164062-8.121094-30.957032-22.246094-49.441407-58.289063-49.441407-96.414063v-62.382812c0-5.523438-4.480469-10-10-10h-62.476562c-5.523438 0-10 4.558594-10 10.078125 0 59.6875-21.378907 117.527344-60.199219 162.867187l-5.722656 6.683594-5.710938-6.660156c-38.875-45.359375-60.285156-103.234375-60.285156-162.96875 0-5.523438-4.476562-10-10-10h-62.394531c-5.519531 0-10 4.476562-10 10v62.382812c0 38.125-18.484375 74.167969-49.441407 96.414063-2.613281 1.878906-4.164062 4.898437-4.164062 8.121094v325.082031c0 5.523438 4.476562 10 10 10h384c5.523438 0 10-4.476562 10-10zm-20 134.179687-23.855469-23.855468 23.855469-23.859376zm-310.394531-238.714844v-52.382812h42.578125c2.257812 60.941406 25.105468 119.539062 64.914062 165.980469l13.308594 15.527343c1.902344 2.214844 4.675781 3.492188 7.59375 3.492188h.003906c2.917969-.003906 5.691406-1.277344 7.59375-3.496094l13.3125-15.554687c39.75-46.421875 62.566406-104.988281 64.820313-165.949219h42.664062v52.382812c0 42.808594 19.945313 83.371094 53.605469 109.542969v53.171875l-38 38-40.929688-40.925781c-3.90625-3.90625-10.234374-3.90625-14.144531 0l-40.925781 40.925781-40.929688-40.925781c-3.90625-3.90625-10.234374-3.90625-14.140624 0l-40.929688 40.925781-40.929688-40.925781c-3.90625-3.90625-10.234374-3.90625-14.140624 0l-40.929688 40.925781-38-38v-53.171875c33.660156-26.171875 53.605469-66.734375 53.605469-109.542969zm258.25 214.859376-33.855469 33.855468-33.855469-33.855468 33.855469-33.859376zm-96 0-33.855469 33.855468-33.855469-33.855468 33.855469-33.859376zm-96 0-33.855469 33.855468-33.855469-33.855468 33.855469-33.859376zm-96 0-23.855469 23.855468v-47.714844zm-23.855469 204.757812v-84h141.667969c5.519531 0 10-4.476562 10-10s-4.480469-10-10-10h-141.667969v-48.617188l38-38 40.929688 40.929688c1.953124 1.953125 4.511718 2.929688 7.070312 2.929688s5.117188-.976563 7.070312-2.929688l40.929688-40.929688 40.929688 40.929688c1.953124 1.953125 4.511718 2.929688 7.070312 2.929688s5.117188-.976563 7.070312-2.929688l40.929688-40.929688 40.929688 40.929688c1.953124 1.953125 4.511718 2.929688 7.070312 2.929688s5.117188-.976563 7.070312-2.929688l40.929688-40.929688 38 38v48.617188h-142.332031c-5.523438 0-10 4.476562-10 10s4.476562 10 10 10h142.332031v84zm0 0"></path><path d="m58 325.238281c-2.628906 0-5.210938 1.070313-7.070312 2.933594-1.859376 1.859375-2.929688 4.4375-2.929688 7.066406 0 2.640625 1.070312 5.210938 2.929688 7.070313 1.859374 1.859375 4.441406 2.929687 7.070312 2.929687s5.210938-1.066406 7.070312-2.929687c1.859376-1.859375 2.929688-4.429688 2.929688-7.070313 0-2.628906-1.070312-5.207031-2.929688-7.066406-1.859374-1.863281-4.441406-2.933594-7.070312-2.933594zm0 0"></path><path d="m154 325.238281c-2.628906 0-5.210938 1.070313-7.070312 2.933594-1.859376 1.859375-2.929688 4.4375-2.929688 7.066406 0 2.632813 1.070312 5.210938 2.929688 7.070313 1.859374 1.859375 4.441406 2.929687 7.070312 2.929687s5.210938-1.066406 7.070312-2.929687c1.859376-1.859375 2.929688-4.4375 2.929688-7.070313 0-2.628906-1.070312-5.207031-2.929688-7.066406-1.859374-1.863281-4.441406-2.933594-7.070312-2.933594zm0 0"></path><path d="m98.929688 280.171875c-1.859376 1.859375-2.929688 4.4375-2.929688 7.066406 0 2.632813 1.070312 5.210938 2.929688 7.070313 1.859374 1.859375 4.441406 2.929687 7.070312 2.929687s5.210938-1.066406 7.070312-2.929687c1.859376-1.859375 2.929688-4.4375 2.929688-7.070313 0-2.628906-1.070312-5.207031-2.929688-7.066406-1.859374-1.863281-4.429687-2.933594-7.070312-2.933594-2.628906 0-5.210938 1.070313-7.070312 2.933594zm0 0"></path><path d="m194.929688 280.171875c-1.859376 1.859375-2.929688 4.4375-2.929688 7.066406 0 2.632813 1.070312 5.210938 2.929688 7.070313 1.859374 1.859375 4.441406 2.929687 7.070312 2.929687s5.210938-1.066406 7.070312-2.929687c1.859376-1.859375 2.929688-4.4375 2.929688-7.070313 0-2.628906-1.070312-5.207031-2.929688-7.066406-1.859374-1.863281-4.441406-2.933594-7.070312-2.933594s-5.210938 1.070313-7.070312 2.933594zm0 0"></path><path d="m290.929688 280.171875c-1.859376 1.859375-2.929688 4.4375-2.929688 7.066406 0 2.632813 1.070312 5.210938 2.929688 7.070313 1.859374 1.859375 4.441406 2.929687 7.070312 2.929687s5.210938-1.066406 7.070312-2.929687c1.859376-1.859375 2.929688-4.4375 2.929688-7.070313 0-2.628906-1.070312-5.207031-2.929688-7.066406-1.859374-1.863281-4.441406-2.933594-7.070312-2.933594s-5.210938 1.070313-7.070312 2.933594zm0 0"></path><path d="m250 345.238281c2.628906 0 5.210938-1.066406 7.070312-2.929687 1.859376-1.859375 2.929688-4.4375 2.929688-7.070313 0-2.628906-1.070312-5.207031-2.929688-7.066406-1.859374-1.863281-4.441406-2.933594-7.070312-2.933594s-5.210938 1.070313-7.070312 2.933594c-1.859376 1.859375-2.929688 4.4375-2.929688 7.066406 0 2.632813 1.070312 5.210938 2.929688 7.070313 1.859374 1.863281 4.441406 2.929687 7.070312 2.929687zm0 0"></path><path d="m346 345.238281c2.628906 0 5.210938-1.066406 7.070312-2.929687 1.859376-1.859375 2.929688-4.4375 2.929688-7.070313 0-2.628906-1.070312-5.207031-2.929688-7.066406-1.859374-1.863281-4.441406-2.933594-7.070312-2.933594s-5.210938 1.070313-7.070312 2.933594c-1.859376 1.859375-2.929688 4.4375-2.929688 7.066406 0 2.632813 1.070312 5.210938 2.929688 7.070313 1.859374 1.863281 4.441406 2.929687 7.070312 2.929687zm0 0"></path><path d="m58 249.238281c2.628906 0 5.210938-1.066406 7.070312-2.929687 1.859376-1.859375 2.929688-4.4375 2.929688-7.070313 0-2.628906-1.070312-5.207031-2.929688-7.066406-1.859374-1.863281-4.441406-2.933594-7.070312-2.933594s-5.210938 1.070313-7.070312 2.933594c-1.859376 1.859375-2.929688 4.4375-2.929688 7.066406 0 2.632813 1.070312 5.210938 2.929688 7.070313 1.859374 1.863281 4.441406 2.929687 7.070312 2.929687zm0 0"></path><path d="m154 249.238281c2.628906 0 5.210938-1.066406 7.070312-2.929687 1.859376-1.859375 2.929688-4.4375 2.929688-7.070313 0-2.628906-1.070312-5.207031-2.929688-7.066406-1.859374-1.863281-4.441406-2.933594-7.070312-2.933594s-5.210938 1.070313-7.070312 2.933594c-1.859376 1.859375-2.929688 4.4375-2.929688 7.066406 0 2.632813 1.070312 5.210938 2.929688 7.070313 1.859374 1.863281 4.441406 2.929687 7.070312 2.929687zm0 0"></path><path d="m250 249.238281c2.628906 0 5.210938-1.066406 7.070312-2.929687 1.859376-1.859375 2.929688-4.4375 2.929688-7.070313 0-2.628906-1.070312-5.207031-2.929688-7.066406-1.859374-1.863281-4.441406-2.933594-7.070312-2.933594s-5.210938 1.070313-7.070312 2.933594c-1.859376 1.859375-2.929688 4.4375-2.929688 7.066406 0 2.632813 1.070312 5.210938 2.929688 7.070313 1.859374 1.863281 4.441406 2.929687 7.070312 2.929687zm0 0"></path><path d="m346 249.238281c2.628906 0 5.210938-1.066406 7.070312-2.929687 1.859376-1.859375 2.929688-4.4375 2.929688-7.070313 0-2.628906-1.070312-5.207031-2.929688-7.066406-1.859374-1.863281-4.441406-2.933594-7.070312-2.933594s-5.210938 1.070313-7.070312 2.933594c-1.859376 1.859375-2.929688 4.4375-2.929688 7.066406 0 2.632813 1.070312 5.210938 2.929688 7.070313 1.859374 1.863281 4.441406 2.929687 7.070312 2.929687zm0 0"></path></svg>