<!-- icon666.com - MILLIONS vector ICONS FREE --><svg viewBox="0 -26 512 512" xmlns="http://www.w3.org/2000/svg"><path d="m441.75 382.648438h60.25v40h-60.25zm0 0" fill="#fff"></path><path d="m10 382.648438h60.25v40h-60.25zm0 0" fill="#fff"></path><path d="m328.25 16.78125c107.355469 60.601562 173.75 174.328125 173.75 297.605469v68.261719h-60.25l-47.542969-117.621094-.519531-36.285156v122.957031c0 33.164062-4.703125 66.15625-13.976562 97.996093h-248c-9.273438-31.839843-13.980469-64.832031-13.980469-97.996093v-122.957031l-.839844 38.511718-46.640625 115.394532h-60.25v-68.261719c0-123.277344 66.394531-237.003907 173.75-297.601563h144.5zm0 0" fill="#36d28f"></path><path d="m121.320312 401.695312c2.335938 16.203126 5.800782 32.242188 10.390626 48h248c4.589843-15.757812 8.054687-31.796874 10.390624-48zm0 0" fill="#fff"></path><path d="m328.25 16.785156h-144.5c-18.257812 10.304688-35.328125 22.152344-51.09375 35.320313 8.683594 28.75 35.402344 49.75 66.949219 49.75h112.070312c31.71875 0 58.558594-21.238281 67.085938-50.230469-15.605469-12.972656-32.476563-24.660156-50.511719-34.839844zm0 0" fill="#fff"></path><path d="m311.675781 10h-112.074219c-12.109374 0-21.925781 9.816406-21.925781 21.925781s9.816407 21.929688 21.925781 21.929688h112.074219c12.109375 0 21.929688-9.820313 21.929688-21.929688s-9.820313-21.925781-21.929688-21.925781zm0 0" fill="#36d28f"></path><g fill="#fff"><path d="m199.480469 112.097656-10.242188-10.242187-10.242187 10.242187c-14.910156 14.910156-14.910156 39.082032 0 53.992188l10.242187 10.242187 10.242188-10.242187c14.910156-14.910156 14.910156-39.082032 0-53.992188zm0 0"></path><path d="m199.480469 186.574219-10.242188-10.238281-10.242187 10.238281c-14.910156 14.910156-14.910156 39.085937 0 53.996093l10.242187 10.242188 10.242188-10.242188c14.910156-14.910156 14.910156-39.085937 0-53.996093zm0 0"></path><path d="m199.480469 261.054688-10.242188-10.242188-10.242187 10.242188c-14.910156 14.910156-14.910156 39.082031 0 53.992187l10.242187 10.242187 10.242188-10.242187c14.910156-14.910156 14.910156-39.082031 0-53.992187zm0 0"></path><path d="m199.480469 335.53125-10.242188-10.242188-10.242187 10.242188c-14.910156 14.910156-14.910156 39.082031 0 53.992188l10.242187 10.242187 10.242188-10.242187c14.910156-14.910157 14.910156-39.082032 0-53.992188zm0 0"></path><path d="m311.941406 112.097656 10.242188-10.242187 10.242187 10.242187c14.910157 14.910156 14.910157 39.082032 0 53.992188l-10.242187 10.242187-10.242188-10.242187c-14.910156-14.910156-14.910156-39.082032 0-53.992188zm0 0"></path><path d="m311.941406 186.574219 10.242188-10.238281 10.242187 10.238281c14.910157 14.910156 14.910157 39.085937 0 53.996093l-10.242187 10.242188-10.242188-10.242188c-14.910156-14.910156-14.910156-39.085937 0-53.996093zm0 0"></path><path d="m311.941406 261.054688 10.242188-10.242188 10.242187 10.242188c14.910157 14.910156 14.910157 39.082031 0 53.992187l-10.242187 10.242187-10.242188-10.242187c-14.910156-14.910156-14.910156-39.082031 0-53.992187zm0 0"></path><path d="m311.941406 335.53125 10.242188-10.242188 10.242187 10.242188c14.910157 14.910156 14.910157 39.082031 0 53.992188l-10.242187 10.242187-10.242188-10.242187c-14.910156-14.910157-14.910156-39.082032 0-53.992188zm0 0"></path></g><path d="m474.03125 155.425781c-2.496094-4.929687-8.511719-6.898437-13.4375-4.402343-4.925781 2.5-6.898438 8.515624-4.402344 13.441406 23.425782 46.234375 35.808594 98.074218 35.808594 149.921875v58.261719h-43.507812l-44.804688-110.847657v-33.058593c0-5.523438-4.476562-10-10-10s-10 4.476562-10 10v122.957031c0 13.390625-.792969 26.742187-2.363281 39.996093h-37.550781c6.371093-8.34375 9.832031-18.488281 9.832031-29.167968 0-12.867188-5.007813-24.96875-14.109375-34.066406l-3.171875-3.171876 3.171875-3.171874c18.785156-18.785157 18.785156-49.351563 0-68.136719l-3.171875-3.167969 3.171875-3.171875c9.101562-9.101563 14.109375-21.199219 14.109375-34.070313 0-12.867187-5.007813-24.964843-14.109375-34.066406l-3.171875-3.171875 3.171875-3.171875c18.367187-18.363281 18.765625-47.984375 1.214844-66.855468 17.984374-7.09375 33.097656-20.578126 42.070312-37.984376 10.789062 9.757813 20.945312 20.246094 30.429688 31.421876 1.976562 2.332031 4.796874 3.53125 7.628906 3.53125 2.289062 0 4.585937-.777344 6.464844-2.375 4.210937-3.570313 4.730468-9.882813 1.15625-14.09375-26.933594-31.75-58.996094-58.238282-95.296876-78.730469l-.097656.171875c-5.664062-5.121094-13.167968-8.246094-21.390625-8.246094h-112.070312c-8.472657 0-16.175781 3.320312-21.898438 8.722656-18.171875 10.347656-35.195312 22.191406-50.960937 35.328125-.304688.21875-.59375.457031-.863282.710938-78.855468 66.132812-125.882812 164.6875-125.882812 269.625v108.261719c0 5.523437 4.476562 10 10 10h60.25c5.523438 0 10-4.476563 10-10v-38.054688l27.480469-67.992188v35.101563c0 34.117187 4.839843 68.027344 14.378906 100.789063 1.242187 4.269531 5.152344 7.203124 9.601563 7.203124h248c4.445312 0 8.359374-2.9375 9.601562-7.203124 9.539062-32.761719 14.375-66.671876 14.375-100.789063v-36.53125l28.0625 69.421875v38.054688c0 5.523437 4.476562 10 10 10h60.25c5.523438 0 10-4.476563 10-10v-108.261719c0-54.972657-13.128906-109.941407-37.96875-158.960938zm-155.019531 187.179688 3.171875-3.171875 3.171875 3.171875c5.320312 5.320312 8.25 12.398437 8.25 19.921875 0 7.527344-2.929688 14.605468-8.25 19.925781l-3.171875 3.175781-3.171875-3.175781c-5.324219-5.320313-8.253907-12.394531-8.253907-19.925781 0-7.523438 2.929688-14.601563 8.253907-19.921875zm3.171875-31.457031-3.171875-3.171876c-10.988281-10.988281-10.988281-28.863281 0-39.851562l3.171875-3.171875 3.167968 3.171875c10.988282 10.984375 10.988282 28.863281 0 39.851562zm0-74.480469-3.171875-3.171875c-5.324219-5.320313-8.253907-12.398438-8.253907-19.925782 0-7.523437 2.929688-14.601562 8.253907-19.921874l3.171875-3.171876 3.167968 3.171876c5.324219 5.320312 8.253907 12.398437 8.253907 19.925781 0 7.527343-2.929688 14.601562-8.253907 19.921875zm0-74.476563-3.171875-3.171875c-5.324219-5.320312-8.253907-12.398437-8.253907-19.925781s2.929688-14.601562 8.253907-19.921875l3.167969-3.171875 3.171874 3.171875c10.988282 10.984375 10.988282 28.863281 0 39.851563zm11.421875-74.5625c-6.859375 2.730469-14.277344 4.226563-21.929688 4.226563h-2.015625v-28h2.015625c8.488281 0 16.207031-3.335938 21.929688-8.757813zm-43.945313 4.226563h-23.949218v-28h23.945312v28zm-43.949218 0h-23.949219v-28h23.949219zm-43.949219 0h-2.160157c-7.589843 0-14.960937-1.480469-21.789062-4.183594v-32.4375c5.710938 5.339844 13.371094 8.621094 21.789062 8.621094h2.160157zm-43.949219-17.128907c-5.601562-5.449218-10.175781-11.992187-13.328125-19.34375 4.347656-3.480468 8.792969-6.859374 13.328125-10.132812zm28.253906 44.441407 3.171875-3.171875 3.171875 3.175781c10.988282 10.984375 10.988282 28.863281 0 39.847656l-3.171875 3.171875-3.171875-3.171875c-5.324218-5.320312-8.253906-12.398437-8.253906-19.921875 0-7.527344 2.933594-14.605468 8.253906-19.929687zm0 74.480469 3.171875-3.171876 3.171875 3.171876c5.320313 5.320312 8.253906 12.398437 8.253906 19.925781 0 7.527343-2.933593 14.601562-8.253906 19.921875l-3.171875 3.175781-3.171875-3.175781c-5.320312-5.320313-8.25-12.394532-8.25-19.921875 0-7.527344 2.929688-14.605469 8.25-19.925781zm0 74.476562 3.171875-3.171875 3.171875 3.171875c10.988282 10.984375 10.988282 28.863281 0 39.851562l-3.171875 3.171876-3.171875-3.171876c-10.984375-10.988281-10.984375-28.867187 0-39.851562zm0 74.476562 3.171875-3.167968 3.171875 3.171875c5.320313 5.320312 8.253906 12.398437 8.253906 19.921875 0 7.527344-2.933593 14.605468-8.253906 19.925781l-3.171875 3.175781-3.171875-3.175781c-5.324218-5.320313-8.253906-12.394531-8.253906-19.925781 0-7.523438 2.933594-14.601563 8.253906-19.925782zm15.695313 69.09375v28h-23.949219v-28zm20 0h23.949219v28h-23.949219zm43.949219 0h23.945312v28h-23.945312zm43.949218 0h23.945313v28h-23.945313zm-98.832031-20c6.375-8.34375 9.835937-18.488281 9.835937-29.167968 0-12.867188-5.011718-24.96875-14.113281-34.066406l-3.167969-3.171876 3.167969-3.171874c18.785157-18.785157 18.785157-49.351563 0-68.136719l-3.167969-3.167969 3.167969-3.171875c9.101563-9.101563 14.113281-21.199219 14.113281-34.070313 0-12.867187-5.011718-24.964843-14.113281-34.066406l-3.167969-3.171875 3.167969-3.171875c16.652344-16.648437 18.53125-42.550781 5.664063-61.304687h86.976562c-5.476562 7.957031-8.433594 17.367187-8.433594 27.238281 0 12.871094 5.011719 24.96875 14.109376 34.066406l3.171874 3.171875-3.171874 3.171875c-9.101563 9.101563-14.113282 21.199219-14.113282 34.066406 0 12.871094 5.011719 24.96875 14.113282 34.066407l3.171874 3.171875-3.171874 3.171875c-18.785157 18.785156-18.785157 49.351562 0 68.136719l3.171874 3.171874-3.171874 3.171876c-9.101563 9.101562-14.113282 21.199218-14.113282 34.066406 0 10.679687 3.460938 20.824218 9.835938 29.167968zm142.777344-317.089843v-29.800781c4.550781 3.257812 9.007812 6.632812 13.378906 10.117187-3.128906 7.488281-7.722656 14.148437-13.378906 19.683594zm-41.929688-54.605469c6.578125 0 11.929688 5.351562 11.929688 11.929688 0 6.574218-5.351563 11.925781-11.929688 11.925781h-112.070312c-6.578125 0-11.929688-5.351563-11.929688-11.925781 0-6.578126 5.351563-11.929688 11.929688-11.929688zm-251.425781 392.648438h-40.25v-20h40.25zm47.371094-149.144532-44.113282 109.144532h-43.507812v-58.261719c0-94.460938 40.410156-183.433594 108.753906-245.574219 5.488282 10.476562 13.292969 19.765625 22.773438 26.929688 5.921875 4.472656 12.328125 8.039062 19.074218 10.675781-8.257812 8.925781-12.789062 20.449219-12.789062 32.675781 0 12.871094 5.011719 24.96875 14.113281 34.070312l3.171875 3.171876-3.171875 3.167968c-9.101562 9.101563-14.113281 21.199219-14.113281 34.070313 0 12.867187 5.011719 24.964843 14.113281 34.066406l3.171875 3.171875-3.171875 3.171875c-18.785156 18.785156-18.785156 49.351563 0 68.132813l3.171875 3.171874-3.171875 3.171876c-9.101562 9.101562-14.113281 21.199218-14.113281 34.066406 0 10.679687 3.460938 20.824218 9.835938 29.167968h-37.554688c-1.566406-13.253906-2.363281-26.605468-2.363281-39.992187v-122.960937c0-5.523438-4.476563-10-10-10-5.519531 0-10 4.476562-10 10v34.523437c-.035157.082031-.078125.15625-.109375.238281zm25.441406 148.191406h24.75v28h-18.515625c-2.472656-9.25-4.550781-18.59375-6.234375-28zm220.542969 28v-28h24.75c-1.683594 9.40625-3.757813 18.75-6.234375 28zm138.394531-27.046874h-40.25v-20h40.25zm0 0"></path><path d="m444.738281 134.976562c1.898438 0 3.816407-.539062 5.515625-1.667968 4.589844-3.054688 5.828125-9.273438 2.78125-13.871094-.015625-.019531-.027344-.039062-.039062-.058594-3.082032-4.578125-9.300782-5.820312-13.882813-2.75-4.582031 3.070313-5.796875 9.296875-2.730469 13.882813 1.929688 2.894531 5.113282 4.464843 8.355469 4.464843zm0 0"></path></svg>