<!-- icon666.com - MILLIONS vector ICONS FREE --><svg viewBox="-18 0 512 512" xmlns="http://www.w3.org/2000/svg"><path d="m377.972656 299.667969 42.21875 19.019531c16.113282 7.257812 35.070313.21875 42.539063-15.800781 7.539062-16.167969.546875-35.382813-15.621094-42.921875l-116.886719-54.503906h-184.664062l-116.886719 54.503906c-16.167969 7.539062-23.160156 26.753906-15.621094 42.921875 7.46875 16.019531 26.425781 23.058593 42.539063 15.800781l42.21875-19.019531zm0 0" fill="#ffdfe0"></path><path d="m322.882812 201.566406c32.695313 26.609375 53.738282 68.210938 53.738282 114.96875 0 30.453125-8.925782 58.722656-24.179688 82.082032l-74.882812 57.351562c-12.570313 3.921875-25.882813 6.03125-39.667969 6.03125-13.332031 0-26.226563-1.972656-38.429687-5.652344l-76.796876-58.777344c-14.84375-23.15625-23.503906-51.035156-23.503906-81.035156 0-46.757812 21.042969-88.359375 53.738282-114.96875zm0 0" fill="#fe8f8d"></path><g fill="#ffdfe0"><path d="m335.890625 137c0 54.125-43.875 98-98 98s-98-43.875-98-98 43.875-98 98-98 98 43.875 98 98zm0 0"></path><path d="m198.222656 448.667969c0 29.453125-23.875 53.332031-53.332031 53.332031-29.453125 0-53.332031-23.878906-53.332031-53.332031 0-29.457031 23.878906-53.332031 53.332031-53.332031 29.457031 0 53.332031 23.875 53.332031 53.332031zm0 0"></path><path d="m384.222656 448.667969c0 29.453125-23.875 53.332031-53.332031 53.332031-29.453125 0-53.332031-23.878906-53.332031-53.332031 0-29.457031 23.878906-53.332031 53.332031-53.332031 29.457031 0 53.332031 23.875 53.332031 53.332031zm0 0"></path></g><path d="m336.886719 95.78125c22.855469-.953125 41.097656-19.777344 41.097656-42.867188 0-23.699218-19.214844-42.914062-42.917969-42.914062-23.222656 0-42.125 18.449219-42.875 41.492188zm0 0" fill="#fe8f8d"></path><path d="m183.601562 51.492188c-.753906-23.042969-19.65625-41.492188-42.878906-41.492188-23.699218 0-42.914062 19.214844-42.914062 42.914062 0 23.089844 18.238281 41.914063 41.09375 42.867188zm0 0" fill="#fe8f8d"></path><path d="m461.21875 257.3125c-4.167969-3.625-10.484375-3.179688-14.105469.988281-3.625 4.167969-3.179687 10.484375.988281 14.105469 7.460938 6.484375 9.75 17.28125 5.566407 26.253906-5.128907 11-18.304688 15.894532-29.371094 10.910156l-39.558594-17.824218c-3.292969-21.636719-10.878906-42.082032-22.226562-60.195313l15.917969 7.421875c1.367187.636719 2.804687.9375 4.21875.9375 3.765624 0 7.375-2.136718 9.070312-5.773437 2.332031-5.007813.167969-10.957031-4.835938-13.289063l-57.296874-26.855468c10.328124-16.550782 16.304687-36.085938 16.304687-56.992188 0-10.96875-1.648437-21.558594-4.703125-31.542969 26.53125-3.035156 46.792969-25.398437 46.792969-52.542969 0-29.175781-23.734375-52.914062-52.914063-52.914062-24.613281 0-45.183594 16.523438-51.144531 39.316406-13.972656-6.613281-29.574219-10.316406-46.03125-10.316406-16.453125 0-32.054687 3.703125-46.023437 10.3125-5.964844-22.789062-26.53125-39.3125-51.144532-39.3125-29.175781 0-52.914062 23.738281-52.914062 52.914062 0 27.140626 20.257812 49.5 46.785156 52.539063-3.054688 9.984375-4.703125 20.578125-4.703125 31.546875 0 20.945312 6 40.511719 16.359375 57.085938 0 0-.003906 0-.003906.003906l-121.800782 56.808594c-10.238281 4.777343-18.007812 13.253906-21.871093 23.871093-3.867188 10.617188-3.363281 22.105469 1.410156 32.34375 7.144531 15.320313 22.515625 24.394531 38.488281 24.394531 5.78125 0 11.644532-1.191406 17.226563-3.703124l29.488281-13.285157c-.011719.671875-.027344 1.339844-.027344 2.015625 0 28.125 7.1875 55.367188 20.820313 79.324219-17.113281 11.351563-28.421875 30.78125-28.421875 52.808594 0 34.921875 28.410156 63.332031 63.332031 63.332031 28.109375 0 51.988281-18.414062 60.238281-43.808594 10.707032 2.519532 21.6875 3.808594 32.761719 3.808594 11.078125 0 22.058594-1.28125 32.765625-3.796875 8.253906 25.386719 32.128906 43.796875 60.234375 43.796875 34.921875 0 63.332031-28.410156 63.332031-63.332031 0-22.027344-11.308594-41.453125-28.417968-52.804688 13.632812-23.957031 20.816406-51.175781 20.816406-79.328125 0-.675781-.019532-1.34375-.027344-2.015625l29.488281 13.285157c5.582031 2.511718 11.441407 3.703124 17.226563 3.703124 15.972656 0 31.34375-9.078124 38.484375-24.394531 7.9375-17.015625 3.589843-37.496093-10.574219-49.800781zm-126.152344-237.3125c18.148438 0 32.914063 14.765625 32.914063 32.914062 0 17.699219-13.839844 32.140626-31.511719 32.878907-1.113281.046875-2.175781.28125-3.164062.660156-7.5625-14.21875-18.203126-26.554687-31.035157-36.113281 1.308594-17.128906 15.4375-30.339844 32.796875-30.339844zm-9.175781 117c0 48.523438-39.476563 88-88 88s-88-39.476562-88-88 39.476563-88 88-88 88 39.476562 88 88zm-186.570313-51.207031c-17.671874-.738281-31.511718-15.179688-31.511718-32.878907 0-18.148437 14.765625-32.914062 32.914062-32.914062 17.359375 0 31.488282 13.207031 32.796875 30.332031-12.835937 9.558594-23.480469 21.898438-31.042969 36.117188-.984374-.378907-2.042968-.609375-3.15625-.65625zm-87.835937 223.777343c-11.066406 4.984376-24.242187.089844-29.371094-10.910156-2.519531-5.398437-2.785156-11.453125-.746093-17.050781 2.039062-5.597656 6.132812-10.066406 11.53125-12.585937l80.371093-37.476563c-11.347656 18.117187-18.933593 38.558594-22.230469 60.199219zm93.40625 182.429688c-23.894531 0-43.332031-19.4375-43.332031-43.332031s19.4375-43.332031 43.332031-43.332031 43.332031 19.4375 43.332031 43.332031-19.4375 43.332031-43.332031 43.332031zm186 0c-23.894531 0-43.332031-19.4375-43.332031-43.332031s19.4375-43.332031 43.332031-43.332031 43.332031 19.4375 43.332031 43.332031-19.4375 43.332031-43.332031 43.332031zm16.617187-104.4375c-5.300781-1.445312-10.867187-2.226562-16.617187-2.226562-34.820313 0-63.160156 28.246093-63.324219 63.027343-9.679687 2.402344-19.628906 3.636719-29.675781 3.636719-10.042969 0-19.996094-1.230469-29.675781-3.632812-.164063-34.785157-28.503906-63.03125-63.324219-63.03125-5.753906 0-11.324219.785156-16.628906 2.230468-12.511719-21.324218-19.101563-45.761718-19.101563-71.03125 0-41.875 17.929688-80.628906 49.222656-106.523437 19.753907 21.496093 48.082032 34.988281 79.507813 34.988281s59.753906-13.492188 79.507813-34.988281c31.292968 25.894531 49.222656 64.648437 49.222656 106.523437 0 25.289063-6.601563 49.703125-19.113282 71.027344zm0 0"></path><path d="m415 256.023438c1.355469.625 2.78125.921874 4.183594.921874 3.78125 0 7.398437-2.152343 9.085937-5.808593 2.3125-5.015625.125-10.957031-4.890625-13.273438l-.066406-.03125c-5.015625-2.3125-10.921875-.109375-13.238281 4.90625-2.3125 5.015625-.089844 10.972657 4.925781 13.285157zm0 0"></path><path d="m304.128906 281.304688c-3.90625-3.90625-10.238281-3.90625-14.144531 0s-3.90625 10.234374 0 14.140624l20 20c1.953125 1.953126 4.511719 2.929688 7.070313 2.929688 2.558593 0 5.121093-.976562 7.070312-2.929688l20-20c3.90625-3.902343 3.90625-10.234374 0-14.140624-3.902344-3.90625-10.234375-3.90625-14.140625 0l-12.929687 12.929687zm0 0"></path><path d="m251.195312 281.304688-12.929687 12.929687-12.929687-12.929687c-3.90625-3.90625-10.238282-3.90625-14.144532 0s-3.902344 10.234374 0 14.140624l20 20c1.953125 1.953126 4.511719 2.929688 7.074219 2.929688 2.558594 0 5.117187-.976562 7.070313-2.929688l20-20c3.902343-3.902343 3.902343-10.234374 0-14.140624-3.90625-3.90625-10.234376-3.90625-14.140626 0zm0 0"></path><path d="m172.402344 281.304688-12.929688 12.929687-12.929687-12.929687c-3.902344-3.90625-10.234375-3.90625-14.140625 0s-3.90625 10.234374 0 14.140624l20 20c1.953125 1.953126 4.511718 2.929688 7.070312 2.929688s5.117188-.976562 7.070313-2.929688l20-20c3.90625-3.902343 3.90625-10.234374 0-14.140624-3.902344-3.90625-10.234375-3.90625-14.140625 0zm0 0"></path><path d="m329.984375 334.117188-12.925781 12.929687-12.929688-12.929687c-3.90625-3.90625-10.238281-3.90625-14.144531 0s-3.90625 10.238281 0 14.144531l20 20c1.953125 1.953125 4.511719 2.925781 7.070313 2.925781 2.558593 0 5.121093-.972656 7.070312-2.925781l20-20c3.90625-3.90625 3.90625-10.238281 0-14.144531-3.902344-3.90625-10.234375-3.90625-14.140625 0zm0 0"></path><path d="m251.195312 334.117188-12.929687 12.929687-12.929687-12.929687c-3.90625-3.90625-10.238282-3.90625-14.144532 0s-3.902344 10.238281 0 14.144531l20 20c1.953125 1.953125 4.511719 2.925781 7.074219 2.925781 2.558594 0 5.117187-.972656 7.070313-2.925781l20-20c3.902343-3.90625 3.902343-10.238281 0-14.144531-3.90625-3.90625-10.234376-3.90625-14.140626 0zm0 0"></path><path d="m172.402344 334.117188-12.929688 12.929687-12.929687-12.929687c-3.902344-3.90625-10.234375-3.90625-14.140625 0s-3.90625 10.238281 0 14.144531l20 20c1.953125 1.953125 4.511718 2.925781 7.070312 2.925781s5.117188-.972656 7.070313-2.925781l20-20c3.90625-3.90625 3.90625-10.238281 0-14.144531-3.902344-3.90625-10.234375-3.90625-14.140625 0zm0 0"></path><path d="m226.003906 193.679688c2.921875 3.59375 7.253906 5.65625 11.886719 5.65625s8.964844-2.0625 11.886719-5.660157l9.507812-11.695312c3.761719-4.632813 4.507813-10.855469 1.945313-16.246094-2.566407-5.386719-7.867188-8.734375-13.832031-8.734375h-19.015626c-5.96875 0-11.265624 3.347656-13.832031 8.734375-2.5625 5.390625-1.816406 11.613281 1.945313 16.246094zm0 0"></path><path d="m194.890625 138c2.628906 0 5.210937-1.070312 7.070313-2.929688 1.859374-1.859374 2.929687-4.441406 2.929687-7.070312s-1.070313-5.210938-2.929687-7.070312c-1.859376-1.859376-4.441407-2.929688-7.070313-2.929688s-5.210937 1.070312-7.070313 2.929688c-1.859374 1.859374-2.929687 4.441406-2.929687 7.070312s1.070313 5.210938 2.929687 7.070312c1.859376 1.859376 4.4375 2.929688 7.070313 2.929688zm0 0"></path><path d="m280.890625 138c2.628906 0 5.210937-1.070312 7.070313-2.929688 1.859374-1.859374 2.929687-4.441406 2.929687-7.070312s-1.070313-5.210938-2.929687-7.070312c-1.859376-1.859376-4.441407-2.929688-7.070313-2.929688s-5.210937 1.070312-7.070313 2.929688c-1.859374 1.859374-2.929687 4.441406-2.929687 7.070312s1.070313 5.210938 2.929687 7.070312c1.859376 1.859376 4.4375 2.929688 7.070313 2.929688zm0 0"></path></svg>