<!-- icon666.com - MILLIONS vector ICONS FREE --><svg viewBox="-27 0 512 512.001" xmlns="http://www.w3.org/2000/svg"><g fill="#ffc66c"><path d="m319.90625 470c0 17.671875-14.328125 32-32 32-17.675781 0-32-14.328125-32-32s14.324219-32 32-32c17.671875 0 32 14.328125 32 32zm0 0"></path><path d="m267.90625 440.667969v-346.832031c0-29.128907 6.847656-57.847657 20-83.835938 13.148438 25.992188 20 54.710938 20 83.835938v346.832031"></path><path d="m447.90625 42c0 17.671875-14.328125 32-32 32-17.675781 0-32-14.328125-32-32s14.324219-32 32-32c17.671875 0 32 14.328125 32 32zm0 0"></path><path d="m435.90625 71.332031v346.832031c0 29.128907-6.851562 57.847657-20 83.835938-13.152344-25.992188-20-54.710938-20-83.835938v-346.832031"></path></g><path d="m24.050781 311.71875-13.15625 91.117188c-7.554687 52.308593 33.019531 99.164062 85.871094 99.164062 52.855469 0 93.429687-46.855469 85.875-99.164062l-7.804687-54.046876c-3.433594-23.765624-16.027344-45.242187-35.085938-59.84375l-108.949219-83.457031-4.238281 6.535157c-24.800781 38.207031-19.339844 88.578124 13.070312 120.578124l62.234376 61.445313 2.839843 3.117187c18.449219 20.246094 43.234375 33.621094 70.285157 37.925782" fill="#4dbaf6"></path><path d="m169.480469 200.28125 13.160156-91.117188c7.554687-52.308593-33.019531-99.164062-85.875-99.164062-52.851563 0-93.425781 46.855469-85.871094 99.164062l7.804688 54.046876c3.429687 23.765624 16.023437 45.242187 35.085937 59.84375l108.945313 83.457031 4.242187-6.535157c24.796875-38.207031 19.335938-88.578124-13.074218-120.578124l-62.234376-61.445313-2.839843-3.117187c-18.449219-20.246094-43.234375-33.621094-70.285157-37.925782" fill="#4dbaf6"></path><path d="m185.632812 58.480469c-.128906-.355469-.285156-.707031-.453124-1.046875-3.835938-8.621094-8.953126-16.722656-15.265626-24.011719-8.378906-9.679687-18.476562-17.464844-29.640624-23.085937-.429688-.253907-.875-.480469-1.347657-.667969-12.992187-6.289063-27.375-9.667969-42.160156-9.667969-28.09375 0-54.757813 12.179688-73.148437 33.421875-18.390626 21.238281-26.636719 49.367187-22.621094 77.171875l7.804687 54.046875c1.898438 13.140625 6.253907 25.558594 12.753907 36.726563l-3.382813 5.210937c-13.242187 20.402344-19.09375 44.957031-16.46875 69.140625 1.464844 13.523438 5.546875 26.597656 11.886719 38.480469l-12.59375 87.207031c-2.582032 17.875-.085938 35.882812 6.90625 52.109375.128906.359375.28125.710937.449218 1.050781 3.835938 8.621094 8.953126 16.722656 15.265626 24.011719 8.378906 9.675781 18.476562 17.464844 29.644531 23.085937.425781.253907.875.480469 1.34375.667969 12.992187 6.289063 27.378906 9.664063 42.160156 9.664063 28.097656 0 54.757813-12.179688 73.148437-33.417969 18.390626-21.238281 26.636719-49.367187 22.621094-77.175781l-7.804687-54.046875c-1.898438-13.140625-6.253907-25.558594-12.753907-36.726563l3.382813-5.210937c13.242187-20.402344 19.09375-44.953125 16.472656-69.136719-1.46875-13.527344-5.546875-26.597656-11.890625-38.484375l12.59375-87.203125c2.582032-17.875.089844-35.882812-6.902344-52.113281zm-30.835937-11.96875c3.984375 4.601562 7.363281 9.613281 10.113281 14.914062l-2.484375 4.25c-12.808593 21.902344-31.109375 39.515625-53.277343 51.417969 15.648437-25.394531 26.71875-53.023438 32.960937-82.253906 4.609375 3.375 8.875 7.273437 12.6875 11.671875zm-46.28125 104.898437c12.601563 34.609375 15.367187 71.410156 8.183594 107.242188l-37.167969-28.472656c.011719-31.179688 6.890625-62.171876 19.992188-90.414063l7.417968 7.324219zm-23.5 209.179688c-12.601563-34.609375-15.367187-71.410156-8.183594-107.242188l37.171875 28.472656c-.015625 31.179688-6.894531 62.171876-19.996094 90.417969l-7.417968-7.328125zm-2.796875-232.183594.566406-.027344c-13.070312 27.175782-20.824218 56.773438-22.765625 86.855469l-.152343-.117187c-17.085938-13.089844-28.191407-32.03125-31.269532-53.335938l-.21875-1.507812c11.472656-18.710938 31.8125-30.832032 53.839844-31.867188zm29.097656 255.1875-.566406.027344c13.066406-27.175782 20.820312-56.773438 22.765625-86.855469l.148437.117187c17.089844 13.089844 28.195313 32.03125 31.273438 53.335938l.21875 1.507812c-11.476562 18.710938-31.8125 30.832032-53.839844 31.867188zm-14.550781-363.59375c9.328125 0 18.449219 1.714844 26.984375 4.917969l-.71875 3.523437c-4.242188 20.804688-11.125 40.742188-20.539062 59.554688-2.859376-23.507813-11.601563-46.097656-25.394532-65.421875 6.355469-1.683594 12.957032-2.574219 19.667969-2.574219zm-58.027344 26.511719c5.574219-6.4375 12.113281-11.816407 19.304688-16.019531 14.53125 18.785156 23.277343 41.5625 25.109375 65.171874-16.566406-13.75-36.402344-23.328124-57.574219-27.636718 3.136719-7.761719 7.554687-15.042969 13.160156-21.515625zm-18.167969 40.910156c17.738282 3.433594 34.410157 11.226563 48.433594 22.492187-16.828125 3.265626-32.359375 11.496094-44.519531 23.40625l-3.695313-25.585937c-.980468-6.800781-1.039062-13.628906-.21875-20.3125zm12.773438 132.613281 25.992188 19.910156c-7.828126 31.765626-8.460938 64.414063-1.984376 96.097657l-10.691406-10.554688c-5.058594-4.996093-9.382812-10.507812-12.953125-16.386719-.445312-1.636718-1.300781-3.125-2.464843-4.332031-13.882813-26.171875-13.628907-58.511719 2.101562-84.734375zm-12.550781 184.230469 9.640625-66.761719c.714844.75 1.4375 1.488282 2.175781 2.214844l39.582031 39.082031c-20.511718 11.535157-38.019531 27.398438-51.492187 46.722657-.945313-6.984376-.9375-14.136719.09375-21.257813zm17.945312 61.222656c-3.988281-4.601562-7.367187-9.613281-10.117187-14.914062l2.488281-4.25c12.804687-21.902344 31.105469-39.519531 53.277344-51.421875-15.648438 25.398437-26.71875 53.023437-32.960938 82.257812-4.609375-3.375-8.878906-7.273437-12.6875-11.671875zm58.027344 26.511719c-9.328125 0-18.449219-1.714844-26.984375-4.917969l.71875-3.523437c4.242188-20.804688 11.128906-40.742188 20.539062-59.554688 2.863282 23.507813 11.601563 46.097656 25.398438 65.417969-6.359375 1.6875-12.960938 2.578125-19.671875 2.578125zm58.03125-26.511719c-5.578125 6.4375-12.117187 11.816407-19.304687 16.019531-14.53125-18.785156-23.28125-41.5625-25.113282-65.171874 16.570313 13.75 36.402344 23.328124 57.574219 27.636718-3.132813 7.761719-7.550781 15.042969-13.15625 21.515625zm18.167969-40.910156c-17.742188-3.433594-34.414063-11.226563-48.4375-22.492187 16.832031-3.265626 32.359375-11.496094 44.519531-23.40625l3.695313 25.585937c.980468 6.800781 1.039062 13.628906.222656 20.3125zm-12.777344-132.613281-25.992188-19.910156c7.828126-31.765626 8.464844-64.414063 1.984376-96.097657l10.691406 10.554688c5.058594 4.996093 9.382812 10.507812 12.953125 16.382812.445312 1.640625 1.300781 3.128907 2.464843 4.335938 13.886719 26.171875 13.628907 58.511719-2.101562 84.734375zm12.554688-184.230469-9.640626 66.761719c-.714843-.75-1.441406-1.488282-2.179687-2.214844l-39.582031-39.082031c20.511718-11.535157 38.019531-27.402344 51.496094-46.722657.941406 6.984376.933593 14.136719-.09375 21.257813zm0 0"></path><path d="m317.90625 265.332031c0-5.523437-4.480469-10-10-10-5.523438 0-10 4.476563-10 10v163.878907c-3.207031-.785157-6.554688-1.210938-10-1.210938-3.449219 0-6.792969.425781-10 1.210938v-335.375c0-19.832032 3.421875-39.671876 10-58.386719 6.574219 18.714843 10 38.550781 10 58.386719v91.496093c0 5.523438 4.476562 10 10 10 5.519531 0 10-4.476562 10-10v-91.496093c0-30.546876-7.289062-61.097657-21.078125-88.351563-1.703125-3.363281-5.152344-5.484375-8.921875-5.484375-3.773438 0-7.222656 2.121094-8.925781 5.484375-13.789063 27.257813-21.074219 57.808594-21.074219 88.351563v346.8125c-7.417969 7.578124-12 17.9375-12 29.351562 0 23.160156 18.839844 42 42 42 23.15625 0 42-18.839844 42-42 0-11.414062-4.585938-21.773438-12-29.351562zm-30 226.667969c-12.132812 0-22-9.867188-22-22s9.867188-22 22-22c12.128906 0 22 9.867188 22 22s-9.871094 22-22 22zm0 0"></path><path d="m307.90625 215.328125c-2.628906 0-5.210938 1.070313-7.070312 2.933594-1.859376 1.859375-2.929688 4.4375-2.929688 7.066406 0 2.640625 1.070312 5.210937 2.929688 7.070313 1.859374 1.871093 4.441406 2.929687 7.070312 2.929687s5.210938-1.058594 7.070312-2.929687c1.859376-1.859376 2.929688-4.429688 2.929688-7.070313 0-2.628906-1.070312-5.207031-2.929688-7.066406-1.859374-1.863281-4.441406-2.933594-7.070312-2.933594zm0 0"></path><path d="m457.90625 42c0-23.160156-18.84375-42-42-42-23.160156 0-42 18.839844-42 42 0 11.414062 4.582031 21.777344 12 29.355469v346.808593c0 30.546876 7.285156 61.097657 21.074219 88.351563 1.703125 3.363281 5.152343 5.484375 8.925781 5.484375 3.769531 0 7.21875-2.121094 8.921875-5.484375 13.789063-27.253906 21.078125-57.804687 21.078125-88.347656v-346.8125c7.414062-7.578125 12-17.941407 12-29.355469zm-42-22c12.128906 0 22 9.867188 22 22s-9.871094 22-22 22c-12.132812 0-22-9.867188-22-22s9.867188-22 22-22zm0 456.550781c-6.578125-18.714843-10-38.554687-10-58.386719v-335.378906c3.207031.789063 6.550781 1.214844 10 1.214844 3.445312 0 6.792969-.425781 10-1.214844v335.378906c0 19.835938-3.425781 39.671876-10 58.386719zm0 0"></path></svg>