<!-- icon666.com - MILLIONS vector ICONS FREE --><svg viewBox="-22 0 512 512" xmlns="http://www.w3.org/2000/svg"><path d="m245.203125 228.132812h154.457031c9-15.945312 14.144532-34.355468 14.144532-53.972656 0-60.722656-49.226563-109.949218-109.945313-109.949218-37.582031 0-70.757813 18.855468-90.585937 47.621093v116.300781zm0 0" fill="#fe8f8d"></path><path d="m118.175781 62.4375c19.347657-31.460938 54.085938-52.4375 93.726563-52.4375 39.902344 0 74.839844 21.257812 94.105468 53.0625l-93.75 41.75zm0 0" fill="#4dbaf6"></path><path d="m429.839844 30.226562c0 11.042969-8.953125 19.992188-19.992188 19.992188-11.039062 0-19.988281-8.949219-19.988281-19.992188 0-11.039062 8.949219-19.988281 19.988281-19.988281 11.039063 0 19.992188 8.949219 19.992188 19.988281zm0 0" fill="#c9f3ff"></path><path d="m457.777344 89.753906c0 11.042969-8.949219 19.992188-19.988282 19.992188-11.042968 0-19.992187-8.949219-19.992187-19.992188 0-11.039062 8.949219-19.988281 19.992187-19.988281 11.039063 0 19.988282 8.949219 19.988282 19.988281zm0 0" fill="#c9f3ff"></path><path d="m402.207031 284.105469h-380.609375c-6.40625 0-11.597656-5.191407-11.597656-11.597657v-32.777343c0-6.40625 5.191406-11.597657 11.597656-11.597657h380.609375c6.40625 0 11.597657 5.191407 11.597657 11.597657v32.777343c0 6.40625-5.191407 11.597657-11.597657 11.597657zm0 0" fill="#ffb954"></path><path d="m287.5625 502h-151.320312c-57.796876 0-104.648438-46.851562-104.648438-104.648438v-113.246093h360.617188v113.246093c0 57.796876-46.851563 104.648438-104.648438 104.648438zm0 0" fill="#ffc66c"></path><path d="m215.746094 228.132812c9.003906-15.945312 14.148437-34.355468 14.148437-53.972656 0-60.722656-49.226562-109.949218-109.949219-109.949218-60.71875 0-109.945312 49.226562-109.945312 109.949218 0 19.613282 5.144531 38.027344 14.144531 53.972656zm0 0" fill="#36d28f"></path><path d="m392.210938 354.070312c-2.628907 0-5.207032 1.070313-7.070313 2.929688-1.859375 1.859375-2.929687 4.429688-2.929687 7.070312 0 2.628907 1.070312 5.210938 2.929687 7.070313 1.863281 1.859375 4.441406 2.929687 7.070313 2.929687 2.632812 0 5.210937-1.070312 7.070312-2.929687s2.929688-4.441406 2.929688-7.070313c0-2.640624-1.070313-5.210937-2.929688-7.070312s-4.429688-2.929688-7.070312-2.929688zm0 0"></path><path d="m110.445312 317.683594h-30.976562c-5.523438 0-10 4.480468-10 10 0 5.523437 4.476562 10 10 10h30.976562c5.523438 0 10-4.476563 10-10 0-5.519532-4.476562-10-10-10zm0 0"></path><path d="m110.445312 357.796875h-30.976562c-5.523438 0-10 4.480469-10 10 0 5.523437 4.476562 10 10 10h30.976562c5.523438 0 10-4.476563 10-10 0-5.519531-4.476562-10-10-10zm0 0"></path><path d="m110.445312 397.910156h-30.976562c-5.523438 0-10 4.480469-10 10 0 5.523438 4.476562 10 10 10h30.976562c5.523438 0 10-4.476562 10-10 0-5.519531-4.476562-10-10-10zm0 0"></path><path d="m110.445312 438.027344h-15.488281c-5.523437 0-10 4.476562-10 10 0 5.519531 4.476563 10 10 10h15.488281c5.523438 0 10-4.480469 10-10 0-5.523438-4.476562-10-10-10zm0 0"></path><path d="m186.800781 317.683594h-28.652343c-5.519532 0-10 4.480468-10 10 0 5.523437 4.480468 10 10 10h28.652343c5.523438 0 10-4.476563 10-10 0-5.519532-4.476562-10-10-10zm0 0"></path><path d="m186.800781 357.796875h-28.652343c-5.519532 0-10 4.480469-10 10 0 5.523437 4.480468 10 10 10h28.652343c5.523438 0 10-4.476563 10-10 0-5.519531-4.476562-10-10-10zm0 0"></path><path d="m186.800781 397.910156h-28.652343c-5.519532 0-10 4.480469-10 10 0 5.523438 4.480468 10 10 10h28.652343c5.523438 0 10-4.476562 10-10 0-5.519531-4.476562-10-10-10zm0 0"></path><path d="m186.800781 438.027344h-28.652343c-5.519532 0-10 4.476562-10 10 0 5.519531 4.480468 10 10 10h28.652343c5.523438 0 10-4.480469 10-10 0-5.523438-4.476562-10-10-10zm0 0"></path><path d="m264.878906 317.683594h-27.097656c-5.523438 0-10 4.480468-10 10 0 5.523437 4.476562 10 10 10h27.097656c5.519532 0 10-4.476563 10-10 0-5.519532-4.480468-10-10-10zm0 0"></path><path d="m264.878906 357.796875h-27.097656c-5.523438 0-10 4.480469-10 10 0 5.523437 4.476562 10 10 10h27.097656c5.519532 0 10-4.476563 10-10 0-5.519531-4.480468-10-10-10zm0 0"></path><path d="m264.878906 397.910156h-27.097656c-5.523438 0-10 4.480469-10 10 0 5.523438 4.476562 10 10 10h27.097656c5.519532 0 10-4.476562 10-10 0-5.519531-4.480468-10-10-10zm0 0"></path><path d="m264.878906 438.027344h-27.097656c-5.523438 0-10 4.476562-10 10 0 5.519531 4.476562 10 10 10h27.097656c5.519532 0 10-4.480469 10-10 0-5.523438-4.480468-10-10-10zm0 0"></path><path d="m343.351562 317.683594h-29.992187c-5.523437 0-10 4.480468-10 10 0 5.523437 4.476563 10 10 10h29.992187c5.523438 0 10-4.476563 10-10 0-5.519532-4.476562-10-10-10zm0 0"></path><path d="m343.351562 357.796875h-29.992187c-5.523437 0-10 4.480469-10 10 0 5.523437 4.476563 10 10 10h29.992187c5.523438 0 10-4.476563 10-10 0-5.519531-4.476562-10-10-10zm0 0"></path><path d="m353.351562 407.910156c0-5.519531-4.476562-10-10-10h-29.992187c-5.523437 0-10 4.480469-10 10 0 5.523438 4.476563 10 10 10h29.992187c5.523438 0 10-4.476562 10-10zm0 0"></path><path d="m313.359375 438.027344c-5.523437 0-10 4.476562-10 10 0 5.519531 4.476563 10 10 10h14.996094c5.523437 0 10-4.480469 10-10 0-5.523438-4.476563-10-10-10zm0 0"></path><path d="m464.699219 76.519531c-3.535157-7.1875-9.65625-12.570312-17.238281-15.152343-7.582032-2.585938-15.71875-2.0625-22.90625 1.476562-7.1875 3.53125-12.570313 9.65625-15.152344 17.238281-1.566406 4.597657-1.941406 9.3125-1.304688 13.824219l-10.699218 5.261719c-6.140626-7.644531-13.195313-14.523438-21-20.464844l21.136718-21.136719c3.761719 1.699219 7.925782 2.652344 12.3125 2.652344 16.535156 0 29.988282-13.453125 29.988282-29.988281 0-16.539063-13.453126-29.992188-29.988282-29.992188s-29.992187 13.453125-29.992187 29.992188c0 4.855469 1.167969 9.441406 3.226562 13.503906l-23.980469 23.980469c-14.144531-7.371094-29.929687-12.003906-46.65625-13.191406-10.332031-15.847657-24.355468-29.136719-40.761718-38.585938-18.105469-10.425781-38.777344-15.9375-59.78125-15.9375-40.9375 0-78.28125 20.324219-100.539063 54.523438-62.144531 4.414062-111.363281 56.382812-111.363281 119.636718 0 16.371094 3.371094 32.5625 9.800781 47.492188-5.894531 3.859375-9.800781 10.519531-9.800781 18.078125v32.777343c0 11.90625 9.6875 21.59375 21.59375 21.597657v103.246093c0 63.21875 51.429688 114.648438 114.648438 114.648438h151.324218c60.359375 0 110.617188-47.140625 114.414063-107.320312.347656-5.515626-3.835938-10.265626-9.347657-10.613282-5.511718-.351562-10.265624 3.839844-10.609374 9.351563-3.136719 49.671875-44.628907 88.582031-94.460938 88.582031h-151.320312c-52.191407 0-94.648438-42.460938-94.648438-94.648438v-103.246093h340.621094v29.980469c0 5.519531 4.476562 10 10 10 5.519531 0 10-4.480469 10-10v-29.980469c.445312 0 .886718-.019531 1.324218-.046875.589844.015625 1.179688.046875 1.773438.046875 2.265625 0 4.347656-.761719 6.023438-2.03125 7.359374-3.445313 12.46875-10.917969 12.46875-19.566407v-32.777343c0-7.558594-3.90625-14.21875-9.800782-18.078125 6.429688-14.929688 9.800782-31.121094 9.800782-47.496094 0-21.125-5.496094-40.992188-15.125-58.25l8.640624-4.25c3.007813 2.824219 6.644532 5.070312 10.796876 6.484375 3.195312 1.089844 6.445312 1.605469 9.644531 1.605469 12.484375 0 24.167969-7.863282 28.414062-20.320313 2.582031-7.582031 2.058594-15.714843-1.476562-22.90625zm-54.851563-56.28125c5.507813 0 9.992188 4.480469 9.992188 9.988281 0 5.511719-4.484375 9.992188-9.992188 9.992188-5.507812 0-9.988281-4.480469-9.988281-9.992188 0-5.507812 4.480469-9.988281 9.988281-9.988281zm-6.042968 153.921875c0 15.269532-3.503907 30.355469-10.175782 43.972656h-69.773437c14.625-33.75 40.964843-61.078124 74.359375-76.929687 3.617187 10.324219 5.589844 21.414063 5.589844 32.957031zm-1.597657 63.972656c.882813 0 1.597657.71875 1.597657 1.597657v32.777343c0 .714844-.472657 1.3125-1.121094 1.515626-20.742188-1.175782-37.839844-16.164063-42.234375-35.890626zm-57.695312 35.972657c-21.914063 0-40.285157-15.417969-44.867188-35.972657h9.667969.050781.046875 30.6875c2.121094 13.882813 8.589844 26.34375 17.960938 35.972657zm-60.800781 0c-21.917969 0-40.285157-15.417969-44.867188-35.972657h40.453125c2.117187 13.882813 8.589844 26.34375 17.960937 35.972657zm-60.804688 0c-21.914062 0-40.285156-15.417969-44.863281-35.972657h40.449219c2.121093 13.882813 8.59375 26.34375 17.964843 35.972657zm-60.800781 0c-21.917969 0-40.285157-15.417969-44.867188-35.972657h13.425781.050782.050781 26.925781c2.117188 13.882813 8.589844 26.34375 17.960938 35.972657zm-60.804688 0c-21.914062 0-40.285156-15.417969-44.863281-35.972657h40.449219c2.121093 13.882813 8.59375 26.34375 17.964843 35.972657zm83.839844-175.644531c9.410156 8.117187 17.289063 17.953124 23.160156 29.015624-39.109375 17.957032-69.449219 50.460938-84.644531 90.65625h-37.675781c16.421875-50.894531 51.972656-93.882812 99.160156-119.671874zm-65.195313-24.25c16.945313 0 32.917969 4.246093 46.914063 11.71875-21.050781 12.730468-39.789063 28.667968-55.589844 47.070312-9.855469-16.828125-16.449219-35.503906-19.371093-54.777344 8.90625-2.605468 18.316406-4.011718 28.046874-4.011718zm183.914063 0c15.714844 0 30.59375 3.652343 43.835937 10.144531-24.59375 15.695312-45.996093 35.757812-63.199218 58.933593-10.664063-18.6875-17.746094-39.351562-20.769532-60.648437 12.480469-5.476563 26.113282-8.429687 40.132813-8.429687zm85.878906 48.878906c-40.417969 19.152344-71.71875 53.164062-87.441406 95.042968h-34.148437c16.402343-51.058593 51.65625-94.816406 98.324218-121.8125 9.25 7.453126 17.148438 16.519532 23.265625 26.769532zm-144.535156-29.839844c4.480469 24.230469 13.671875 47.542969 26.992187 68.3125-10.703124 17.597656-19.140624 36.605469-24.957031 56.570312h-15.695312c5.484375-13.941406 8.351562-28.878906 8.351562-43.976562 0-21.796875-5.847656-42.25-16.050781-59.886719 6.09375-8.128906 13.3125-15.1875 21.359375-21.019531zm-99.949219 124.882812c13.96875-31.738281 38.976563-57.367187 70.597656-72.117187 2.625 8.929687 4.042969 18.375 4.042969 28.144531 0 15.273438-3.503906 30.355469-10.175781 43.972656zm142.875-162.875c-29.695312 3.929688-56.945312 18.859376-76.265625 41.929688-8.085937-9.636719-17.65625-17.992188-28.355469-24.703125 18.109376-19.164063 40.171876-34.617187 64.351563-44.988281.347656-.148438.679687-.320313 1-.5 15.113281 5.972656 28.585937 15.609375 39.269531 28.261718zm-76.226562-35.257812c2 0 3.988281.066406 5.964844.179688-19.71875 11.351562-37.648438 25.875-52.824219 42.839843-9.265625-3.773437-19.101563-6.421875-29.34375-7.773437 18.851562-22.296875 46.382812-35.246094 76.203125-35.246094zm-138.980469 65.988281c4.085937 22.664063 12.6875 44.464844 25.230469 63.8125-6.351563 8.957031-12.082032 18.359375-17.105469 28.164063-15.535156-22.160156-26.660156-47.375-32.480469-73.6875 7.113282-7.265625 15.320313-13.449219 24.355469-18.289063zm-39.726563 38.578125c8.054688 26.804688 21.160157 52.164063 38.453126 74.28125-2.46875 6.304688-4.671876 12.738282-6.582032 19.285156h-34.890625c-6.671875-13.617187-10.175781-28.699218-10.175781-43.972656 0-18.035156 4.804688-34.972656 13.195312-49.59375zm-1.601562 149.539063h-9.996094c-.878906 0-1.597656-.71875-1.597656-1.597657v-32.777343c0-.882813.71875-1.597657 1.597656-1.597657h14.488282c2.121093 13.882813 8.59375 26.34375 17.964843 35.972657zm415.652344-181.128907c-1.777344 5.214844-7.464844 8.011719-12.679688 6.234376-5.214844-1.777344-8.011718-7.464844-6.234375-12.679688.859375-2.523438 2.652344-4.5625 5.046875-5.742188 2.394532-1.179687 5.105469-1.351562 7.632813-.488281 2.523437.859375 4.5625 2.652344 5.742187 5.046875 1.175782 2.394532 1.351563 5.101563.492188 7.628906zm0 0"></path></svg>