<!-- icon666.com - MILLIONS vector ICONS FREE --><svg viewBox="1 0 511.99975 511" xmlns="http://www.w3.org/2000/svg"><path d="m256.117188 142.488281h-220.078126c-14.382812 0-26.039062 11.65625-26.039062 26.039063v307.90625c0 14.382812 11.65625 26.039062 26.039062 26.039062h307.90625c14.382813 0 26.039063-11.65625 26.039063-26.039062v-219.824219zm0 0" fill="#ffb954"></path><path d="m220.230469 50.230469 275.925781 275.925781c7.808594 7.808594 7.808594 20.472656 0 28.28125-7.808594 7.8125-20.472656 7.8125-28.28125 0l-288.546875-288.546875c-9.3125-9.3125-12.074219-23.191406-7.035156-35.359375 5.039062-12.167969 16.804687-20.03125 29.976562-20.03125h14.675781c11.042969 0 19.996094 8.957031 19.996094 20 0 9.925781-7.230468 18.160156-16.710937 19.730469zm0 0" fill="#ade5ff"></path><path d="m296.039062 357.90625c-3.90625-3.90625-10.238281-3.90625-14.140624 0l-12.929688 12.929688-12.929688-12.929688c-3.90625-3.90625-10.234374-3.90625-14.140624 0-3.90625 3.902344-3.90625 10.234375 0 14.140625l19.996093 20c1.953125 1.953125 4.511719 2.929687 7.074219 2.929687 2.558594 0 5.117188-.976562 7.070312-2.929687l19.996094-20c3.910156-3.902344 3.910156-10.234375.003906-14.140625zm0 0"></path><path d="m217.25 357.90625c-3.902344-3.90625-10.234375-3.90625-14.140625 0l-12.929687 12.929688-12.929688-12.929688c-3.902344-3.90625-10.234375-3.90625-14.140625 0-3.90625 3.902344-3.90625 10.234375 0 14.140625l20 20c1.953125 1.953125 4.511719 2.929687 7.070313 2.929687 2.558593 0 5.117187-.976562 7.070312-2.929687l20-20c3.90625-3.902344 3.90625-10.234375 0-14.140625zm0 0"></path><path d="m138.460938 357.90625c-3.902344-3.90625-10.234376-3.90625-14.140626 0l-12.929687 12.929688-12.929687-12.929688c-3.902344-3.90625-10.234376-3.90625-14.140626 0-3.90625 3.902344-3.90625 10.234375 0 14.140625l20 20c1.953126 1.953125 4.511719 2.929687 7.070313 2.929687s5.117187-.976562 7.070313-2.929687l20-20c3.90625-3.902344 3.90625-10.234375 0-14.140625zm0 0"></path><path d="m281.898438 410.714844-12.929688 12.929687-12.929688-12.929687c-3.902343-3.902344-10.234374-3.902344-14.140624 0-3.90625 3.90625-3.90625 10.238281 0 14.144531l20 20c1.953124 1.949219 4.511718 2.929687 7.070312 2.929687s5.117188-.980468 7.070312-2.929687l20-20c3.902344-3.90625 3.902344-10.238281 0-14.144531-3.90625-3.902344-10.238281-3.902344-14.140624 0zm0 0"></path><path d="m203.109375 410.714844-12.929687 12.929687-12.929688-12.929687c-3.902344-3.902344-10.234375-3.902344-14.140625 0-3.90625 3.90625-3.90625 10.238281 0 14.144531l20 20c1.953125 1.949219 4.511719 2.929687 7.070313 2.929687 2.558593 0 5.117187-.980468 7.070312-2.929687l20-20c3.902344-3.90625 3.902344-10.238281 0-14.144531-3.902344-3.902344-10.238281-3.902344-14.140625 0zm0 0"></path><path d="m124.320312 410.714844-12.929687 12.929687-12.925781-12.929687c-3.90625-3.902344-10.238282-3.902344-14.144532 0-3.902343 3.90625-3.902343 10.238281 0 14.144531l20 20c1.953126 1.949219 4.511719 2.929687 7.070313 2.929687s5.117187-.980468 7.070313-2.929687l20-20c3.90625-3.90625 3.90625-10.238281 0-14.144531-3.902344-3.902344-10.234376-3.902344-14.140626 0zm0 0"></path><path d="m261.523438 287.054688c1.953124 1.953124 4.511718 2.929687 7.070312 2.929687s5.117188-.976563 7.070312-2.929687l20-20c3.90625-3.90625 3.90625-10.234376 0-14.140626s-10.238281-3.90625-14.140624 0l-12.929688 12.925782-12.929688-12.925782c-3.90625-3.90625-10.234374-3.90625-14.140624 0-3.90625 3.902344-3.90625 10.234376 0 14.140626zm0 0"></path><path d="m162.734375 267.054688 20 20c1.953125 1.953124 4.511719 2.929687 7.070313 2.929687 2.558593 0 5.117187-.976563 7.070312-2.929687l20-20c3.90625-3.90625 3.90625-10.234376 0-14.140626s-10.238281-3.90625-14.140625 0l-12.929687 12.925782-12.929688-12.925782c-3.90625-3.90625-10.234375-3.90625-14.140625 0-3.90625 3.902344-3.902344 10.234376 0 14.140626zm0 0"></path><path d="m103.945312 287.054688c1.953126 1.953124 4.511719 2.929687 7.070313 2.929687s5.121094-.976563 7.070313-2.929687l20-20c3.90625-3.90625 3.90625-10.234376 0-14.140626-3.902344-3.90625-10.234376-3.90625-14.140626 0l-12.929687 12.925782-12.929687-12.925782c-3.902344-3.90625-10.234376-3.90625-14.140626 0-3.90625 3.902344-3.90625 10.234376 0 14.140626zm0 0"></path><path d="m241.523438 319.863281 20 20c1.953124 1.953125 4.511718 2.929688 7.070312 2.929688s5.117188-.976563 7.070312-2.929688l20-20c3.90625-3.902343 3.90625-10.234375 0-14.140625s-10.238281-3.90625-14.140624 0l-12.929688 12.925782-12.929688-12.925782c-3.90625-3.90625-10.234374-3.90625-14.140624 0s-3.90625 10.238282 0 14.140625zm0 0"></path><path d="m162.734375 319.863281 20 20c1.953125 1.953125 4.511719 2.929688 7.070313 2.929688 2.558593 0 5.117187-.976563 7.070312-2.929688l20-20c3.90625-3.902343 3.90625-10.234375 0-14.140625s-10.238281-3.90625-14.140625 0l-12.929687 12.925782-12.929688-12.925782c-3.90625-3.90625-10.234375-3.90625-14.140625 0-3.902344 3.90625-3.902344 10.238282 0 14.140625zm0 0"></path><path d="m83.945312 319.863281 20 20c1.953126 1.953125 4.511719 2.929688 7.070313 2.929688s5.121094-.976563 7.070313-2.929688l20-20c3.90625-3.902343 3.90625-10.234375 0-14.140625-3.902344-3.90625-10.234376-3.90625-14.140626 0l-12.929687 12.925782-12.929687-12.925782c-3.902344-3.90625-10.234376-3.90625-14.140626 0-3.902343 3.90625-3.902343 10.238282 0 14.140625zm0 0"></path><path d="m182.734375 234.242188c1.953125 1.953124 4.511719 2.929687 7.070313 2.929687 2.558593 0 5.117187-.976563 7.070312-2.929687l20-20c3.90625-3.902344 3.90625-10.234376 0-14.140626s-10.238281-3.90625-14.140625 0l-12.929687 12.929688-12.929688-12.929688c-3.90625-3.90625-10.234375-3.90625-14.140625 0s-3.90625 10.238282 0 14.140626zm0 0"></path><path d="m123.945312 200.101562-12.929687 12.929688-12.925781-12.929688c-3.90625-3.902343-10.238282-3.902343-14.144532 0-3.90625 3.90625-3.902343 10.238282 0 14.144532l20 20c1.953126 1.949218 4.511719 2.925781 7.070313 2.925781s5.117187-.976563 7.070313-2.925781l20-20c3.90625-3.90625 3.90625-10.238282 0-14.144532s-10.234376-3.902343-14.140626 0zm0 0"></path><path d="m91.015625 152.492188c2.632813 0 5.210937-1.070313 7.070313-2.929688 1.859374-1.859375 2.929687-4.441406 2.929687-7.070312 0-2.640626-1.070313-5.210938-2.929687-7.082032-1.859376-1.859375-4.4375-2.917968-7.070313-2.917968-2.628906 0-5.207031 1.058593-7.070313 2.917968-1.859374 1.871094-2.929687 4.441406-2.929687 7.082032 0 2.628906 1.070313 5.199218 2.929687 7.070312 1.863282 1.859375 4.441407 2.929688 7.070313 2.929688zm0 0"></path><path d="m416.644531 256.636719c2.628907 0 5.210938-1.058594 7.070313-2.917969 1.859375-1.871094 2.929687-4.441406 2.929687-7.082031 0-2.628907-1.070312-5.199219-2.929687-7.070313-1.859375-1.859375-4.441406-2.929687-7.070313-2.929687-2.628906 0-5.210937 1.070312-7.070312 2.929687-1.859375 1.871094-2.929688 4.441406-2.929688 7.070313 0 2.640625 1.070313 5.210937 2.929688 7.082031 1.859375 1.859375 4.441406 2.917969 7.070312 2.917969zm0 0"></path><path d="m503.226562 319.085938-51.171874-51.175782c-3.90625-3.902344-10.238282-3.902344-14.144532 0-3.902344 3.90625-3.902344 10.238282 0 14.144532l51.175782 51.171874c3.898437 3.898438 3.898437 10.242188 0 14.140626-3.898438 3.902343-10.242188 3.902343-14.140626 0l-186.386718-186.386719 14.140625-14.140625 78.648437 78.648437c3.902344 3.902344 10.234375 3.902344 14.140625 0 3.90625-3.90625 3.90625-10.238281 0-14.144531l-48.460937-48.460938 13.328125-13.328124c12.21875-12.21875 12.21875-32.105469 0-44.324219-12.222657-12.222657-32.105469-12.222657-44.328125 0l-13.328125 13.324219-65.699219-65.699219c6.15625-5.515625 9.941406-13.523438 9.941406-22.355469 0-16.539062-13.457031-30-30-30h-14.671875c-17.230469 0-32.621093 10.285156-39.214843 26.203125s-2.984376 34.074219 9.199218 46.257813l59.527344 59.523437h-100.390625c-5.523437 0-10 4.476563-10 10s4.476563 10 10 10h120.390625l8.492188 8.496094-2.726563 2.730469c-3.90625 3.90625-3.90625 10.238281 0 14.140624 1.953125 1.953126 4.511719 2.929688 7.070313 2.929688 2.558593 0 5.117187-.976562 7.070312-2.929688l2.726562-2.726562 16.042969 16.042969-21.863281 21.863281-12.929688-12.929688c-3.90625-3.902343-10.234374-3.902343-14.140624 0-3.90625 3.90625-3.90625 10.238282 0 14.144532l19.996093 20c1.953125 1.949218 4.511719 2.925781 7.074219 2.925781 2.558594 0 5.117188-.976563 7.070312-2.925781l28.933594-28.9375 55.390625 55.386718v215.738282c0 8.84375-7.199219 16.039062-16.042969 16.039062h-307.90625c-8.84375 0-16.039062-7.195312-16.039062-16.039062v-307.90625c0-8.84375 7.195312-16.042969 16.039062-16.042969h15.355469c5.523438 0 10-4.476563 10-9.996094 0-5.523437-4.476562-10-10-10h-15.355469c-19.871093 0-36.039062 16.167969-36.039062 36.039063v307.90625c0 19.871094 16.167969 36.039062 36.039062 36.039062h307.90625c19.875 0 36.039063-16.167968 36.039063-36.039062v-195.738282l80.816406 80.8125c5.851563 5.851563 13.53125 8.773438 21.214844 8.773438 7.679687 0 15.363281-2.925781 21.210937-8.773438 11.699219-11.695312 11.699219-30.726562 0-42.421874zm-173.058593-199.714844c4.421875-4.421875 11.621093-4.421875 16.042969 0 2.144531 2.144531 3.324218 4.992187 3.324218 8.019531 0 3.03125-1.179687 5.878906-3.324218 8.023437l-13.328126 13.328126-16.039062-16.042969zm-65.945313 17.273437c-.628906-.871093-1.390625-1.632812-2.261718-2.261719l-75.5625-75.5625c-6.445313-6.445312-8.355469-16.046874-4.867188-24.464843 3.488281-8.414063 11.625-13.855469 20.738281-13.855469h14.671875c5.515625 0 10 4.488281 10 10 0 4.914062-3.507812 9.0625-8.34375 9.863281-3.695312.613281-6.742187 3.242188-7.886718 6.808594-1.148438 3.570313-.199219 7.480469 2.449218 10.128906l75.398438 75.398438-14.140625 14.140625zm0 0"></path></svg>