<!-- icon666.com - MILLIONS vector ICONS FREE --><svg viewBox="0 -20 512.002 512" xmlns="http://www.w3.org/2000/svg"><path d="m502 50.0625c0 19.882812-16.117188 36-36 36s-36-16.117188-36-36c0-19.878906 16.117188-36 36-36s36 16.121094 36 36zm0 0" fill="#ffc66c"></path><path d="m430 68.0625h-359.328125c-21.539063 0-42.617187-6.25-60.671875-18 18.054688-11.746094 39.132812-18 60.671875-18h359.328125" fill="#ffc66c"></path><g fill="#36d28f"><path d="m100.035156 144.9375c-11.046875 0-20-8.953125-20-20v-94.933594c0-11.046875 8.953125-20 20-20 11.042969 0 20 8.953125 20 20v94.9375c0 11.042969-8.957031 19.996094-20 19.996094zm0 0"></path><path d="m94.175781 175.941406c-7.808593 7.808594-20.472656 7.808594-28.28125 0l-24.503906-24.503906c-7.8125-7.808594-7.8125-20.472656 0-28.285156 7.808594-7.808594 20.472656-7.808594 28.285156 0l24.5 24.503906c7.8125 7.808594 7.8125 20.472656 0 28.285156zm0 0"></path><path d="m105.890625 175.941406c7.8125 7.808594 20.476563 7.808594 28.285156 0l24.503907-24.503906c7.808593-7.808594 7.808593-20.472656 0-28.285156-7.8125-7.808594-20.476563-7.808594-28.285157 0l-24.503906 24.503906c-7.808594 7.808594-7.808594 20.472656 0 28.285156zm0 0"></path><path d="m94.175781 231.960938c-7.808593 7.808593-20.472656 7.808593-28.28125 0l-24.503906-24.503907c-7.8125-7.8125-7.8125-20.476562 0-28.285156 7.808594-7.808594 20.472656-7.808594 28.285156 0l24.5 24.503906c7.8125 7.808594 7.8125 20.472657 0 28.285157zm0 0"></path><path d="m105.890625 231.960938c7.8125 7.808593 20.476563 7.808593 28.285156 0l24.503907-24.503907c7.808593-7.8125 7.808593-20.476562 0-28.285156-7.8125-7.808594-20.476563-7.808594-28.285157 0l-24.503906 24.503906c-7.808594 7.808594-7.808594 20.472657 0 28.285157zm0 0"></path><path d="m94.175781 287.976562c-7.808593 7.8125-20.472656 7.8125-28.28125 0l-24.503906-24.5c-7.8125-7.8125-7.8125-20.476562 0-28.285156 7.808594-7.808594 20.472656-7.808594 28.285156 0l24.5 24.503906c7.8125 7.808594 7.8125 20.472657 0 28.28125zm0 0"></path><path d="m105.890625 287.976562c7.8125 7.8125 20.476563 7.8125 28.285156 0l24.503907-24.5c7.808593-7.8125 7.808593-20.476562 0-28.285156-7.8125-7.808594-20.476563-7.808594-28.285157 0l-24.503906 24.503906c-7.808594 7.808594-7.808594 20.472657 0 28.28125zm0 0"></path><path d="m94.175781 343.996094c-7.808593 7.8125-20.472656 7.8125-28.28125 0l-24.503906-24.5c-7.8125-7.8125-7.8125-20.476563 0-28.285156 7.808594-7.808594 20.472656-7.808594 28.285156 0l24.5 24.503906c7.8125 7.808594 7.8125 20.472656 0 28.28125zm0 0"></path><path d="m105.890625 343.996094c7.8125 7.8125 20.476563 7.8125 28.285156 0l24.503907-24.5c7.808593-7.8125 7.808593-20.476563 0-28.285156-7.8125-7.808594-20.476563-7.808594-28.285157 0l-24.503906 24.503906c-7.808594 7.808594-7.808594 20.472656 0 28.28125zm0 0"></path><path d="m94.175781 400.015625c-7.808593 7.8125-20.472656 7.8125-28.28125 0l-24.503906-24.5c-7.8125-7.8125-7.8125-20.476563 0-28.285156 7.808594-7.808594 20.472656-7.808594 28.285156 0l24.5 24.503906c7.8125 7.808594 7.8125 20.472656 0 28.28125zm0 0"></path><path d="m105.890625 400.015625c7.8125 7.8125 20.476563 7.8125 28.285156 0l24.503907-24.5c7.808593-7.8125 7.808593-20.476563 0-28.285156-7.8125-7.808594-20.476563-7.808594-28.285157 0l-24.503906 24.503906c-7.808594 7.808594-7.808594 20.472656 0 28.28125zm0 0"></path><path d="m94.175781 456.082031c-7.808593 7.808594-20.472656 7.808594-28.28125 0l-24.503906-24.503906c-7.8125-7.808594-7.8125-20.472656 0-28.285156 7.808594-7.808594 20.472656-7.808594 28.285156 0l24.5 24.503906c7.8125 7.808594 7.8125 20.472656 0 28.285156zm0 0"></path><path d="m105.890625 456.082031c7.8125 7.808594 20.476563 7.808594 28.285156 0l24.503907-24.503906c7.808593-7.808594 7.808593-20.472656 0-28.285156-7.8125-7.808594-20.476563-7.808594-28.285157 0l-24.503906 24.503906c-7.808594 7.808594-7.808594 20.472656 0 28.285156zm0 0"></path><path d="m229.039062 144.9375c-11.042968 0-20-8.953125-20-20v-94.933594c0-11.046875 8.957032-20 20-20 11.046876 0 20 8.953125 20 20v94.9375c0 11.042969-8.953124 19.996094-20 19.996094zm0 0"></path><path d="m223.183594 175.941406c-7.8125 7.808594-20.472656 7.808594-28.285156 0l-24.503907-24.503906c-7.808593-7.808594-7.808593-20.472656 0-28.285156 7.8125-7.808594 20.476563-7.808594 28.285157 0l24.503906 24.503906c7.808594 7.808594 7.808594 20.472656 0 28.285156zm0 0"></path><path d="m234.898438 175.941406c7.8125 7.808594 20.472656 7.808594 28.285156 0l24.503906-24.503906c7.808594-7.808594 7.808594-20.472656 0-28.285156-7.8125-7.808594-20.476562-7.808594-28.285156 0l-24.503906 24.503906c-7.808594 7.808594-7.808594 20.472656 0 28.285156zm0 0"></path><path d="m223.183594 231.960938c-7.8125 7.808593-20.472656 7.808593-28.285156 0l-24.503907-24.503907c-7.808593-7.8125-7.808593-20.476562 0-28.285156 7.8125-7.808594 20.476563-7.808594 28.285157 0l24.503906 24.503906c7.808594 7.808594 7.808594 20.472657 0 28.285157zm0 0"></path><path d="m234.898438 231.960938c7.8125 7.808593 20.472656 7.808593 28.285156 0l24.503906-24.503907c7.808594-7.8125 7.808594-20.476562 0-28.285156-7.8125-7.808594-20.476562-7.808594-28.285156 0l-24.503906 24.503906c-7.808594 7.808594-7.808594 20.472657 0 28.285157zm0 0"></path><path d="m223.183594 287.976562c-7.8125 7.8125-20.472656 7.8125-28.285156 0l-24.503907-24.5c-7.808593-7.8125-7.808593-20.476562 0-28.285156 7.8125-7.808594 20.476563-7.808594 28.285157 0l24.503906 24.503906c7.808594 7.808594 7.808594 20.472657 0 28.28125zm0 0"></path><path d="m234.898438 287.976562c7.8125 7.8125 20.472656 7.8125 28.285156 0l24.503906-24.5c7.808594-7.8125 7.808594-20.476562 0-28.285156-7.8125-7.808594-20.476562-7.808594-28.285156 0l-24.503906 24.503906c-7.808594 7.808594-7.808594 20.472657 0 28.28125zm0 0"></path><path d="m223.183594 343.996094c-7.8125 7.8125-20.472656 7.8125-28.285156 0l-24.503907-24.5c-7.808593-7.8125-7.808593-20.476563 0-28.285156 7.8125-7.808594 20.476563-7.808594 28.285157 0l24.503906 24.503906c7.808594 7.808594 7.808594 20.472656 0 28.28125zm0 0"></path><path d="m234.898438 343.996094c7.8125 7.8125 20.472656 7.8125 28.285156 0l24.503906-24.5c7.808594-7.8125 7.808594-20.476563 0-28.285156-7.8125-7.808594-20.476562-7.808594-28.285156 0l-24.503906 24.503906c-7.808594 7.808594-7.808594 20.472656 0 28.28125zm0 0"></path><path d="m223.183594 400.015625c-7.8125 7.8125-20.472656 7.8125-28.285156 0l-24.503907-24.5c-7.808593-7.8125-7.808593-20.476563 0-28.285156 7.8125-7.808594 20.476563-7.808594 28.285157 0l24.503906 24.503906c7.808594 7.808594 7.808594 20.472656 0 28.28125zm0 0"></path><path d="m234.898438 400.015625c7.8125 7.8125 20.472656 7.8125 28.285156 0l24.503906-24.5c7.808594-7.8125 7.808594-20.476563 0-28.285156-7.8125-7.808594-20.476562-7.808594-28.285156 0l-24.503906 24.503906c-7.808594 7.808594-7.808594 20.472656 0 28.28125zm0 0"></path><path d="m223.183594 456.082031c-7.8125 7.808594-20.472656 7.808594-28.285156 0l-24.503907-24.503906c-7.808593-7.808594-7.808593-20.472656 0-28.285156 7.8125-7.808594 20.476563-7.808594 28.285157 0l24.503906 24.503906c7.808594 7.808594 7.808594 20.472656 0 28.285156zm0 0"></path><path d="m234.898438 456.082031c7.8125 7.808594 20.472656 7.808594 28.285156 0l24.503906-24.503906c7.808594-7.808594 7.808594-20.472656 0-28.285156-7.8125-7.808594-20.476562-7.808594-28.285156 0l-24.503906 24.503906c-7.808594 7.808594-7.808594 20.472656 0 28.285156zm0 0"></path><path d="m358.046875 144.9375c-11.046875 0-20-8.953125-20-20v-94.933594c0-11.046875 8.953125-20 20-20s20 8.953125 20 20v94.9375c0 11.042969-8.953125 19.996094-20 19.996094zm0 0"></path><path d="m352.1875 175.941406c-7.808594 7.808594-20.472656 7.808594-28.28125 0l-24.503906-24.503906c-7.808594-7.808594-7.808594-20.472656 0-28.285156 7.808594-7.808594 20.472656-7.808594 28.285156 0l24.5 24.503906c7.8125 7.808594 7.8125 20.472656 0 28.285156zm0 0"></path><path d="m363.90625 175.941406c7.808594 7.808594 20.472656 7.808594 28.28125 0l24.503906-24.503906c7.8125-7.808594 7.8125-20.472656 0-28.285156-7.808594-7.808594-20.472656-7.808594-28.285156 0l-24.5 24.503906c-7.8125 7.808594-7.8125 20.472656 0 28.285156zm0 0"></path><path d="m352.1875 231.960938c-7.808594 7.808593-20.472656 7.808593-28.28125 0l-24.503906-24.503907c-7.808594-7.8125-7.808594-20.476562 0-28.285156s20.472656-7.808594 28.285156 0l24.5 24.503906c7.8125 7.808594 7.8125 20.472657 0 28.285157zm0 0"></path><path d="m363.90625 231.960938c7.808594 7.808593 20.472656 7.808593 28.28125 0l24.503906-24.503907c7.8125-7.8125 7.8125-20.476562 0-28.285156-7.808594-7.808594-20.472656-7.808594-28.285156 0l-24.5 24.503906c-7.8125 7.808594-7.8125 20.472657 0 28.285157zm0 0"></path><path d="m352.1875 287.976562c-7.808594 7.8125-20.472656 7.8125-28.28125 0l-24.503906-24.5c-7.808594-7.8125-7.808594-20.476562 0-28.285156s20.472656-7.808594 28.285156 0l24.5 24.503906c7.8125 7.808594 7.8125 20.472657 0 28.28125zm0 0"></path><path d="m363.90625 287.976562c7.808594 7.8125 20.472656 7.8125 28.28125 0l24.503906-24.5c7.8125-7.8125 7.8125-20.476562 0-28.285156-7.808594-7.808594-20.472656-7.808594-28.285156 0l-24.5 24.503906c-7.8125 7.808594-7.8125 20.472657 0 28.28125zm0 0"></path><path d="m352.1875 343.996094c-7.808594 7.8125-20.472656 7.8125-28.28125 0l-24.503906-24.5c-7.808594-7.8125-7.808594-20.476563 0-28.285156 7.808594-7.808594 20.472656-7.808594 28.285156 0l24.5 24.503906c7.8125 7.808594 7.8125 20.472656 0 28.28125zm0 0"></path><path d="m363.90625 343.996094c7.808594 7.8125 20.472656 7.8125 28.28125 0l24.503906-24.5c7.8125-7.8125 7.8125-20.476563 0-28.285156-7.808594-7.808594-20.472656-7.808594-28.285156 0l-24.5 24.503906c-7.8125 7.808594-7.8125 20.472656 0 28.28125zm0 0"></path><path d="m352.1875 400.015625c-7.808594 7.8125-20.472656 7.8125-28.28125 0l-24.503906-24.5c-7.808594-7.8125-7.808594-20.476563 0-28.285156 7.808594-7.808594 20.472656-7.808594 28.285156 0l24.5 24.503906c7.8125 7.808594 7.8125 20.472656 0 28.28125zm0 0"></path><path d="m363.90625 400.015625c7.808594 7.8125 20.472656 7.8125 28.28125 0l24.503906-24.5c7.8125-7.8125 7.8125-20.476563 0-28.285156-7.808594-7.808594-20.472656-7.808594-28.285156 0l-24.5 24.503906c-7.8125 7.808594-7.8125 20.472656 0 28.28125zm0 0"></path><path d="m352.1875 456.082031c-7.808594 7.808594-20.472656 7.808594-28.28125 0l-24.503906-24.503906c-7.808594-7.808594-7.808594-20.472656 0-28.285156 7.808594-7.808594 20.472656-7.808594 28.285156 0l24.5 24.503906c7.8125 7.808594 7.8125 20.472656 0 28.285156zm0 0"></path><path d="m363.90625 456.082031c7.808594 7.808594 20.472656 7.808594 28.28125 0l24.503906-24.503906c7.8125-7.808594 7.8125-20.472656 0-28.285156-7.808594-7.808594-20.472656-7.808594-28.285156 0l-24.5 24.503906c-7.8125 7.808594-7.8125 20.472656 0 28.285156zm0 0"></path></g><path d="m466 4.0625c-14.835938 0-28.042969 7.066406-36.460938 18h-41.039062c-.507812 0-1.003906.050781-1.492188.125-3.449218-12.765625-15.121093-22.1875-28.960937-22.1875-13.792969 0-25.4375 9.363281-28.925781 22.0625h-71.152344c-3.492188-12.699219-15.132812-22.0625-28.925781-22.0625-13.796875 0-25.4375 9.363281-28.925781 22.0625h-71.15625c-3.492188-12.699219-15.132813-22.0625-28.925782-22.0625-13.796875 0-25.4375 9.363281-28.925781 22.0625h-.433594c-23.535156 0-46.402343 6.785156-66.128906 19.621094-2.835937 1.84375-4.546875 4.996094-4.546875 8.378906s1.710938 6.539062 4.546875 8.382812c19.546875 12.71875 42.179687 19.484376 65.488281 19.609376v32.984374c-11.402344-6.289062-26.058594-4.613281-35.71875 5.042969-11.695312 11.695313-11.695312 30.730469 0 42.425781l7.921875 7.921876c-2.859375 1.410156-5.542969 3.292968-7.921875 5.671874-11.695312 11.695313-11.695312 30.726563 0 42.425782l7.921875 7.917968c-2.859375 1.414063-5.542969 3.296876-7.921875 5.675782-11.695312 11.695312-11.695312 30.726562 0 42.425781l7.921875 7.917969c-2.859375 1.414062-5.542969 3.296875-7.921875 5.675781-11.695312 11.695313-11.695312 30.726563 0 42.425781l7.921875 7.917969c-2.859375 1.414063-5.542969 3.296875-7.921875 5.675781-11.695312 11.695313-11.695312 30.730469 0 42.425782l7.949219 7.949218c-2.871094 1.414063-5.5625 3.304688-7.949219 5.6875-11.695312 11.699219-11.695312 30.730469 0 42.425782l24.503906 24.503906c5.851563 5.851562 13.53125 8.773437 21.214844 8.773437 7.160156 0 14.324219-2.542969 20-7.628906 5.675782 5.082031 12.835938 7.628906 20 7.628906 7.683594 0 15.363282-2.925781 21.210938-8.773437l23.292968-23.289063 23.289063 23.289063c5.847656 5.851562 13.53125 8.773437 21.210937 8.773437 7.164063 0 14.328126-2.542969 20-7.628906 5.679688 5.082031 12.839844 7.628906 20 7.628906 7.683594 0 15.367188-2.925781 21.214844-8.773437l23.292969-23.289063 23.289063 23.289063c5.847656 5.851562 13.53125 8.773437 21.214843 8.773437 7.160157 0 14.324219-2.542969 20-7.628906 5.675781 5.082031 12.835938 7.628906 20 7.628906 7.679688 0 15.363281-2.925781 21.210938-8.773437l24.503906-24.503906c11.695313-11.695313 11.695313-30.726563 0-42.425782-2.382813-2.382812-5.078125-4.273437-7.949219-5.6875l7.949219-7.949218c11.695313-11.695313 11.695313-30.730469 0-42.425782-2.375-2.378906-5.058594-4.261718-7.917969-5.675781l7.917969-7.917969c11.695313-11.695312 11.695313-30.726562 0-42.425781-2.375-2.378906-5.058594-4.261719-7.917969-5.671875l7.917969-7.921875c11.695313-11.695313 11.695313-30.730469 0-42.425781-2.375-2.378906-5.058594-4.261719-7.917969-5.675782l7.917969-7.917968c11.699219-11.695313 11.699219-30.730469 0-42.425782-2.375-2.378906-5.058594-4.261718-7.917969-5.671874l7.917969-7.921876c11.695313-11.695312 11.695313-30.726562 0-42.425781-9.65625-9.65625-24.3125-11.332031-35.714844-5.042969v-33c.148438.007813.296875.023438.453125.023438h41.039063c8.417969 10.9375 21.625 18 36.460937 18 25.363282 0 46-20.632812 46-46 0-25.363281-20.640625-46-46.003906-46zm-68.761719 180.789062c1.617188-1.015624 3.460938-1.53125 5.3125-1.53125 2.5625 0 5.121094.972657 7.070313 2.921876 3.898437 3.898437 3.898437 10.242187 0 14.144531l-24.503906 24.5c-.050782.054687-.109376.097656-.164063.148437-.542969.398438-1.078125.8125-1.597656 1.25-1.578125.992188-3.398438 1.53125-5.308594 1.53125-2.671875 0-5.183594-1.039062-7.070313-2.929687-3.898437-3.898438-3.898437-10.242188 0-14.140625l24.503907-24.503906c.050781-.054688.109375-.097657.164062-.148438.542969-.394531 1.074219-.808594 1.59375-1.242188zm.011719 56.011719c1.617188-1.011719 3.457031-1.523437 5.300781-1.523437 2.558594 0 5.121094.972656 7.070313 2.921875 3.898437 3.898437 3.898437 10.246093 0 14.144531l-24.503906 24.5c-.054688.058594-.113282.101562-.171876.15625-.539062.390625-1.066406.804688-1.585937 1.238281-3.859375 2.425781-9.027344 1.964844-12.382813-1.390625-3.902343-3.898437-3.902343-10.246094 0-14.144531l24.5-24.5c.050782-.050781.105469-.09375.15625-.140625.550782-.402344 1.09375-.824219 1.617188-1.261719zm-.015625 56.027344c1.621094-1.019531 3.464844-1.535156 5.316406-1.535156 2.5625 0 5.121094.976562 7.070313 2.925781 3.898437 3.898438 3.898437 10.242188 0 14.144531l-24.503906 24.5c-.054688.054688-.113282.101563-.167969.152344-.542969.394531-1.070313.808594-1.585938 1.238281-3.863281 2.425782-9.027343 1.96875-12.386719-1.390625-3.898437-3.898437-3.898437-10.242187 0-14.140625l24.503907-24.503906c.054687-.054688.113281-.101562.167969-.152344.539062-.390625 1.070312-.804687 1.585937-1.238281zm0 56.019531c1.621094-1.015625 3.464844-1.53125 5.316406-1.53125 2.5625 0 5.121094.972656 7.070313 2.921875 3.898437 3.898438 3.898437 10.246094 0 14.144531l-24.503906 24.5c-.136719.140626-.28125.257813-.425782.386719-.394531.292969-.78125.59375-1.164062.90625-3.878906 2.542969-9.144532 2.113281-12.550782-1.292969-3.898437-3.898437-3.898437-10.242187 0-14.140624l24.503907-24.503907c.050781-.054687.113281-.101562.167969-.152343.539062-.390626 1.070312-.804688 1.585937-1.238282zm-39.1875 66.601563-6.734375-6.734375c2.394531-1.179688 4.664062-2.6875 6.734375-4.542969 2.070313 1.855469 4.339844 3.363281 6.734375 4.542969zm-26.648437-26.183594c-.140626-.125-.285157-.246094-.421876-.382813l-24.503906-24.5c-3.898437-3.898437-3.898437-10.246093 0-14.144531 1.949219-1.949219 4.511719-2.925781 7.070313-2.925781 1.851562 0 3.695312.515625 5.316406 1.535156.519531.429688 1.046875.847656 1.585937 1.238282.054688.050781.113282.097656.167969.152343l24.503907 24.503907c3.898437 3.894531 3.898437 10.242187 0 14.140624-3.402344 3.40625-8.671876 3.835938-12.550782 1.292969-.382812-.3125-.769531-.617187-1.167968-.910156zm-37.855469 1.75c-2.070313-1.855469-4.339844-3.363281-6.734375-4.542969l6.734375-6.734375 6.734375 6.734375c-2.390625 1.179688-4.664063 2.6875-6.734375 4.542969zm-39.023438-.839844c-3.875 2.542969-9.144531 2.113281-12.550781-1.292969-3.898438-3.898437-3.898438-10.242187 0-14.140624l24.503906-24.503907c.054688-.054687.113282-.101562.171875-.152343.539063-.390626 1.066407-.808594 1.585938-1.238282 1.617187-1.019531 3.464843-1.535156 5.3125-1.535156 2.5625 0 5.121093.976562 7.070312 2.925781 3.898438 3.898438 3.898438 10.242188 0 14.140625l-24.503906 24.503906c-.132813.136719-.28125.257813-.421875.382813-.394531.292969-.785156.597656-1.167969.910156zm-25.480469 25.273438-6.734374-6.734375c2.394531-1.179688 4.664062-2.6875 6.734374-4.542969 2.074219 1.855469 4.34375 3.363281 6.738282 4.542969zm-26.644531-26.183594c-.140625-.125-.289062-.246094-.425781-.382813l-24.5-24.503906c-3.902344-3.894531-3.902344-10.242187 0-14.140625 1.945312-1.949219 4.507812-2.925781 7.066406-2.925781 1.851563 0 3.699219.515625 5.316406 1.535156.519532.429688 1.046876.847656 1.585938 1.238282.058594.050781.117188.097656.171875.152343l24.5 24.503907c3.902344 3.898437 3.902344 10.242187 0 14.140624-3.402344 3.40625-8.671875 3.835938-12.546875 1.296876-.382812-.316407-.773438-.621094-1.167969-.914063zm-37.855469 1.75c-2.070312-1.855469-4.34375-3.363281-6.734374-4.542969l6.734374-6.734375 6.734376 6.734375c-2.394532 1.179688-4.664063 2.6875-6.734376 4.542969zm-39.023437-.839844c-3.878906 2.542969-9.148437 2.113281-12.550781-1.292969-3.898438-3.898437-3.898438-10.242187 0-14.140624l24.503906-24.503907c.050781-.054687.113281-.101562.167969-.152343.539062-.390626 1.066406-.804688 1.585937-1.238282 1.621094-1.019531 3.464844-1.535156 5.316406-1.535156 2.558594 0 5.121094.976562 7.070313 2.925781 3.898437 3.898438 3.898437 10.242188 0 14.140625l-24.503906 24.503906c-.136719.136719-.285157.257813-.425781.386719-.394532.289063-.785157.59375-1.164063.90625zm-25.480469 25.273438-6.734375-6.734375c2.394531-1.179688 4.664063-2.6875 6.734375-4.542969 2.070313 1.855469 4.339844 3.363281 6.734375 4.542969zm-26.648437-26.183594c-.140625-.125-.285157-.246094-.421875-.382813l-24.503906-24.5c-3.898438-3.898437-3.898438-10.246093 0-14.144531 1.949218-1.949219 4.511718-2.925781 7.070312-2.925781 1.851562 0 3.695312.515625 5.316406 1.535156.515625.429688 1.046875.847656 1.585938 1.238282.054687.050781.113281.097656.167968.152343l24.503907 24.503907c3.898437 3.894531 3.898437 10.242187 0 14.140624-3.40625 3.40625-8.671875 3.835938-12.550781 1.292969-.382813-.3125-.773438-.617187-1.167969-.910156zm-.253907-56.25c-.054687-.050781-.113281-.097656-.167968-.152344l-24.503906-24.5c-3.898438-3.902343-3.898438-10.246093 0-14.144531 1.949218-1.949219 4.511718-2.925781 7.070312-2.925781 1.851562 0 3.695312.515625 5.316406 1.535156.515625.429687 1.046875.84375 1.585938 1.238281.054687.050782.113281.097656.167968.152344l24.503907 24.5c3.898437 3.898438 3.898437 10.246094 0 14.144531-3.359375 3.359375-8.527344 3.816407-12.386719 1.390625-.519531-.429687-1.046875-.84375-1.585938-1.238281zm0-56.019531c-.054687-.050782-.113281-.097656-.167968-.152344l-24.503906-24.5c-3.898438-3.898438-3.898438-10.246094 0-14.144531 1.949218-1.949219 4.511718-2.925781 7.070312-2.925781 1.84375 0 3.683594.515624 5.300781 1.523437.523438.441406 1.066407.863281 1.617188 1.261719.046875.050781.101562.089844.152343.140625l24.503907 24.503906c3.898437 3.894531 3.898437 10.242187 0 14.140625-3.359375 3.359375-8.527344 3.816406-12.386719 1.390625-.519531-.433594-1.046875-.847656-1.585938-1.238281zm-.003906-56.023438c-.054687-.050781-.113281-.09375-.164062-.148437l-24.503906-24.5c-3.898438-3.902344-3.898438-10.246094 0-14.144531 1.949218-1.949219 4.507812-2.925782 7.070312-2.925782 1.847656 0 3.695312.519532 5.3125 1.53125.519531.4375 1.050781.851563 1.59375 1.246094.054688.050781.113281.09375.164062.148438l24.503907 24.503906c3.898437 3.898437 3.898437 10.242187 0 14.140625-1.886719 1.890625-4.398438 2.929687-7.070313 2.929687-1.90625 0-3.730468-.539062-5.304687-1.53125-.523438-.433594-1.058594-.851562-1.601563-1.25zm291.613282 19.679688-6.695313 6.695312-6.695313-6.695312c2.402344-1.191406 4.65625-2.710938 6.695313-4.539063 2.039063 1.828125 4.292969 3.347657 6.695313 4.539063zm-6.695313 118.734375-6.707031-6.707031c2.382812-1.175782 4.644531-2.683594 6.707031-4.527344 2.0625 1.84375 4.324219 3.351562 6.707031 4.527344zm-26.902344-26.371094c-.054687-.050781-.113281-.097656-.167969-.152344l-24.503906-24.5c-3.898437-3.902343-3.898437-10.246093 0-14.144531 1.949219-1.949219 4.511719-2.925781 7.070313-2.925781 1.851562 0 3.695312.515625 5.316406 1.535156.519531.429687 1.046875.84375 1.585937 1.238281.058594.050782.117188.097656.167969.152344l24.503907 24.5c3.898437 3.898438 3.898437 10.246094 0 14.144531-3.355469 3.359375-8.523438 3.816407-12.386719 1.390625-.515625-.429687-1.042969-.84375-1.585938-1.238281zm-37.601562 1.9375c-2.0625-1.847656-4.320313-3.355469-6.707031-4.53125l6.707031-6.707031 6.707031 6.707031c-2.382812 1.175781-4.644531 2.683594-6.707031 4.53125zm-39.1875-.699219c-3.863281 2.425782-9.03125 1.96875-12.386719-1.390625-3.898438-3.898437-3.898438-10.242187 0-14.140625l24.503906-24.503906c.054688-.054688.113282-.101562.167969-.152344.542969-.394531 1.070313-.808594 1.585937-1.238281 1.621094-1.019531 3.464844-1.535156 5.316407-1.535156 2.5625 0 5.121093.976562 7.070312 2.925781 3.898438 3.898438 3.898438 10.242188 0 14.140625l-24.503906 24.503906c-.054687.054688-.113281.101563-.167969.152344-.539062.394531-1.066406.808594-1.585937 1.238281zm-25.316407 25.132813-6.703124-6.707031c2.382812-1.175782 4.640624-2.683594 6.703124-4.527344 2.066407 1.84375 4.324219 3.351562 6.707032 4.527344zm-26.898437-26.371094c-.054687-.050781-.117187-.097656-.171875-.152344l-24.5-24.503906c-3.902344-3.898437-3.902344-10.242187 0-14.140625 1.945312-1.949219 4.507812-2.925781 7.066406-2.925781 1.851563 0 3.699219.515625 5.316406 1.535156.519532.429687 1.046876.84375 1.585938 1.238281.058594.050782.117188.097656.171875.152344l24.5 24.503906c3.902344 3.898438 3.902344 10.242188 0 14.140625-3.355469 3.359375-8.519531 3.816407-12.382813 1.390625-.519531-.429687-1.046874-.84375-1.585937-1.238281zm-37.601563 1.9375c-2.0625-1.847656-4.324218-3.355469-6.707031-4.53125l6.707031-6.707031 6.703126 6.707031c-2.382813 1.175781-4.640626 2.683594-6.703126 4.53125zm-39.191406-.695313c-3.859375 2.421876-9.027344 1.964844-12.382812-1.394531-3.898438-3.898437-3.898438-10.242187 0-14.140625l24.503906-24.503906c.050781-.054688.113281-.097656.167969-.152344.539062-.390625 1.066406-.804687 1.585937-1.238281 1.621094-1.019531 3.464844-1.535156 5.316406-1.535156 2.558594 0 5.121094.976562 7.070313 2.925781 3.898437 3.898438 3.898437 10.242188 0 14.144531l-24.503906 24.5c-.054688.054688-.113281.101563-.167969.152344-.542969.394531-1.070312.808594-1.589844 1.242187zm-25.3125 25.128907-6.707031-6.707031c2.382813-1.175782 4.644531-2.683594 6.707031-4.527344 2.0625 1.84375 4.324219 3.351562 6.707032 4.527344zm0-123.273438c2.039063 1.828125 4.292969 3.347657 6.695313 4.539063l-6.695313 6.695312-6.695312-6.695312c2.402344-1.191406 4.65625-2.710938 6.695312-4.539063zm30-162.113281h69.003906v32.976562c-10.933593-6.03125-24.859374-4.738281-34.5 3.898438-9.640624-8.636719-23.570312-9.929688-34.503906-3.898438zm163.507813 36.875c-9.640625-8.636719-23.566407-9.933594-34.503907-3.898438v-32.976562h69.007813v32.976562c-10.933594-6.03125-24.859375-4.738281-34.503906 3.898438zm26.910156 71.15625c.050781.050781.109375.09375.164063.148438l24.5 24.503906c3.902343 3.898437 3.902343 10.242187 0 14.140625-1.886719 1.890625-4.398438 2.929687-7.066407 2.929687-1.910156 0-3.730469-.539062-5.308593-1.53125-.523438-.4375-1.054688-.855468-1.601563-1.25-.054687-.050781-.109375-.09375-.164063-.148437l-24.503906-24.5c-3.898437-3.902344-3.898437-10.246094 0-14.144531 1.949219-1.949219 4.511719-2.925782 7.070313-2.925782 1.851562 0 3.695312.519532 5.3125 1.53125.523437.4375 1.054687.851563 1.597656 1.246094zm10.691406 94.964844c-.054687-.050782-.113281-.097656-.167969-.152344l-24.503906-24.5c-3.898437-3.898438-3.898437-10.246094 0-14.144531 1.949219-1.949219 4.511719-2.925781 7.070313-2.925781 1.84375 0 3.683593.515624 5.300781 1.523437.527344.441406 1.066406.863281 1.617188 1.261719.050781.050781.105468.089844.152343.140625l24.503907 24.503906c3.898437 3.894531 3.898437 10.242187 0 14.140625-3.355469 3.359375-8.523438 3.816406-12.386719 1.390625-.515625-.433594-1.042969-.847656-1.585938-1.238281zm-37.601562 1.9375c-2.0625-1.847656-4.320313-3.355469-6.707031-4.53125l6.707031-6.703125 6.707031 6.703125c-2.382812 1.175781-4.644531 2.683594-6.707031 4.53125zm-39.1875-.695313c-3.863281 2.421875-9.03125 1.964844-12.386719-1.394531-3.898438-3.898438-3.898438-10.242188 0-14.140625l24.503906-24.503906c.046875-.050781.101563-.089844.152344-.140625.550781-.398438 1.09375-.820313 1.617188-1.257813 1.617187-1.011719 3.457031-1.523437 5.300781-1.523437 2.5625 0 5.121093.972656 7.070312 2.921875 3.898438 3.898437 3.898438 10.246093 0 14.144531l-24.503906 24.5c-.054687.054688-.113281.101562-.167969.15625-.539062.390625-1.066406.804688-1.585937 1.238281zm-25.316407 25.128907-6.703124-6.707032c2.382812-1.175781 4.640624-2.683594 6.703124-4.527344 2.066407 1.84375 4.324219 3.351563 6.707032 4.527344zm-26.898437-26.371094c-.054687-.050782-.117187-.097656-.171875-.152344l-24.5-24.503906c-3.902344-3.898438-3.902344-10.242188 0-14.140625 1.945312-1.949219 4.507812-2.925781 7.066406-2.925781 1.847656 0 3.6875.515624 5.300782 1.523437.527343.441406 1.066406.859375 1.617187 1.261719.050781.046875.105469.089844.15625.140625l24.5 24.5c3.902344 3.898437 3.902344 10.246093 0 14.144531-3.355469 3.359375-8.519531 3.816406-12.382813 1.390625-.519531-.429687-1.046874-.84375-1.585937-1.238281zm-37.601563 1.9375c-2.0625-1.847656-4.324218-3.355469-6.707031-4.53125l6.707031-6.703125 6.703126 6.703125c-2.382813 1.175781-4.640626 2.683594-6.703126 4.53125zm-39.191406-.695313c-3.859375 2.421875-9.027344 1.964844-12.382812-1.394531-3.898438-3.898438-3.898438-10.242188 0-14.140625l24.503906-24.503906c.046875-.050781.101562-.089844.152344-.140625.550781-.398438 1.089844-.820313 1.617187-1.257813 1.617188-1.011719 3.457031-1.523437 5.300781-1.523437 2.558594 0 5.121094.972656 7.070313 2.921875 3.898437 3.898437 3.898437 10.246093 0 14.144531l-24.503906 24.5c-.054688.058594-.117188.101562-.171875.15625-.539063.390625-1.066406.804688-1.585938 1.238281zm12.285156-96.207031c.542969-.394531 1.070313-.808594 1.589844-1.242188 1.621094-1.015624 3.464844-1.53125 5.316406-1.53125 2.558594 0 5.121094.972657 7.070313 2.921876 3.898437 3.898437 3.898437 10.242187 0 14.144531l-24.503906 24.5c-.054688.054687-.113281.097656-.164063.148437-.546875.398438-1.078125.8125-1.601562 1.25-1.574219.992188-3.398438 1.53125-5.308594 1.53125-2.667969 0-5.179688-1.039062-7.066406-2.929687-3.902344-3.898438-3.902344-10.242188 0-14.140625l24.5-24.503906c.054687-.054688.113281-.097657.167968-.148438zm26.90625-26.371094 6.703126 6.703125c-2.382813 1.175781-4.640626 2.683594-6.707032 4.527344-2.0625-1.84375-4.320312-3.351563-6.703125-4.527344zm74.5 2.0625c.007813-2.667968 1.046876-5.171875 2.929688-7.058594l24.503906-24.503906c1.949219-1.949218 4.511719-2.921875 7.070313-2.921875 2.5625 0 5.121093.972657 7.070312 2.921875 3.898438 3.898438 3.898438 10.246094 0 14.140625l-24.503906 24.503907c-.050781.054687-.109375.101562-.164063.152343-.542968.390625-1.070312.804688-1.589843 1.238281-3.863281 2.425782-9.03125 1.96875-12.386719-1.390624-1.886719-1.882813-2.925781-4.390626-2.929688-7.054688 0-.007812 0-.011719 0-.015625s0-.007813 0-.011719zm61.210938 60.660156c-2.382812 1.175782-4.644531 2.683594-6.707031 4.53125-2.0625-1.847656-4.320313-3.355468-6.707031-4.53125l6.707031-6.703124zm-45.902344 3.839844c-1.578125.992188-3.398437 1.53125-5.308594 1.53125-2.671874 0-5.179687-1.039062-7.070312-2.929687-3.898438-3.898438-3.898438-10.242188 0-14.140625l24.503906-24.503906c.054688-.050782.113282-.097657.167969-.148438.539063-.394531 1.070313-.808594 1.589844-1.242188 1.621093-1.015624 3.464843-1.53125 5.3125-1.53125 2.5625 0 5.121093.972657 7.070312 2.921876 3.898438 3.898437 3.898438 10.246093 0 14.144531l-24.503906 24.503906c-.050781.050781-.105469.09375-.160156.144531-.546875.394532-1.078125.8125-1.601563 1.25zm-25.308594 25.125-6.695312-6.695312c2.40625-1.195313 4.65625-2.710938 6.695312-4.539063 2.042969 1.828125 4.292969 3.347657 6.699219 4.539063zm-26.902343-26.371094c-.054688-.054687-.113281-.097656-.167969-.152343l-24.5-24.5c-3.902344-3.902344-3.902344-10.246094 0-14.144531 1.945312-1.949219 4.507812-2.921876 7.070312-2.921876 1.847657 0 3.691407.515626 5.3125 1.53125.519532.433594 1.050782.851563 1.59375 1.242188.054688.050781.109376.097656.164063.148438l24.503906 24.503906c3.898438 3.898437 3.898438 10.242187 0 14.144531-1.890625 1.886719-4.398437 2.925781-7.070312 2.925781-1.910157 0-3.730469-.539062-5.308594-1.53125-.523437-.433594-1.054687-.851562-1.597656-1.246094zm-37.597657 1.9375c-2.0625-1.847656-4.324218-3.355468-6.707031-4.53125l6.707031-6.703124 6.707032 6.703124c-2.386719 1.175782-4.644532 2.683594-6.707032 4.53125zm71.207032-38.292968-6.707032 6.707031-6.703124-6.707031c2.382812-1.175782 4.640624-2.679688 6.703124-4.527344 2.0625 1.847656 4.324219 3.351562 6.707032 4.527344zm-16.707032-26.871094c-.003906 2.664062-1.042968 5.171875-2.925781 7.054688-3.355469 3.355468-8.523437 3.816406-12.382812 1.394531-.519531-.4375-1.054688-.851563-1.597657-1.246094-.054687-.050781-.109374-.09375-.164062-.148437l-24.5-24.503907c-3.902344-3.898437-3.902344-10.242187 0-14.140625 1.945312-1.949218 4.507812-2.925781 7.066406-2.925781 2.5625 0 5.125.976563 7.074219 2.925781l24.5 24.503906c1.886719 1.882813 2.925781 4.390626 2.929687 7.054688v.015625zm74.503907 9.144531c-2.0625-1.847656-4.320313-3.355469-6.707031-4.527343l6.707031-6.707032 6.707031 6.707032c-2.382812 1.175781-4.644531 2.679687-6.707031 4.527343zm-183.507813-9.171875c.003906-2.667968 1.042969-5.171875 2.929688-7.058594l24.503906-24.503906c1.945312-1.949218 4.507812-2.921875 7.070312-2.921875 2.558594 0 5.121094.972657 7.070313 2.921875 3.898437 3.898438 3.898437 10.246094 0 14.144532l-24.503906 24.5c-.054688.054687-.113281.101562-.167969.152343-.539062.390625-1.070312.808594-1.589844 1.242188-3.859375 2.421875-9.027344 1.964843-12.382812-1.394531-1.886719-1.882813-2.925782-4.390626-2.929688-7.054688 0-.003906 0-.007812 0-.011719 0-.003906 0-.011719 0-.015625zm-10 134.410156c2.0625 1.84375 4.324219 3.351563 6.707032 4.527344l-6.707032 6.707032-6.707031-6.707032c2.382813-1.175781 4.644531-2.683594 6.707031-4.527344zm258.011719 11.234376-6.707031-6.707032c2.382812-1.175781 4.644531-2.683594 6.707031-4.527344 2.0625 1.84375 4.324219 3.351563 6.707031 4.527344zm-12.929687-138.5625c-3.355469 3.359374-8.519532 3.816406-12.382813 1.394531-.519531-.433594-1.050781-.851563-1.59375-1.242188-.050781-.050781-.113281-.097656-.164063-.152343l-24.503906-24.5c-3.898437-3.898438-3.898437-10.246094 0-14.144532 1.949219-1.949218 4.511719-2.921875 7.070313-2.921875 2.558593 0 5.121093.972657 7.070312 2.921875l24.503907 24.503906c1.886718 1.886719 2.925781 4.390626 2.929687 7.058594v.011719.011719c-.003906 2.667968-1.042969 5.175781-2.929687 7.058594zm-17.070313-110.804688h-69.007813v-16h69.007813zm-129.007813 0h-69.003906v-16h69.003906zm-99.003906 126.09375c2.0625 1.847656 4.320313 3.351562 6.707032 4.527344l-6.707032 6.707031-6.707031-6.707031c2.382813-1.175782 4.644531-2.679688 6.707031-4.527344zm258.011719 11.234375-6.707031-6.707031c2.382812-1.175782 4.644531-2.679688 6.707031-4.527344 2.0625 1.847656 4.324219 3.351562 6.707031 4.527344zm-10-165.386719c0-5.515625 4.484375-10 10-10s10 4.484375 10 10v94.9375c0 5.511719-4.484375 10-10 10s-10-4.488281-10-10zm-129.007813 0c0-5.515625 4.488282-10 10-10 5.515626 0 10 4.484375 10 10v94.9375c0 5.511719-4.484374 10-10 10-5.511718 0-10-4.488281-10-10zm-129.003906 0c0-5.515625 4.484375-10 10-10 5.511719 0 10 4.484375 10 10v94.9375c0 5.511719-4.488281 10-10 10-5.515625 0-10-4.488281-10-10zm-58.828125 20.058594c12.230469-5.179688 25.394531-7.90625 38.828125-7.992188v15.984376c-13.433594-.082032-26.597656-2.808594-38.828125-7.992188zm17.253907 80.160156c1.949218-1.949218 4.511718-2.921875 7.070312-2.921875s5.121094.972657 7.070312 2.921875l24.503907 24.503906c1.886719 1.886719 2.925781 4.390626 2.929687 7.058594v.011719.011719c-.003906 2.667968-1.042968 5.171875-2.929687 7.058594-3.355469 3.355468-8.523438 3.816406-12.382813 1.390624-.523437-.433593-1.050781-.847656-1.59375-1.242187-.054687-.050781-.113281-.09375-.164062-.148437l-24.503906-24.5c-3.898438-3.898438-3.898438-10.246094 0-14.144532zm38.644531 318.789063c-3.898438 3.894531-10.242188 3.898437-14.140625 0l-24.503906-24.503907c-3.898438-3.898437-3.898438-10.246093 0-14.144531 1.949218-1.949219 4.511718-2.925781 7.070312-2.925781 1.910156 0 3.820312.546875 5.480469 1.632812.382812.3125.773437.617188 1.167969.910157.140624.125.289062.246093.421874.382812l24.503907 24.503907c3.898437 3.898437 3.898437 10.242187 0 14.144531zm64.503906-24.503907-24.503906 24.503907c-3.898438 3.894531-10.242188 3.898437-14.144531 0h.003906c-3.902344-3.902344-3.902344-10.246094 0-14.144531l24.5-24.503907c.136718-.136719.28125-.253906.425781-.382812.394531-.292969.785156-.59375 1.167969-.910157 3.875-2.542968 9.144531-2.113281 12.550781 1.292969 3.898437 3.898438 3.898437 10.246094 0 14.144531zm64.503906 24.503907c-3.902343 3.894531-10.246093 3.898437-14.144531 0l-24.503906-24.503907c-3.898438-3.898437-3.898438-10.246093 0-14.144531 1.949218-1.949219 4.511718-2.925781 7.070312-2.925781 1.914063 0 3.824219.546875 5.480469 1.632812.382813.3125.773437.617188 1.167969.910157.140625.125.289062.246093.421875.382812l24.503906 24.503907c3.902344 3.898437 3.902344 10.242187.003906 14.144531zm64.5-24.503907-24.5 24.503907c-3.902343 3.894531-10.246093 3.898437-14.144531 0-3.898438-3.902344-3.898438-10.246094 0-14.144531l24.503906-24.503907c.136719-.136719.28125-.257812.421875-.382812.398438-.292969.785157-.59375 1.167969-.910157 3.878906-2.542968 9.148438-2.109374 12.550781 1.292969 3.902344 3.898438 3.902344 10.246094 0 14.144531zm64.503907 24.503907c-3.898438 3.894531-10.242188 3.898437-14.140626 0l-24.503906-24.503907c-3.898437-3.898437-3.898437-10.246093 0-14.144531 1.949219-1.949219 4.511719-2.925781 7.070313-2.925781 1.910156 0 3.820312.546875 5.480469 1.632812.382812.3125.773437.617188 1.167968.910157.140625.125.289063.246093.421875.382812l24.503907 24.503907c3.902343 3.898437 3.902343 10.242187 0 14.144531zm64.503906-24.503907-24.503906 24.503907c-3.898438 3.894531-10.242188 3.898437-14.140626 0-3.898437-3.902344-3.898437-10.246094 0-14.144531l24.503907-24.503907c.132812-.136719.28125-.253906.421875-.382812.394531-.292969.785156-.59375 1.167968-.910157 3.878907-2.542968 9.148438-2.113281 12.550782 1.292969 3.898437 3.898438 3.898437 10.246094 0 14.144531zm-7.070313-297.207031c2.5625 0 5.121094.972657 7.070313 2.921875 3.898437 3.898438 3.898437 10.242188 0 14.140625l-24.503906 24.503907c-.054688.054687-.113282.101562-.167969.152343-.539063.390625-1.066407.804688-1.585938 1.238281-3.863281 2.425782-9.027343 1.96875-12.386719-1.390624-1.886718-1.882813-2.925781-4.390626-2.929687-7.054688 0-.007812 0-.011719 0-.015625s0-.007813 0-.011719c.003906-2.667968 1.042969-5.171875 2.929687-7.058594l24.503907-24.5c1.949219-1.953124 4.507812-2.925781 7.070312-2.925781zm-14.050781-69.238281c-.152344 0-.300781.015625-.453125.023438v-16.046876c.152344.007813.300781.023438.453125.023438h32.210938c-.457032 2.601562-.710938 5.273438-.710938 8 0 2.730469.253906 5.402344.710938 8zm77.5 18c-14.335938 0-26-11.664062-26-26s11.664062-26 26-26 26 11.664062 26 26-11.664062 26-26 26zm0 0"></path></svg>