<!-- icon666.com - MILLIONS vector ICONS FREE --><svg version="1.1" id="Capa_1" xmlns="http://www.w3.org/2000/svg" xmlns:xlink="http://www.w3.org/1999/xlink" x="0px" y="0px" viewBox="0 0 512 512" style="enable-background:new 0 0 512 512;" xml:space="preserve"><g><g><path d="M460.291,214.227c-2.85-3.397-7.057-5.359-11.491-5.359h-97.467V95.334C351.333,42.767,308.566,0,256,0 c-52.567,0-95.334,42.767-95.334,95.334v113.533H63.2c-4.435,0-8.642,1.962-11.491,5.359c-2.851,3.396-4.051,7.881-3.28,12.247 l48.2,273.133C97.894,506.774,104.122,512,111.4,512h289.2c7.278,0,13.507-5.226,14.771-12.394l48.2-273.133 C464.342,222.107,463.142,217.623,460.291,214.227z M190.666,95.334C190.666,59.309,219.975,30,256,30 c36.024,0,65.333,29.309,65.333,65.334v113.533H190.666V95.334z M388.015,482h-264.03L81.079,238.867h79.587v33.199 c0,8.284,6.716,15,15,15s15-6.716,15-15v-33.199h130.667v33.199c0,8.284,6.716,15,15,15s15-6.716,15-15v-33.199h79.588 L388.015,482z"></path></g></g></svg>