<!-- icon666.com - MILLIONS vector ICONS FREE --><svg id="Layer_1" enable-background="new 0 0 68 68" viewBox="0 0 68 68" xmlns="http://www.w3.org/2000/svg"><g><path d="m57.2016068 59.7324219-4.5087891-33.5175781c-.3676758-2.7324219-2.7236328-4.7929688-5.4804688-4.7929688h-.4262695v-7.1582031c0-6.7626953-5.5014648-12.2636719-12.2636719-12.2636719-6.7617188 0-12.2631836 5.5009766-12.2631836 12.2636719v7.1582031h-1.4716797c-2.7568359 0-5.1127939 2.0605469-5.4804697 4.7929688l-4.5087891 33.5175781c-.4457006 3.3100433 2.129736 6.2675781 5.4799815 6.2675781h35.4433594c3.3402252 0 5.9270592-2.9472961 5.4799805-6.2675781zm-43.7290049-7.9248047 5.1943369 2.1875c.1855469.078125.3964844.078125.5820313 0l5.7866211-2.4375 5.7885742 2.4375c.1865234.078125.3964844.078125.5820313 0l5.7851563-2.4375 5.7905273 2.4375c.1865234.078125.3955078.078125.5820313 0l5.7944336-2.4375 5.4082031 2.2744141.5244141 3.4169922-5.0766602-2.1347656c-.1855469-.078125-.3955078-.078125-.5810547 0l-6.0214844 2.5322266-6.0166016-2.5322266c-.1916275-.0802612-.401619-.0759621-.5820313 0l-6.0112305 2.5322266-6.0146484-2.5322266c-.1865234-.078125-.3955078-.078125-.5820313 0l-6.0126953 2.5322266-5.4721689-2.3046875zm36.1762705-1.7548828c-.1855469-.078125-.3950195-.078125-.581543 0l-5.7944336 2.4375-5.7905273-2.4375c-.1865234-.078125-.3964844-.078125-.5820313 0l-5.7851563 2.4375-5.7885742-2.4375c-.1865234-.078125-.3964844-.078125-.5820313 0l-5.7866211 2.4375-5.368165-2.2610474 1.3061523-9.710083 4.836915 2.0912476c.1904297.0820313.4052734.0820313.5957031 0l5.3510742-2.3134766 5.3530273 2.3134766c.1894531.0820313.4047852.0820313.5952148 0l5.3496094-2.3134766 5.3549805 2.3134766c.1894531.0820313.4052734.0820313.5947266 0l5.3588867-2.3134766 5.0831299 2.194397 1.3012695 9.6734009zm3.352539-9.3544922-4.4179688-1.9072266c-.1894531-.0820313-.4052734-.0820313-.5947266 0l-5.3588867 2.3134766-5.3549805-2.3134766c-.0947266-.0410156-.1962891-.0615234-.2973633-.0615234-.1015625 0-.2026367.0205078-.2978516.0615234l-5.3496094 2.3134766-5.3530273-2.3134766c-.1894531-.0820313-.4047852-.0820313-.5952148 0l-5.3510742 2.3134766-4.8203135-2.0839844.4755859-3.1230469 4.5542002 1.96875c.1894531.0820313.4047852.0820313.5952148 0l5.1484375-2.2255859 5.1503906 2.2255859c.1894531.0820313.4047852.0810547.5952148 0l5.1474609-2.2255859 5.1523438 2.2255859c.1894531.0820313.4052734.0820313.5947266 0l5.1557617-2.2255859 4.7734375 2.0605469zm-29.2421875-26.4345703c0-5.9355469 4.828125-10.7636719 10.7631836-10.7636719s10.7636719 4.828125 10.7636719 10.7636719v12.3613281c0 .9042969-.7358398 1.6396484-1.6401367 1.6396484s-1.6396484-.7353515-1.6396484-1.6396484v-12.3613281c0-4.1269531-3.3574219-7.484375-7.4838867-7.484375s-7.4833984 3.3574219-7.4833984 7.484375v12.3613281c0 .9042969-.7353516 1.6396484-1.6396484 1.6396484s-1.6401369-.7353515-1.6401369-1.6396484zm16.7470704 7.1582031h-11.9672852v-7.1582031c0-3.2998047 2.684082-5.984375 5.9833984-5.984375s5.9838867 2.6845703 5.9838867 5.984375v7.1582031zm-19.71875 1.5h1.4716797v3.703125c0 1.7314453 1.4086914 3.1396484 3.1401367 3.1396484s3.1396484-1.4082031 3.1396484-3.1396484v-3.703125h11.9672852v3.703125c0 1.7314453 1.4082031 3.1396484 3.1396484 3.1396484s3.1401367-1.4082031 3.1401367-3.1396484v-3.703125h.4262695c2.0087891 0 3.7260742 1.5019531 3.9941406 3.4921875l1.2956543 9.6311035-4.4250488-1.9104004c-.1894531-.0820313-.4052734-.0820313-.5947266 0l-5.1557617 2.2255859-5.1523438-2.2255859c-.1899414-.0830078-.4052734-.0820313-.5952148 0l-5.1474609 2.2255859-5.1503906-2.2255859c-.1894531-.0820313-.4047852-.0820313-.5952148 0l-5.1484375 2.2255859-4.8028574-2.0758057 1.0587168-7.8704834c.2680663-1.9902343 1.9853515-3.4921874 3.9941406-3.4921874zm30.934082 41.578125h-35.4433594c-2.4347572 0-4.3186493-2.1488266-3.9936533-4.5683594l.4111328-3.0564575 5.4057627 2.2761841c.1865234.078125.3955078.078125.5820313 0l6.0126953-2.5322266 6.0146484 2.5322266c.1865234.078125.3964844.078125.5820313 0l6.0112305-2.5322266 6.0166016 2.5322266c.1855469.078125.3950195.078125.581543 0l6.0214844-2.5322266 5.6665039 2.3829346.125.9295654c.3242949 2.4163742-1.5548059 4.5683594-3.9936525 4.5683594z"></path><circle cx="28.547" cy="46.061" r=".75"></circle><circle cx="23.547" cy="46.061" r=".75"></circle><circle cx="18.547" cy="46.061" r=".75"></circle><circle cx="48.547" cy="46.061" r=".75"></circle><circle cx="43.547" cy="46.061" r=".75"></circle><circle cx="38.547" cy="46.061" r=".75"></circle><circle cx="33.547" cy="46.061" r=".75"></circle></g></svg>