<!-- icon666.com - MILLIONS vector ICONS FREE --><svg viewBox="0 0 512 512" xmlns="http://www.w3.org/2000/svg"><path d="m480.144531 420h-4.660156v-37.730469c0-49.882812-11.71875-99.851562-33.898437-144.507812-2.453126-4.945313-8.453126-6.960938-13.402344-4.507813-4.945313 2.457032-6.964844 8.460938-4.507813 13.40625 20.808594 41.902344 31.8125 88.796875 31.8125 135.609375v37.730469h-398.972656v-38.714844c0-112.054687 61.210937-214.804687 159.746094-268.15625.238281-.128906.460937-.273437.683593-.417968 10.753907 8.492187 24.320313 13.582031 39.054688 13.582031 14.378906 0 27.644531-4.84375 38.273438-12.96875l.226562.121093c32.800781 17.566407 61.789062 40.691407 86.164062 68.734376 1.980469 2.273437 4.757813 3.4375 7.554688 3.4375 2.324219 0 4.660156-.808594 6.554688-2.453126 4.167968-3.625 4.609374-9.9375.988281-14.109374-24.855469-28.589844-54.222657-52.371094-87.324219-70.769532 6.757812-10.050781 10.707031-22.144531 10.707031-35.140625 0-34.816406-28.328125-63.144531-63.144531-63.144531s-63.144531 28.328125-63.144531 63.144531c0 12.6875 3.773437 24.503907 10.238281 34.410157-102.859375 57.394531-166.578125 165.71875-166.578125 283.730468v38.714844h-4.914063c-.085937 0-.167968.011719-.253906.011719-17.332031.277343-31.347656 14.449219-31.347656 31.84375v28.289062c0 17.566407 14.289062 31.855469 31.855469 31.855469h448.542969c.085937 0 .167968-.011719.253906-.011719 17.332031-.277343 31.347656-14.449219 31.347656-31.84375v-28.289062c0-17.566407-14.289062-31.855469-31.855469-31.855469zm-224.144531-400c23.789062 0 43.144531 19.355469 43.144531 43.144531 0 23.792969-19.355469 43.148438-43.144531 43.148438s-43.144531-19.355469-43.144531-43.148438c0-23.789062 19.355469-43.144531 43.144531-43.144531zm-236 460.144531v-28.289062c0-6.535157 5.320312-11.855469 11.855469-11.855469h13.890625c14.335937 0 26 11.664062 26 26 0 9.644531 2.988281 18.597656 8.078125 26h-47.96875c-6.535157 0-11.855469-5.320312-11.855469-11.855469zm97.746094 11.855469c-14.335938 0-26-11.664062-26-26 0-9.644531-2.988282-18.597656-8.082032-26h49.207032c14.339844 0 26 11.664062 26 26 0 9.644531 2.988281 18.597656 8.082031 26zm87.125 0c-14.335938 0-26-11.664062-26-26 0-9.644531-2.984375-18.597656-8.078125-26h49.207031c14.335938 0 26 11.664062 26 26 0 9.644531 2.988281 18.597656 8.078125 26zm87.128906 0c-14.335938 0-26-11.664062-26-26 0-9.644531-2.988281-18.597656-8.078125-26h49.207031c14.335938 0 26 11.664062 26 26 0 9.644531 2.984375 18.597656 8.078125 26zm87.128906 0c-14.339844 0-26-11.664062-26-26 0-9.644531-2.988281-18.597656-8.082031-26h49.207031c14.335938 0 26 11.664062 26 26 0 9.644531 2.988282 18.597656 8.078125 26zm112.871094-11.855469c0 6.535157-5.320312 11.855469-11.855469 11.855469h-13.890625c-14.335937 0-26-11.664062-26-26 0-9.644531-2.988281-18.597656-8.078125-26h47.964844c6.539063 0 11.859375 5.320312 11.859375 11.855469zm0 0"></path><path d="m404.609375 213.625c1.917969 2.898438 5.074219 4.460938 8.300781 4.460938 1.894532 0 3.816406-.542969 5.523438-1.667969 4.609375-3.042969 5.855468-9.28125 2.8125-13.890625-3.042969-4.613282-9.242188-5.878906-13.851563-2.839844-4.609375 3.042969-5.882812 9.246094-2.839843 13.855469.007812.011719.046874.070312.054687.082031zm0 0"></path><path d="m327.71875 178.402344c1.953125 1.953125 4.511719 2.929687 7.070312 2.929687 2.5625 0 5.121094-.976562 7.074219-2.929687 3.902344-3.902344 3.902344-10.234375 0-14.140625l-20-20c-3.90625-3.90625-10.238281-3.90625-14.144531 0-3.90625 3.902343-3.90625 10.234375 0 14.140625zm0 0"></path><path d="m283.070312 144.261719c-3.90625-3.90625-10.234374-3.90625-14.140624 0l-12.929688 12.929687-12.929688-12.929687c-3.90625-3.90625-10.234374-3.90625-14.140624 0-3.90625 3.902343-3.90625 10.234375 0 14.140625l20 20c1.953124 1.953125 4.511718 2.929687 7.070312 2.929687s5.117188-.976562 7.070312-2.929687l20-20c3.90625-3.902344 3.90625-10.234375 0-14.140625zm0 0"></path><path d="m184.28125 178.402344 20-20c3.902344-3.902344 3.902344-10.234375 0-14.140625-3.90625-3.90625-10.238281-3.90625-14.144531 0l-20 20c-3.90625 3.902343-3.90625 10.234375 0 14.140625 1.953125 1.953125 4.511719 2.929687 7.070312 2.929687 2.558594 0 5.121094-.976562 7.074219-2.929687zm0 0"></path><path d="m361.863281 200.144531c-3.90625-3.90625-10.238281-3.90625-14.144531 0l-12.929688 12.929688-12.925781-12.929688c-3.90625-3.90625-10.238281-3.90625-14.144531 0s-3.90625 10.238281 0 14.140625l20 20c1.953125 1.953125 4.511719 2.929688 7.070312 2.929688 2.558594 0 5.121094-.976563 7.070313-2.929688l20-20c3.910156-3.902344 3.910156-10.234375.003906-14.140625zm0 0"></path><path d="m283.070312 200.144531c-3.90625-3.90625-10.234374-3.90625-14.140624 0l-12.929688 12.929688-12.929688-12.929688c-3.90625-3.90625-10.234374-3.90625-14.140624 0s-3.90625 10.238281 0 14.140625l20 20c1.953124 1.953125 4.511718 2.929688 7.070312 2.929688s5.117188-.976563 7.070312-2.929688l20-20c3.90625-3.902344 3.90625-10.234375 0-14.140625zm0 0"></path><path d="m204.28125 200.144531c-3.90625-3.90625-10.238281-3.90625-14.144531 0l-12.929688 12.929688-12.929687-12.929688c-3.902344-3.90625-10.234375-3.90625-14.140625 0s-3.90625 10.238281 0 14.140625l20 20c1.953125 1.953125 4.511719 2.929688 7.070312 2.929688 2.558594 0 5.117188-.976563 7.070313-2.929688l20-20c3.90625-3.902344 3.90625-10.234375.003906-14.140625zm0 0"></path><path d="m386.511719 256.027344c-3.90625 3.902344-3.90625 10.234375 0 14.140625l20 20c1.953125 1.953125 4.511719 2.929687 7.070312 2.929687 2.558594 0 5.121094-.976562 7.070313-2.929687 3.90625-3.902344 3.90625-10.234375 0-14.140625l-20-20c-3.902344-3.90625-10.234375-3.90625-14.140625 0zm0 0"></path><path d="m361.863281 256.027344c-3.90625-3.90625-10.238281-3.90625-14.144531 0l-12.929688 12.925781-12.925781-12.925781c-3.90625-3.90625-10.238281-3.90625-14.144531 0-3.90625 3.902344-3.90625 10.234375 0 14.140625l20 20c1.953125 1.953125 4.511719 2.929687 7.070312 2.929687 2.558594 0 5.121094-.976562 7.070313-2.929687l20-20c3.910156-3.902344 3.910156-10.234375.003906-14.140625zm0 0"></path><path d="m283.070312 256.027344c-3.90625-3.90625-10.234374-3.90625-14.140624 0l-12.929688 12.929687-12.929688-12.929687c-3.90625-3.90625-10.234374-3.90625-14.140624 0s-3.90625 10.238281 0 14.144531l20 20c1.953124 1.949219 4.511718 2.925781 7.070312 2.925781s5.117188-.976562 7.070312-2.925781l20-20c3.90625-3.90625 3.90625-10.238281 0-14.144531zm0 0"></path><path d="m204.28125 256.027344c-3.90625-3.90625-10.238281-3.90625-14.144531 0l-12.929688 12.925781-12.929687-12.925781c-3.902344-3.90625-10.234375-3.90625-14.140625 0-3.90625 3.902344-3.90625 10.234375 0 14.140625l20 20c1.953125 1.953125 4.511719 2.929687 7.070312 2.929687 2.558594 0 5.117188-.976562 7.070313-2.929687l20-20c3.90625-3.902344 3.90625-10.234375.003906-14.140625zm0 0"></path><path d="m105.488281 290.167969 20-20c3.90625-3.902344 3.90625-10.234375 0-14.140625s-10.238281-3.90625-14.144531 0l-20 20c-3.902344 3.902344-3.902344 10.234375 0 14.140625 1.953125 1.953125 4.511719 2.929687 7.070312 2.929687 2.5625 0 5.121094-.976562 7.074219-2.929687zm0 0"></path><path d="m440.65625 311.910156c-3.90625-3.90625-10.238281-3.90625-14.144531 0l-12.929688 12.929688-12.929687-12.929688c-3.902344-3.90625-10.234375-3.90625-14.140625 0-3.90625 3.902344-3.90625 10.234375 0 14.140625l20 20c1.953125 1.953125 4.511719 2.929688 7.070312 2.929688 2.558594 0 5.117188-.976563 7.070313-2.929688l20-20c3.90625-3.90625 3.90625-10.238281.003906-14.140625zm0 0"></path><path d="m361.863281 311.910156c-3.90625-3.90625-10.238281-3.90625-14.144531 0l-12.929688 12.929688-12.925781-12.929688c-3.90625-3.90625-10.238281-3.90625-14.144531 0-3.90625 3.902344-3.90625 10.234375 0 14.140625l20 20c1.953125 1.953125 4.511719 2.929688 7.070312 2.929688 2.558594 0 5.121094-.976563 7.070313-2.929688l20-20c3.910156-3.90625 3.910156-10.238281.003906-14.140625zm0 0"></path><path d="m283.070312 311.910156c-3.90625-3.90625-10.234374-3.90625-14.140624 0l-12.929688 12.929688-12.929688-12.929688c-3.90625-3.90625-10.234374-3.90625-14.140624 0-3.90625 3.902344-3.90625 10.234375 0 14.140625l20 20c1.953124 1.953125 4.511718 2.929688 7.070312 2.929688s5.117188-.976563 7.070312-2.929688l20-20c3.90625-3.90625 3.90625-10.238281 0-14.140625zm0 0"></path><path d="m204.28125 311.910156c-3.90625-3.90625-10.238281-3.90625-14.144531 0l-12.929688 12.929688-12.929687-12.929688c-3.902344-3.90625-10.234375-3.90625-14.140625 0-3.90625 3.902344-3.90625 10.234375 0 14.140625l20 20c1.953125 1.953125 4.511719 2.929688 7.070312 2.929688 2.558594 0 5.117188-.976563 7.070313-2.929688l20-20c3.90625-3.90625 3.90625-10.238281.003906-14.140625zm0 0"></path><path d="m125.488281 311.910156c-3.90625-3.90625-10.238281-3.90625-14.144531 0l-12.929688 12.929688-12.925781-12.929688c-3.90625-3.90625-10.238281-3.90625-14.144531 0-3.90625 3.902344-3.90625 10.234375 0 14.140625l20 20c1.953125 1.953125 4.511719 2.929688 7.070312 2.929688 2.558594 0 5.121094-.976563 7.070313-2.929688l20-20c3.910156-3.90625 3.910156-10.238281.003906-14.140625zm0 0"></path><path d="m426.511719 367.792969-12.929688 12.929687-12.929687-12.929687c-3.902344-3.90625-10.234375-3.90625-14.140625 0-3.90625 3.902343-3.90625 10.234375 0 14.140625l20 20c1.953125 1.953125 4.511719 2.929687 7.070312 2.929687 2.558594 0 5.117188-.976562 7.070313-2.929687l20-20c3.90625-3.902344 3.90625-10.234375 0-14.140625s-10.234375-3.90625-14.140625 0zm0 0"></path><path d="m347.71875 367.792969-12.929688 12.929687-12.925781-12.929687c-3.90625-3.90625-10.238281-3.90625-14.144531 0-3.90625 3.902343-3.90625 10.234375 0 14.140625l20 20c1.953125 1.953125 4.511719 2.929687 7.070312 2.929687 2.558594 0 5.121094-.976562 7.070313-2.929687l20-20c3.90625-3.902344 3.90625-10.234375 0-14.140625-3.902344-3.90625-10.234375-3.90625-14.140625 0zm0 0"></path><path d="m268.929688 367.792969-12.929688 12.929687-12.929688-12.929687c-3.90625-3.90625-10.234374-3.90625-14.140624 0-3.90625 3.902343-3.90625 10.234375 0 14.140625l20 20c1.953124 1.953125 4.511718 2.929687 7.070312 2.929687s5.117188-.976562 7.070312-2.929687l20-20c3.90625-3.902344 3.90625-10.234375 0-14.140625s-10.234374-3.90625-14.140624 0zm0 0"></path><path d="m190.136719 367.792969-12.929688 12.929687-12.929687-12.929687c-3.902344-3.90625-10.234375-3.90625-14.140625 0-3.90625 3.902343-3.90625 10.234375 0 14.140625l20 20c1.953125 1.953125 4.511719 2.929687 7.070312 2.929687 2.558594 0 5.117188-.976562 7.070313-2.929687l20-20c3.90625-3.902344 3.90625-10.234375 0-14.140625s-10.234375-3.90625-14.140625 0zm0 0"></path><path d="m111.34375 367.792969-12.929688 12.929687-12.925781-12.929687c-3.90625-3.90625-10.238281-3.90625-14.144531 0-3.90625 3.902343-3.90625 10.234375 0 14.140625l20 20c1.953125 1.953125 4.511719 2.929687 7.070312 2.929687 2.558594 0 5.121094-.976562 7.070313-2.929687l20-20c3.90625-3.902344 3.90625-10.234375 0-14.140625-3.902344-3.90625-10.234375-3.90625-14.140625 0zm0 0"></path><path d="m229.027344 78.71875c1.851562 3.207031 5.210937 5 8.667968 5 1.695313 0 3.417969-.433594 4.992188-1.339844l3.3125-1.914062v3.828125c0 5.523437 4.476562 10 10 10s10-4.476563 10-10v-3.828125l3.3125 1.914062c1.574219.90625 3.292969 1.339844 4.992188 1.339844 3.457031 0 6.816406-1.792969 8.667968-5 2.761719-4.785156 1.125-10.898438-3.660156-13.660156l-3.3125-1.914063 3.3125-1.910156c4.785156-2.761719 6.421875-8.878906 3.660156-13.660156-2.761718-4.785157-8.878906-6.421875-13.660156-3.660157l-3.3125 1.910157v-3.824219c0-5.523438-4.476562-10-10-10s-10 4.476562-10 10v3.824219l-3.3125-1.910157c-4.78125-2.761718-10.898438-1.125-13.660156 3.660157-2.761719 4.78125-1.125 10.898437 3.660156 13.660156l3.3125 1.910156-3.3125 1.914063c-4.78125 2.761718-6.421875 8.878906-3.660156 13.660156zm0 0"></path></svg>