<!-- icon666.com - MILLIONS vector ICONS FREE --><svg xmlns="http://www.w3.org/2000/svg" id="icons" viewBox="0 0 60 60"><path d="M33.013,27.692a1.7,1.7,0,0,0,.693-1.677l-.25-1.521,1.053-1.068a1.714,1.714,0,0,0,.4-1.751,1.676,1.676,0,0,0-1.34-1.138l-1.42-.216-.642-1.357a1.662,1.662,0,0,0-3.017,0l-.643,1.357-1.421.216a1.676,1.676,0,0,0-1.339,1.138,1.716,1.716,0,0,0,.4,1.752l1.053,1.067-.25,1.52a1.7,1.7,0,0,0,.693,1.678,1.643,1.643,0,0,0,1.752.1L30,27.1l1.262.692a1.644,1.644,0,0,0,1.751-.1ZM31.4,24.317l.231,1.4-1.151-.63a1,1,0,0,0-.96,0l-1.151.63.231-1.4a1,1,0,0,0-.274-.864l-1.013-1.027,1.361-.207a1,1,0,0,0,.754-.561L30,20.451l.572,1.207a1,1,0,0,0,.754.561l1.361.207-1.013,1.027A1,1,0,0,0,31.4,24.317Z"></path><path d="M26.571,30.537l-1.42-.216-.642-1.357a1.662,1.662,0,0,0-3.017,0l-.643,1.357-1.421.216a1.676,1.676,0,0,0-1.339,1.138,1.716,1.716,0,0,0,.4,1.752l1.053,1.067-.25,1.52a1.7,1.7,0,0,0,.693,1.678,1.641,1.641,0,0,0,1.752.1L23,37.1l1.262.692a1.644,1.644,0,0,0,1.751-.1,1.7,1.7,0,0,0,.693-1.677l-.25-1.521,1.053-1.068a1.714,1.714,0,0,0,.4-1.751A1.676,1.676,0,0,0,26.571,30.537Zm-1.9,2.916a1,1,0,0,0-.274.864l.231,1.4-1.151-.63a1,1,0,0,0-.96,0l-1.151.63.231-1.4a1,1,0,0,0-.274-.864l-1.013-1.027,1.361-.207a1,1,0,0,0,.754-.561L23,30.451l.572,1.207a1,1,0,0,0,.754.561l1.361.207Z"></path><path d="M40.706,36.015l-.25-1.521,1.053-1.068a1.714,1.714,0,0,0,.4-1.751,1.676,1.676,0,0,0-1.34-1.138l-1.42-.216-.642-1.357a1.662,1.662,0,0,0-3.017,0l-.643,1.357-1.421.216a1.676,1.676,0,0,0-1.339,1.138,1.716,1.716,0,0,0,.4,1.752l1.053,1.067-.25,1.52a1.7,1.7,0,0,0,.693,1.678,1.642,1.642,0,0,0,1.752.1L37,37.1l1.262.692a1.644,1.644,0,0,0,1.751-.1A1.7,1.7,0,0,0,40.706,36.015Zm-2.032-2.562a1,1,0,0,0-.274.864l.231,1.4-1.151-.63a1,1,0,0,0-.96,0l-1.151.63.231-1.4a1,1,0,0,0-.274-.864l-1.013-1.027,1.361-.207a1,1,0,0,0,.754-.561L37,30.451l.572,1.207a1,1,0,0,0,.754.561l1.361.207Z"></path><path d="M30,0A30,30,0,1,0,60,30,30.034,30.034,0,0,0,30,0Zm1,2.088c4.013.593,7.676,4.7,10.082,10.912H31ZM41.79,15c.4,1.229.742,2.528,1.04,3.881A17.106,17.106,0,0,0,37.983,15ZM29,2.088V13H18.918C21.324,6.789,24.987,2.681,29,2.088ZM22.017,15a17.106,17.106,0,0,0-4.847,3.881c.3-1.353.644-2.652,1.04-3.881ZM23.135,2.854A24.6,24.6,0,0,0,16.785,13H7.772A28.066,28.066,0,0,1,23.135,2.854ZM6.375,15H16.12a48.162,48.162,0,0,0-1.714,8.249A16.863,16.863,0,0,0,13.051,29H2.025A27.818,27.818,0,0,1,6.375,15ZM2.025,31H13.051a16.863,16.863,0,0,0,1.355,5.751A48.162,48.162,0,0,0,16.12,45H6.375A27.818,27.818,0,0,1,2.025,31ZM7.772,47h9.013a24.6,24.6,0,0,0,6.35,10.146A28.066,28.066,0,0,1,7.772,47Zm9.4-5.881A17.106,17.106,0,0,0,22.017,45H18.21C17.814,43.771,17.468,42.472,17.17,41.119ZM29,57.912c-4.013-.593-7.676-4.7-10.082-10.912H29ZM15,30A15,15,0,1,1,30,45,15.017,15.017,0,0,1,15,30ZM42.83,41.119c-.3,1.353-.644,2.652-1.04,3.881H37.983A17.106,17.106,0,0,0,42.83,41.119ZM31,57.912V47H41.082C38.676,53.211,35.013,57.319,31,57.912Zm5.865-.766A24.6,24.6,0,0,0,43.215,47h9.013A28.066,28.066,0,0,1,36.865,57.146ZM53.625,45H43.88a48.162,48.162,0,0,0,1.714-8.249A16.863,16.863,0,0,0,46.949,31H57.975A27.818,27.818,0,0,1,53.625,45Zm4.35-16H46.949a16.863,16.863,0,0,0-1.355-5.751A48.162,48.162,0,0,0,43.88,15h9.745A27.818,27.818,0,0,1,57.975,29ZM43.215,13a24.6,24.6,0,0,0-6.35-10.146A28.066,28.066,0,0,1,52.228,13Z"></path></svg>