<!-- icon666.com - MILLIONS vector ICONS FREE --><svg id="Capa_1" enable-background="new 0 0 511.332 511.332" viewBox="0 0 511.332 511.332" xmlns="http://www.w3.org/2000/svg"><g><path d="m375.393 420.214h15l-.017-15h-15z"></path><path d="m361.434 39.936c-4.633 3.763-8.565 8.529-11.374 13.785l13.23 7.068c1.875-3.51 4.503-6.694 7.601-9.209z"></path><path d="m393.411 44.882 1.535-14.922c-5.935-.61-12.071-.042-17.745 1.644l4.271 14.379c3.811-1.131 7.94-1.514 11.939-1.101z"></path><path d="m79.799 53.722 13.23 7.066c1.874-3.509 4.502-6.693 7.6-9.208l-9.457-11.645c-4.634 3.765-8.566 8.531-11.373 13.787z"></path><path d="m106.939 31.604 4.271 14.379c3.81-1.131 7.94-1.514 11.938-1.101l1.535-14.922c-5.934-.61-12.07-.041-17.744 1.644z"></path><path d="m180.165 165.705h45v15h-45z"></path><path d="m285.165 165.705h45v15h-45z"></path><path d="m255.165 314.373c32.625 0 59.167-26.542 59.167-59.167s-26.542-59.167-59.167-59.167-59.167 26.542-59.167 59.167 26.542 59.167 59.167 59.167zm0-103.334c24.354 0 44.167 19.813 44.167 44.167s-19.813 44.167-44.167 44.167-44.167-19.813-44.167-44.167 19.814-44.167 44.167-44.167z"></path><path d="m277.832 255.04h-15.167v-29.834h-15v29.834h-15.167v15h45.334z"></path><path d="m458.665 225.707h-68.479v-30.518c0-16.123-2.887-31.591-8.113-45.929 50.243 5.436 92.21-41.85 80.622-91.116-11.256-47.86-67.495-72.157-110.005-47.308-22.568 13.192-36.894 37.864-37.015 64.021-18.076-9.051-38.456-14.156-60.01-14.156-21.948 0-42.684 5.287-61.004 14.651-.183-49.463-47.17-85.619-95.177-71.728-47.968 13.88-69.078 72.604-40.694 113.77 15.643 22.687 43.141 35.102 70.507 31.754-5.252 14.369-8.12 29.876-8.12 46.042v30.518h-68.511c-29.04-.001-52.666 23.625-52.666 52.665s23.626 52.666 52.666 52.666h68.512v119.923c0 32.943 26.801 59.744 59.744 59.744 32.942 0 59.743-26.801 59.743-59.744v-45.239h30.256v45.239c0 32.943 26.801 59.744 59.744 59.744s59.744-26.801 59.744-59.744v-15.756h-15v15.756c0 24.672-20.072 44.744-44.744 44.744s-44.744-20.072-44.744-44.744v-60.239h-60.256v60.239c0 24.672-20.071 44.744-44.743 44.744s-44.744-20.072-44.744-44.744v-255.773c0-65.886 53.603-119.487 119.488-119.487s119.71 53.602 119.71 119.495v195.017h14.984l-.063-59.175h68.367c29.041 0 52.667-23.626 52.667-52.666s-23.625-52.666-52.666-52.666zm-405.999 90.332c-20.77 0-37.666-16.896-37.666-37.666s16.896-37.666 37.666-37.666h68.512v75.332zm84.13-183.695c-42.093 12.229-83.469-25.689-75.013-68.651 8.038-40.84 56.574-61.07 91.241-38.063 19.345 12.839 29.574 36.305 25.848 59.217-17.52 12.231-32.002 28.521-42.076 47.497zm194.537-48.277c-6.257-41.973 34.029-77.61 74.931-66.142 39.616 11.107 56.244 60.32 31.354 93.127-14.517 19.135-39.662 27.851-62.911 21.618-10.294-19.522-25.246-36.221-43.374-48.603zm127.332 231.972h-68.383l-.08-75.332h68.463c20.77 0 37.667 16.896 37.667 37.666s-16.898 37.666-37.667 37.666z"></path><path d="m46.166 255.04h15v15h-15z"></path><path d="m76.166 255.04h15v15h-15z"></path></g></svg>