<!-- icon666.com - MILLIONS vector ICONS FREE --><svg id="Capa_1" enable-background="new 0 0 512 512" viewBox="0 0 512 512" xmlns="http://www.w3.org/2000/svg"><g><g><path d="m380.397 250.755c0 86.122-69.816 155.938-155.938 155.938s-155.937-69.815-155.937-155.938c0-52.915 26.356-99.675 66.657-127.866 26.258-18.189 57.115-28.127 89.28-28.071 29.608-.061 57.049 8.236 81.361 22.881 44.733 27.412 74.577 76.749 74.577 133.056z" fill="#ffbee4" style="fill: rgb(255, 188, 112);"></path></g><g><path d="m310.156 120.469c16.209 24.593 25.651 54.04 25.651 85.697 0 86.122-69.816 155.938-155.938 155.938-31.657 0-61.104-9.442-85.697-25.651 27.887 42.311 75.821 70.241 130.287 70.241 86.122 0 155.938-69.816 155.938-155.938 0-54.466-27.93-102.4-70.241-130.287z" fill="#eaaadd" style="fill: rgb(200, 125, 40);"></path></g><g><path d="m450.083 12.531-19.08 12.174c-2.813 1.795-1.693 6.139 1.636 6.351l21.732 1.384c2.282.145 4.441 1.089 6.098 2.665 4.53 4.309 3.889 11.709-1.315 15.175l-58.802 39.157c-12.224 8.14-23.611 17.47-33.996 27.855l-82.805 82.805 33.804 33.804 172.21-172.21c12.385-12.385 12.385-32.465 0-44.85-10.519-10.521-26.939-12.313-39.482-4.31z" fill="#efecef"></path></g><g><path d="m489.566 16.841c-1.9-1.9-3.996-3.504-6.223-4.828 4.651 11.456 2.331 25.079-6.961 34.371l-172.956 173.586 13.931 13.931 172.21-172.21c12.384-12.385 12.384-32.465-.001-44.85z" fill="#e2dfe2"></path></g><g><path d="m309.339 266.679 37.107-58.558c1.595-2.518 1.231-5.805-.876-7.913l-28.103-28.103c-2.108-2.108-5.395-2.472-7.913-.876l-58.558 37.107c-22.085 13.995-40.796 32.707-54.791 54.791l-25.606 40.409c-8.398 13.253-18.234 25.538-29.328 36.633l-120.619 120.62c-10.006 10.006-10.006 26.229 0 36.235 10.006 10.006 26.229 10.006 36.235 0l120.619-120.619c11.094-11.094 23.38-20.93 36.633-29.328l40.409-25.606c22.084-13.995 40.796-32.707 54.791-54.792z" fill="#617881"></path></g><g><path d="m345.57 200.209-11.353-11.353c.117 1.353-.186 2.745-.955 3.959l-37.107 58.558c-13.995 22.085-32.707 40.796-54.791 54.791l-40.409 25.606c-13.253 8.398-25.538 18.234-36.633 29.328l-120.619 120.619c-7.945 7.945-19.8 9.557-29.36 4.885 1.197 3.811 3.289 7.402 6.309 10.422 10.006 10.006 26.229 10.006 36.235 0l120.619-120.619c11.094-11.095 23.38-20.93 36.633-29.328l40.409-25.606c22.085-13.995 40.796-32.706 54.791-54.791l37.107-58.558c1.595-2.518 1.231-5.805-.876-7.913z" fill="#475959"></path></g><path d="m494.86 11.547c-13.107-13.108-33.176-15.298-48.803-5.328l-19.08 12.175c-4 2.552-5.892 7.354-4.707 11.948 1.183 4.595 5.161 7.884 9.895 8.185l21.732 1.384c.528.034 1.03.253 1.413.618.686.653.73 1.429.695 1.834s-.211 1.162-.999 1.686l-58.802 39.157c-12.607 8.395-24.429 18.082-35.14 28.793l-51.068 51.068c-1.539.343-3.044.952-4.448 1.841l-58.557 37.107c-.081.052-.161.107-.242.158 16.523-17.788 35.788-32.964 56.967-44.693 3.616-2.003 4.925-6.559 2.921-10.176s-6.56-4.924-10.176-2.922c-30.811 17.065-57.831 40.953-78.76 69.465-3.801-6.091-7.294-12.328-10.482-18.704 24.262-30.862 55.458-56.228 90.446-73.557 3.329 1.892 6.598 3.911 9.793 6.069 3.426 2.316 8.08 1.414 10.394-2.012s1.413-8.079-2.013-10.394c-27.031-18.263-58.63-27.917-91.38-27.917-90.112 0-163.424 73.312-163.424 163.424 0 42.765 16.191 82.761 45.713 113.351l-91.389 91.389c-12.909 12.909-12.909 33.913 0 46.822 6.454 6.454 14.932 9.682 23.411 9.682 8.478 0 16.957-3.228 23.411-9.682l17.768-17.768c2.924-2.924 2.924-7.664 0-10.587-2.923-2.924-7.664-2.923-10.587 0l-17.768 17.768c-7.071 7.071-18.577 7.071-25.648 0-7.071-7.072-7.071-18.577 0-25.648l120.619-120.619c11.465-11.465 21.679-24.223 30.358-37.919l25.606-40.408c13.316-21.013 31.461-39.159 52.475-52.475l57.802-36.629 26.838 26.838-36.628 57.801c-13.315 21.013-31.461 39.159-52.475 52.475l-40.408 25.606c-13.694 8.678-26.452 18.892-37.919 30.358l-80.486 80.486c-2.924 2.923-2.924 7.664 0 10.587 2.923 2.923 7.664 2.923 10.587 0l60.173-60.173c19.665 8.072 40.493 12.168 61.972 12.168 33.371 0 65.466-9.993 92.817-28.899 26.713-18.464 47.15-44.116 59.103-74.182 1.528-3.842-.349-8.195-4.191-9.722-3.846-1.531-8.195.348-9.723 4.191-22.613 56.884-76.783 93.639-138.006 93.639-17.381 0-34.286-2.957-50.39-8.778l8.73-8.73c10.688-10.688 22.581-20.209 35.346-28.298l11.01-6.977c11.029 7.979 22.644 15.3 34.585 21.771 1.134.614 2.355.906 3.56.906 2.658 0 5.234-1.42 6.589-3.921 1.97-3.635.62-8.179-3.015-10.149-9.622-5.214-19.021-11.008-28.05-17.269l15.73-9.968c.623-.394 1.234-.808 1.851-1.21 11.66 7.599 23.943 14.377 36.572 20.149 1.008.461 2.066.679 3.107.679 2.84 0 5.556-1.624 6.814-4.376 1.719-3.761.063-8.202-3.697-9.921-10.182-4.654-20.126-10.001-29.673-15.926 5.404-4.241 10.577-8.786 15.485-13.604 12.264 7.205 25.178 13.369 38.462 18.329.863.322 1.747.475 2.617.475 3.035 0 5.891-1.859 7.015-4.87 1.446-3.873-.521-8.186-4.395-9.632-11.417-4.262-22.542-9.478-33.177-15.517 5.901-6.834 11.31-14.081 16.127-21.683l37.107-58.557c.995-1.57 1.631-3.267 1.943-4.997l8.705-8.705c6.296 16.673 9.494 34.228 9.494 52.329 0 8.85-.784 17.715-2.331 26.348-.729 4.07 1.98 7.96 6.049 8.689.447.08.89.119 1.329.119 3.556 0 6.711-2.545 7.36-6.168 1.702-9.502 2.565-19.255 2.565-28.987 0-22.19-4.355-43.647-12.947-63.848l119.924-119.925c15.283-15.284 15.283-40.153-.001-55.437zm-296.593 235.472c-24.185-33.572-40.268-72.784-46.662-113.962-.555-3.57-1.02-7.185-1.432-10.789 6.022-3.495 12.313-6.575 18.83-9.209.485 5.676 1.147 11.359 2.02 16.983 5.631 36.261 18.814 69.797 39.209 99.8.223.655.535 1.281.936 1.859-4.573 4.873-8.885 9.988-12.901 15.318zm82.646-133.582c-30.64 16.801-58.189 39.501-80.637 66.478-2.775-6.766-5.205-13.679-7.322-20.718 11.99-13.371 25.208-25.713 39.361-36.691 3.267-2.534 3.861-7.237 1.327-10.504s-7.237-3.862-10.504-1.327c-12.279 9.524-23.887 20.026-34.655 31.303-1.025-4.694-1.92-9.437-2.665-14.234-1.014-6.532-1.74-13.146-2.195-19.727 12.978-3.718 26.678-5.713 40.835-5.713 19.571 0 38.678 3.817 56.455 11.133zm-163.577 240.081c-26.693-27.761-41.328-64.011-41.328-102.763 0-48.849 23.721-92.258 60.244-119.327.185 1.31.357 2.626.559 3.926 7.03 45.273 25.148 88.304 52.47 124.718l-10.87 17.153c-20.23-25.615-35.991-54.146-46.878-84.954-1.378-3.899-5.653-5.943-9.553-4.564-3.898 1.377-5.942 5.654-4.564 9.553 3.699 10.469 7.946 20.682 12.701 30.628-10.573 23-18.329 47.231-23.051 72.018-.773 4.061 1.892 7.981 5.953 8.755.474.09.945.134 1.41.134 3.523 0 6.662-2.499 7.346-6.087 3.757-19.719 9.538-39.067 17.209-57.674 3.913 7.025 8.084 13.905 12.538 20.615-7.751 22.103-12.937 45.089-14.718 68.379zm37.059-39.768c1.913-11.127 4.549-22.131 7.88-32.932 2.487 3.301 5.043 6.558 7.668 9.77l-5.667 8.943c-3.089 4.874-6.39 9.618-9.881 14.219zm329.878-257.353-135.964 135.964-23.217-23.217 46.559-46.558c10.012-10.013 21.065-19.069 32.851-26.917l58.802-39.157c4.386-2.921 7.162-7.606 7.616-12.855.455-5.249-1.473-10.342-5.291-13.974-2.925-2.783-6.754-4.456-10.782-4.712l-9.402-.599 8.665-5.528c9.658-6.162 22.061-4.809 30.163 3.292 9.446 9.444 9.446 24.815 0 34.261z" fill="#000000"></path></g></svg>