<!-- icon666.com - MILLIONS vector ICONS FREE --><svg id="Capa_1" enable-background="new 0 0 513.925 513.925" viewBox="0 0 513.925 513.925" xmlns="http://www.w3.org/2000/svg"><path d="m501.704 382.422-5.31-4.057c-9.566-7.305-22.047-8.19-32.243-3.366l-39.722-28.89c.629-1.139 1.243-2.286 1.849-3.439.355-.508.643-1.056.862-1.632 13.449-26.194 21.045-55.867 21.045-87.281 0-34.406-9.117-66.72-25.051-94.665l67.793-49.309c10.318-7.504 17.772-18.436 20.989-30.781l1.527-5.862c.879-3.375.048-6.97-2.224-9.615-2.271-2.647-5.699-4.005-9.165-3.656l-7.307.751c-9.697.996-18.991 4.555-26.877 10.29l-71.45 51.967c-35.011-37.415-84.797-60.841-139.959-60.841-54.95 0-104.567 23.244-139.556 60.407l-70.852-51.533c-7.886-5.735-17.18-9.294-26.877-10.29l-7.305-.751c-3.473-.352-6.896 1.01-9.166 3.656-2.271 2.646-3.103 6.24-2.224 9.616l1.527 5.86c3.217 12.347 10.671 23.278 20.989 30.782l20.752 15.094c3.351 2.437 8.041 1.696 10.477-1.654 2.437-3.35 1.696-8.04-1.654-10.477l-20.752-15.093c-7.46-5.426-12.866-13.311-15.24-22.221l1.063.109c7.067.726 13.84 3.319 19.587 7.499l69.727 50.714c-.215.272-.414.558-.593.863-2.893 3.638-5.658 7.382-8.286 11.227l-19.608-14.261c-3.35-2.438-8.041-1.696-10.477 1.654-2.437 3.35-1.696 8.04 1.654 10.477l20.434 14.862c-16.117 28.062-25.341 60.564-25.341 95.181 0 33.672 8.737 65.338 24.046 92.869l-39.013 28.374c-10.197-4.823-22.677-3.94-32.243 3.367l-5.31 4.056c-13.638 10.416-16.26 29.988-5.843 43.627l12.085 15.823c5.046 6.606 12.364 10.854 20.604 11.957 1.403.188 2.803.28 4.195.28 6.783 0 13.346-2.208 18.828-6.395l5.311-4.056c0-.001 0-.001 0-.001 10.589-8.088 14.532-21.694 10.892-33.758l36.807-26.77c35.077 38.295 85.461 62.349 141.363 62.349 56.114 0 106.674-24.233 141.767-62.782l37.403 27.204c-3.64 12.064.302 25.67 10.892 33.758v.001l5.311 4.055c5.482 4.188 12.045 6.396 18.828 6.396 1.392 0 2.793-.093 4.195-.28 8.24-1.104 15.558-5.351 20.604-11.957l12.085-15.823c10.418-13.64 7.796-33.212-5.843-43.629zm-81.848-61.361c-2.143-4.087-4.364-8.164-6.667-12.227v-136.66c12.764 24.421 19.996 52.172 19.996 81.583 0 23.82-4.748 46.548-13.329 67.304zm56.839-238.02c5.747-4.18 12.521-6.773 19.587-7.499l1.063-.109c-2.374 8.91-7.78 16.795-15.241 22.221l-66.923 48.675c-.931-1.371-1.881-2.727-2.846-4.072-.351-.672-.798-1.286-1.327-1.819-1.538-2.092-3.117-4.151-4.736-6.177zm-78.506 65.265v135.948c-11.389-17.406-24.183-34.42-38.173-50.763v-122.845c14.545 10.554 27.431 23.261 38.173 37.66zm-65.538 55.613c-9.221-9.221-18.748-18.039-28.508-26.434v-93.908c14.454 4.055 28.163 9.906 40.873 17.296v115.849c-4.041-4.326-8.16-8.598-12.365-12.803zm-43.507-123.842v84.998c-12.288-9.777-24.886-18.867-37.683-27.196v-60.768c1.662-.047 3.328-.075 5.001-.075 11.165 0 22.086 1.052 32.682 3.041zm-115.608 17.664c19.158-10.224 40.406-17.018 62.925-19.567v50.337c-20.748-12.396-41.883-22.752-62.925-30.77zm-16.498 9.993c56.919 19.358 115.377 57.163 165.007 106.793 37.525 37.524 68.459 80.197 89.653 123.623-7.028 12.876-15.618 24.781-25.503 35.472-7.473-15.533-16.163-31.063-25.952-46.295-2.24-3.486-6.881-4.491-10.364-2.255-3.485 2.239-4.494 6.88-2.255 10.364 10.444 16.252 19.593 32.836 27.272 49.372-9.634 8.715-20.233 16.38-31.61 22.825-2.675-5.334-5.491-10.655-8.441-15.954-.098-.196-.205-.386-.319-.571-9.411-16.842-20.181-33.465-32.138-49.625-.22-.354-.467-.687-.741-.998-12.461-16.753-26.191-33.001-40.998-48.468-.036-.037-.069-.075-.105-.111-2.586-2.699-5.202-5.376-7.852-8.027-47.499-47.499-101.364-83.695-156.24-105.083 5.28-11.226 11.705-21.81 19.128-31.6 57.409 19.213 116.335 57.16 166.486 107.309 17.345 17.346 33.372 35.866 47.634 55.046 1.472 1.979 3.733 3.024 6.024 3.024 1.556 0 3.125-.482 4.47-1.481 3.324-2.472 4.015-7.17 1.543-10.494-14.697-19.764-31.205-38.841-49.064-56.701-50.173-50.172-109.021-88.563-166.845-109.036 9.297-10.207 19.775-19.319 31.21-27.129zm-46.772 245.2h181.926c8.276 11.34 15.947 22.901 22.944 34.598h-174.027c-11.723-10.123-22.105-21.758-30.843-34.598zm16.021-63.2h-42.862c-2.406-11.589-3.677-23.589-3.684-35.88h116.548c14.055 11.007 27.754 22.992 40.978 35.88h-79.017c-4.142 0-7.5 3.357-7.5 7.5s3.358 7.5 7.5 7.5h93.793c10.141 10.727 19.743 21.826 28.745 33.2h-179.682c-5.698-10.474-10.356-21.589-13.86-33.2h39.041c4.142 0 7.5-3.357 7.5-7.5s-3.358-7.5-7.5-7.5zm-45.913-50.88c1.352-16.113 4.868-31.619 10.269-46.222 29.01 11.269 57.764 26.863 85.411 46.222zm-22.079 192.886-5.31 4.056c-7.067 5.397-17.206 4.039-22.602-3.027l-12.085-15.823c-2.615-3.423-3.739-7.659-3.167-11.928.572-4.27 2.771-8.06 6.194-10.675l5.31-4.055c2.916-2.228 6.354-3.304 9.769-3.304 4.858 0 9.664 2.182 12.833 6.331l12.085 15.822c5.397 7.066 4.039 17.205-3.027 22.603zm12.49-34.927-9.107-11.923 34.932-25.406c2.769 4.172 5.69 8.235 8.768 12.17zm90.391 5.719h162.521c2.158 3.969 4.238 7.948 6.236 11.935-22.386 10.275-47.269 16.014-73.47 16.014-35.064-.001-67.775-10.267-95.287-27.949zm255.463-43.54 35.608 25.898-9.107 11.923-35.235-25.626c3.066-3.945 5.978-8.014 8.734-12.195zm78.987 57.953-12.085 15.823c-5.397 7.066-15.537 8.423-22.602 3.026l-5.31-4.055c-7.066-5.397-8.424-15.537-3.027-22.603l12.085-15.822c5.396-7.066 15.537-8.422 22.602-3.028l5.31 4.056c3.423 2.615 5.623 6.405 6.194 10.675.573 4.269-.552 8.505-3.167 11.928z"></path></svg>