<!-- icon666.com - MILLIONS vector ICONS FREE --><svg version="1.1" id="Capa_1" xmlns="http://www.w3.org/2000/svg" xmlns:xlink="http://www.w3.org/1999/xlink" x="0px" y="0px" viewBox="0 0 511.786 511.786" style="enable-background:new 0 0 511.786 511.786;" xml:space="preserve"><g><g><path d="M148.211,407.707h-0.086c-2.202,0-3.951,1.796-3.951,3.998c0,2.218,1.827,3.999,4.037,3.999 c2.203,0,3.998-1.782,3.998-3.999C152.209,409.503,150.413,407.707,148.211,407.707z"></path></g></g><g><g><path d="M148.211,439.693h-0.086c-2.202,0-3.951,1.796-3.951,3.999c0,2.217,1.827,3.998,4.037,3.998 c2.203,0,3.998-1.781,3.998-3.998C152.209,441.489,150.413,439.693,148.211,439.693z"></path></g></g><g><g><path d="M116.225,439.693h-0.086c-2.202,0-3.952,1.796-3.952,3.999c0,2.217,1.828,3.998,4.038,3.998 c2.202,0,3.998-1.781,3.998-3.998C120.223,441.489,118.427,439.693,116.225,439.693z"></path></g></g><g><g><path d="M116.225,407.707h-0.086c-2.202,0-3.952,1.796-3.952,3.998c0,2.218,1.828,3.999,4.038,3.999 c2.202,0,3.998-1.782,3.998-3.999C120.223,409.503,118.427,407.707,116.225,407.707z"></path></g></g><g><g><path d="M396.076,63.964h-0.086c-2.202,0-3.951,1.788-3.951,3.998c0,2.21,1.827,3.998,4.037,3.998 c2.202,0,3.999-1.788,3.999-3.998C400.075,65.752,398.278,63.964,396.076,63.964z"></path></g></g><g><g><path d="M396.076,95.951h-0.086c-2.202,0-3.951,1.788-3.951,3.998c0,2.21,1.827,3.999,4.037,3.999 c2.202,0,3.999-1.789,3.999-3.999C400.075,97.739,398.278,95.951,396.076,95.951z"></path></g></g><g><g><path d="M364.089,95.951h-0.086c-2.202,0-3.951,1.788-3.951,3.998c0,2.21,1.827,3.999,4.037,3.999 c2.202,0,3.998-1.789,3.998-3.999C368.087,97.739,366.291,95.951,364.089,95.951z"></path></g></g><g><g><path d="M364.089,63.964h-0.086c-2.202,0-3.951,1.788-3.951,3.998c0,2.21,1.827,3.998,4.037,3.998 c2.202,0,3.998-1.788,3.998-3.998C368.087,65.752,366.291,63.964,364.089,63.964z"></path></g></g><g><g><path d="M59.975,251.838c-28.661,0-51.979-23.319-51.979-51.979c0-2.21-1.788-3.998-3.998-3.998c-2.21,0-3.998,1.788-3.998,3.998 c0,33.073,26.903,59.975,59.975,59.975c2.21,0,3.998-1.788,3.998-3.998S62.185,251.838,59.975,251.838z"></path></g></g><g><g><path d="M59.975,139.885C26.902,139.885,0,166.788,0,199.86c0,2.21,1.788,3.999,3.998,3.999c2.21,0,3.999-1.789,3.998-3.999 c0-28.66,23.319-51.978,51.979-51.978c2.21,0,3.998-1.789,3.998-3.999S62.185,139.885,59.975,139.885z"></path></g></g><g><g><path d="M451.794,251.838c-2.21,0-3.998,1.788-3.998,3.998s1.788,3.998,3.998,3.998c28.661,0,51.979,23.315,51.979,51.975 c0,2.218,1.788,3.998,3.998,3.998c2.21,0,3.999-1.78,3.999-3.998C511.77,278.744,484.866,251.838,451.794,251.838z"></path></g></g><g><g><path d="M507.778,307.811c-2.21,0-3.998,1.796-3.998,3.998c0,28.661-23.318,51.979-51.986,51.979c-2.21,0-3.998,1.796-3.998,3.998 c0,2.218,1.788,3.998,3.998,3.998c33.073,0,59.984-26.895,59.983-59.975C511.777,309.607,509.988,307.811,507.778,307.811z"></path></g></g><g><g><path d="M507.787,80.02c-2.21,0-3.998,1.788-3.998,3.998c0,39.687-32.283,71.97-71.97,71.97c-2.21,0-3.998,1.788-3.998,3.998 c0,2.21,1.788,3.999,3.998,3.999c44.091,0,79.967-35.876,79.967-79.967C511.786,81.808,509.997,80.02,507.787,80.02z"></path></g></g><g><g><path d="M431.819,4.059c-2.21,0-3.998,1.789-3.998,3.999c0,2.21,1.788,3.998,3.998,3.998c39.687,0,71.97,32.283,71.97,71.962 c0,2.21,1.788,3.998,3.998,3.998c2.21,0,3.999-1.788,3.999-3.998C511.786,39.927,475.91,4.059,431.819,4.059z"></path></g></g><g><g><path d="M431.819,4.059H267.887c-2.21,0-3.998,1.789-3.998,3.999c0,2.21,1.788,3.998,3.998,3.998h163.932 c2.21,0,3.998-1.788,3.998-3.998C435.817,5.848,434.029,4.059,431.819,4.059z"></path></g></g><g><g><path d="M431.819,155.988H379.84c-2.21,0-3.998,1.788-3.998,3.998c0,2.21,1.788,3.999,3.998,3.999h51.979 c2.21,0,3.998-1.789,3.998-3.999C435.817,157.776,434.029,155.988,431.819,155.988z"></path></g></g><g><g><path d="M407.264,189.934c-9.59-16.158-23.857-31.972-24.466-32.635c-1.483-1.632-4.013-1.75-5.646-0.273 c-1.631,1.476-1.756,4.006-0.272,5.646c0.141,0.156,14.337,15.892,23.513,31.339c3.491,5.879,3.679,12.376,0.453,15.438 c-4.701,4.482-18.398,3.444-42.778-12.807c-19.648-13.096-55.453-39.6-55.812-39.866c-1.774-1.305-4.28-0.938-5.592,0.827 c-1.32,1.774-0.945,4.28,0.828,5.592c0.36,0.274,36.329,26.895,56.141,40.101c18.897,12.596,31.572,16.392,39.99,16.392 c6.452,0,10.403-2.226,12.728-4.437C412.356,209.55,412.731,199.141,407.264,189.934z"></path></g></g><g><g><path d="M299.873,155.988h-31.986c-2.21,0-3.998,1.788-3.998,3.998c0,2.21,1.788,3.999,3.998,3.999h31.986 c2.211,0,3.999-1.789,3.999-3.999C303.872,157.776,302.084,155.988,299.873,155.988z"></path></g></g><g><g><path d="M267.887,4.059c-2.21,0-3.998,1.789-3.998,3.999v151.928c0,2.21,1.788,3.999,3.998,3.999c2.211,0,3.999-1.789,3.999-3.999 V8.058C271.886,5.848,270.098,4.059,267.887,4.059z"></path></g></g><g><g><path d="M251.894,12.056h-15.993c-2.21,0-3.998,1.788-3.998,3.998c0,2.21,1.788,3.999,3.998,3.999h15.993 c2.21,0,3.999-1.789,3.999-3.999C255.893,13.844,254.104,12.056,251.894,12.056z"></path></g></g><g><g><path d="M235.901,12.056c-2.21,0-3.998,1.788-3.998,3.998v127.939c0,2.21,1.788,3.999,3.998,3.999s3.999-1.789,3.999-3.999V16.054 C239.9,13.844,238.111,12.056,235.901,12.056z"></path></g></g><g><g><path d="M251.894,139.995h-15.993c-2.21,0-3.998,1.788-3.998,3.998c0,2.21,1.788,3.999,3.998,3.999h15.993 c2.21,0,3.999-1.789,3.999-3.999C255.893,141.783,254.104,139.995,251.894,139.995z"></path></g></g><g><g><path d="M243.898,28.049h-7.997c-2.21,0-3.998,1.788-3.998,3.998s1.788,3.999,3.998,3.999h7.997c2.21,0,3.998-1.789,3.998-3.999 S246.108,28.049,243.898,28.049z"></path></g></g><g><g><path d="M243.898,52.032h-7.997c-2.21,0-3.998,1.788-3.998,3.998c0,2.21,1.788,3.998,3.998,3.998h7.997 c2.21,0,3.998-1.788,3.998-3.998C247.896,53.82,246.108,52.032,243.898,52.032z"></path></g></g><g><g><path d="M243.898,76.022h-7.997c-2.21,0-3.998,1.788-3.998,3.998c0,2.21,1.788,3.998,3.998,3.998h7.997 c2.21,0,3.998-1.788,3.998-3.998C247.896,77.81,246.108,76.022,243.898,76.022z"></path></g></g><g><g><path d="M243.898,100.011h-7.997c-2.21,0-3.998,1.788-3.998,3.998c0,2.211,1.788,3.999,3.998,3.999h7.997 c2.21,0,3.998-1.788,3.998-3.999C247.896,101.799,246.108,100.011,243.898,100.011z"></path></g></g><g><g><path d="M243.898,124.001h-7.997c-2.21,0-3.998,1.788-3.998,3.998c0,2.21,1.788,3.998,3.998,3.998h7.997 c2.21,0,3.998-1.788,3.998-3.998C247.896,125.789,246.108,124.001,243.898,124.001z"></path></g></g><g><g><path d="M358.685,81.199c-1.561-1.578-4.091-1.562-5.653-0.016l-16.056,15.993c-1.571,1.562-1.571,4.092-0.016,5.654 c0.78,0.789,1.812,1.179,2.835,1.179c1.023,0,2.037-0.389,2.818-1.163l16.056-15.993C360.24,85.292,360.24,82.761,358.685,81.199z "></path></g></g><g><g><path d="M358.669,81.183l-16.056-15.978c-1.561-1.546-4.091-1.561-5.653,0.016c-1.554,1.561-1.554,4.092,0.016,5.654 l16.056,15.978c0.781,0.773,1.796,1.163,2.818,1.163c1.023,0,2.055-0.39,2.835-1.179 C360.239,85.276,360.239,82.745,358.669,81.183z"></path></g></g><g><g><path d="M422.588,97.192l-15.923-15.993c-1.562-1.578-4.092-1.562-5.654-0.016c-1.57,1.562-1.57,4.092-0.016,5.654l15.923,15.993 c0.781,0.789,1.813,1.179,2.835,1.179c1.023,0,2.038-0.389,2.819-1.163C424.142,101.285,424.142,98.754,422.588,97.192z"></path></g></g><g><g><path d="M422.573,65.19c-1.562-1.546-4.092-1.561-5.654,0.016l-15.923,15.993c-1.553,1.562-1.553,4.092,0.016,5.654 c0.781,0.773,1.796,1.163,2.819,1.163s2.053-0.39,2.835-1.179l15.923-15.993C424.142,69.282,424.142,66.752,422.573,65.19z"></path></g></g><g><g><path d="M427.821,80.02h-95.96c-2.21,0-3.999,1.788-3.999,3.998s1.789,3.998,3.999,3.998h95.96c2.209,0,3.998-1.788,3.998-3.998 S430.03,80.02,427.821,80.02z"></path></g></g><g><g><path d="M382.675,57.21l-15.993-16.056c-1.562-1.578-4.092-1.563-5.654-0.016c-1.57,1.561-1.57,4.091-0.016,5.653l15.994,16.056 c0.78,0.789,1.812,1.18,2.834,1.18c1.024,0,2.038-0.391,2.819-1.164C384.229,61.302,384.229,58.772,382.675,57.21z"></path></g></g><g><g><path d="M398.652,41.138c-1.561-1.546-4.092-1.562-5.654,0.016L377.006,57.21c-1.554,1.561-1.554,4.091,0.016,5.653 c0.78,0.773,1.796,1.164,2.818,1.164c1.024,0,2.054-0.391,2.835-1.18l15.993-16.056C400.222,45.23,400.222,42.7,398.652,41.138z"></path></g></g><g><g><path d="M382.675,105.189c-1.561-1.578-4.091-1.562-5.653-0.016l-15.994,15.931c-1.57,1.561-1.57,4.092-0.016,5.654 c0.781,0.788,1.813,1.179,2.835,1.179c1.024,0,2.038-0.391,2.819-1.163l15.993-15.931 C384.229,109.281,384.229,106.751,382.675,105.189z"></path></g></g><g><g><path d="M398.652,121.104l-15.993-15.931c-1.561-1.546-4.091-1.561-5.653,0.016c-1.554,1.561-1.554,4.092,0.016,5.654 l15.992,15.931c0.781,0.772,1.797,1.163,2.819,1.163c1.024,0,2.054-0.391,2.835-1.179 C400.222,125.196,400.222,122.666,398.652,121.104z"></path></g></g><g><g><path d="M379.84,32.04c-2.21,0-3.998,1.789-3.998,3.999v95.959c0,2.21,1.788,3.999,3.998,3.999s3.998-1.79,3.998-3.999V36.039 C383.838,33.829,382.05,32.04,379.84,32.04z"></path></g></g><g><g><path d="M79.998,347.794c-44.091,0-79.966,35.875-79.966,79.966c0,2.219,1.788,3.998,3.998,3.998c2.21,0,3.998-1.779,3.998-3.998 c0-39.686,32.283-71.97,71.97-71.97c2.21,0,3.999-1.78,3.999-3.998C83.997,349.59,82.208,347.794,79.998,347.794z"></path></g></g><g><g><path d="M79.997,499.731c-39.687,0-71.97-32.284-71.97-71.971c0-2.202-1.788-3.998-3.998-3.998s-3.998,1.796-3.998,3.998 c0,44.091,35.875,79.967,79.966,79.967c2.21,0,4-1.78,3.999-3.998C83.996,501.526,82.207,499.731,79.997,499.731z"></path></g></g><g><g><path d="M243.929,499.731H79.997c-2.21,0-3.998,1.795-3.998,3.998c0,2.218,1.788,3.998,3.998,3.998h163.932 c2.21,0,3.998-1.78,3.998-3.998C247.927,501.526,246.139,499.731,243.929,499.731z"></path></g></g><g><g><path d="M131.976,347.794H79.997c-2.21,0-3.998,1.796-3.998,3.998c0,2.218,1.788,3.998,3.998,3.998h51.979 c2.21,0,3.998-1.78,3.998-3.998C135.974,349.59,134.186,347.794,131.976,347.794z"></path></g></g><g><g><path d="M214.327,348.589c-0.36-0.281-36.329-26.894-56.141-40.107c-33.377-22.241-47.356-17.055-52.721-11.948 c-6.005,5.7-6.38,16.102-0.913,25.317c9.59,16.149,23.857,31.971,24.466,32.627c1.484,1.639,4.021,1.764,5.646,0.281 c1.631-1.484,1.756-4.013,0.273-5.654c-0.141-0.156-14.338-15.884-23.514-31.33c-3.491-5.888-3.679-12.385-0.453-15.447 c4.701-4.466,18.406-3.435,42.779,12.808c19.647,13.103,55.453,39.608,55.812,39.874c0.718,0.531,1.554,0.78,2.382,0.78 c1.218,0,2.429-0.561,3.211-1.609C216.474,352.401,216.099,349.901,214.327,348.589z"></path></g></g><g><g><path d="M243.929,347.794h-31.986c-2.21,0-3.999,1.796-3.999,3.998c0,2.218,1.789,3.998,3.999,3.998h31.986 c2.21,0,3.998-1.78,3.998-3.998C247.927,349.59,246.139,347.794,243.929,347.794z"></path></g></g><g><g><path d="M243.929,347.794c-2.21,0-3.998,1.796-3.998,3.998v151.937c0,2.218,1.788,3.998,3.998,3.998s3.998-1.78,3.998-3.998 V351.792C247.927,349.59,246.139,347.794,243.929,347.794z"></path></g></g><g><g><path d="M275.915,491.734h-15.993c-2.21,0-3.998,1.796-3.998,3.998c0,2.218,1.788,3.999,3.998,3.999h15.993 c2.21,0,3.999-1.781,3.998-3.999C279.913,493.53,278.125,491.734,275.915,491.734z"></path></g></g><g><g><path d="M275.915,363.788c-2.21,0-3.998,1.796-3.998,3.998v127.946c0,2.218,1.788,3.999,3.998,3.999 c2.21,0,3.999-1.781,3.998-3.999V367.786C279.913,365.584,278.125,363.788,275.915,363.788z"></path></g></g><g><g><path d="M275.915,363.788h-15.993c-2.21,0-3.998,1.796-3.998,3.998c0,2.218,1.788,3.998,3.998,3.998h15.993 c2.21,0,3.999-1.781,3.998-3.998C279.913,365.584,278.125,363.788,275.915,363.788z"></path></g></g><g><g><path d="M275.915,475.741h-7.997c-2.21,0-3.998,1.796-3.998,3.998c0,2.218,1.788,3.998,3.998,3.998h7.997 c2.21,0,3.999-1.781,3.998-3.998C279.913,477.537,278.125,475.741,275.915,475.741z"></path></g></g><g><g><path d="M275.915,451.751h-7.997c-2.21,0-3.998,1.796-3.998,3.998c0,2.218,1.788,3.998,3.998,3.998h7.997 c2.21,0,3.999-1.781,3.998-3.998C279.913,453.547,278.125,451.751,275.915,451.751z"></path></g></g><g><g><path d="M275.915,427.76h-7.997c-2.21,0-3.998,1.797-3.998,3.998c0,2.219,1.788,3.999,3.998,3.999h7.997 c2.21,0,3.999-1.78,3.998-3.999C279.913,429.557,278.125,427.76,275.915,427.76z"></path></g></g><g><g><path d="M275.915,403.771h-7.997c-2.21,0-3.998,1.796-3.998,3.998c0,2.218,1.788,3.998,3.998,3.998h7.997 c2.21,0,3.999-1.78,3.998-3.998C279.913,405.567,278.125,403.771,275.915,403.771z"></path></g></g><g><g><path d="M275.915,379.781h-7.997c-2.21,0-3.998,1.796-3.998,3.998c0,2.218,1.788,3.999,3.998,3.999h7.997 c2.21,0,3.999-1.781,3.998-3.999C279.913,381.577,278.125,379.781,275.915,379.781z"></path></g></g><g><g><path d="M174.857,408.956c-1.562-1.578-4.092-1.562-5.654-0.016l-16.056,15.994c-1.57,1.561-1.57,4.091-0.016,5.653 c0.781,0.781,1.812,1.171,2.835,1.171s2.038-0.389,2.818-1.155l16.057-15.993C176.411,413.049,176.411,410.518,174.857,408.956z"></path></g></g><g><g><path d="M174.841,440.911l-16.057-15.978c-1.561-1.546-4.091-1.562-5.653,0.016c-1.553,1.561-1.553,4.091,0.016,5.653 l16.056,15.978c0.781,0.781,1.796,1.172,2.819,1.172c1.022,0,2.054-0.39,2.835-1.188 C176.41,445.003,176.41,442.473,174.841,440.911z"></path></g></g><g><g><path d="M110.821,424.95l-15.923-15.994c-1.561-1.578-4.092-1.562-5.654-0.016c-1.57,1.562-1.57,4.092-0.016,5.654l15.923,15.993 c0.781,0.781,1.813,1.171,2.835,1.171c1.023,0,2.038-0.389,2.819-1.155C112.375,429.042,112.375,426.512,110.821,424.95z"></path></g></g><g><g><path d="M110.805,424.934c-1.561-1.546-4.092-1.562-5.654,0.016l-15.923,15.993c-1.553,1.561-1.553,4.091,0.016,5.653 c0.781,0.765,1.797,1.156,2.819,1.156c1.023,0,2.054-0.39,2.835-1.172l15.923-15.993 C112.374,429.026,112.374,426.496,110.805,424.934z"></path></g></g><g><g><path d="M179.956,423.762H83.997c-2.21,0-3.999,1.796-3.999,3.998c0,2.219,1.789,3.998,3.999,3.998h95.958c2.21,0,4-1.779,4-3.998 C183.955,425.558,182.166,423.762,179.956,423.762z"></path></g></g><g><g><path d="M150.804,464.995l-15.993-16.056c-1.562-1.578-4.092-1.562-5.654-0.016c-1.57,1.561-1.57,4.092-0.016,5.654l15.993,16.056 c0.781,0.781,1.813,1.172,2.835,1.172c1.024,0,2.038-0.391,2.819-1.156C152.358,469.087,152.358,466.557,150.804,464.995z"></path></g></g><g><g><path d="M134.795,448.923c-1.562-1.546-4.092-1.561-5.654,0.016l-15.993,16.056c-1.553,1.562-1.553,4.092,0.016,5.654 c0.781,0.765,1.796,1.156,2.819,1.156c1.022,0,2.054-0.391,2.835-1.172l15.993-16.056 C136.364,453.016,136.364,450.485,134.795,448.923z"></path></g></g><g><g><path d="M150.804,385.029c-1.561-1.578-4.092-1.562-5.654-0.016l-15.993,15.931c-1.57,1.561-1.57,4.092-0.016,5.654 c0.781,0.78,1.812,1.171,2.835,1.171s2.038-0.391,2.819-1.155l15.993-15.932C152.358,389.121,152.358,386.591,150.804,385.029z"></path></g></g><g><g><path d="M134.795,400.944l-15.993-15.931c-1.562-1.546-4.092-1.561-5.654,0.016c-1.553,1.561-1.553,4.091,0.016,5.653 l15.993,15.932c0.781,0.764,1.796,1.155,2.819,1.155s2.054-0.391,2.835-1.171C136.364,405.036,136.364,402.506,134.795,400.944z"></path></g></g><g><g><path d="M131.976,375.783c-2.21,0-3.998,1.796-3.998,3.998v95.96c0,2.218,1.788,3.998,3.998,3.998s3.998-1.781,3.998-3.998v-95.96 C135.974,377.579,134.186,375.783,131.976,375.783z"></path></g></g><g><g><path d="M219.908,139.995H59.975c-2.21,0-3.998,1.788-3.998,3.998c0,2.21,1.788,3.999,3.998,3.999h159.933 c2.21,0,3.998-1.789,3.998-3.999C223.906,141.783,222.118,139.995,219.908,139.995z"></path></g></g><g><g><path d="M451.794,251.838H59.975c-2.21,0-3.998,1.788-3.998,3.998s1.788,3.998,3.998,3.998h391.819 c2.21,0,3.999-1.788,3.999-3.998S454.004,251.838,451.794,251.838z"></path></g></g><g><g><path d="M451.795,363.788H291.909c-2.21,0-3.998,1.796-3.998,3.998c0,2.218,1.788,3.998,3.998,3.998h159.885 c2.21,0,3.999-1.781,4-3.998C455.794,365.584,454.005,363.788,451.795,363.788z"></path></g></g></svg>