<!-- icon666.com - MILLIONS vector ICONS FREE --><svg xmlns="http://www.w3.org/2000/svg" id="icons" viewBox="0 0 60 60"><path d="M35.879,49.121a3.08,3.08,0,0,0,4.242,0l10-10a3,3,0,0,0-4.242-4.242L38,42.761a3.07,3.07,0,0,0-4.118.118,3,3,0,0,0,0,4.242Zm-.585-4.828a1.01,1.01,0,0,1,1.413,0l.586.586a1,1,0,0,0,1.414,0l8.586-8.586a1,1,0,0,1,1.414,1.414l-10,10a1.025,1.025,0,0,1-1.414,0l-2-2A1.011,1.011,0,0,1,35.294,44.293Z"></path><path d="M0,30A21.966,21.966,0,0,0,26.726,51.478a17.985,17.985,0,1,0,16.44-27.419,21.917,21.917,0,0,0-6.237-10.241l1.721-2.549A2.011,2.011,0,0,0,38.139,8.5L36.479,7.35a2,2,0,0,0-2.777.531L32,10.4a21.9,21.9,0,0,0-6-2.033V5.816A2.993,2.993,0,0,0,25,0H19a2.993,2.993,0,0,0-1,5.816V8.371a21.822,21.822,0,0,0-5.992,2.039L10.3,7.882a2,2,0,0,0-2.788-.525L5.862,8.5a2.012,2.012,0,0,0-.511,2.773l1.737,2.574A21.94,21.94,0,0,0,0,30ZM58,42A16,16,0,1,1,42,26,16.019,16.019,0,0,1,58,42ZM24.41,45.79A15.623,15.623,0,0,1,22,46,16,16,0,1,1,37.075,24.7,17.948,17.948,0,0,0,24.41,45.79ZM35.352,9l1.639,1.148-1.6,2.379c-.53-.4-1.08-.782-1.645-1.138ZM19,2h6a1,1,0,0,1,0,2H19a1,1,0,0,1,0-2Zm5,4V8.094C23.34,8.035,22.674,8,22,8s-1.341.035-2,.1V6ZM7,10.143,8.642,9l1.625,2.4q-.848.535-1.641,1.145ZM22,10A19.93,19.93,0,0,1,41.082,24.047a17.912,17.912,0,0,0-2.048.219A17.988,17.988,0,1,0,22,48a17.72,17.72,0,0,0,2.949-.275,17.946,17.946,0,0,0,.782,1.925A20,20,0,1,1,22,10Z"></path><path d="M23,27.184V20a1,1,0,0,0-2,0v7.184A3,3,0,0,0,19,30a2.951,2.951,0,0,0,.3,1.285l-3.008,3.008a1,1,0,1,0,1.414,1.414L20.715,32.7A2.951,2.951,0,0,0,22,33a2.993,2.993,0,0,0,1-5.816ZM22,31a.994.994,0,0,1-.7-.285L21.3,30.7l-.012-.008A1,1,0,1,1,22,31Z"></path></svg>