<!-- icon666.com - MILLIONS vector ICONS FREE --><svg id="Layer_1" enable-background="new 0 0 124 124" viewBox="0 0 124 124" xmlns="http://www.w3.org/2000/svg"><path d="m60.512 93.151c-1.105 0-2.001-.896-2.001-2v-27.652c0-1.104.896-2 2.001-2s2.001.896 2.001 2v27.652c0 1.104-.896 2-2.001 2z"></path><path d="m38.308 93.151c-1.105 0-2.001-.896-2.001-2v-27.652c0-1.104.896-2 2.001-2s2.001.896 2.001 2v27.652c0 1.104-.896 2-2.001 2z"></path><path d="m60.512 35.799c-1.66 0-3.01-1.355-3.01-3.021s1.35-3.021 3.01-3.021 3.01 1.355 3.01 3.021-1.35 3.021-3.01 3.021z"></path><path d="m107.024 72.449 3.267-19.002c5.995-.468 10.734-5.484 10.734-11.596v-.413c0-6.419-5.224-11.642-11.645-11.642h-36.135v-17.067c0-7.019-5.711-12.729-12.733-12.729s-12.733 5.71-12.733 12.729v17.067h-36.134c-6.421 0-11.645 5.223-11.645 11.642v.413c0 6.112 4.739 11.129 10.735 11.596l8.604 50.05c.164.959.997 1.661 1.971 1.661h51.175c3.305 10.896 13.342 18.842 25.18 18.842 14.521 0 26.335-11.954 26.335-26.648 0-11.359-7.063-21.076-16.976-24.903zm-55.244-59.72c0-4.813 3.918-8.729 8.732-8.729s8.732 3.916 8.732 8.729v28.138h-17.464zm-47.779 29.122v-.413c0-4.214 3.429-7.642 7.644-7.642h36.135v9.071c0 1.104.896 2 2.001 2h21.465c1.105 0 2.001-.896 2.001-2v-9.071h36.135c4.215 0 7.644 3.428 7.644 7.642v.413c0 4.214-3.429 7.642-7.644 7.642h-97.737c-4.215 0-7.644-3.429-7.644-7.642zm67.601 59.306h-48.607l-8.194-47.665h91.422l-3.06 17.8c-1.774-.383-3.613-.589-5.499-.589-4.705 0-9.121 1.261-12.948 3.457v-10.661c0-1.104-.896-2-2.001-2s-2.001.896-2.001 2v13.479c-5.734 4.892-9.386 12.208-9.386 20.374.002 1.292.098 2.562.274 3.805zm26.063 18.843c-12.315 0-22.334-10.16-22.334-22.648s10.019-22.648 22.334-22.648 22.334 10.16 22.334 22.648-10.019 22.648-22.334 22.648z"></path><path d="m111.761 95.352h-12.096v-12.097c0-1.104-.896-2-2.001-2s-2.001.896-2.001 2v12.097h-12.095c-1.105 0-2.001.896-2.001 2s.896 2 2.001 2h12.096v12.097c0 1.104.896 2 2.001 2s2.001-.896 2.001-2v-12.097h12.096c1.105 0 2.001-.896 2.001-2s-.897-2-2.002-2z"></path></svg>