<!-- icon666.com - MILLIONS vector ICONS FREE --><svg id="Capa_1" enable-background="new 0 0 383.378 383.378" viewBox="0 0 383.378 383.378" xmlns="http://www.w3.org/2000/svg"><g><path d="m382.414 328.936-48.851-195.403c-2.326-11.631-13.957-20.936-25.589-20.936h-13.957v-48.851c0-25.589-20.936-46.525-46.525-46.525h-111.658c-25.589 0-46.525 20.936-46.525 46.525v51.177h-13.957c-11.631 0-23.262 9.305-25.589 20.936l-48.85 195.404c-2.326 9.305 0 16.284 4.652 23.262 4.652 6.979 13.957 11.631 20.936 11.631h332.651c9.305 0 16.284-4.652 20.936-11.631 2.326-9.305 4.652-16.284 2.326-25.589zm-272.169-100.027c0 6.979-4.652 11.631-11.631 11.631s-11.631-4.652-11.631-11.631v-60.482c0-6.979 4.652-11.631 11.631-11.631s11.631 4.652 11.631 11.631zm0-165.163c0-13.957 11.631-23.262 23.262-23.262h111.659c13.957 0 23.262 11.631 23.262 23.262v51.177h-160.51v-51.177zm181.446 165.163c0 6.979-4.652 11.631-11.631 11.631s-11.631-4.652-11.631-11.631v-60.482c0-6.979 4.652-11.631 11.631-11.631s11.631 4.652 11.631 11.631z" fill="rgb(0,0,0)" style="fill: rgb(255, 255, 255);"></path></g><g></g><g></g><g></g><g></g><g></g><g></g><g></g><g></g><g></g><g></g><g></g><g></g><g></g><g></g><g></g></svg>