<!-- icon666.com - MILLIONS vector ICONS FREE --><svg id="Layer_1" viewBox="0 0 24 24" xmlns="http://www.w3.org/2000/svg" data-name="Layer 1"><g><path d="m20.5 8h-6v-4.5a2.5 2.5 0 0 0 -5 0v4.5h-6a2.491 2.491 0 0 0 -.75 4.87l1.67 8.89a1.561 1.561 0 0 0 1.55 1.24h12.01a1.562 1.562 0 0 0 1.55-1.23l1.71-8.9a2.576 2.576 0 0 0 1.76-2.37 2.631 2.631 0 0 0 -2.5-2.5zm-10-4.5a1.5 1.5 0 0 1 3 0v5a1.5 1.5 0 0 1 -3 0zm8.05 18.08a.568.568 0 0 1 -.57.42h-12.01a.566.566 0 0 1 -.57-.43l-1.61-8.57h16.41zm1.95-9.58h-17a1.5 1.5 0 0 1 0-3h6.05a2.5 2.5 0 0 0 4.9 0h6.05a1.5 1.5 0 0 1 0 3z" fill="#000000" style="fill: rgb(255, 255, 255);"></path><path d="m14.5 14a1.511 1.511 0 0 0 -1.5 1.5v3a1.5 1.5 0 0 0 3 0v-3a1.511 1.511 0 0 0 -1.5-1.5zm.5 4.5a.5.5 0 0 1 -1 0v-3a.5.5 0 0 1 1 0z" fill="#000000" style="fill: rgb(255, 255, 255);"></path><path d="m9.5 14a1.511 1.511 0 0 0 -1.5 1.5v3a1.5 1.5 0 0 0 3 0v-3a1.511 1.511 0 0 0 -1.5-1.5zm.5 4.5a.5.5 0 0 1 -1 0v-3a.5.5 0 0 1 1 0z" fill="#000000" style="fill: rgb(255, 255, 255);"></path><circle cx="12" cy="8.5" r=".5" fill="#000000" style="fill: rgb(255, 255, 255);"></circle></g></svg>