<!-- icon666.com - MILLIONS vector ICONS FREE --><svg id="Capa_1" enable-background="new 0 0 96.155 96.155" viewBox="0 0 96.155 96.155" xmlns="http://www.w3.org/2000/svg"><g><path d="m95.196 44.118c0-.06-.058-.216-.116-.365l-45.17.014.04 16.763c.135.01.269.021.4.028l18.554.033s.23 1.543-.021 2.979c-.966 5.936-4.22 10.184-9.674 12.627-3.059 1.373-6.479 2.098-9.891 2.098-7.13 0-13.526-3.002-18.011-8.453-2.022-2.457-3.578-5.115-4.625-7.899-3.568-9.496-3.322-19.027.73-28.329 1.388-3.184 3.439-6.104 6.098-8.681 3.926-3.804 9.504-5.985 15.305-5.985 7.942 0 14.721 3.965 18.6 10.879.237.424.459.858.68 1.292.206.405.41.811.634 1.207.141.251.309.499.515.797l20.076-8.363c.185-.077.453-.155.681-.328-.058-.201-.181-.441-.249-.579-5.51-11.161-14.023-18.476-25.306-21.744-4.832-1.4-9.791-2.109-14.738-2.109-5.265 0-10.646.802-15.994 2.387-14.763 4.373-24.778 13.876-29.764 28.246-3.429 9.881-3.927 20.1-1.48 30.372 3.654 15.339 12.781 25.97 27.131 31.595 8.407 3.297 17.471 4.311 26.872 3.002 17.771-2.472 29.82-12.303 35.815-29.226 2.751-7.772 3-15.978 2.908-22.258z"></path></g><g></g><g></g><g></g><g></g><g></g><g></g><g></g><g></g><g></g><g></g><g></g><g></g><g></g><g></g><g></g></svg>