<!-- icon666.com - MILLIONS vector ICONS FREE --><svg viewBox="0 0 512 512" xmlns="http://www.w3.org/2000/svg"><path d="m470.253906 171.320312c-4.941406-51.472656-42.011718-94.132812-92.292968-106.203124l-55.917969-13.429688v-41.6875h-132v41.664062l-.089844.023438-55.921875 13.429688c-50.277344 12.070312-87.347656 54.730468-92.289062 106.203124l-31.742188 330.679688h58.75l43.25-217.53125v217.523438h287.996094v-217.523438l43.25 217.53125h58.746094zm0 0" fill="#ffc66c"></path><path d="m399.996094 252.0625-28.800782-28.800781-28.800781 28.800781-28.796875-28.800781-28.800781 28.800781-28.800781-28.800781-28.796875 28.800781-28.800781-28.800781-28.800782 28.800781-28.800781-28.800781-28.796875 28.800781v99.160156l28.796875-28.800781 28.800781 28.800781 28.800782-28.800781 28.800781 28.800781 28.796875-28.800781 28.800781 28.800781 28.800781-28.800781 28.796875 28.800781 28.800781-28.800781 28.800782 28.800781zm0 0" fill="#36d28f"></path><path d="m322.042969 51.6875v-41.6875h-132v41.664062l-1.679688.441407.484375 2.9375 46.542969 33.011719c12.34375 8.75 28.871094 8.75 41.210937 0l46.542969-33.011719v-3.066407zm0 0" fill="#36d28f"></path><path d="m399.996094 149.320312c-2.628906 0-5.210938 1.070313-7.070313 2.929688s-2.929687 4.441406-2.929687 7.070312c0 2.640626 1.066406 5.210938 2.929687 7.070313 1.859375 1.859375 4.441407 2.929687 7.070313 2.929687s5.210937-1.070312 7.066406-2.929687c1.863281-1.859375 2.933594-4.441406 2.933594-7.070313 0-2.628906-1.070313-5.210937-2.933594-7.070312-1.855469-1.859375-4.4375-2.929688-7.066406-2.929688zm0 0"></path><path d="m511.949219 501.046875-31.742188-330.679687c-5.347656-55.703126-45.5-101.910157-99.910156-114.976563l-48.253906-11.585937v-33.804688c0-5.523438-4.480469-10-10-10h-132c-5.523438 0-10 4.476562-10 10v33.78125l-48.34375 11.609375c-54.414063 13.066406-94.566407 59.269531-99.910157 114.976563l-31.742187 330.679687c-.269531 2.804687.65625 5.59375 2.550781 7.679687 1.898438 2.085938 4.585938 3.273438 7.402344 3.273438h58.75c4.769531 0 8.878906-3.371094 9.808594-8.050781l23.441406-117.90625v115.949219c0 5.523437 4.476562 10 10 10h287.996094c5.519531 0 10-4.476563 10-10v-115.949219l23.441406 117.90625c.929688 4.679687 5.035156 8.050781 9.808594 8.050781h58.746094c2.820312 0 5.507812-1.1875 7.402343-3.273438 1.894531-2.085937 2.824219-4.878906 2.554688-7.679687zm-199.90625-481.046875v30.660156l-41.226563 29.234375c-8.867187 6.289063-20.777344 6.289063-29.640625 0l-41.132812-29.171875v-30.722656zm77.953125 307.078125-11.730469-11.726563c-3.90625-3.90625-10.234375-3.90625-14.140625 0l-21.730469 21.726563-21.726562-21.726563c-3.90625-3.90625-10.238281-3.90625-14.144531 0l-21.730469 21.726563-21.726563-21.726563c-3.90625-3.90625-10.238281-3.90625-14.144531 0l-21.726563 21.726563-21.730468-21.726563c-3.902344-3.902343-10.234375-3.90625-14.140625 0l-21.730469 21.726563-21.726562-21.726563c-3.90625-3.90625-10.238282-3.90625-14.144532 0l-11.730468 11.726563v-70.875l18.800781-18.800781 21.730469 21.730468c3.90625 3.902344 10.234374 3.90625 14.140624 0l21.730469-21.730468 21.726563 21.730468c3.90625 3.902344 10.238281 3.902344 14.144531 0l21.726563-21.730468 21.730468 21.730468c3.90625 3.902344 10.234375 3.902344 14.144532 0l21.726562-21.730468 21.730469 21.730468c3.90625 3.902344 10.234375 3.902344 14.140625 0l21.730468-21.730468 18.800782 18.800781zm-267.996094 164.917969v-136.632813l18.796875-18.800781 21.730469 21.730469c3.90625 3.902343 10.234375 3.90625 14.144531 0l21.726563-21.730469 21.730468 21.730469c3.90625 3.902343 10.234375 3.902343 14.140625 0l21.730469-21.730469 21.726562 21.730469c3.90625 3.902343 10.238282 3.902343 14.144532 0l21.726562-21.730469 21.730469 21.730469c3.90625 3.902343 10.234375 3.902343 14.144531 0l21.726563-21.730469 18.800781 18.800781v136.632813zm329.453125.003906-41.457031-208.511719v-84.167969c0-5.519531-4.480469-10-10-10-5.523438 0-10 4.480469-10 10v28.597657l-11.730469-11.726563c-3.90625-3.90625-10.234375-3.90625-14.140625 0l-21.730469 21.726563-21.726562-21.726563c-3.90625-3.90625-10.238281-3.90625-14.144531 0l-21.730469 21.726563-21.726563-21.726563c-3.90625-3.90625-10.238281-3.90625-14.144531 0l-21.726563 21.726563-21.730468-21.726563c-3.902344-3.90625-10.234375-3.90625-14.140625 0l-21.730469 21.726563-21.726562-21.726563c-3.90625-3.90625-10.238282-3.90625-14.144532 0l-11.730468 11.726563v-28.597657c0-5.519531-4.476563-10-10-10-5.519532 0-10 4.480469-10 10v84.167969l-41.449219 208.511719h-39.539063l30.691406-319.722656c4.53125-47.207032 38.558594-86.367188 84.671876-97.4375l47.144531-11.320313 46.09375 32.691407c7.894531 5.597656 17.144531 8.394531 26.390625 8.394531 9.25 0 18.5-2.796875 26.390625-8.394531l46.097656-32.691407 47.140625 11.320313c46.113281 11.070312 80.144531 50.230468 84.671875 97.4375l30.691406 319.722656zm0 0"></path><path d="m199.996094 451.988281c-2.628906 0-5.207032 1.070313-7.066406 2.929688-1.863282 1.859375-2.933594 4.4375-2.933594 7.070312 0 2.628907 1.070312 5.210938 2.933594 7.066407 1.859374 1.863281 4.4375 2.933593 7.066406 2.933593 2.632812 0 5.210937-1.070312 7.070312-2.933593 1.859375-1.855469 2.929688-4.4375 2.929688-7.066407 0-2.632812-1.070313-5.210937-2.929688-7.070312s-4.4375-2.929688-7.070312-2.929688zm0 0"></path><path d="m144 451.988281c-2.632812 0-5.210938 1.070313-7.070312 2.929688-1.859376 1.859375-2.929688 4.4375-2.929688 7.070312 0 2.628907 1.066406 5.210938 2.929688 7.066407 1.859374 1.863281 4.4375 2.933593 7.070312 2.933593 2.628906 0 5.207031-1.070312 7.066406-2.933593 1.859375-1.855469 2.933594-4.4375 2.933594-7.066407 0-2.632812-1.070312-5.210937-2.933594-7.070312-1.859375-1.859375-4.4375-2.929688-7.066406-2.929688zm0 0"></path><path d="m171.996094 415.988281c-2.628906 0-5.207032 1.070313-7.066406 2.929688-1.863282 1.859375-2.929688 4.4375-2.929688 7.070312 0 2.628907 1.066406 5.210938 2.929688 7.070313 1.859374 1.859375 4.4375 2.929687 7.066406 2.929687 2.632812 0 5.210937-1.070312 7.070312-2.929687s2.929688-4.441406 2.929688-7.070313c0-2.632812-1.066406-5.210937-2.929688-7.070312-1.859375-1.859375-4.4375-2.929688-7.070312-2.929688zm0 0"></path><path d="m311.996094 451.988281c-2.628906 0-5.210938 1.070313-7.070313 2.929688s-2.929687 4.429687-2.929687 7.070312c0 2.628907 1.070312 5.210938 2.929687 7.066407 1.859375 1.863281 4.441407 2.933593 7.070313 2.933593s5.210937-1.070312 7.070312-2.933593c1.859375-1.855469 2.929688-4.4375 2.929688-7.066407 0-2.632812-1.070313-5.210937-2.929688-7.070312s-4.441406-2.929688-7.070312-2.929688zm0 0"></path><path d="m255.996094 451.988281c-2.628906 0-5.210938 1.070313-7.070313 2.929688s-2.929687 4.4375-2.929687 7.070312c0 2.628907 1.070312 5.210938 2.929687 7.066407 1.859375 1.863281 4.441407 2.933593 7.070313 2.933593 2.632812 0 5.210937-1.070312 7.070312-2.933593 1.859375-1.855469 2.929688-4.4375 2.929688-7.066407 0-2.632812-1.070313-5.210937-2.929688-7.070312s-4.4375-2.929688-7.070312-2.929688zm0 0"></path><path d="m283.996094 415.988281c-2.628906 0-5.210938 1.070313-7.070313 2.929688s-2.929687 4.4375-2.929687 7.070312c0 2.628907 1.070312 5.210938 2.929687 7.070313s4.441407 2.929687 7.070313 2.929687 5.210937-1.070312 7.070312-2.929687 2.929688-4.441406 2.929688-7.070313c0-2.632812-1.070313-5.210937-2.929688-7.070312s-4.441406-2.929688-7.070312-2.929688zm0 0"></path><path d="m227.996094 415.988281c-2.628906 0-5.207032 1.070313-7.070313 2.929688-1.859375 1.859375-2.929687 4.4375-2.929687 7.070312 0 2.628907 1.070312 5.210938 2.929687 7.070313 1.863281 1.859375 4.441407 2.929687 7.070313 2.929687 2.632812 0 5.210937-1.070312 7.070312-2.929687s2.929688-4.441406 2.929688-7.070313c0-2.632812-1.070313-5.210937-2.929688-7.070312s-4.4375-2.929688-7.070312-2.929688zm0 0"></path><path d="m367.996094 451.988281c-2.628906 0-5.210938 1.070313-7.070313 2.929688s-2.929687 4.429687-2.929687 7.070312c0 2.628907 1.070312 5.210938 2.929687 7.066407 1.859375 1.863281 4.441407 2.933593 7.070313 2.933593s5.210937-1.070312 7.070312-2.933593c1.859375-1.855469 2.929688-4.4375 2.929688-7.066407 0-2.640625-1.070313-5.210937-2.929688-7.070312s-4.441406-2.929688-7.070312-2.929688zm0 0"></path><path d="m339.996094 415.988281c-2.628906 0-5.210938 1.070313-7.070313 2.929688s-2.929687 4.4375-2.929687 7.070312c0 2.628907 1.070312 5.210938 2.929687 7.070313s4.441407 2.929687 7.070313 2.929687 5.210937-1.070312 7.070312-2.929687 2.929688-4.441406 2.929688-7.070313c0-2.632812-1.070313-5.210937-2.929688-7.070312s-4.441406-2.929688-7.070312-2.929688zm0 0"></path><path d="m171.996094 282.25c-2.628906 0-5.207032 1.070312-7.066406 2.929688-1.863282 1.859374-2.929688 4.441406-2.929688 7.070312s1.066406 5.210938 2.929688 7.070312c1.859374 1.859376 4.4375 2.929688 7.066406 2.929688 2.632812 0 5.210937-1.070312 7.070312-2.929688 1.859375-1.859374 2.929688-4.441406 2.929688-7.070312s-1.066406-5.210938-2.929688-7.070312c-1.859375-1.859376-4.4375-2.929688-7.070312-2.929688zm0 0"></path><path d="m227.996094 282.25c-2.628906 0-5.207032 1.070312-7.070313 2.929688-1.859375 1.859374-2.929687 4.441406-2.929687 7.070312s1.070312 5.210938 2.929687 7.070312c1.863281 1.867188 4.441407 2.929688 7.070313 2.929688 2.632812 0 5.210937-1.0625 7.070312-2.929688 1.859375-1.859374 2.929688-4.441406 2.929688-7.070312s-1.070313-5.210938-2.929688-7.070312c-1.859375-1.859376-4.4375-2.929688-7.070312-2.929688zm0 0"></path><path d="m283.996094 282.25c-2.628906 0-5.210938 1.070312-7.070313 2.929688-1.859375 1.859374-2.929687 4.441406-2.929687 7.070312s1.070312 5.210938 2.929687 7.070312c1.859375 1.867188 4.441407 2.929688 7.070313 2.929688s5.210937-1.070312 7.070312-2.929688c1.859375-1.859374 2.929688-4.441406 2.929688-7.070312s-1.070313-5.210938-2.929688-7.070312c-1.859375-1.859376-4.429687-2.929688-7.070312-2.929688zm0 0"></path><path d="m339.996094 282.25c-2.628906 0-5.210938 1.070312-7.070313 2.929688-1.859375 1.859374-2.929687 4.441406-2.929687 7.070312s1.070312 5.210938 2.929687 7.070312c1.859375 1.867188 4.441407 2.929688 7.070313 2.929688s5.210937-1.0625 7.070312-2.929688c1.859375-1.859374 2.929688-4.441406 2.929688-7.070312s-1.070313-5.210938-2.929688-7.070312c-1.859375-1.859376-4.441406-2.929688-7.070312-2.929688zm0 0"></path></svg>