<!-- icon666.com - MILLIONS vector ICONS FREE --><svg id="_x33_0_Running_wheel" enable-background="new 0 0 64 64" viewBox="0 0 64 64" xmlns="http://www.w3.org/2000/svg"><path d="m40.012 40.331h13.83v2h-13.83z" transform="matrix(.426 -.905 .905 .426 -10.463 66.166)"></path><path d="m43.586 34.128h3.951v2.001h-3.951z" transform="matrix(.427 -.904 .904 .427 -5.646 61.35)"></path><path d="m39.934 40.83h4.94v2h-4.94z" transform="matrix(.426 -.905 .905 .426 -13.51 62.361)"></path><path d="m45.458 42.065h9.879v2h-9.879z" transform="matrix(.426 -.905 .905 .426 -10.028 70.328)"></path><path d="m54.136 30.581c-.136-.068-.279-.1-.42-.1-.358 0-.702.206-.868.56-.233.494-.033 1.088.447 1.327.136.068.279.1.42.1.358 0 .702-.206.868-.56.232-.494.032-1.088-.447-1.327z"></path><path d="m49.823 30.633c.136.068.279.1.42.1.358 0 .702-.206.868-.56.233-.494.033-1.088-.447-1.327-.136-.068-.279-.1-.42-.1-.358 0-.702.206-.868.56-.232.493-.032 1.088.447 1.327z"></path><path d="m58.132 31.678c-.136-2.223-.561-4.198-1.402-5.596.544-.296.984-.751 1.257-1.33v-.001c.693-1.473.087-3.256-1.351-3.975-.7-.351-1.493-.403-2.231-.146-.751.26-1.354.805-1.699 1.534-.277.589-.339 1.225-.23 1.825-.48.055-.975.15-1.503.333-1.136.393-2.354 1.094-3.588 1.978-1.101-.949-2.475-1.471-3.928-1.478-1.613-.007-3.106.616-4.235 1.753-2.22 2.236-2.3 5.829-.301 8.255-1.277 1.68-2.287 3.248-2.838 4.419-2.408 5.111-.572 11.227 4.071 14.111l-.026.056c-1.137 2.414-3.121 4.214-5.585 5.067-2.394.829-4.965.659-7.238-.477-4.302-2.15-6.1-7.513-4.008-11.953l15.579-33.064c1.622-3.444.215-7.609-3.137-9.284-1.615-.808-3.443-.929-5.145-.338-1.741.603-3.14 1.869-3.939 3.566l-4.195 8.904-1.483-.741-4.881 5.148-14.807 31.424c-.693 1.473-.087 3.256 1.351 3.975l3.471 1.735c.407.203.845.306 1.286.306.317 0 .636-.053.945-.16.751-.26 1.354-.805 1.698-1.534l14.737-31.277.968-7.232-1.496-.748 4.215-8.947c.568-1.205 1.557-2.104 2.784-2.528 1.189-.411 2.466-.328 3.596.237 2.388 1.193 3.385 4.174 2.222 6.644l-15.579 33.063c-2.551 5.414-.343 11.961 4.923 14.594 1.605.803 3.333 1.207 5.07 1.207 1.248 0 2.501-.209 3.717-.63 2.978-1.031 5.372-3.199 6.741-6.105l.01-.02c1.198.461 2.449.703 3.709.703 1.145 0 2.295-.192 3.41-.579 2.73-.945 4.924-2.933 6.18-5.597.534-1.134 1.11-2.904 1.609-4.984.064.002.129.012.194.012 1.333 0 2.616-.445 3.675-1.286 1.275-1.014 2.072-2.476 2.243-4.117.329-3.167-1.807-6.07-4.836-6.722zm-36.724-14.13 2.173 1.086-.524 4.127-4.473-2.236zm-4.841 6.385.831-1.764 5.152 2.575-.831 1.764zm4.299 4.385-.831 1.764-5.152-2.575.832-1.765zm-12.636 26.819c-.112.238-.305.414-.543.497-.226.077-.468.062-.683-.045l-3.471-1.735c-.475-.237-.67-.835-.435-1.334l9.248-19.627 3.422 1.71.895-1.789-3.464-1.731.831-1.764 5.152 2.575zm46.287-32.119c.112-.238.305-.415.543-.498.094-.032.19-.049.287-.049.135 0 .27.032.396.095.475.237.67.835.435 1.334-.112.237-.305.414-.543.496-.227.079-.469.062-.682-.045-.475-.238-.671-.836-.436-1.333zm-13.875 4.965c.744-.749 1.733-1.161 2.788-1.161h.018c.835.004 1.631.266 2.309.743-1.974 1.652-3.919 3.674-5.569 5.662-1.086-1.626-.941-3.838.454-5.244zm12.793 19.94c-1.023 2.172-2.808 3.791-5.025 4.559-2.154.747-4.466.594-6.51-.428-4.302-2.15-6.1-7.513-4.008-11.953 1.76-3.735 8.771-12.169 13.736-13.889.542-.188 1.028-.282 1.456-.282.369 0 .694.07.973.21 3.722 1.86 1.889 16.453-.622 21.783zm7.542-9.731c-.115 1.103-.647 2.082-1.498 2.758-.636.506-1.393.791-2.189.841.503-2.554.858-5.385.891-8.029 1.794.619 3.003 2.449 2.796 4.43z"></path></svg>